G04 #@! TF.GenerationSoftware,KiCad,Pcbnew,(2017-08-25 revision dd37d0595)-makepkg*
G04 #@! TF.CreationDate,2018-04-16T21:33:22-04:00*
G04 #@! TF.ProjectId,VESC_6.4,564553435F362E342E6B696361645F70,rev?*
G04 #@! TF.SameCoordinates,Original*
G04 #@! TF.FileFunction,Soldermask,Top*
G04 #@! TF.FilePolarity,Negative*
%FSLAX46Y46*%
G04 Gerber Fmt 4.6, Leading zero omitted, Abs format (unit mm)*
G04 Created by KiCad (PCBNEW (2017-08-25 revision dd37d0595)-makepkg) date 04/16/18 21:33:22*
%MOMM*%
%LPD*%
G01*
G04 APERTURE LIST*
%ADD10O,1.600000X2.300000*%
%ADD11C,1.850000*%
%ADD12C,3.600000*%
%ADD13C,1.800000*%
%ADD14R,1.950000X0.700000*%
%ADD15R,4.010000X6.750000*%
%ADD16R,2.900000X2.200000*%
%ADD17R,1.600000X1.300000*%
%ADD18R,6.900000X6.900000*%
%ADD19O,2.100000X1.600000*%
%ADD20R,2.100000X1.600000*%
%ADD21R,1.200000X1.150000*%
%ADD22R,1.150000X1.200000*%
%ADD23R,2.900000X1.400000*%
%ADD24C,1.150000*%
%ADD25C,0.100000*%
%ADD26O,1.600000X2.100000*%
%ADD27R,1.600000X2.100000*%
%ADD28R,3.250000X7.000000*%
%ADD29C,0.900000*%
%ADD30R,1.500000X2.100000*%
%ADD31R,1.500000X1.250000*%
%ADD32R,1.100000X1.700000*%
%ADD33R,2.100000X1.500000*%
%ADD34R,1.250000X1.500000*%
%ADD35R,1.700000X1.100000*%
%ADD36R,1.300000X0.900000*%
%ADD37R,0.900000X1.300000*%
%ADD38R,1.400000X0.650000*%
%ADD39R,0.650000X1.400000*%
%ADD40O,0.800000X1.050000*%
%ADD41R,0.800000X0.700000*%
%ADD42R,1.400000X1.050000*%
%ADD43R,2.800000X2.050000*%
%ADD44C,1.650000*%
%ADD45C,0.700000*%
%ADD46R,1.275000X1.200000*%
%ADD47R,0.600000X0.950000*%
%ADD48R,0.950000X0.600000*%
G04 APERTURE END LIST*
D10*
X129372480Y-123182900D03*
X136372480Y-123182900D03*
D11*
X130372480Y-120482900D03*
X135372480Y-120482900D03*
D12*
X160957400Y-67104900D03*
X172457400Y-67104900D03*
D13*
X174957400Y-92504900D03*
X179957400Y-92504900D03*
X158457400Y-92504900D03*
X153457400Y-92504900D03*
D14*
X142548300Y-78124100D03*
X135048300Y-78124100D03*
X142548300Y-78624100D03*
X135048300Y-78624100D03*
X142548300Y-79124100D03*
X135048300Y-79124100D03*
X142548300Y-79624100D03*
X135048300Y-79624100D03*
X142548300Y-80124100D03*
X135048300Y-80124100D03*
X142548300Y-80624100D03*
X135048300Y-80624100D03*
X142548300Y-81124100D03*
X135048300Y-81124100D03*
X142548300Y-81624100D03*
X135048300Y-81624100D03*
X142548300Y-82124100D03*
X135048300Y-82124100D03*
X142548300Y-82624100D03*
X135048300Y-82624100D03*
X142548300Y-83124100D03*
X135048300Y-83124100D03*
X142548300Y-83624100D03*
X135048300Y-83624100D03*
X142548300Y-84124100D03*
X135048300Y-84124100D03*
X142548300Y-84624100D03*
X135048300Y-84624100D03*
X142548300Y-85124100D03*
X135048300Y-85124100D03*
X142548300Y-85624100D03*
X135048300Y-85624100D03*
X142548300Y-86124100D03*
X135048300Y-86124100D03*
X142548300Y-86624100D03*
X135048300Y-86624100D03*
X142548300Y-87124100D03*
X135048300Y-87124100D03*
X142548300Y-87624100D03*
X135048300Y-87624100D03*
X142548300Y-88124100D03*
X135048300Y-88124100D03*
X142548300Y-88624100D03*
X135048300Y-88624100D03*
X142548300Y-89124100D03*
X135048300Y-89124100D03*
X142548300Y-89624100D03*
X135048300Y-89624100D03*
X142548300Y-90124100D03*
X135048300Y-90124100D03*
X142548300Y-90624100D03*
X135048300Y-90624100D03*
X142548300Y-91124100D03*
X135048300Y-91124100D03*
X142548300Y-91624100D03*
X135048300Y-91624100D03*
D15*
X138798300Y-84874100D03*
D16*
X129114300Y-72072500D03*
X125114300Y-72072500D03*
D17*
X144637760Y-73364360D03*
X144637760Y-70064360D03*
D18*
X166707400Y-96104900D03*
D19*
X125707400Y-118116600D03*
D20*
X125707400Y-120116600D03*
D21*
X132664900Y-107759500D03*
X131164900Y-107759500D03*
X130568000Y-66459100D03*
X132068000Y-66459100D03*
X146063400Y-109766100D03*
X144563400Y-109766100D03*
X132644580Y-105011220D03*
X131144580Y-105011220D03*
D22*
X144145000Y-95263400D03*
X144145000Y-93763400D03*
D21*
X131157280Y-106382820D03*
X132657280Y-106382820D03*
X132461700Y-99606100D03*
X130961700Y-99606100D03*
D22*
X147523200Y-96747900D03*
X147523200Y-98247900D03*
D21*
X132169600Y-83223100D03*
X130669600Y-83223100D03*
X129476380Y-79886912D03*
X127976380Y-79886912D03*
X130669600Y-84582000D03*
X132169600Y-84582000D03*
X129463680Y-77016712D03*
X127963680Y-77016712D03*
X131088700Y-87922100D03*
X132588700Y-87922100D03*
X130644200Y-86169500D03*
X132144200Y-86169500D03*
D22*
X132727700Y-90793000D03*
X132727700Y-89293000D03*
D23*
X146672300Y-92086300D03*
X146672300Y-95086300D03*
D22*
X144284700Y-78131100D03*
X144284700Y-76631100D03*
D21*
X144665000Y-82486500D03*
X146165000Y-82486500D03*
X146165000Y-84975700D03*
X144665000Y-84975700D03*
X144677700Y-87477600D03*
X146177700Y-87477600D03*
X146165000Y-81026000D03*
X144665000Y-81026000D03*
D23*
X146621500Y-76287500D03*
X146621500Y-79287500D03*
D22*
X133477000Y-70498400D03*
X133477000Y-68998400D03*
D23*
X132600700Y-71906000D03*
X132600700Y-74906000D03*
D21*
X130961700Y-98221800D03*
X132461700Y-98221800D03*
X131106480Y-111099600D03*
X132606480Y-111099600D03*
D22*
X130124200Y-115799300D03*
X130124200Y-114299300D03*
D24*
X143627370Y-115262130D03*
D25*
G36*
X143609692Y-116092980D02*
X142796520Y-115279808D01*
X143645048Y-114431280D01*
X144458220Y-115244452D01*
X143609692Y-116092980D01*
X143609692Y-116092980D01*
G37*
D24*
X144688030Y-114201470D03*
D25*
G36*
X144670352Y-115032320D02*
X143857180Y-114219148D01*
X144705708Y-113370620D01*
X145518880Y-114183792D01*
X144670352Y-115032320D01*
X144670352Y-115032320D01*
G37*
D24*
X136634750Y-117859070D03*
D25*
G36*
X137465600Y-117876748D02*
X136652428Y-118689920D01*
X135803900Y-117841392D01*
X136617072Y-117028220D01*
X137465600Y-117876748D01*
X137465600Y-117876748D01*
G37*
D24*
X137695410Y-118919730D03*
D25*
G36*
X138526260Y-118937408D02*
X137713088Y-119750580D01*
X136864560Y-118902052D01*
X137677732Y-118088880D01*
X138526260Y-118937408D01*
X138526260Y-118937408D01*
G37*
D24*
X142484370Y-114131830D03*
D25*
G36*
X142502048Y-113300980D02*
X143315220Y-114114152D01*
X142466692Y-114962680D01*
X141653520Y-114149508D01*
X142502048Y-113300980D01*
X142502048Y-113300980D01*
G37*
D24*
X143545030Y-113071170D03*
D25*
G36*
X143562708Y-112240320D02*
X144375880Y-113053492D01*
X143527352Y-113902020D01*
X142714180Y-113088848D01*
X143562708Y-112240320D01*
X143562708Y-112240320D01*
G37*
D24*
X144452870Y-118176570D03*
D25*
G36*
X143622020Y-118158892D02*
X144435192Y-117345720D01*
X145283720Y-118194248D01*
X144470548Y-119007420D01*
X143622020Y-118158892D01*
X143622020Y-118158892D01*
G37*
D24*
X145513530Y-119237230D03*
D25*
G36*
X144682680Y-119219552D02*
X145495852Y-118406380D01*
X146344380Y-119254908D01*
X145531208Y-120068080D01*
X144682680Y-119219552D01*
X144682680Y-119219552D01*
G37*
D24*
X140674830Y-122005830D03*
D25*
G36*
X141505680Y-122023508D02*
X140692508Y-122836680D01*
X139843980Y-121988152D01*
X140657152Y-121174980D01*
X141505680Y-122023508D01*
X141505680Y-122023508D01*
G37*
D24*
X139614170Y-120945170D03*
D25*
G36*
X140445020Y-120962848D02*
X139631848Y-121776020D01*
X138783320Y-120927492D01*
X139596492Y-120114320D01*
X140445020Y-120962848D01*
X140445020Y-120962848D01*
G37*
D24*
X138661670Y-121910370D03*
D25*
G36*
X139492520Y-121928048D02*
X138679348Y-122741220D01*
X137830820Y-121892692D01*
X138643992Y-121079520D01*
X139492520Y-121928048D01*
X139492520Y-121928048D01*
G37*
D24*
X139722330Y-122971030D03*
D25*
G36*
X140553180Y-122988708D02*
X139740008Y-123801880D01*
X138891480Y-122953352D01*
X139704652Y-122140180D01*
X140553180Y-122988708D01*
X140553180Y-122988708D01*
G37*
D24*
X146227800Y-122097800D03*
D25*
G36*
X147058650Y-122115478D02*
X146245478Y-122928650D01*
X145396950Y-122080122D01*
X146210122Y-121266950D01*
X147058650Y-122115478D01*
X147058650Y-122115478D01*
G37*
D24*
X147288460Y-123158460D03*
D25*
G36*
X148119310Y-123176138D02*
X147306138Y-123989310D01*
X146457610Y-123140782D01*
X147270782Y-122327610D01*
X148119310Y-123176138D01*
X148119310Y-123176138D01*
G37*
D24*
X147545530Y-121269230D03*
D25*
G36*
X148376380Y-121286908D02*
X147563208Y-122100080D01*
X146714680Y-121251552D01*
X147527852Y-120438380D01*
X148376380Y-121286908D01*
X148376380Y-121286908D01*
G37*
D24*
X146484870Y-120208570D03*
D25*
G36*
X147315720Y-120226248D02*
X146502548Y-121039420D01*
X145654020Y-120190892D01*
X146467192Y-119377720D01*
X147315720Y-120226248D01*
X147315720Y-120226248D01*
G37*
D22*
X129827020Y-89303160D03*
X129827020Y-90803160D03*
X131216400Y-90805700D03*
X131216400Y-89305700D03*
X128485900Y-89305700D03*
X128485900Y-90805700D03*
D26*
X146707400Y-67604900D03*
X144707400Y-67604900D03*
X142707400Y-67604900D03*
X140707400Y-67604900D03*
X138707400Y-67604900D03*
D27*
X136707400Y-67604900D03*
D19*
X125707400Y-90104900D03*
X125707400Y-92104900D03*
X125707400Y-94104900D03*
X125707400Y-96104900D03*
X125707400Y-98104900D03*
X125707400Y-100104900D03*
X125707400Y-102104900D03*
D20*
X125707400Y-104104900D03*
D19*
X125707400Y-109104900D03*
X125707400Y-111104900D03*
D20*
X125707400Y-113104900D03*
D19*
X125707400Y-77604900D03*
X125707400Y-79604900D03*
X125707400Y-81604900D03*
X125707400Y-83604900D03*
D20*
X125707400Y-85604900D03*
D28*
X141623300Y-73025000D03*
X135973300Y-73025000D03*
D29*
X143329130Y-119192570D03*
D25*
G36*
X143187709Y-118414753D02*
X144106947Y-119333991D01*
X143470551Y-119970387D01*
X142551313Y-119051149D01*
X143187709Y-118414753D01*
X143187709Y-118414753D01*
G37*
D29*
X142268470Y-120253230D03*
D25*
G36*
X142127049Y-119475413D02*
X143046287Y-120394651D01*
X142409891Y-121031047D01*
X141490653Y-120111809D01*
X142127049Y-119475413D01*
X142127049Y-119475413D01*
G37*
D29*
X144310100Y-120180100D03*
D25*
G36*
X145087917Y-120038679D02*
X144168679Y-120957917D01*
X143532283Y-120321521D01*
X144451521Y-119402283D01*
X145087917Y-120038679D01*
X145087917Y-120038679D01*
G37*
D29*
X145370760Y-121240760D03*
D25*
G36*
X146148577Y-121099339D02*
X145229339Y-122018577D01*
X144592943Y-121382181D01*
X145512181Y-120462943D01*
X146148577Y-121099339D01*
X146148577Y-121099339D01*
G37*
D29*
X142357370Y-122463030D03*
D25*
G36*
X142215949Y-121685213D02*
X143135187Y-122604451D01*
X142498791Y-123240847D01*
X141579553Y-122321609D01*
X142215949Y-121685213D01*
X142215949Y-121685213D01*
G37*
D29*
X143418030Y-121402370D03*
D25*
G36*
X143276609Y-120624553D02*
X144195847Y-121543791D01*
X143559451Y-122180187D01*
X142640213Y-121260949D01*
X143276609Y-120624553D01*
X143276609Y-120624553D01*
G37*
D30*
X159857400Y-84404900D03*
X159857400Y-88804900D03*
X159857400Y-86604900D03*
X150557400Y-88804900D03*
X150557400Y-84404900D03*
X150557400Y-86604900D03*
D31*
X157007400Y-88329900D03*
X154207400Y-88329900D03*
X157007400Y-84879900D03*
X154207400Y-84879900D03*
X157007400Y-86029900D03*
X157007400Y-87179900D03*
X154207400Y-87179900D03*
X154207400Y-86029900D03*
D32*
X152807400Y-86604900D03*
D33*
X153007400Y-69954900D03*
X157407400Y-69954900D03*
X155207400Y-69954900D03*
X157407400Y-79254900D03*
X153007400Y-79254900D03*
X155207400Y-79254900D03*
D34*
X156932400Y-72804900D03*
X156932400Y-75604900D03*
X153482400Y-72804900D03*
X153482400Y-75604900D03*
X154632400Y-72804900D03*
X155782400Y-72804900D03*
X155782400Y-75604900D03*
X154632400Y-75604900D03*
D35*
X155207400Y-77004900D03*
D32*
X164307400Y-86604900D03*
D31*
X165707400Y-86029900D03*
X165707400Y-87179900D03*
X168507400Y-87179900D03*
X168507400Y-86029900D03*
X165707400Y-84879900D03*
X168507400Y-84879900D03*
X165707400Y-88329900D03*
X168507400Y-88329900D03*
D30*
X162057400Y-86604900D03*
X162057400Y-84404900D03*
X162057400Y-88804900D03*
X171357400Y-86604900D03*
X171357400Y-88804900D03*
X171357400Y-84404900D03*
D35*
X166707400Y-77004900D03*
D34*
X166132400Y-75604900D03*
X167282400Y-75604900D03*
X167282400Y-72804900D03*
X166132400Y-72804900D03*
X164982400Y-75604900D03*
X164982400Y-72804900D03*
X168432400Y-75604900D03*
X168432400Y-72804900D03*
D33*
X166707400Y-79254900D03*
X164507400Y-79254900D03*
X168907400Y-79254900D03*
X166707400Y-69954900D03*
X168907400Y-69954900D03*
X164507400Y-69954900D03*
D32*
X175807400Y-86604900D03*
D31*
X177207400Y-86029900D03*
X177207400Y-87179900D03*
X180007400Y-87179900D03*
X180007400Y-86029900D03*
X177207400Y-84879900D03*
X180007400Y-84879900D03*
X177207400Y-88329900D03*
X180007400Y-88329900D03*
D30*
X173557400Y-86604900D03*
X173557400Y-84404900D03*
X173557400Y-88804900D03*
X182857400Y-86604900D03*
X182857400Y-88804900D03*
X182857400Y-84404900D03*
D33*
X176007400Y-69954900D03*
X180407400Y-69954900D03*
X178207400Y-69954900D03*
X180407400Y-79254900D03*
X176007400Y-79254900D03*
X178207400Y-79254900D03*
D34*
X179932400Y-72804900D03*
X179932400Y-75604900D03*
X176482400Y-72804900D03*
X176482400Y-75604900D03*
X177632400Y-72804900D03*
X178782400Y-72804900D03*
X178782400Y-75604900D03*
X177632400Y-75604900D03*
D35*
X178207400Y-77004900D03*
D36*
X129044700Y-66344100D03*
X129044700Y-67844100D03*
X127584200Y-67844100D03*
X127584200Y-66344100D03*
X126111000Y-66356800D03*
X126111000Y-67856800D03*
D37*
X132677600Y-109194600D03*
X131177600Y-109194600D03*
X132029900Y-67906900D03*
X130529900Y-67906900D03*
X132309300Y-78790800D03*
X130809300Y-78790800D03*
X130809300Y-80302100D03*
X132309300Y-80302100D03*
X127824680Y-78451812D03*
X129324680Y-78451812D03*
X132283900Y-77025500D03*
X130783900Y-77025500D03*
X132296600Y-81813400D03*
X130796600Y-81813400D03*
D36*
X148501100Y-87872000D03*
X148501100Y-86372000D03*
X128808480Y-117283800D03*
X128808480Y-118783800D03*
D29*
X146415230Y-118119630D03*
D25*
G36*
X147193047Y-117978209D02*
X146273809Y-118897447D01*
X145637413Y-118261051D01*
X146556651Y-117341813D01*
X147193047Y-117978209D01*
X147193047Y-117978209D01*
G37*
D29*
X145354570Y-117058970D03*
D25*
G36*
X146132387Y-116917549D02*
X145213149Y-117836787D01*
X144576753Y-117200391D01*
X145495991Y-116281153D01*
X146132387Y-116917549D01*
X146132387Y-116917549D01*
G37*
D36*
X148501100Y-83806600D03*
X148501100Y-85306600D03*
D38*
X145958800Y-98802500D03*
X145958800Y-99302500D03*
X145958800Y-99802500D03*
X145958800Y-100302500D03*
X145958800Y-100802500D03*
X145958800Y-101302500D03*
X145958800Y-101802500D03*
X145958800Y-102302500D03*
X145958800Y-102802500D03*
X145958800Y-103302500D03*
X145958800Y-103802500D03*
X145958800Y-104302500D03*
X145958800Y-104802500D03*
X145958800Y-105302500D03*
X145958800Y-105802500D03*
X145958800Y-106302500D03*
D39*
X144008800Y-108252500D03*
X143508800Y-108252500D03*
X143008800Y-108252500D03*
X142508800Y-108252500D03*
X142008800Y-108252500D03*
X141508800Y-108252500D03*
X141008800Y-108252500D03*
X140508800Y-108252500D03*
X140008800Y-108252500D03*
X139508800Y-108252500D03*
X139008800Y-108252500D03*
X138508800Y-108252500D03*
X138008800Y-108252500D03*
X137508800Y-108252500D03*
X137008800Y-108252500D03*
X136508800Y-108252500D03*
D38*
X134558800Y-106302500D03*
X134558800Y-105802500D03*
X134558800Y-105302500D03*
X134558800Y-104802500D03*
X134558800Y-104302500D03*
X134558800Y-103802500D03*
X134558800Y-103302500D03*
X134558800Y-102802500D03*
X134558800Y-102302500D03*
X134558800Y-101802500D03*
X134558800Y-101302500D03*
X134558800Y-100802500D03*
X134558800Y-100302500D03*
X134558800Y-99802500D03*
X134558800Y-99302500D03*
X134558800Y-98802500D03*
D39*
X136508800Y-96852500D03*
X137008800Y-96852500D03*
X137508800Y-96852500D03*
X138008800Y-96852500D03*
X138508800Y-96852500D03*
X139008800Y-96852500D03*
X139508800Y-96852500D03*
X140008800Y-96852500D03*
X140508800Y-96852500D03*
X141008800Y-96852500D03*
X141508800Y-96852500D03*
X142008800Y-96852500D03*
X142508800Y-96852500D03*
X143008800Y-96852500D03*
X143508800Y-96852500D03*
X144008800Y-96852500D03*
D40*
X133636500Y-112793600D03*
X132986500Y-112793600D03*
D41*
X132336500Y-112593600D03*
D40*
X131686500Y-112793600D03*
X131686500Y-115893600D03*
X132336500Y-115893600D03*
D41*
X132986500Y-116093600D03*
X133636500Y-116093600D03*
D42*
X133286500Y-113893600D03*
X133286500Y-114793600D03*
X132036500Y-113893600D03*
X132036500Y-114793600D03*
D43*
X132661500Y-114343600D03*
D41*
X133636500Y-112593600D03*
X132986500Y-112593600D03*
D40*
X132336500Y-112793600D03*
D41*
X131686500Y-112593600D03*
X131686500Y-116093600D03*
X132336500Y-116093600D03*
D40*
X132986500Y-115893600D03*
X133636500Y-115893600D03*
D44*
X140505589Y-116041899D03*
D25*
G36*
X139338863Y-116041899D02*
X140505589Y-114875173D01*
X141672315Y-116041899D01*
X140505589Y-117208625D01*
X139338863Y-116041899D01*
X139338863Y-116041899D01*
G37*
D44*
X139621706Y-116925782D03*
D25*
G36*
X138454980Y-116925782D02*
X139621706Y-115759056D01*
X140788432Y-116925782D01*
X139621706Y-118092508D01*
X138454980Y-116925782D01*
X138454980Y-116925782D01*
G37*
D44*
X141389472Y-116925782D03*
D25*
G36*
X140222746Y-116925782D02*
X141389472Y-115759056D01*
X142556198Y-116925782D01*
X141389472Y-118092508D01*
X140222746Y-116925782D01*
X140222746Y-116925782D01*
G37*
D44*
X140505589Y-117809665D03*
D25*
G36*
X139338863Y-117809665D02*
X140505589Y-116642939D01*
X141672315Y-117809665D01*
X140505589Y-118976391D01*
X139338863Y-117809665D01*
X139338863Y-117809665D01*
G37*
D45*
X141187947Y-114829210D03*
D25*
G36*
X141035919Y-115476213D02*
X140540944Y-114981238D01*
X141339975Y-114182207D01*
X141834950Y-114677182D01*
X141035919Y-115476213D01*
X141035919Y-115476213D01*
G37*
D45*
X141541500Y-115182764D03*
D25*
G36*
X141389472Y-115829767D02*
X140894497Y-115334792D01*
X141693528Y-114535761D01*
X142188503Y-115030736D01*
X141389472Y-115829767D01*
X141389472Y-115829767D01*
G37*
D45*
X141895054Y-115536317D03*
D25*
G36*
X141743026Y-116183320D02*
X141248051Y-115688345D01*
X142047082Y-114889314D01*
X142542057Y-115384289D01*
X141743026Y-116183320D01*
X141743026Y-116183320D01*
G37*
D45*
X142248607Y-115889871D03*
D25*
G36*
X142096579Y-116536874D02*
X141601604Y-116041899D01*
X142400635Y-115242868D01*
X142895610Y-115737843D01*
X142096579Y-116536874D01*
X142096579Y-116536874D01*
G37*
D45*
X142602161Y-116243424D03*
D25*
G36*
X142450133Y-116890427D02*
X141955158Y-116395452D01*
X142754189Y-115596421D01*
X143249164Y-116091396D01*
X142450133Y-116890427D01*
X142450133Y-116890427D01*
G37*
D45*
X142602161Y-117608140D03*
D25*
G36*
X141955158Y-117456112D02*
X142450133Y-116961137D01*
X143249164Y-117760168D01*
X142754189Y-118255143D01*
X141955158Y-117456112D01*
X141955158Y-117456112D01*
G37*
D45*
X142248607Y-117961693D03*
D25*
G36*
X141601604Y-117809665D02*
X142096579Y-117314690D01*
X142895610Y-118113721D01*
X142400635Y-118608696D01*
X141601604Y-117809665D01*
X141601604Y-117809665D01*
G37*
D45*
X141895054Y-118315247D03*
D25*
G36*
X141248051Y-118163219D02*
X141743026Y-117668244D01*
X142542057Y-118467275D01*
X142047082Y-118962250D01*
X141248051Y-118163219D01*
X141248051Y-118163219D01*
G37*
D45*
X141541500Y-118668800D03*
D25*
G36*
X140894497Y-118516772D02*
X141389472Y-118021797D01*
X142188503Y-118820828D01*
X141693528Y-119315803D01*
X140894497Y-118516772D01*
X140894497Y-118516772D01*
G37*
D45*
X141187947Y-119022354D03*
D25*
G36*
X140540944Y-118870326D02*
X141035919Y-118375351D01*
X141834950Y-119174382D01*
X141339975Y-119669357D01*
X140540944Y-118870326D01*
X140540944Y-118870326D01*
G37*
D45*
X139823231Y-119022354D03*
D25*
G36*
X139671203Y-119669357D02*
X139176228Y-119174382D01*
X139975259Y-118375351D01*
X140470234Y-118870326D01*
X139671203Y-119669357D01*
X139671203Y-119669357D01*
G37*
D45*
X139469678Y-118668800D03*
D25*
G36*
X139317650Y-119315803D02*
X138822675Y-118820828D01*
X139621706Y-118021797D01*
X140116681Y-118516772D01*
X139317650Y-119315803D01*
X139317650Y-119315803D01*
G37*
D45*
X139116124Y-118315247D03*
D25*
G36*
X138964096Y-118962250D02*
X138469121Y-118467275D01*
X139268152Y-117668244D01*
X139763127Y-118163219D01*
X138964096Y-118962250D01*
X138964096Y-118962250D01*
G37*
D45*
X138762571Y-117961693D03*
D25*
G36*
X138610543Y-118608696D02*
X138115568Y-118113721D01*
X138914599Y-117314690D01*
X139409574Y-117809665D01*
X138610543Y-118608696D01*
X138610543Y-118608696D01*
G37*
D45*
X138409017Y-117608140D03*
D25*
G36*
X138256989Y-118255143D02*
X137762014Y-117760168D01*
X138561045Y-116961137D01*
X139056020Y-117456112D01*
X138256989Y-118255143D01*
X138256989Y-118255143D01*
G37*
D45*
X138409017Y-116243424D03*
D25*
G36*
X137762014Y-116091396D02*
X138256989Y-115596421D01*
X139056020Y-116395452D01*
X138561045Y-116890427D01*
X137762014Y-116091396D01*
X137762014Y-116091396D01*
G37*
D45*
X138762571Y-115889871D03*
D25*
G36*
X138115568Y-115737843D02*
X138610543Y-115242868D01*
X139409574Y-116041899D01*
X138914599Y-116536874D01*
X138115568Y-115737843D01*
X138115568Y-115737843D01*
G37*
D45*
X139116124Y-115536317D03*
D25*
G36*
X138469121Y-115384289D02*
X138964096Y-114889314D01*
X139763127Y-115688345D01*
X139268152Y-116183320D01*
X138469121Y-115384289D01*
X138469121Y-115384289D01*
G37*
D45*
X139469678Y-115182764D03*
D25*
G36*
X138822675Y-115030736D02*
X139317650Y-114535761D01*
X140116681Y-115334792D01*
X139621706Y-115829767D01*
X138822675Y-115030736D01*
X138822675Y-115030736D01*
G37*
D45*
X139823231Y-114829210D03*
D25*
G36*
X139176228Y-114677182D02*
X139671203Y-114182207D01*
X140470234Y-114981238D01*
X139975259Y-115476213D01*
X139176228Y-114677182D01*
X139176228Y-114677182D01*
G37*
D46*
X130483000Y-93960900D03*
X130483000Y-93160900D03*
X129613000Y-93960900D03*
X129613000Y-93160900D03*
D47*
X131048000Y-95060900D03*
X130648000Y-95060900D03*
X130248000Y-95060900D03*
X129848000Y-95060900D03*
X129448000Y-95060900D03*
X129048000Y-95060900D03*
D48*
X128548000Y-94560900D03*
X128548000Y-94160900D03*
X128548000Y-93760900D03*
X128548000Y-93360900D03*
X128548000Y-92960900D03*
X128548000Y-92560900D03*
D47*
X129048000Y-92060900D03*
X129448000Y-92060900D03*
X129848000Y-92060900D03*
X130248000Y-92060900D03*
X130648000Y-92060900D03*
X131048000Y-92060900D03*
D48*
X131548000Y-92560900D03*
X131548000Y-92960900D03*
X131548000Y-93360900D03*
X131548000Y-93760900D03*
X131548000Y-94160900D03*
X131548000Y-94560900D03*
M02*
