G04 #@! TF.GenerationSoftware,KiCad,Pcbnew,(2017-08-25 revision dd37d0595)-makepkg*
G04 #@! TF.CreationDate,2018-04-16T21:33:22-04:00*
G04 #@! TF.ProjectId,VESC_6.4,564553435F362E342E6B696361645F70,rev?*
G04 #@! TF.SameCoordinates,Original*
G04 #@! TF.FileFunction,Soldermask,Bot*
G04 #@! TF.FilePolarity,Negative*
%FSLAX46Y46*%
G04 Gerber Fmt 4.6, Leading zero omitted, Abs format (unit mm)*
G04 Created by KiCad (PCBNEW (2017-08-25 revision dd37d0595)-makepkg) date 04/16/18 21:33:22*
%MOMM*%
%LPD*%
G01*
G04 APERTURE LIST*
%ADD10R,1.000000X1.000000*%
%ADD11R,6.600000X3.100000*%
%ADD12R,1.600000X2.300000*%
%ADD13O,1.600000X2.300000*%
%ADD14R,1.900000X2.300000*%
%ADD15C,1.850000*%
%ADD16R,0.800000X1.750000*%
%ADD17C,3.600000*%
%ADD18C,1.800000*%
%ADD19R,6.900000X6.900000*%
%ADD20R,5.400000X5.400000*%
%ADD21O,2.100000X1.600000*%
%ADD22R,2.100000X1.600000*%
%ADD23R,1.150000X1.200000*%
%ADD24R,1.200000X1.150000*%
%ADD25R,1.400000X2.900000*%
%ADD26R,2.900000X1.400000*%
%ADD27C,1.150000*%
%ADD28C,0.100000*%
%ADD29R,1.200000X1.200000*%
%ADD30O,1.600000X2.100000*%
%ADD31R,1.600000X2.100000*%
%ADD32R,1.700000X1.100000*%
%ADD33R,0.900000X1.300000*%
%ADD34R,1.300000X0.900000*%
%ADD35R,1.000000X1.950000*%
%ADD36C,1.400000*%
%ADD37R,2.200000X1.600000*%
%ADD38C,1.600000*%
%ADD39R,1.460000X1.050000*%
G04 APERTURE END LIST*
D10*
X166707400Y-73564900D03*
X166707400Y-78644900D03*
D11*
X166707400Y-80254900D03*
X166707400Y-71954900D03*
D12*
X135772480Y-123182900D03*
X129972480Y-123182900D03*
D13*
X129372480Y-123182900D03*
X136372480Y-123182900D03*
D14*
X133872480Y-123182900D03*
D15*
X130372480Y-120482900D03*
D16*
X132872480Y-120482900D03*
X132222480Y-120482900D03*
X131572480Y-120482900D03*
X134172480Y-120482900D03*
X133522480Y-120482900D03*
D15*
X135372480Y-120482900D03*
D14*
X131872480Y-123182900D03*
D17*
X160957400Y-67104900D03*
X172457400Y-67104900D03*
D18*
X174957400Y-92504900D03*
X179957400Y-92504900D03*
X158457400Y-92504900D03*
X153457400Y-92504900D03*
D19*
X166707400Y-96104900D03*
D20*
X178207400Y-67354900D03*
X166707400Y-67354900D03*
X155207400Y-67354900D03*
D21*
X125707400Y-118116600D03*
D22*
X125707400Y-120116600D03*
D23*
X147599400Y-102553200D03*
X147599400Y-101053200D03*
D24*
X138035600Y-95453200D03*
X139535600Y-95453200D03*
D23*
X139766040Y-99627120D03*
X139766040Y-98127120D03*
X139738100Y-102553200D03*
X139738100Y-101053200D03*
D24*
X146646900Y-108267500D03*
X145146900Y-108267500D03*
D23*
X135585200Y-91477400D03*
X135585200Y-92977400D03*
D24*
X131647500Y-95618300D03*
X133147500Y-95618300D03*
D25*
X134748400Y-97993200D03*
X131748400Y-97993200D03*
D24*
X143153700Y-79121000D03*
X144653700Y-79121000D03*
D23*
X147695402Y-79133000D03*
X147695402Y-80633000D03*
X141777202Y-79120300D03*
X141777202Y-80620300D03*
X135770102Y-80582200D03*
X135770102Y-79082200D03*
D26*
X156707400Y-86104900D03*
X156707400Y-89104900D03*
X153707400Y-89104900D03*
X153707400Y-86104900D03*
D24*
X138659300Y-79070200D03*
X137159300Y-79070200D03*
D26*
X168207400Y-86104900D03*
X168207400Y-89104900D03*
X165207400Y-89104900D03*
X165207400Y-86104900D03*
D24*
X131152200Y-79095600D03*
X132652200Y-79095600D03*
D26*
X176707400Y-86104900D03*
X176707400Y-89104900D03*
X179707400Y-89104900D03*
X179707400Y-86104900D03*
D27*
X140979630Y-122399530D03*
D28*
G36*
X141810480Y-122417208D02*
X140997308Y-123230380D01*
X140148780Y-122381852D01*
X140961952Y-121568680D01*
X141810480Y-122417208D01*
X141810480Y-122417208D01*
G37*
D27*
X139918970Y-121338870D03*
D28*
G36*
X140749820Y-121356548D02*
X139936648Y-122169720D01*
X139088120Y-121321192D01*
X139901292Y-120508020D01*
X140749820Y-121356548D01*
X140749820Y-121356548D01*
G37*
D27*
X146532600Y-116827300D03*
D28*
G36*
X145701750Y-116809622D02*
X146514922Y-115996450D01*
X147363450Y-116844978D01*
X146550278Y-117658150D01*
X145701750Y-116809622D01*
X145701750Y-116809622D01*
G37*
D27*
X145471940Y-115766640D03*
D28*
G36*
X144641090Y-115748962D02*
X145454262Y-114935790D01*
X146302790Y-115784318D01*
X145489618Y-116597490D01*
X144641090Y-115748962D01*
X144641090Y-115748962D01*
G37*
D29*
X146418300Y-110985400D03*
X146418300Y-112585400D03*
X143687800Y-112585400D03*
X143687800Y-110985400D03*
X145046700Y-112585400D03*
X145046700Y-110985400D03*
D30*
X146707400Y-67604900D03*
X144707400Y-67604900D03*
X142707400Y-67604900D03*
X140707400Y-67604900D03*
X138707400Y-67604900D03*
D31*
X136707400Y-67604900D03*
D21*
X125707400Y-90104900D03*
X125707400Y-92104900D03*
X125707400Y-94104900D03*
X125707400Y-96104900D03*
X125707400Y-98104900D03*
X125707400Y-100104900D03*
X125707400Y-102104900D03*
D22*
X125707400Y-104104900D03*
D21*
X125707400Y-109104900D03*
X125707400Y-111104900D03*
D22*
X125707400Y-113104900D03*
D21*
X125707400Y-77604900D03*
X125707400Y-79604900D03*
X125707400Y-81604900D03*
X125707400Y-83604900D03*
D22*
X125707400Y-85604900D03*
D32*
X129832100Y-93914000D03*
X129832100Y-92014000D03*
D33*
X127602680Y-123520200D03*
X126102680Y-123520200D03*
D34*
X136105900Y-112457800D03*
X136105900Y-113957800D03*
X137591800Y-113957800D03*
X137591800Y-112457800D03*
X147828000Y-112573500D03*
X147828000Y-111073500D03*
X142290800Y-111086200D03*
X142290800Y-112586200D03*
X140817600Y-112586200D03*
X140817600Y-111086200D03*
X147579310Y-91325000D03*
X147579310Y-92825000D03*
X146100800Y-92825000D03*
X146100800Y-91325000D03*
X137212272Y-91327304D03*
X137212272Y-92827304D03*
X138710872Y-92827304D03*
X138710872Y-91327304D03*
X140182100Y-91324626D03*
X140182100Y-92824626D03*
X141655300Y-92824626D03*
X141655300Y-91324626D03*
X143131047Y-92817555D03*
X143131047Y-91317555D03*
X144616947Y-91317555D03*
X144616947Y-92817555D03*
X146278600Y-79133000D03*
X146278600Y-80633000D03*
X140335000Y-79107600D03*
X140335000Y-80607600D03*
X134340600Y-79082200D03*
X134340600Y-80582200D03*
D33*
X145681000Y-82184498D03*
X147181000Y-82184498D03*
X145681000Y-83705700D03*
X147181000Y-83705700D03*
X147181700Y-85204300D03*
X145681700Y-85204300D03*
X145681000Y-86702900D03*
X147181000Y-86702900D03*
X145681000Y-88201500D03*
X147181000Y-88201500D03*
X147181000Y-89712800D03*
X145681000Y-89712800D03*
X130315400Y-97282000D03*
X128815400Y-97282000D03*
X128814402Y-98749728D03*
X130314402Y-98749728D03*
D35*
X143302400Y-77304900D03*
X144572400Y-77304900D03*
X145842400Y-77304900D03*
X147112400Y-77304900D03*
X147112400Y-71904900D03*
X145842400Y-71904900D03*
X144572400Y-71904900D03*
X143302400Y-71904900D03*
X137302400Y-71904900D03*
X138572400Y-71904900D03*
X139842400Y-71904900D03*
X141112400Y-71904900D03*
X141112400Y-77304900D03*
X139842400Y-77304900D03*
X138572400Y-77304900D03*
X137302400Y-77304900D03*
X131302400Y-77304900D03*
X132572400Y-77304900D03*
X133842400Y-77304900D03*
X135112400Y-77304900D03*
X135112400Y-71904900D03*
X133842400Y-71904900D03*
X132572400Y-71904900D03*
X131302400Y-71904900D03*
D36*
X147018060Y-122915560D03*
D28*
G36*
X148008009Y-122915560D02*
X147018060Y-123905509D01*
X146028111Y-122915560D01*
X147018060Y-121925611D01*
X148008009Y-122915560D01*
X148008009Y-122915560D01*
G37*
D36*
X147018060Y-120794240D03*
D28*
G36*
X148432274Y-121218504D02*
X147442324Y-122208454D01*
X145603846Y-120369976D01*
X146593796Y-119380026D01*
X148432274Y-121218504D01*
X148432274Y-121218504D01*
G37*
D36*
X144896740Y-122915560D03*
D28*
G36*
X146310954Y-123339824D02*
X145321004Y-124329774D01*
X143482526Y-122491296D01*
X144472476Y-121501346D01*
X146310954Y-123339824D01*
X146310954Y-123339824D01*
G37*
D37*
X145675100Y-103701700D03*
X141675100Y-103701700D03*
X141675100Y-101301700D03*
X145675100Y-101301700D03*
D38*
X142169615Y-120855342D03*
D28*
G36*
X141957483Y-122198845D02*
X140826112Y-121067474D01*
X142381747Y-119511839D01*
X143513118Y-120643210D01*
X141957483Y-122198845D01*
X141957483Y-122198845D01*
G37*
D38*
X144998042Y-118026915D03*
D28*
G36*
X144785910Y-119370418D02*
X143654539Y-118239047D01*
X145210174Y-116683412D01*
X146341545Y-117814783D01*
X144785910Y-119370418D01*
X144785910Y-119370418D01*
G37*
D38*
X143300985Y-116329858D03*
D28*
G36*
X143088853Y-117673361D02*
X141957482Y-116541990D01*
X143513117Y-114986355D01*
X144644488Y-116117726D01*
X143088853Y-117673361D01*
X143088853Y-117673361D01*
G37*
D38*
X140472558Y-119158285D03*
D28*
G36*
X140260426Y-120501788D02*
X139129055Y-119370417D01*
X140684690Y-117814782D01*
X141816061Y-118946153D01*
X140260426Y-120501788D01*
X140260426Y-120501788D01*
G37*
D11*
X155207400Y-71954900D03*
X155207400Y-80254900D03*
D10*
X155207400Y-78644900D03*
X155207400Y-73564900D03*
D11*
X178207400Y-71954900D03*
X178207400Y-80254900D03*
D10*
X178207400Y-78644900D03*
X178207400Y-73564900D03*
D39*
X131805500Y-92026700D03*
X131805500Y-93926700D03*
X134005500Y-93926700D03*
X134005500Y-92976700D03*
X134005500Y-92026700D03*
M02*
