G04 #@! TF.GenerationSoftware,KiCad,Pcbnew,(2017-08-25 revision dd37d0595)-makepkg*
G04 #@! TF.CreationDate,2018-04-16T21:33:21-04:00*
G04 #@! TF.ProjectId,VESC_6.4,564553435F362E342E6B696361645F70,rev?*
G04 #@! TF.SameCoordinates,Original*
G04 #@! TF.FileFunction,Legend,Top*
G04 #@! TF.FilePolarity,Positive*
%FSLAX46Y46*%
G04 Gerber Fmt 4.6, Leading zero omitted, Abs format (unit mm)*
G04 Created by KiCad (PCBNEW (2017-08-25 revision dd37d0595)-makepkg) date 04/16/18 21:33:21*
%MOMM*%
%LPD*%
G01*
G04 APERTURE LIST*
%ADD10C,0.200000*%
%ADD11C,0.250000*%
%ADD12C,0.120000*%
%ADD13C,0.150000*%
%ADD14C,0.125000*%
G04 APERTURE END LIST*
D10*
X130359680Y-87948800D02*
X130034680Y-87948800D01*
X129109680Y-88673800D02*
X127909680Y-88673800D01*
X133034680Y-91623800D02*
X132284680Y-91623800D01*
X133309680Y-91898800D02*
X133034680Y-91623800D01*
X133934680Y-91898800D02*
X133309680Y-91898800D01*
D11*
X163684680Y-92501180D02*
X163684680Y-91501180D01*
X164065632Y-91501180D01*
X164160870Y-91548800D01*
X164208489Y-91596419D01*
X164256108Y-91691657D01*
X164256108Y-91834514D01*
X164208489Y-91929752D01*
X164160870Y-91977371D01*
X164065632Y-92024990D01*
X163684680Y-92024990D01*
X164875156Y-91501180D02*
X165065632Y-91501180D01*
X165160870Y-91548800D01*
X165256108Y-91644038D01*
X165303727Y-91834514D01*
X165303727Y-92167847D01*
X165256108Y-92358323D01*
X165160870Y-92453561D01*
X165065632Y-92501180D01*
X164875156Y-92501180D01*
X164779918Y-92453561D01*
X164684680Y-92358323D01*
X164637060Y-92167847D01*
X164637060Y-91834514D01*
X164684680Y-91644038D01*
X164779918Y-91548800D01*
X164875156Y-91501180D01*
X165684680Y-92453561D02*
X165827537Y-92501180D01*
X166065632Y-92501180D01*
X166160870Y-92453561D01*
X166208489Y-92405942D01*
X166256108Y-92310704D01*
X166256108Y-92215466D01*
X166208489Y-92120228D01*
X166160870Y-92072609D01*
X166065632Y-92024990D01*
X165875156Y-91977371D01*
X165779918Y-91929752D01*
X165732299Y-91882133D01*
X165684680Y-91786895D01*
X165684680Y-91691657D01*
X165732299Y-91596419D01*
X165779918Y-91548800D01*
X165875156Y-91501180D01*
X166113251Y-91501180D01*
X166256108Y-91548800D01*
X166684680Y-92501180D02*
X166684680Y-91501180D01*
X167018013Y-91501180D02*
X167589441Y-91501180D01*
X167303727Y-92501180D02*
X167303727Y-91501180D01*
X167922775Y-92501180D02*
X167922775Y-91501180D01*
X168256108Y-91501180D02*
X168589441Y-92501180D01*
X168922775Y-91501180D01*
X169256108Y-91977371D02*
X169589441Y-91977371D01*
X169732299Y-92501180D02*
X169256108Y-92501180D01*
X169256108Y-91501180D01*
X169732299Y-91501180D01*
D12*
X182257400Y-93404900D02*
X182257400Y-91604900D01*
X183157400Y-92504900D02*
X181357400Y-92504900D01*
X151157400Y-91604900D02*
X151157400Y-93404900D01*
X150257400Y-92504900D02*
X152057400Y-92504900D01*
D13*
X136323300Y-78274100D02*
X137123300Y-77474100D01*
X137123300Y-77474100D02*
X141273300Y-77474100D01*
X141273300Y-77474100D02*
X141273300Y-92274100D01*
X141273300Y-92274100D02*
X136323300Y-92274100D01*
X136323300Y-92274100D02*
X136323300Y-78274100D01*
D12*
X130514300Y-73722500D02*
X130514300Y-70422500D01*
X130514300Y-70422500D02*
X125114300Y-70422500D01*
X130514300Y-73722500D02*
X125114300Y-73722500D01*
X143637760Y-73964360D02*
X145637760Y-73964360D01*
X145637760Y-73964360D02*
X145637760Y-70064360D01*
X143637760Y-73964360D02*
X143637760Y-70064360D01*
X132264900Y-108359500D02*
X131564900Y-108359500D01*
X131564900Y-107159500D02*
X132264900Y-107159500D01*
X130968000Y-65859100D02*
X131668000Y-65859100D01*
X131668000Y-67059100D02*
X130968000Y-67059100D01*
X145663400Y-110366100D02*
X144963400Y-110366100D01*
X144963400Y-109166100D02*
X145663400Y-109166100D01*
X132244580Y-105611220D02*
X131544580Y-105611220D01*
X131544580Y-104411220D02*
X132244580Y-104411220D01*
X143545000Y-94863400D02*
X143545000Y-94163400D01*
X144745000Y-94163400D02*
X144745000Y-94863400D01*
X131557280Y-105782820D02*
X132257280Y-105782820D01*
X132257280Y-106982820D02*
X131557280Y-106982820D01*
X132061700Y-100206100D02*
X131361700Y-100206100D01*
X131361700Y-99006100D02*
X132061700Y-99006100D01*
X148123200Y-97147900D02*
X148123200Y-97847900D01*
X146923200Y-97847900D02*
X146923200Y-97147900D01*
X131769600Y-83823100D02*
X131069600Y-83823100D01*
X131069600Y-82623100D02*
X131769600Y-82623100D01*
X129076380Y-80486912D02*
X128376380Y-80486912D01*
X128376380Y-79286912D02*
X129076380Y-79286912D01*
X131069600Y-83982000D02*
X131769600Y-83982000D01*
X131769600Y-85182000D02*
X131069600Y-85182000D01*
X129063680Y-77616712D02*
X128363680Y-77616712D01*
X128363680Y-76416712D02*
X129063680Y-76416712D01*
X131488700Y-87322100D02*
X132188700Y-87322100D01*
X132188700Y-88522100D02*
X131488700Y-88522100D01*
X131044200Y-85569500D02*
X131744200Y-85569500D01*
X131744200Y-86769500D02*
X131044200Y-86769500D01*
X132127700Y-90393000D02*
X132127700Y-89693000D01*
X133327700Y-89693000D02*
X133327700Y-90393000D01*
X148152300Y-94586300D02*
X148152300Y-92586300D01*
X145192300Y-92586300D02*
X145192300Y-94586300D01*
X143684700Y-77731100D02*
X143684700Y-77031100D01*
X144884700Y-77031100D02*
X144884700Y-77731100D01*
X145065000Y-81886500D02*
X145765000Y-81886500D01*
X145765000Y-83086500D02*
X145065000Y-83086500D01*
X145765000Y-85575700D02*
X145065000Y-85575700D01*
X145065000Y-84375700D02*
X145765000Y-84375700D01*
X145077700Y-86877600D02*
X145777700Y-86877600D01*
X145777700Y-88077600D02*
X145077700Y-88077600D01*
X145765000Y-81626000D02*
X145065000Y-81626000D01*
X145065000Y-80426000D02*
X145765000Y-80426000D01*
X148101500Y-78787500D02*
X148101500Y-76787500D01*
X145141500Y-76787500D02*
X145141500Y-78787500D01*
X132877000Y-70098400D02*
X132877000Y-69398400D01*
X134077000Y-69398400D02*
X134077000Y-70098400D01*
X134080700Y-74406000D02*
X134080700Y-72406000D01*
X131120700Y-72406000D02*
X131120700Y-74406000D01*
X131361700Y-97621800D02*
X132061700Y-97621800D01*
X132061700Y-98821800D02*
X131361700Y-98821800D01*
X131506480Y-110499600D02*
X132206480Y-110499600D01*
X132206480Y-111699600D02*
X131506480Y-111699600D01*
X129524200Y-115399300D02*
X129524200Y-114699300D01*
X130724200Y-114699300D02*
X130724200Y-115399300D01*
X143485949Y-114555023D02*
X143980923Y-114060049D01*
X144829451Y-114908577D02*
X144334477Y-115403551D01*
X137341857Y-117717649D02*
X137836831Y-118212623D01*
X136988303Y-119061151D02*
X136493329Y-118566177D01*
X142342949Y-113424723D02*
X142837923Y-112929749D01*
X143686451Y-113778277D02*
X143191477Y-114273251D01*
X145159977Y-118035149D02*
X145654951Y-118530123D01*
X144806423Y-119378651D02*
X144311449Y-118883677D01*
X139967723Y-122147251D02*
X139472749Y-121652277D01*
X140321277Y-120803749D02*
X140816251Y-121298723D01*
X139368777Y-121768949D02*
X139863751Y-122263923D01*
X139015223Y-123112451D02*
X138520249Y-122617477D01*
X146934907Y-121956379D02*
X147429881Y-122451353D01*
X146581353Y-123299881D02*
X146086379Y-122804907D01*
X146838423Y-121410651D02*
X146343449Y-120915677D01*
X147191977Y-120067149D02*
X147686951Y-120562123D01*
X130427020Y-89703160D02*
X130427020Y-90403160D01*
X129227020Y-90403160D02*
X129227020Y-89703160D01*
X130616400Y-90405700D02*
X130616400Y-89705700D01*
X131816400Y-89705700D02*
X131816400Y-90405700D01*
X129085900Y-89705700D02*
X129085900Y-90405700D01*
X127885900Y-90405700D02*
X127885900Y-89705700D01*
D13*
X134798300Y-77025000D02*
X142798300Y-77025000D01*
X142798300Y-69025000D02*
X134798300Y-69025000D01*
X134798300Y-76400000D02*
X134798300Y-77025000D01*
X134798300Y-69025000D02*
X134798300Y-69650000D01*
X142798300Y-76400000D02*
X142798300Y-77025000D01*
X142798300Y-69650000D02*
X142798300Y-69025000D01*
D12*
X141964414Y-119595621D02*
X142671521Y-118888514D01*
X143633186Y-119850179D02*
X142926079Y-120557286D01*
X144713151Y-121544816D02*
X144006044Y-120837709D01*
X144967709Y-119876044D02*
X145674816Y-120583151D01*
X143722086Y-122059979D02*
X143014979Y-122767086D01*
X142053314Y-121805421D02*
X142760421Y-121098314D01*
X151184040Y-89917060D02*
X151407400Y-90139900D01*
X159230760Y-89917060D02*
X159007400Y-90139900D01*
X159007400Y-90139900D02*
X151407400Y-90139900D01*
X151184040Y-83292740D02*
X151407400Y-83069900D01*
X159230760Y-83292740D02*
X159007400Y-83069900D01*
X159007400Y-83069900D02*
X151407400Y-83069900D01*
X150061360Y-83292740D02*
X151184040Y-83292740D01*
X158519560Y-78628260D02*
X158742400Y-78404900D01*
X158519560Y-70581540D02*
X158742400Y-70804900D01*
X158742400Y-70804900D02*
X158742400Y-78404900D01*
X151895240Y-78628260D02*
X151672400Y-78404900D01*
X151895240Y-70581540D02*
X151672400Y-70804900D01*
X151672400Y-70804900D02*
X151672400Y-78404900D01*
X151895240Y-79750940D02*
X151895240Y-78628260D01*
X161561360Y-83292740D02*
X162684040Y-83292740D01*
X170507400Y-83069900D02*
X162907400Y-83069900D01*
X170730760Y-83292740D02*
X170507400Y-83069900D01*
X162684040Y-83292740D02*
X162907400Y-83069900D01*
X170507400Y-90139900D02*
X162907400Y-90139900D01*
X170730760Y-89917060D02*
X170507400Y-90139900D01*
X162684040Y-89917060D02*
X162907400Y-90139900D01*
X163395240Y-79750940D02*
X163395240Y-78628260D01*
X163172400Y-70804900D02*
X163172400Y-78404900D01*
X163395240Y-70581540D02*
X163172400Y-70804900D01*
X163395240Y-78628260D02*
X163172400Y-78404900D01*
X170242400Y-70804900D02*
X170242400Y-78404900D01*
X170019560Y-70581540D02*
X170242400Y-70804900D01*
X170019560Y-78628260D02*
X170242400Y-78404900D01*
X173061360Y-83292740D02*
X174184040Y-83292740D01*
X182007400Y-83069900D02*
X174407400Y-83069900D01*
X182230760Y-83292740D02*
X182007400Y-83069900D01*
X174184040Y-83292740D02*
X174407400Y-83069900D01*
X182007400Y-90139900D02*
X174407400Y-90139900D01*
X182230760Y-89917060D02*
X182007400Y-90139900D01*
X174184040Y-89917060D02*
X174407400Y-90139900D01*
X181519560Y-78628260D02*
X181742400Y-78404900D01*
X181519560Y-70581540D02*
X181742400Y-70804900D01*
X181742400Y-70804900D02*
X181742400Y-78404900D01*
X174895240Y-78628260D02*
X174672400Y-78404900D01*
X174895240Y-70581540D02*
X174672400Y-70804900D01*
X174672400Y-70804900D02*
X174672400Y-78404900D01*
X174895240Y-79750940D02*
X174895240Y-78628260D01*
X128364700Y-67594100D02*
X128364700Y-66594100D01*
X129724700Y-66594100D02*
X129724700Y-67594100D01*
X128264200Y-66594100D02*
X128264200Y-67594100D01*
X126904200Y-67594100D02*
X126904200Y-66594100D01*
X125431000Y-67606800D02*
X125431000Y-66606800D01*
X126791000Y-66606800D02*
X126791000Y-67606800D01*
X131427600Y-108514600D02*
X132427600Y-108514600D01*
X132427600Y-109874600D02*
X131427600Y-109874600D01*
X130779900Y-67226900D02*
X131779900Y-67226900D01*
X131779900Y-68586900D02*
X130779900Y-68586900D01*
X131059300Y-78110800D02*
X132059300Y-78110800D01*
X132059300Y-79470800D02*
X131059300Y-79470800D01*
X132059300Y-80982100D02*
X131059300Y-80982100D01*
X131059300Y-79622100D02*
X132059300Y-79622100D01*
X129074680Y-79131812D02*
X128074680Y-79131812D01*
X128074680Y-77771812D02*
X129074680Y-77771812D01*
X131033900Y-76345500D02*
X132033900Y-76345500D01*
X132033900Y-77705500D02*
X131033900Y-77705500D01*
X131046600Y-81133400D02*
X132046600Y-81133400D01*
X132046600Y-82493400D02*
X131046600Y-82493400D01*
X149181100Y-86622000D02*
X149181100Y-87622000D01*
X147821100Y-87622000D02*
X147821100Y-86622000D01*
X128128480Y-118533800D02*
X128128480Y-117533800D01*
X129488480Y-117533800D02*
X129488480Y-118533800D01*
X146012179Y-116754914D02*
X146719286Y-117462021D01*
X145757621Y-118423686D02*
X145050514Y-117716579D01*
X147821100Y-85056600D02*
X147821100Y-84056600D01*
X149181100Y-84056600D02*
X149181100Y-85056600D01*
D13*
X144433800Y-97377500D02*
X144433800Y-96352500D01*
X145433800Y-107727500D02*
X145433800Y-106652500D01*
X135083800Y-107727500D02*
X135083800Y-106652500D01*
X135083800Y-97377500D02*
X135083800Y-98452500D01*
X145433800Y-97377500D02*
X145433800Y-98452500D01*
X135083800Y-97377500D02*
X136158800Y-97377500D01*
X135083800Y-107727500D02*
X136158800Y-107727500D01*
X145433800Y-107727500D02*
X144358800Y-107727500D01*
X145433800Y-97377500D02*
X144433800Y-97377500D01*
D12*
X131011500Y-115043600D02*
X131011500Y-115993600D01*
X134311500Y-112343600D02*
X134311500Y-113643600D01*
X134311500Y-115043600D02*
X134311500Y-115993600D01*
X131011500Y-112693600D02*
X131011500Y-113643600D01*
X134111500Y-115993600D02*
X134311500Y-115993600D01*
X131211500Y-115993600D02*
X131011500Y-115993600D01*
X131011500Y-112693600D02*
X131211500Y-112693600D01*
D13*
X143546148Y-116925782D02*
X142998140Y-116377774D01*
X140505589Y-119966341D02*
X139957581Y-119418333D01*
X137465030Y-116925782D02*
X138013038Y-117473790D01*
X140505589Y-113885223D02*
X141053597Y-114433231D01*
X140505589Y-119966341D02*
X141053597Y-119418333D01*
X137465030Y-116925782D02*
X138013038Y-116377774D01*
X143546148Y-116925782D02*
X142998140Y-117473790D01*
X131648000Y-95160900D02*
X131248000Y-95160900D01*
X128448000Y-95160900D02*
X128848000Y-95160900D01*
X128448000Y-95160900D02*
X128448000Y-94760900D01*
X128448000Y-91960900D02*
X128848000Y-91960900D01*
X128448000Y-91960900D02*
X128448000Y-92360900D01*
X131648000Y-91960900D02*
X131248000Y-91960900D01*
X131648000Y-91960900D02*
X131648000Y-92360900D01*
D14*
X177113251Y-92652371D02*
X177089441Y-92676180D01*
X177018013Y-92699990D01*
X176970394Y-92699990D01*
X176898965Y-92676180D01*
X176851346Y-92628561D01*
X176827537Y-92580942D01*
X176803727Y-92485704D01*
X176803727Y-92414276D01*
X176827537Y-92319038D01*
X176851346Y-92271419D01*
X176898965Y-92223800D01*
X176970394Y-92199990D01*
X177018013Y-92199990D01*
X177089441Y-92223800D01*
X177113251Y-92247609D01*
X177541822Y-92366657D02*
X177541822Y-92699990D01*
X177422775Y-92176180D02*
X177303727Y-92533323D01*
X177613251Y-92533323D01*
X178018013Y-92366657D02*
X178018013Y-92699990D01*
X177898965Y-92176180D02*
X177779918Y-92533323D01*
X178089441Y-92533323D01*
X155635971Y-92677371D02*
X155612161Y-92701180D01*
X155540733Y-92724990D01*
X155493114Y-92724990D01*
X155421685Y-92701180D01*
X155374066Y-92653561D01*
X155350257Y-92605942D01*
X155326447Y-92510704D01*
X155326447Y-92439276D01*
X155350257Y-92344038D01*
X155374066Y-92296419D01*
X155421685Y-92248800D01*
X155493114Y-92224990D01*
X155540733Y-92224990D01*
X155612161Y-92248800D01*
X155635971Y-92272609D01*
X156064542Y-92391657D02*
X156064542Y-92724990D01*
X155945495Y-92201180D02*
X155826447Y-92558323D01*
X156135971Y-92558323D01*
X156278828Y-92224990D02*
X156588352Y-92224990D01*
X156421685Y-92415466D01*
X156493114Y-92415466D01*
X156540733Y-92439276D01*
X156564542Y-92463085D01*
X156588352Y-92510704D01*
X156588352Y-92629752D01*
X156564542Y-92677371D01*
X156540733Y-92701180D01*
X156493114Y-92724990D01*
X156350257Y-92724990D01*
X156302638Y-92701180D01*
X156278828Y-92677371D01*
X141728727Y-92099990D02*
X141728727Y-92504752D01*
X141752537Y-92552371D01*
X141776346Y-92576180D01*
X141823965Y-92599990D01*
X141919203Y-92599990D01*
X141966822Y-92576180D01*
X141990632Y-92552371D01*
X142014441Y-92504752D01*
X142014441Y-92099990D01*
X142204918Y-92099990D02*
X142514441Y-92099990D01*
X142347775Y-92290466D01*
X142419203Y-92290466D01*
X142466822Y-92314276D01*
X142490632Y-92338085D01*
X142514441Y-92385704D01*
X142514441Y-92504752D01*
X142490632Y-92552371D01*
X142466822Y-92576180D01*
X142419203Y-92599990D01*
X142276346Y-92599990D01*
X142228727Y-92576180D01*
X142204918Y-92552371D01*
X123890632Y-74449990D02*
X123890632Y-73949990D01*
X124009680Y-73949990D01*
X124081108Y-73973800D01*
X124128727Y-74021419D01*
X124152537Y-74069038D01*
X124176346Y-74164276D01*
X124176346Y-74235704D01*
X124152537Y-74330942D01*
X124128727Y-74378561D01*
X124081108Y-74426180D01*
X124009680Y-74449990D01*
X123890632Y-74449990D01*
X124628727Y-73949990D02*
X124390632Y-73949990D01*
X124366822Y-74188085D01*
X124390632Y-74164276D01*
X124438251Y-74140466D01*
X124557299Y-74140466D01*
X124604918Y-74164276D01*
X124628727Y-74188085D01*
X124652537Y-74235704D01*
X124652537Y-74354752D01*
X124628727Y-74402371D01*
X124604918Y-74426180D01*
X124557299Y-74449990D01*
X124438251Y-74449990D01*
X124390632Y-74426180D01*
X124366822Y-74402371D01*
X146435870Y-73892847D02*
X145935870Y-73892847D01*
X145935870Y-73773800D01*
X145959680Y-73702371D01*
X146007299Y-73654752D01*
X146054918Y-73630942D01*
X146150156Y-73607133D01*
X146221584Y-73607133D01*
X146316822Y-73630942D01*
X146364441Y-73654752D01*
X146412060Y-73702371D01*
X146435870Y-73773800D01*
X146435870Y-73892847D01*
X146102537Y-73178561D02*
X146435870Y-73178561D01*
X145912060Y-73297609D02*
X146269203Y-73416657D01*
X146269203Y-73107133D01*
X170454918Y-92824990D02*
X170454918Y-93182133D01*
X170431108Y-93253561D01*
X170383489Y-93301180D01*
X170312060Y-93324990D01*
X170264441Y-93324990D01*
X170954918Y-93324990D02*
X170669203Y-93324990D01*
X170812060Y-93324990D02*
X170812060Y-92824990D01*
X170764441Y-92896419D01*
X170716822Y-92944038D01*
X170669203Y-92967847D01*
X171264441Y-92824990D02*
X171312060Y-92824990D01*
X171359680Y-92848800D01*
X171383489Y-92872609D01*
X171407299Y-92920228D01*
X171431108Y-93015466D01*
X171431108Y-93134514D01*
X171407299Y-93229752D01*
X171383489Y-93277371D01*
X171359680Y-93301180D01*
X171312060Y-93324990D01*
X171264441Y-93324990D01*
X171216822Y-93301180D01*
X171193013Y-93277371D01*
X171169203Y-93229752D01*
X171145394Y-93134514D01*
X171145394Y-93015466D01*
X171169203Y-92920228D01*
X171193013Y-92872609D01*
X171216822Y-92848800D01*
X171264441Y-92824990D01*
X130315471Y-107842833D02*
X130339280Y-107866642D01*
X130363090Y-107938071D01*
X130363090Y-107985690D01*
X130339280Y-108057119D01*
X130291661Y-108104738D01*
X130244042Y-108128547D01*
X130148804Y-108152357D01*
X130077376Y-108152357D01*
X129982138Y-108128547D01*
X129934519Y-108104738D01*
X129886900Y-108057119D01*
X129863090Y-107985690D01*
X129863090Y-107938071D01*
X129886900Y-107866642D01*
X129910709Y-107842833D01*
X130363090Y-107366642D02*
X130363090Y-107652357D01*
X130363090Y-107509500D02*
X129863090Y-107509500D01*
X129934519Y-107557119D01*
X129982138Y-107604738D01*
X130005947Y-107652357D01*
X133338251Y-66482133D02*
X133362060Y-66505942D01*
X133385870Y-66577371D01*
X133385870Y-66624990D01*
X133362060Y-66696419D01*
X133314441Y-66744038D01*
X133266822Y-66767847D01*
X133171584Y-66791657D01*
X133100156Y-66791657D01*
X133004918Y-66767847D01*
X132957299Y-66744038D01*
X132909680Y-66696419D01*
X132885870Y-66624990D01*
X132885870Y-66577371D01*
X132909680Y-66505942D01*
X132933489Y-66482133D01*
X132933489Y-66291657D02*
X132909680Y-66267847D01*
X132885870Y-66220228D01*
X132885870Y-66101180D01*
X132909680Y-66053561D01*
X132933489Y-66029752D01*
X132981108Y-66005942D01*
X133028727Y-66005942D01*
X133100156Y-66029752D01*
X133385870Y-66315466D01*
X133385870Y-66005942D01*
X147288251Y-109757133D02*
X147312060Y-109780942D01*
X147335870Y-109852371D01*
X147335870Y-109899990D01*
X147312060Y-109971419D01*
X147264441Y-110019038D01*
X147216822Y-110042847D01*
X147121584Y-110066657D01*
X147050156Y-110066657D01*
X146954918Y-110042847D01*
X146907299Y-110019038D01*
X146859680Y-109971419D01*
X146835870Y-109899990D01*
X146835870Y-109852371D01*
X146859680Y-109780942D01*
X146883489Y-109757133D01*
X146835870Y-109590466D02*
X146835870Y-109280942D01*
X147026346Y-109447609D01*
X147026346Y-109376180D01*
X147050156Y-109328561D01*
X147073965Y-109304752D01*
X147121584Y-109280942D01*
X147240632Y-109280942D01*
X147288251Y-109304752D01*
X147312060Y-109328561D01*
X147335870Y-109376180D01*
X147335870Y-109519038D01*
X147312060Y-109566657D01*
X147288251Y-109590466D01*
X130313251Y-104882133D02*
X130337060Y-104905942D01*
X130360870Y-104977371D01*
X130360870Y-105024990D01*
X130337060Y-105096419D01*
X130289441Y-105144038D01*
X130241822Y-105167847D01*
X130146584Y-105191657D01*
X130075156Y-105191657D01*
X129979918Y-105167847D01*
X129932299Y-105144038D01*
X129884680Y-105096419D01*
X129860870Y-105024990D01*
X129860870Y-104977371D01*
X129884680Y-104905942D01*
X129908489Y-104882133D01*
X130027537Y-104453561D02*
X130360870Y-104453561D01*
X129837060Y-104572609D02*
X130194203Y-104691657D01*
X130194203Y-104382133D01*
X142823571Y-94596733D02*
X142847380Y-94620542D01*
X142871190Y-94691971D01*
X142871190Y-94739590D01*
X142847380Y-94811019D01*
X142799761Y-94858638D01*
X142752142Y-94882447D01*
X142656904Y-94906257D01*
X142585476Y-94906257D01*
X142490238Y-94882447D01*
X142442619Y-94858638D01*
X142395000Y-94811019D01*
X142371190Y-94739590D01*
X142371190Y-94691971D01*
X142395000Y-94620542D01*
X142418809Y-94596733D01*
X142871190Y-94358638D02*
X142871190Y-94263400D01*
X142847380Y-94215780D01*
X142823571Y-94191971D01*
X142752142Y-94144352D01*
X142656904Y-94120542D01*
X142466428Y-94120542D01*
X142418809Y-94144352D01*
X142395000Y-94168161D01*
X142371190Y-94215780D01*
X142371190Y-94311019D01*
X142395000Y-94358638D01*
X142418809Y-94382447D01*
X142466428Y-94406257D01*
X142585476Y-94406257D01*
X142633095Y-94382447D01*
X142656904Y-94358638D01*
X142680714Y-94311019D01*
X142680714Y-94215780D01*
X142656904Y-94168161D01*
X142633095Y-94144352D01*
X142585476Y-94120542D01*
X130338251Y-106720228D02*
X130362060Y-106744038D01*
X130385870Y-106815466D01*
X130385870Y-106863085D01*
X130362060Y-106934514D01*
X130314441Y-106982133D01*
X130266822Y-107005942D01*
X130171584Y-107029752D01*
X130100156Y-107029752D01*
X130004918Y-107005942D01*
X129957299Y-106982133D01*
X129909680Y-106934514D01*
X129885870Y-106863085D01*
X129885870Y-106815466D01*
X129909680Y-106744038D01*
X129933489Y-106720228D01*
X130385870Y-106244038D02*
X130385870Y-106529752D01*
X130385870Y-106386895D02*
X129885870Y-106386895D01*
X129957299Y-106434514D01*
X130004918Y-106482133D01*
X130028727Y-106529752D01*
X129885870Y-105934514D02*
X129885870Y-105886895D01*
X129909680Y-105839276D01*
X129933489Y-105815466D01*
X129981108Y-105791657D01*
X130076346Y-105767847D01*
X130195394Y-105767847D01*
X130290632Y-105791657D01*
X130338251Y-105815466D01*
X130362060Y-105839276D01*
X130385870Y-105886895D01*
X130385870Y-105934514D01*
X130362060Y-105982133D01*
X130338251Y-106005942D01*
X130290632Y-106029752D01*
X130195394Y-106053561D01*
X130076346Y-106053561D01*
X129981108Y-106029752D01*
X129933489Y-106005942D01*
X129909680Y-105982133D01*
X129885870Y-105934514D01*
X130788251Y-100827371D02*
X130764441Y-100851180D01*
X130693013Y-100874990D01*
X130645394Y-100874990D01*
X130573965Y-100851180D01*
X130526346Y-100803561D01*
X130502537Y-100755942D01*
X130478727Y-100660704D01*
X130478727Y-100589276D01*
X130502537Y-100494038D01*
X130526346Y-100446419D01*
X130573965Y-100398800D01*
X130645394Y-100374990D01*
X130693013Y-100374990D01*
X130764441Y-100398800D01*
X130788251Y-100422609D01*
X131264441Y-100874990D02*
X130978727Y-100874990D01*
X131121584Y-100874990D02*
X131121584Y-100374990D01*
X131073965Y-100446419D01*
X131026346Y-100494038D01*
X130978727Y-100517847D01*
X131740632Y-100874990D02*
X131454918Y-100874990D01*
X131597775Y-100874990D02*
X131597775Y-100374990D01*
X131550156Y-100446419D01*
X131502537Y-100494038D01*
X131454918Y-100517847D01*
X146201771Y-97819328D02*
X146225580Y-97843138D01*
X146249390Y-97914566D01*
X146249390Y-97962185D01*
X146225580Y-98033614D01*
X146177961Y-98081233D01*
X146130342Y-98105042D01*
X146035104Y-98128852D01*
X145963676Y-98128852D01*
X145868438Y-98105042D01*
X145820819Y-98081233D01*
X145773200Y-98033614D01*
X145749390Y-97962185D01*
X145749390Y-97914566D01*
X145773200Y-97843138D01*
X145797009Y-97819328D01*
X146249390Y-97343138D02*
X146249390Y-97628852D01*
X146249390Y-97485995D02*
X145749390Y-97485995D01*
X145820819Y-97533614D01*
X145868438Y-97581233D01*
X145892247Y-97628852D01*
X145797009Y-97152661D02*
X145773200Y-97128852D01*
X145749390Y-97081233D01*
X145749390Y-96962185D01*
X145773200Y-96914566D01*
X145797009Y-96890757D01*
X145844628Y-96866947D01*
X145892247Y-96866947D01*
X145963676Y-96890757D01*
X146249390Y-97176471D01*
X146249390Y-96866947D01*
X128888251Y-83377371D02*
X128864441Y-83401180D01*
X128793013Y-83424990D01*
X128745394Y-83424990D01*
X128673965Y-83401180D01*
X128626346Y-83353561D01*
X128602537Y-83305942D01*
X128578727Y-83210704D01*
X128578727Y-83139276D01*
X128602537Y-83044038D01*
X128626346Y-82996419D01*
X128673965Y-82948800D01*
X128745394Y-82924990D01*
X128793013Y-82924990D01*
X128864441Y-82948800D01*
X128888251Y-82972609D01*
X129364441Y-83424990D02*
X129078727Y-83424990D01*
X129221584Y-83424990D02*
X129221584Y-82924990D01*
X129173965Y-82996419D01*
X129126346Y-83044038D01*
X129078727Y-83067847D01*
X129793013Y-83091657D02*
X129793013Y-83424990D01*
X129673965Y-82901180D02*
X129554918Y-83258323D01*
X129864441Y-83258323D01*
X127763251Y-81027371D02*
X127739441Y-81051180D01*
X127668013Y-81074990D01*
X127620394Y-81074990D01*
X127548965Y-81051180D01*
X127501346Y-81003561D01*
X127477537Y-80955942D01*
X127453727Y-80860704D01*
X127453727Y-80789276D01*
X127477537Y-80694038D01*
X127501346Y-80646419D01*
X127548965Y-80598800D01*
X127620394Y-80574990D01*
X127668013Y-80574990D01*
X127739441Y-80598800D01*
X127763251Y-80622609D01*
X128239441Y-81074990D02*
X127953727Y-81074990D01*
X128096584Y-81074990D02*
X128096584Y-80574990D01*
X128048965Y-80646419D01*
X128001346Y-80694038D01*
X127953727Y-80717847D01*
X128691822Y-80574990D02*
X128453727Y-80574990D01*
X128429918Y-80813085D01*
X128453727Y-80789276D01*
X128501346Y-80765466D01*
X128620394Y-80765466D01*
X128668013Y-80789276D01*
X128691822Y-80813085D01*
X128715632Y-80860704D01*
X128715632Y-80979752D01*
X128691822Y-81027371D01*
X128668013Y-81051180D01*
X128620394Y-81074990D01*
X128501346Y-81074990D01*
X128453727Y-81051180D01*
X128429918Y-81027371D01*
X128938251Y-84777371D02*
X128914441Y-84801180D01*
X128843013Y-84824990D01*
X128795394Y-84824990D01*
X128723965Y-84801180D01*
X128676346Y-84753561D01*
X128652537Y-84705942D01*
X128628727Y-84610704D01*
X128628727Y-84539276D01*
X128652537Y-84444038D01*
X128676346Y-84396419D01*
X128723965Y-84348800D01*
X128795394Y-84324990D01*
X128843013Y-84324990D01*
X128914441Y-84348800D01*
X128938251Y-84372609D01*
X129414441Y-84824990D02*
X129128727Y-84824990D01*
X129271584Y-84824990D02*
X129271584Y-84324990D01*
X129223965Y-84396419D01*
X129176346Y-84444038D01*
X129128727Y-84467847D01*
X129843013Y-84324990D02*
X129747775Y-84324990D01*
X129700156Y-84348800D01*
X129676346Y-84372609D01*
X129628727Y-84444038D01*
X129604918Y-84539276D01*
X129604918Y-84729752D01*
X129628727Y-84777371D01*
X129652537Y-84801180D01*
X129700156Y-84824990D01*
X129795394Y-84824990D01*
X129843013Y-84801180D01*
X129866822Y-84777371D01*
X129890632Y-84729752D01*
X129890632Y-84610704D01*
X129866822Y-84563085D01*
X129843013Y-84539276D01*
X129795394Y-84515466D01*
X129700156Y-84515466D01*
X129652537Y-84539276D01*
X129628727Y-84563085D01*
X129604918Y-84610704D01*
X129088251Y-76177371D02*
X129064441Y-76201180D01*
X128993013Y-76224990D01*
X128945394Y-76224990D01*
X128873965Y-76201180D01*
X128826346Y-76153561D01*
X128802537Y-76105942D01*
X128778727Y-76010704D01*
X128778727Y-75939276D01*
X128802537Y-75844038D01*
X128826346Y-75796419D01*
X128873965Y-75748800D01*
X128945394Y-75724990D01*
X128993013Y-75724990D01*
X129064441Y-75748800D01*
X129088251Y-75772609D01*
X129564441Y-76224990D02*
X129278727Y-76224990D01*
X129421584Y-76224990D02*
X129421584Y-75724990D01*
X129373965Y-75796419D01*
X129326346Y-75844038D01*
X129278727Y-75867847D01*
X129731108Y-75724990D02*
X130064441Y-75724990D01*
X129850156Y-76224990D01*
X129788251Y-88120228D02*
X129812060Y-88144038D01*
X129835870Y-88215466D01*
X129835870Y-88263085D01*
X129812060Y-88334514D01*
X129764441Y-88382133D01*
X129716822Y-88405942D01*
X129621584Y-88429752D01*
X129550156Y-88429752D01*
X129454918Y-88405942D01*
X129407299Y-88382133D01*
X129359680Y-88334514D01*
X129335870Y-88263085D01*
X129335870Y-88215466D01*
X129359680Y-88144038D01*
X129383489Y-88120228D01*
X129835870Y-87644038D02*
X129835870Y-87929752D01*
X129835870Y-87786895D02*
X129335870Y-87786895D01*
X129407299Y-87834514D01*
X129454918Y-87882133D01*
X129478727Y-87929752D01*
X129550156Y-87358323D02*
X129526346Y-87405942D01*
X129502537Y-87429752D01*
X129454918Y-87453561D01*
X129431108Y-87453561D01*
X129383489Y-87429752D01*
X129359680Y-87405942D01*
X129335870Y-87358323D01*
X129335870Y-87263085D01*
X129359680Y-87215466D01*
X129383489Y-87191657D01*
X129431108Y-87167847D01*
X129454918Y-87167847D01*
X129502537Y-87191657D01*
X129526346Y-87215466D01*
X129550156Y-87263085D01*
X129550156Y-87358323D01*
X129573965Y-87405942D01*
X129597775Y-87429752D01*
X129645394Y-87453561D01*
X129740632Y-87453561D01*
X129788251Y-87429752D01*
X129812060Y-87405942D01*
X129835870Y-87358323D01*
X129835870Y-87263085D01*
X129812060Y-87215466D01*
X129788251Y-87191657D01*
X129740632Y-87167847D01*
X129645394Y-87167847D01*
X129597775Y-87191657D01*
X129573965Y-87215466D01*
X129550156Y-87263085D01*
X128963251Y-85927371D02*
X128939441Y-85951180D01*
X128868013Y-85974990D01*
X128820394Y-85974990D01*
X128748965Y-85951180D01*
X128701346Y-85903561D01*
X128677537Y-85855942D01*
X128653727Y-85760704D01*
X128653727Y-85689276D01*
X128677537Y-85594038D01*
X128701346Y-85546419D01*
X128748965Y-85498800D01*
X128820394Y-85474990D01*
X128868013Y-85474990D01*
X128939441Y-85498800D01*
X128963251Y-85522609D01*
X129153727Y-85522609D02*
X129177537Y-85498800D01*
X129225156Y-85474990D01*
X129344203Y-85474990D01*
X129391822Y-85498800D01*
X129415632Y-85522609D01*
X129439441Y-85570228D01*
X129439441Y-85617847D01*
X129415632Y-85689276D01*
X129129918Y-85974990D01*
X129439441Y-85974990D01*
X129748965Y-85474990D02*
X129796584Y-85474990D01*
X129844203Y-85498800D01*
X129868013Y-85522609D01*
X129891822Y-85570228D01*
X129915632Y-85665466D01*
X129915632Y-85784514D01*
X129891822Y-85879752D01*
X129868013Y-85927371D01*
X129844203Y-85951180D01*
X129796584Y-85974990D01*
X129748965Y-85974990D01*
X129701346Y-85951180D01*
X129677537Y-85927371D01*
X129653727Y-85879752D01*
X129629918Y-85784514D01*
X129629918Y-85665466D01*
X129653727Y-85570228D01*
X129677537Y-85522609D01*
X129701346Y-85498800D01*
X129748965Y-85474990D01*
X134363251Y-93045228D02*
X134387060Y-93069038D01*
X134410870Y-93140466D01*
X134410870Y-93188085D01*
X134387060Y-93259514D01*
X134339441Y-93307133D01*
X134291822Y-93330942D01*
X134196584Y-93354752D01*
X134125156Y-93354752D01*
X134029918Y-93330942D01*
X133982299Y-93307133D01*
X133934680Y-93259514D01*
X133910870Y-93188085D01*
X133910870Y-93140466D01*
X133934680Y-93069038D01*
X133958489Y-93045228D01*
X133958489Y-92854752D02*
X133934680Y-92830942D01*
X133910870Y-92783323D01*
X133910870Y-92664276D01*
X133934680Y-92616657D01*
X133958489Y-92592847D01*
X134006108Y-92569038D01*
X134053727Y-92569038D01*
X134125156Y-92592847D01*
X134410870Y-92878561D01*
X134410870Y-92569038D01*
X134410870Y-92092847D02*
X134410870Y-92378561D01*
X134410870Y-92235704D02*
X133910870Y-92235704D01*
X133982299Y-92283323D01*
X134029918Y-92330942D01*
X134053727Y-92378561D01*
X148838251Y-92470228D02*
X148862060Y-92494038D01*
X148885870Y-92565466D01*
X148885870Y-92613085D01*
X148862060Y-92684514D01*
X148814441Y-92732133D01*
X148766822Y-92755942D01*
X148671584Y-92779752D01*
X148600156Y-92779752D01*
X148504918Y-92755942D01*
X148457299Y-92732133D01*
X148409680Y-92684514D01*
X148385870Y-92613085D01*
X148385870Y-92565466D01*
X148409680Y-92494038D01*
X148433489Y-92470228D01*
X148433489Y-92279752D02*
X148409680Y-92255942D01*
X148385870Y-92208323D01*
X148385870Y-92089276D01*
X148409680Y-92041657D01*
X148433489Y-92017847D01*
X148481108Y-91994038D01*
X148528727Y-91994038D01*
X148600156Y-92017847D01*
X148885870Y-92303561D01*
X148885870Y-91994038D01*
X148385870Y-91827371D02*
X148385870Y-91517847D01*
X148576346Y-91684514D01*
X148576346Y-91613085D01*
X148600156Y-91565466D01*
X148623965Y-91541657D01*
X148671584Y-91517847D01*
X148790632Y-91517847D01*
X148838251Y-91541657D01*
X148862060Y-91565466D01*
X148885870Y-91613085D01*
X148885870Y-91755942D01*
X148862060Y-91803561D01*
X148838251Y-91827371D01*
X143438251Y-77295228D02*
X143462060Y-77319038D01*
X143485870Y-77390466D01*
X143485870Y-77438085D01*
X143462060Y-77509514D01*
X143414441Y-77557133D01*
X143366822Y-77580942D01*
X143271584Y-77604752D01*
X143200156Y-77604752D01*
X143104918Y-77580942D01*
X143057299Y-77557133D01*
X143009680Y-77509514D01*
X142985870Y-77438085D01*
X142985870Y-77390466D01*
X143009680Y-77319038D01*
X143033489Y-77295228D01*
X143033489Y-77104752D02*
X143009680Y-77080942D01*
X142985870Y-77033323D01*
X142985870Y-76914276D01*
X143009680Y-76866657D01*
X143033489Y-76842847D01*
X143081108Y-76819038D01*
X143128727Y-76819038D01*
X143200156Y-76842847D01*
X143485870Y-77128561D01*
X143485870Y-76819038D01*
X143152537Y-76390466D02*
X143485870Y-76390466D01*
X142962060Y-76509514D02*
X143319203Y-76628561D01*
X143319203Y-76319038D01*
X144563251Y-83727371D02*
X144539441Y-83751180D01*
X144468013Y-83774990D01*
X144420394Y-83774990D01*
X144348965Y-83751180D01*
X144301346Y-83703561D01*
X144277537Y-83655942D01*
X144253727Y-83560704D01*
X144253727Y-83489276D01*
X144277537Y-83394038D01*
X144301346Y-83346419D01*
X144348965Y-83298800D01*
X144420394Y-83274990D01*
X144468013Y-83274990D01*
X144539441Y-83298800D01*
X144563251Y-83322609D01*
X144753727Y-83322609D02*
X144777537Y-83298800D01*
X144825156Y-83274990D01*
X144944203Y-83274990D01*
X144991822Y-83298800D01*
X145015632Y-83322609D01*
X145039441Y-83370228D01*
X145039441Y-83417847D01*
X145015632Y-83489276D01*
X144729918Y-83774990D01*
X145039441Y-83774990D01*
X145468013Y-83274990D02*
X145372775Y-83274990D01*
X145325156Y-83298800D01*
X145301346Y-83322609D01*
X145253727Y-83394038D01*
X145229918Y-83489276D01*
X145229918Y-83679752D01*
X145253727Y-83727371D01*
X145277537Y-83751180D01*
X145325156Y-83774990D01*
X145420394Y-83774990D01*
X145468013Y-83751180D01*
X145491822Y-83727371D01*
X145515632Y-83679752D01*
X145515632Y-83560704D01*
X145491822Y-83513085D01*
X145468013Y-83489276D01*
X145420394Y-83465466D01*
X145325156Y-83465466D01*
X145277537Y-83489276D01*
X145253727Y-83513085D01*
X145229918Y-83560704D01*
X144513251Y-86202371D02*
X144489441Y-86226180D01*
X144418013Y-86249990D01*
X144370394Y-86249990D01*
X144298965Y-86226180D01*
X144251346Y-86178561D01*
X144227537Y-86130942D01*
X144203727Y-86035704D01*
X144203727Y-85964276D01*
X144227537Y-85869038D01*
X144251346Y-85821419D01*
X144298965Y-85773800D01*
X144370394Y-85749990D01*
X144418013Y-85749990D01*
X144489441Y-85773800D01*
X144513251Y-85797609D01*
X144703727Y-85797609D02*
X144727537Y-85773800D01*
X144775156Y-85749990D01*
X144894203Y-85749990D01*
X144941822Y-85773800D01*
X144965632Y-85797609D01*
X144989441Y-85845228D01*
X144989441Y-85892847D01*
X144965632Y-85964276D01*
X144679918Y-86249990D01*
X144989441Y-86249990D01*
X145156108Y-85749990D02*
X145489441Y-85749990D01*
X145275156Y-86249990D01*
X144738251Y-88702371D02*
X144714441Y-88726180D01*
X144643013Y-88749990D01*
X144595394Y-88749990D01*
X144523965Y-88726180D01*
X144476346Y-88678561D01*
X144452537Y-88630942D01*
X144428727Y-88535704D01*
X144428727Y-88464276D01*
X144452537Y-88369038D01*
X144476346Y-88321419D01*
X144523965Y-88273800D01*
X144595394Y-88249990D01*
X144643013Y-88249990D01*
X144714441Y-88273800D01*
X144738251Y-88297609D01*
X144928727Y-88297609D02*
X144952537Y-88273800D01*
X145000156Y-88249990D01*
X145119203Y-88249990D01*
X145166822Y-88273800D01*
X145190632Y-88297609D01*
X145214441Y-88345228D01*
X145214441Y-88392847D01*
X145190632Y-88464276D01*
X144904918Y-88749990D01*
X145214441Y-88749990D01*
X145500156Y-88464276D02*
X145452537Y-88440466D01*
X145428727Y-88416657D01*
X145404918Y-88369038D01*
X145404918Y-88345228D01*
X145428727Y-88297609D01*
X145452537Y-88273800D01*
X145500156Y-88249990D01*
X145595394Y-88249990D01*
X145643013Y-88273800D01*
X145666822Y-88297609D01*
X145690632Y-88345228D01*
X145690632Y-88369038D01*
X145666822Y-88416657D01*
X145643013Y-88440466D01*
X145595394Y-88464276D01*
X145500156Y-88464276D01*
X145452537Y-88488085D01*
X145428727Y-88511895D01*
X145404918Y-88559514D01*
X145404918Y-88654752D01*
X145428727Y-88702371D01*
X145452537Y-88726180D01*
X145500156Y-88749990D01*
X145595394Y-88749990D01*
X145643013Y-88726180D01*
X145666822Y-88702371D01*
X145690632Y-88654752D01*
X145690632Y-88559514D01*
X145666822Y-88511895D01*
X145643013Y-88488085D01*
X145595394Y-88464276D01*
X144013251Y-80177371D02*
X143989441Y-80201180D01*
X143918013Y-80224990D01*
X143870394Y-80224990D01*
X143798965Y-80201180D01*
X143751346Y-80153561D01*
X143727537Y-80105942D01*
X143703727Y-80010704D01*
X143703727Y-79939276D01*
X143727537Y-79844038D01*
X143751346Y-79796419D01*
X143798965Y-79748800D01*
X143870394Y-79724990D01*
X143918013Y-79724990D01*
X143989441Y-79748800D01*
X144013251Y-79772609D01*
X144203727Y-79772609D02*
X144227537Y-79748800D01*
X144275156Y-79724990D01*
X144394203Y-79724990D01*
X144441822Y-79748800D01*
X144465632Y-79772609D01*
X144489441Y-79820228D01*
X144489441Y-79867847D01*
X144465632Y-79939276D01*
X144179918Y-80224990D01*
X144489441Y-80224990D01*
X144727537Y-80224990D02*
X144822775Y-80224990D01*
X144870394Y-80201180D01*
X144894203Y-80177371D01*
X144941822Y-80105942D01*
X144965632Y-80010704D01*
X144965632Y-79820228D01*
X144941822Y-79772609D01*
X144918013Y-79748800D01*
X144870394Y-79724990D01*
X144775156Y-79724990D01*
X144727537Y-79748800D01*
X144703727Y-79772609D01*
X144679918Y-79820228D01*
X144679918Y-79939276D01*
X144703727Y-79986895D01*
X144727537Y-80010704D01*
X144775156Y-80034514D01*
X144870394Y-80034514D01*
X144918013Y-80010704D01*
X144941822Y-79986895D01*
X144965632Y-79939276D01*
X148738251Y-76520228D02*
X148762060Y-76544038D01*
X148785870Y-76615466D01*
X148785870Y-76663085D01*
X148762060Y-76734514D01*
X148714441Y-76782133D01*
X148666822Y-76805942D01*
X148571584Y-76829752D01*
X148500156Y-76829752D01*
X148404918Y-76805942D01*
X148357299Y-76782133D01*
X148309680Y-76734514D01*
X148285870Y-76663085D01*
X148285870Y-76615466D01*
X148309680Y-76544038D01*
X148333489Y-76520228D01*
X148285870Y-76353561D02*
X148285870Y-76044038D01*
X148476346Y-76210704D01*
X148476346Y-76139276D01*
X148500156Y-76091657D01*
X148523965Y-76067847D01*
X148571584Y-76044038D01*
X148690632Y-76044038D01*
X148738251Y-76067847D01*
X148762060Y-76091657D01*
X148785870Y-76139276D01*
X148785870Y-76282133D01*
X148762060Y-76329752D01*
X148738251Y-76353561D01*
X148285870Y-75734514D02*
X148285870Y-75686895D01*
X148309680Y-75639276D01*
X148333489Y-75615466D01*
X148381108Y-75591657D01*
X148476346Y-75567847D01*
X148595394Y-75567847D01*
X148690632Y-75591657D01*
X148738251Y-75615466D01*
X148762060Y-75639276D01*
X148785870Y-75686895D01*
X148785870Y-75734514D01*
X148762060Y-75782133D01*
X148738251Y-75805942D01*
X148690632Y-75829752D01*
X148595394Y-75853561D01*
X148476346Y-75853561D01*
X148381108Y-75829752D01*
X148333489Y-75805942D01*
X148309680Y-75782133D01*
X148285870Y-75734514D01*
X133288251Y-68152371D02*
X133264441Y-68176180D01*
X133193013Y-68199990D01*
X133145394Y-68199990D01*
X133073965Y-68176180D01*
X133026346Y-68128561D01*
X133002537Y-68080942D01*
X132978727Y-67985704D01*
X132978727Y-67914276D01*
X133002537Y-67819038D01*
X133026346Y-67771419D01*
X133073965Y-67723800D01*
X133145394Y-67699990D01*
X133193013Y-67699990D01*
X133264441Y-67723800D01*
X133288251Y-67747609D01*
X133454918Y-67699990D02*
X133764441Y-67699990D01*
X133597775Y-67890466D01*
X133669203Y-67890466D01*
X133716822Y-67914276D01*
X133740632Y-67938085D01*
X133764441Y-67985704D01*
X133764441Y-68104752D01*
X133740632Y-68152371D01*
X133716822Y-68176180D01*
X133669203Y-68199990D01*
X133526346Y-68199990D01*
X133478727Y-68176180D01*
X133454918Y-68152371D01*
X134240632Y-68199990D02*
X133954918Y-68199990D01*
X134097775Y-68199990D02*
X134097775Y-67699990D01*
X134050156Y-67771419D01*
X134002537Y-67819038D01*
X133954918Y-67842847D01*
X131613251Y-70645228D02*
X131637060Y-70669038D01*
X131660870Y-70740466D01*
X131660870Y-70788085D01*
X131637060Y-70859514D01*
X131589441Y-70907133D01*
X131541822Y-70930942D01*
X131446584Y-70954752D01*
X131375156Y-70954752D01*
X131279918Y-70930942D01*
X131232299Y-70907133D01*
X131184680Y-70859514D01*
X131160870Y-70788085D01*
X131160870Y-70740466D01*
X131184680Y-70669038D01*
X131208489Y-70645228D01*
X131160870Y-70478561D02*
X131160870Y-70169038D01*
X131351346Y-70335704D01*
X131351346Y-70264276D01*
X131375156Y-70216657D01*
X131398965Y-70192847D01*
X131446584Y-70169038D01*
X131565632Y-70169038D01*
X131613251Y-70192847D01*
X131637060Y-70216657D01*
X131660870Y-70264276D01*
X131660870Y-70407133D01*
X131637060Y-70454752D01*
X131613251Y-70478561D01*
X131208489Y-69978561D02*
X131184680Y-69954752D01*
X131160870Y-69907133D01*
X131160870Y-69788085D01*
X131184680Y-69740466D01*
X131208489Y-69716657D01*
X131256108Y-69692847D01*
X131303727Y-69692847D01*
X131375156Y-69716657D01*
X131660870Y-70002371D01*
X131660870Y-69692847D01*
X130138251Y-98520228D02*
X130162060Y-98544038D01*
X130185870Y-98615466D01*
X130185870Y-98663085D01*
X130162060Y-98734514D01*
X130114441Y-98782133D01*
X130066822Y-98805942D01*
X129971584Y-98829752D01*
X129900156Y-98829752D01*
X129804918Y-98805942D01*
X129757299Y-98782133D01*
X129709680Y-98734514D01*
X129685870Y-98663085D01*
X129685870Y-98615466D01*
X129709680Y-98544038D01*
X129733489Y-98520228D01*
X129685870Y-98353561D02*
X129685870Y-98044038D01*
X129876346Y-98210704D01*
X129876346Y-98139276D01*
X129900156Y-98091657D01*
X129923965Y-98067847D01*
X129971584Y-98044038D01*
X130090632Y-98044038D01*
X130138251Y-98067847D01*
X130162060Y-98091657D01*
X130185870Y-98139276D01*
X130185870Y-98282133D01*
X130162060Y-98329752D01*
X130138251Y-98353561D01*
X130185870Y-97805942D02*
X130185870Y-97710704D01*
X130162060Y-97663085D01*
X130138251Y-97639276D01*
X130066822Y-97591657D01*
X129971584Y-97567847D01*
X129781108Y-97567847D01*
X129733489Y-97591657D01*
X129709680Y-97615466D01*
X129685870Y-97663085D01*
X129685870Y-97758323D01*
X129709680Y-97805942D01*
X129733489Y-97829752D01*
X129781108Y-97853561D01*
X129900156Y-97853561D01*
X129947775Y-97829752D01*
X129971584Y-97805942D01*
X129995394Y-97758323D01*
X129995394Y-97663085D01*
X129971584Y-97615466D01*
X129947775Y-97591657D01*
X129900156Y-97567847D01*
X130263251Y-111445228D02*
X130287060Y-111469038D01*
X130310870Y-111540466D01*
X130310870Y-111588085D01*
X130287060Y-111659514D01*
X130239441Y-111707133D01*
X130191822Y-111730942D01*
X130096584Y-111754752D01*
X130025156Y-111754752D01*
X129929918Y-111730942D01*
X129882299Y-111707133D01*
X129834680Y-111659514D01*
X129810870Y-111588085D01*
X129810870Y-111540466D01*
X129834680Y-111469038D01*
X129858489Y-111445228D01*
X129977537Y-111016657D02*
X130310870Y-111016657D01*
X129787060Y-111135704D02*
X130144203Y-111254752D01*
X130144203Y-110945228D01*
X130025156Y-110683323D02*
X130001346Y-110730942D01*
X129977537Y-110754752D01*
X129929918Y-110778561D01*
X129906108Y-110778561D01*
X129858489Y-110754752D01*
X129834680Y-110730942D01*
X129810870Y-110683323D01*
X129810870Y-110588085D01*
X129834680Y-110540466D01*
X129858489Y-110516657D01*
X129906108Y-110492847D01*
X129929918Y-110492847D01*
X129977537Y-110516657D01*
X130001346Y-110540466D01*
X130025156Y-110588085D01*
X130025156Y-110683323D01*
X130048965Y-110730942D01*
X130072775Y-110754752D01*
X130120394Y-110778561D01*
X130215632Y-110778561D01*
X130263251Y-110754752D01*
X130287060Y-110730942D01*
X130310870Y-110683323D01*
X130310870Y-110588085D01*
X130287060Y-110540466D01*
X130263251Y-110516657D01*
X130215632Y-110492847D01*
X130120394Y-110492847D01*
X130072775Y-110516657D01*
X130048965Y-110540466D01*
X130025156Y-110588085D01*
X129338251Y-114745228D02*
X129362060Y-114769038D01*
X129385870Y-114840466D01*
X129385870Y-114888085D01*
X129362060Y-114959514D01*
X129314441Y-115007133D01*
X129266822Y-115030942D01*
X129171584Y-115054752D01*
X129100156Y-115054752D01*
X129004918Y-115030942D01*
X128957299Y-115007133D01*
X128909680Y-114959514D01*
X128885870Y-114888085D01*
X128885870Y-114840466D01*
X128909680Y-114769038D01*
X128933489Y-114745228D01*
X129052537Y-114316657D02*
X129385870Y-114316657D01*
X128862060Y-114435704D02*
X129219203Y-114554752D01*
X129219203Y-114245228D01*
X129385870Y-114030942D02*
X129385870Y-113935704D01*
X129362060Y-113888085D01*
X129338251Y-113864276D01*
X129266822Y-113816657D01*
X129171584Y-113792847D01*
X128981108Y-113792847D01*
X128933489Y-113816657D01*
X128909680Y-113840466D01*
X128885870Y-113888085D01*
X128885870Y-113983323D01*
X128909680Y-114030942D01*
X128933489Y-114054752D01*
X128981108Y-114078561D01*
X129100156Y-114078561D01*
X129147775Y-114054752D01*
X129171584Y-114030942D01*
X129195394Y-113983323D01*
X129195394Y-113888085D01*
X129171584Y-113840466D01*
X129147775Y-113816657D01*
X129100156Y-113792847D01*
X145023346Y-113373484D02*
X144989674Y-113373484D01*
X144922331Y-113339812D01*
X144888659Y-113306141D01*
X144854987Y-113238797D01*
X144854987Y-113171454D01*
X144871823Y-113120946D01*
X144922331Y-113036767D01*
X144972838Y-112986259D01*
X145057018Y-112935751D01*
X145107525Y-112918916D01*
X145174869Y-112918916D01*
X145242212Y-112952587D01*
X145275884Y-112986259D01*
X145309556Y-113053603D01*
X145309556Y-113087274D01*
X145663109Y-113373484D02*
X145494751Y-113205125D01*
X145309556Y-113356648D01*
X145343228Y-113356648D01*
X145393735Y-113373484D01*
X145477915Y-113457664D01*
X145494751Y-113508171D01*
X145494751Y-113541843D01*
X145477915Y-113592351D01*
X145393735Y-113676530D01*
X145343228Y-113693366D01*
X145309556Y-113693366D01*
X145259048Y-113676530D01*
X145174869Y-113592351D01*
X145158033Y-113541843D01*
X145158033Y-113508171D01*
X145898812Y-113609187D02*
X145932483Y-113642858D01*
X145949319Y-113693366D01*
X145949319Y-113727038D01*
X145932483Y-113777545D01*
X145881976Y-113861725D01*
X145797796Y-113945904D01*
X145713617Y-113996412D01*
X145663109Y-114013248D01*
X145629438Y-114013248D01*
X145578930Y-113996412D01*
X145545258Y-113962740D01*
X145528422Y-113912232D01*
X145528422Y-113878561D01*
X145545258Y-113828053D01*
X145595766Y-113743874D01*
X145679945Y-113659694D01*
X145764125Y-113609187D01*
X145814632Y-113592351D01*
X145848304Y-113592351D01*
X145898812Y-113609187D01*
X135750866Y-119349044D02*
X135717194Y-119349044D01*
X135649851Y-119315372D01*
X135616179Y-119281701D01*
X135582507Y-119214357D01*
X135582507Y-119147014D01*
X135599343Y-119096506D01*
X135649851Y-119012327D01*
X135700358Y-118961819D01*
X135784538Y-118911311D01*
X135835045Y-118894476D01*
X135902389Y-118894476D01*
X135969732Y-118928147D01*
X136003404Y-118961819D01*
X136037076Y-119029163D01*
X136037076Y-119062834D01*
X136390629Y-119349044D02*
X136222271Y-119180685D01*
X136037076Y-119332208D01*
X136070748Y-119332208D01*
X136121255Y-119349044D01*
X136205435Y-119433224D01*
X136222271Y-119483731D01*
X136222271Y-119517403D01*
X136205435Y-119567911D01*
X136121255Y-119652090D01*
X136070748Y-119668926D01*
X136037076Y-119668926D01*
X135986568Y-119652090D01*
X135902389Y-119567911D01*
X135885553Y-119517403D01*
X135885553Y-119483731D01*
X136390629Y-120056151D02*
X136188599Y-119854121D01*
X136289614Y-119955136D02*
X136643168Y-119601582D01*
X136558988Y-119618418D01*
X136491645Y-119618418D01*
X136441137Y-119601582D01*
X143842246Y-112154284D02*
X143808574Y-112154284D01*
X143741231Y-112120612D01*
X143707559Y-112086941D01*
X143673887Y-112019597D01*
X143673887Y-111952254D01*
X143690723Y-111901746D01*
X143741231Y-111817567D01*
X143791738Y-111767059D01*
X143875918Y-111716551D01*
X143926425Y-111699716D01*
X143993769Y-111699716D01*
X144061112Y-111733387D01*
X144094784Y-111767059D01*
X144128456Y-111834403D01*
X144128456Y-111868074D01*
X144482009Y-112154284D02*
X144313651Y-111985925D01*
X144128456Y-112137448D01*
X144162128Y-112137448D01*
X144212635Y-112154284D01*
X144296815Y-112238464D01*
X144313651Y-112288971D01*
X144313651Y-112322643D01*
X144296815Y-112373151D01*
X144212635Y-112457330D01*
X144162128Y-112474166D01*
X144128456Y-112474166D01*
X144077948Y-112457330D01*
X143993769Y-112373151D01*
X143976933Y-112322643D01*
X143976933Y-112288971D01*
X144599861Y-112339479D02*
X144633532Y-112339479D01*
X144684040Y-112356315D01*
X144768219Y-112440494D01*
X144785055Y-112491002D01*
X144785055Y-112524674D01*
X144768219Y-112575181D01*
X144734548Y-112608853D01*
X144667204Y-112642525D01*
X144263143Y-112642525D01*
X144482009Y-112861391D01*
X146631126Y-119147784D02*
X146597454Y-119147784D01*
X146530111Y-119114112D01*
X146496439Y-119080441D01*
X146462767Y-119013097D01*
X146462767Y-118945754D01*
X146479603Y-118895246D01*
X146530111Y-118811067D01*
X146580618Y-118760559D01*
X146664798Y-118710051D01*
X146715305Y-118693216D01*
X146782649Y-118693216D01*
X146849992Y-118726887D01*
X146883664Y-118760559D01*
X146917336Y-118827903D01*
X146917336Y-118861574D01*
X147270889Y-119147784D02*
X147102531Y-118979425D01*
X146917336Y-119130948D01*
X146951008Y-119130948D01*
X147001515Y-119147784D01*
X147085695Y-119231964D01*
X147102531Y-119282471D01*
X147102531Y-119316143D01*
X147085695Y-119366651D01*
X147001515Y-119450830D01*
X146951008Y-119467666D01*
X146917336Y-119467666D01*
X146866828Y-119450830D01*
X146782649Y-119366651D01*
X146765813Y-119316143D01*
X146765813Y-119282471D01*
X147607607Y-119484502D02*
X147439248Y-119316143D01*
X147254054Y-119467666D01*
X147287725Y-119467666D01*
X147338233Y-119484502D01*
X147422412Y-119568681D01*
X147439248Y-119619189D01*
X147439248Y-119652861D01*
X147422412Y-119703368D01*
X147338233Y-119787548D01*
X147287725Y-119804383D01*
X147254054Y-119804383D01*
X147203546Y-119787548D01*
X147119367Y-119703368D01*
X147102531Y-119652861D01*
X147102531Y-119619189D01*
X141206126Y-123022784D02*
X141172454Y-123022784D01*
X141105111Y-122989112D01*
X141071439Y-122955441D01*
X141037767Y-122888097D01*
X141037767Y-122820754D01*
X141054603Y-122770246D01*
X141105111Y-122686067D01*
X141155618Y-122635559D01*
X141239798Y-122585051D01*
X141290305Y-122568216D01*
X141357649Y-122568216D01*
X141424992Y-122601887D01*
X141458664Y-122635559D01*
X141492336Y-122702903D01*
X141492336Y-122736574D01*
X141845889Y-123022784D02*
X141677531Y-122854425D01*
X141492336Y-123005948D01*
X141526008Y-123005948D01*
X141576515Y-123022784D01*
X141660695Y-123106964D01*
X141677531Y-123157471D01*
X141677531Y-123191143D01*
X141660695Y-123241651D01*
X141576515Y-123325830D01*
X141526008Y-123342666D01*
X141492336Y-123342666D01*
X141441828Y-123325830D01*
X141357649Y-123241651D01*
X141340813Y-123191143D01*
X141340813Y-123157471D01*
X142165771Y-123342666D02*
X142098428Y-123275322D01*
X142047920Y-123258487D01*
X142014248Y-123258487D01*
X141930069Y-123275322D01*
X141845889Y-123325830D01*
X141711202Y-123460517D01*
X141694367Y-123511025D01*
X141694367Y-123544696D01*
X141711202Y-123595204D01*
X141778546Y-123662548D01*
X141829054Y-123679383D01*
X141862725Y-123679383D01*
X141913233Y-123662548D01*
X141997412Y-123578368D01*
X142014248Y-123527861D01*
X142014248Y-123494189D01*
X141997412Y-123443681D01*
X141930069Y-123376338D01*
X141879561Y-123359502D01*
X141845889Y-123359502D01*
X141795382Y-123376338D01*
X137777786Y-123400344D02*
X137744114Y-123400344D01*
X137676771Y-123366672D01*
X137643099Y-123333001D01*
X137609427Y-123265657D01*
X137609427Y-123198314D01*
X137626263Y-123147806D01*
X137676771Y-123063627D01*
X137727278Y-123013119D01*
X137811458Y-122962611D01*
X137861965Y-122945776D01*
X137929309Y-122945776D01*
X137996652Y-122979447D01*
X138030324Y-123013119D01*
X138063996Y-123080463D01*
X138063996Y-123114134D01*
X138417549Y-123400344D02*
X138249191Y-123231985D01*
X138063996Y-123383508D01*
X138097668Y-123383508D01*
X138148175Y-123400344D01*
X138232355Y-123484524D01*
X138249191Y-123535031D01*
X138249191Y-123568703D01*
X138232355Y-123619211D01*
X138148175Y-123703390D01*
X138097668Y-123720226D01*
X138063996Y-123720226D01*
X138013488Y-123703390D01*
X137929309Y-123619211D01*
X137912473Y-123568703D01*
X137912473Y-123535031D01*
X138552236Y-123535031D02*
X138787939Y-123770734D01*
X138282862Y-123972764D01*
X146052046Y-123711284D02*
X146018374Y-123711284D01*
X145951031Y-123677612D01*
X145917359Y-123643941D01*
X145883687Y-123576597D01*
X145883687Y-123509254D01*
X145900523Y-123458746D01*
X145951031Y-123374567D01*
X146001538Y-123324059D01*
X146085718Y-123273551D01*
X146136225Y-123256716D01*
X146203569Y-123256716D01*
X146270912Y-123290387D01*
X146304584Y-123324059D01*
X146338256Y-123391403D01*
X146338256Y-123425074D01*
X146691809Y-123711284D02*
X146523451Y-123542925D01*
X146338256Y-123694448D01*
X146371928Y-123694448D01*
X146422435Y-123711284D01*
X146506615Y-123795464D01*
X146523451Y-123845971D01*
X146523451Y-123879643D01*
X146506615Y-123930151D01*
X146422435Y-124014330D01*
X146371928Y-124031166D01*
X146338256Y-124031166D01*
X146287748Y-124014330D01*
X146203569Y-123930151D01*
X146186733Y-123879643D01*
X146186733Y-123845971D01*
X146759153Y-124081674D02*
X146742317Y-124031166D01*
X146742317Y-123997494D01*
X146759153Y-123946987D01*
X146775989Y-123930151D01*
X146826496Y-123913315D01*
X146860168Y-123913315D01*
X146910676Y-123930151D01*
X146978019Y-123997494D01*
X146994855Y-124048002D01*
X146994855Y-124081674D01*
X146978019Y-124132181D01*
X146961183Y-124149017D01*
X146910676Y-124165853D01*
X146877004Y-124165853D01*
X146826496Y-124149017D01*
X146759153Y-124081674D01*
X146708645Y-124064838D01*
X146674974Y-124064838D01*
X146624466Y-124081674D01*
X146557122Y-124149017D01*
X146540287Y-124199525D01*
X146540287Y-124233196D01*
X146557122Y-124283704D01*
X146624466Y-124351048D01*
X146674974Y-124367883D01*
X146708645Y-124367883D01*
X146759153Y-124351048D01*
X146826496Y-124283704D01*
X146843332Y-124233196D01*
X146843332Y-124199525D01*
X146826496Y-124149017D01*
X147606126Y-120197784D02*
X147572454Y-120197784D01*
X147505111Y-120164112D01*
X147471439Y-120130441D01*
X147437767Y-120063097D01*
X147437767Y-119995754D01*
X147454603Y-119945246D01*
X147505111Y-119861067D01*
X147555618Y-119810559D01*
X147639798Y-119760051D01*
X147690305Y-119743216D01*
X147757649Y-119743216D01*
X147824992Y-119776887D01*
X147858664Y-119810559D01*
X147892336Y-119877903D01*
X147892336Y-119911574D01*
X148245889Y-120197784D02*
X148077531Y-120029425D01*
X147892336Y-120180948D01*
X147926008Y-120180948D01*
X147976515Y-120197784D01*
X148060695Y-120281964D01*
X148077531Y-120332471D01*
X148077531Y-120366143D01*
X148060695Y-120416651D01*
X147976515Y-120500830D01*
X147926008Y-120517666D01*
X147892336Y-120517666D01*
X147841828Y-120500830D01*
X147757649Y-120416651D01*
X147740813Y-120366143D01*
X147740813Y-120332471D01*
X148077531Y-120736532D02*
X148144874Y-120803876D01*
X148195382Y-120820712D01*
X148229054Y-120820712D01*
X148313233Y-120803876D01*
X148397412Y-120753368D01*
X148532099Y-120618681D01*
X148548935Y-120568174D01*
X148548935Y-120534502D01*
X148532099Y-120483994D01*
X148464756Y-120416651D01*
X148414248Y-120399815D01*
X148380576Y-120399815D01*
X148330069Y-120416651D01*
X148245889Y-120500830D01*
X148229054Y-120551338D01*
X148229054Y-120585009D01*
X148245889Y-120635517D01*
X148313233Y-120702861D01*
X148363741Y-120719696D01*
X148397412Y-120719696D01*
X148447920Y-120702861D01*
X129063251Y-88120228D02*
X129087060Y-88144038D01*
X129110870Y-88215466D01*
X129110870Y-88263085D01*
X129087060Y-88334514D01*
X129039441Y-88382133D01*
X128991822Y-88405942D01*
X128896584Y-88429752D01*
X128825156Y-88429752D01*
X128729918Y-88405942D01*
X128682299Y-88382133D01*
X128634680Y-88334514D01*
X128610870Y-88263085D01*
X128610870Y-88215466D01*
X128634680Y-88144038D01*
X128658489Y-88120228D01*
X128610870Y-87691657D02*
X128610870Y-87786895D01*
X128634680Y-87834514D01*
X128658489Y-87858323D01*
X128729918Y-87905942D01*
X128825156Y-87929752D01*
X129015632Y-87929752D01*
X129063251Y-87905942D01*
X129087060Y-87882133D01*
X129110870Y-87834514D01*
X129110870Y-87739276D01*
X129087060Y-87691657D01*
X129063251Y-87667847D01*
X129015632Y-87644038D01*
X128896584Y-87644038D01*
X128848965Y-87667847D01*
X128825156Y-87691657D01*
X128801346Y-87739276D01*
X128801346Y-87834514D01*
X128825156Y-87882133D01*
X128848965Y-87905942D01*
X128896584Y-87929752D01*
X128610870Y-87334514D02*
X128610870Y-87286895D01*
X128634680Y-87239276D01*
X128658489Y-87215466D01*
X128706108Y-87191657D01*
X128801346Y-87167847D01*
X128920394Y-87167847D01*
X129015632Y-87191657D01*
X129063251Y-87215466D01*
X129087060Y-87239276D01*
X129110870Y-87286895D01*
X129110870Y-87334514D01*
X129087060Y-87382133D01*
X129063251Y-87405942D01*
X129015632Y-87429752D01*
X128920394Y-87453561D01*
X128801346Y-87453561D01*
X128706108Y-87429752D01*
X128658489Y-87405942D01*
X128634680Y-87382133D01*
X128610870Y-87334514D01*
X133663251Y-93070228D02*
X133687060Y-93094038D01*
X133710870Y-93165466D01*
X133710870Y-93213085D01*
X133687060Y-93284514D01*
X133639441Y-93332133D01*
X133591822Y-93355942D01*
X133496584Y-93379752D01*
X133425156Y-93379752D01*
X133329918Y-93355942D01*
X133282299Y-93332133D01*
X133234680Y-93284514D01*
X133210870Y-93213085D01*
X133210870Y-93165466D01*
X133234680Y-93094038D01*
X133258489Y-93070228D01*
X133210870Y-92641657D02*
X133210870Y-92736895D01*
X133234680Y-92784514D01*
X133258489Y-92808323D01*
X133329918Y-92855942D01*
X133425156Y-92879752D01*
X133615632Y-92879752D01*
X133663251Y-92855942D01*
X133687060Y-92832133D01*
X133710870Y-92784514D01*
X133710870Y-92689276D01*
X133687060Y-92641657D01*
X133663251Y-92617847D01*
X133615632Y-92594038D01*
X133496584Y-92594038D01*
X133448965Y-92617847D01*
X133425156Y-92641657D01*
X133401346Y-92689276D01*
X133401346Y-92784514D01*
X133425156Y-92832133D01*
X133448965Y-92855942D01*
X133496584Y-92879752D01*
X133710870Y-92117847D02*
X133710870Y-92403561D01*
X133710870Y-92260704D02*
X133210870Y-92260704D01*
X133282299Y-92308323D01*
X133329918Y-92355942D01*
X133353727Y-92403561D01*
X128338251Y-88145228D02*
X128362060Y-88169038D01*
X128385870Y-88240466D01*
X128385870Y-88288085D01*
X128362060Y-88359514D01*
X128314441Y-88407133D01*
X128266822Y-88430942D01*
X128171584Y-88454752D01*
X128100156Y-88454752D01*
X128004918Y-88430942D01*
X127957299Y-88407133D01*
X127909680Y-88359514D01*
X127885870Y-88288085D01*
X127885870Y-88240466D01*
X127909680Y-88169038D01*
X127933489Y-88145228D01*
X127885870Y-87716657D02*
X127885870Y-87811895D01*
X127909680Y-87859514D01*
X127933489Y-87883323D01*
X128004918Y-87930942D01*
X128100156Y-87954752D01*
X128290632Y-87954752D01*
X128338251Y-87930942D01*
X128362060Y-87907133D01*
X128385870Y-87859514D01*
X128385870Y-87764276D01*
X128362060Y-87716657D01*
X128338251Y-87692847D01*
X128290632Y-87669038D01*
X128171584Y-87669038D01*
X128123965Y-87692847D01*
X128100156Y-87716657D01*
X128076346Y-87764276D01*
X128076346Y-87859514D01*
X128100156Y-87907133D01*
X128123965Y-87930942D01*
X128171584Y-87954752D01*
X127933489Y-87478561D02*
X127909680Y-87454752D01*
X127885870Y-87407133D01*
X127885870Y-87288085D01*
X127909680Y-87240466D01*
X127933489Y-87216657D01*
X127981108Y-87192847D01*
X128028727Y-87192847D01*
X128100156Y-87216657D01*
X128385870Y-87502371D01*
X128385870Y-87192847D01*
X134071490Y-73108333D02*
X134071490Y-73346428D01*
X133571490Y-73346428D01*
X133619109Y-72965476D02*
X133595300Y-72941666D01*
X133571490Y-72894047D01*
X133571490Y-72775000D01*
X133595300Y-72727380D01*
X133619109Y-72703571D01*
X133666728Y-72679761D01*
X133714347Y-72679761D01*
X133785776Y-72703571D01*
X134071490Y-72989285D01*
X134071490Y-72679761D01*
X141490813Y-121074815D02*
X141322454Y-120906456D01*
X141676008Y-120552903D01*
X141928546Y-120805441D02*
X142147412Y-121024307D01*
X141894874Y-121041143D01*
X141945382Y-121091651D01*
X141962218Y-121142158D01*
X141962218Y-121175830D01*
X141945382Y-121226338D01*
X141861202Y-121310517D01*
X141810695Y-121327353D01*
X141777023Y-121327353D01*
X141726515Y-121310517D01*
X141625500Y-121209502D01*
X141608664Y-121158994D01*
X141608664Y-121125322D01*
X144307132Y-122262315D02*
X144138773Y-122093956D01*
X144492327Y-121740403D01*
X144812208Y-122295987D02*
X144576506Y-122531689D01*
X144862716Y-122077120D02*
X144525999Y-122245479D01*
X144744865Y-122464345D01*
X143242715Y-123650166D02*
X143074356Y-123818525D01*
X142720803Y-123464971D01*
X143175371Y-123010403D02*
X143007012Y-123178761D01*
X143158535Y-123363956D01*
X143158535Y-123330284D01*
X143175371Y-123279777D01*
X143259551Y-123195597D01*
X143310058Y-123178761D01*
X143343730Y-123178761D01*
X143394238Y-123195597D01*
X143478417Y-123279777D01*
X143495253Y-123330284D01*
X143495253Y-123363956D01*
X143478417Y-123414464D01*
X143394238Y-123498643D01*
X143343730Y-123515479D01*
X143310058Y-123515479D01*
X155159780Y-82378709D02*
X155112161Y-82354900D01*
X155064542Y-82307280D01*
X154993114Y-82235852D01*
X154945495Y-82212042D01*
X154897876Y-82212042D01*
X154921685Y-82331090D02*
X154874066Y-82307280D01*
X154826447Y-82259661D01*
X154802638Y-82164423D01*
X154802638Y-81997757D01*
X154826447Y-81902519D01*
X154874066Y-81854900D01*
X154921685Y-81831090D01*
X155016923Y-81831090D01*
X155064542Y-81854900D01*
X155112161Y-81902519D01*
X155135971Y-81997757D01*
X155135971Y-82164423D01*
X155112161Y-82259661D01*
X155064542Y-82307280D01*
X155016923Y-82331090D01*
X154921685Y-82331090D01*
X155612161Y-82331090D02*
X155326447Y-82331090D01*
X155469304Y-82331090D02*
X155469304Y-81831090D01*
X155421685Y-81902519D01*
X155374066Y-81950138D01*
X155326447Y-81973947D01*
X150981209Y-74652519D02*
X150957400Y-74700138D01*
X150909780Y-74747757D01*
X150838352Y-74819185D01*
X150814542Y-74866804D01*
X150814542Y-74914423D01*
X150933590Y-74890614D02*
X150909780Y-74938233D01*
X150862161Y-74985852D01*
X150766923Y-75009661D01*
X150600257Y-75009661D01*
X150505019Y-74985852D01*
X150457400Y-74938233D01*
X150433590Y-74890614D01*
X150433590Y-74795376D01*
X150457400Y-74747757D01*
X150505019Y-74700138D01*
X150600257Y-74676328D01*
X150766923Y-74676328D01*
X150862161Y-74700138D01*
X150909780Y-74747757D01*
X150933590Y-74795376D01*
X150933590Y-74890614D01*
X150481209Y-74485852D02*
X150457400Y-74462042D01*
X150433590Y-74414423D01*
X150433590Y-74295376D01*
X150457400Y-74247757D01*
X150481209Y-74223947D01*
X150528828Y-74200138D01*
X150576447Y-74200138D01*
X150647876Y-74223947D01*
X150933590Y-74509661D01*
X150933590Y-74200138D01*
X166659780Y-82378709D02*
X166612161Y-82354900D01*
X166564542Y-82307280D01*
X166493114Y-82235852D01*
X166445495Y-82212042D01*
X166397876Y-82212042D01*
X166421685Y-82331090D02*
X166374066Y-82307280D01*
X166326447Y-82259661D01*
X166302638Y-82164423D01*
X166302638Y-81997757D01*
X166326447Y-81902519D01*
X166374066Y-81854900D01*
X166421685Y-81831090D01*
X166516923Y-81831090D01*
X166564542Y-81854900D01*
X166612161Y-81902519D01*
X166635971Y-81997757D01*
X166635971Y-82164423D01*
X166612161Y-82259661D01*
X166564542Y-82307280D01*
X166516923Y-82331090D01*
X166421685Y-82331090D01*
X166802638Y-81831090D02*
X167112161Y-81831090D01*
X166945495Y-82021566D01*
X167016923Y-82021566D01*
X167064542Y-82045376D01*
X167088352Y-82069185D01*
X167112161Y-82116804D01*
X167112161Y-82235852D01*
X167088352Y-82283471D01*
X167064542Y-82307280D01*
X167016923Y-82331090D01*
X166874066Y-82331090D01*
X166826447Y-82307280D01*
X166802638Y-82283471D01*
X162481209Y-74652519D02*
X162457400Y-74700138D01*
X162409780Y-74747757D01*
X162338352Y-74819185D01*
X162314542Y-74866804D01*
X162314542Y-74914423D01*
X162433590Y-74890614D02*
X162409780Y-74938233D01*
X162362161Y-74985852D01*
X162266923Y-75009661D01*
X162100257Y-75009661D01*
X162005019Y-74985852D01*
X161957400Y-74938233D01*
X161933590Y-74890614D01*
X161933590Y-74795376D01*
X161957400Y-74747757D01*
X162005019Y-74700138D01*
X162100257Y-74676328D01*
X162266923Y-74676328D01*
X162362161Y-74700138D01*
X162409780Y-74747757D01*
X162433590Y-74795376D01*
X162433590Y-74890614D01*
X162100257Y-74247757D02*
X162433590Y-74247757D01*
X161909780Y-74366804D02*
X162266923Y-74485852D01*
X162266923Y-74176328D01*
X178159780Y-82378709D02*
X178112161Y-82354900D01*
X178064542Y-82307280D01*
X177993114Y-82235852D01*
X177945495Y-82212042D01*
X177897876Y-82212042D01*
X177921685Y-82331090D02*
X177874066Y-82307280D01*
X177826447Y-82259661D01*
X177802638Y-82164423D01*
X177802638Y-81997757D01*
X177826447Y-81902519D01*
X177874066Y-81854900D01*
X177921685Y-81831090D01*
X178016923Y-81831090D01*
X178064542Y-81854900D01*
X178112161Y-81902519D01*
X178135971Y-81997757D01*
X178135971Y-82164423D01*
X178112161Y-82259661D01*
X178064542Y-82307280D01*
X178016923Y-82331090D01*
X177921685Y-82331090D01*
X178588352Y-81831090D02*
X178350257Y-81831090D01*
X178326447Y-82069185D01*
X178350257Y-82045376D01*
X178397876Y-82021566D01*
X178516923Y-82021566D01*
X178564542Y-82045376D01*
X178588352Y-82069185D01*
X178612161Y-82116804D01*
X178612161Y-82235852D01*
X178588352Y-82283471D01*
X178564542Y-82307280D01*
X178516923Y-82331090D01*
X178397876Y-82331090D01*
X178350257Y-82307280D01*
X178326447Y-82283471D01*
X173981209Y-74652519D02*
X173957400Y-74700138D01*
X173909780Y-74747757D01*
X173838352Y-74819185D01*
X173814542Y-74866804D01*
X173814542Y-74914423D01*
X173933590Y-74890614D02*
X173909780Y-74938233D01*
X173862161Y-74985852D01*
X173766923Y-75009661D01*
X173600257Y-75009661D01*
X173505019Y-74985852D01*
X173457400Y-74938233D01*
X173433590Y-74890614D01*
X173433590Y-74795376D01*
X173457400Y-74747757D01*
X173505019Y-74700138D01*
X173600257Y-74676328D01*
X173766923Y-74676328D01*
X173862161Y-74700138D01*
X173909780Y-74747757D01*
X173933590Y-74795376D01*
X173933590Y-74890614D01*
X173433590Y-74247757D02*
X173433590Y-74342995D01*
X173457400Y-74390614D01*
X173481209Y-74414423D01*
X173552638Y-74462042D01*
X173647876Y-74485852D01*
X173838352Y-74485852D01*
X173885971Y-74462042D01*
X173909780Y-74438233D01*
X173933590Y-74390614D01*
X173933590Y-74295376D01*
X173909780Y-74247757D01*
X173885971Y-74223947D01*
X173838352Y-74200138D01*
X173719304Y-74200138D01*
X173671685Y-74223947D01*
X173647876Y-74247757D01*
X173624066Y-74295376D01*
X173624066Y-74390614D01*
X173647876Y-74438233D01*
X173671685Y-74462042D01*
X173719304Y-74485852D01*
X128676346Y-68874990D02*
X128509680Y-68636895D01*
X128390632Y-68874990D02*
X128390632Y-68374990D01*
X128581108Y-68374990D01*
X128628727Y-68398800D01*
X128652537Y-68422609D01*
X128676346Y-68470228D01*
X128676346Y-68541657D01*
X128652537Y-68589276D01*
X128628727Y-68613085D01*
X128581108Y-68636895D01*
X128390632Y-68636895D01*
X129152537Y-68874990D02*
X128866822Y-68874990D01*
X129009680Y-68874990D02*
X129009680Y-68374990D01*
X128962060Y-68446419D01*
X128914441Y-68494038D01*
X128866822Y-68517847D01*
X127476346Y-68899990D02*
X127309680Y-68661895D01*
X127190632Y-68899990D02*
X127190632Y-68399990D01*
X127381108Y-68399990D01*
X127428727Y-68423800D01*
X127452537Y-68447609D01*
X127476346Y-68495228D01*
X127476346Y-68566657D01*
X127452537Y-68614276D01*
X127428727Y-68638085D01*
X127381108Y-68661895D01*
X127190632Y-68661895D01*
X127666822Y-68447609D02*
X127690632Y-68423800D01*
X127738251Y-68399990D01*
X127857299Y-68399990D01*
X127904918Y-68423800D01*
X127928727Y-68447609D01*
X127952537Y-68495228D01*
X127952537Y-68542847D01*
X127928727Y-68614276D01*
X127643013Y-68899990D01*
X127952537Y-68899990D01*
X125951346Y-68949990D02*
X125784680Y-68711895D01*
X125665632Y-68949990D02*
X125665632Y-68449990D01*
X125856108Y-68449990D01*
X125903727Y-68473800D01*
X125927537Y-68497609D01*
X125951346Y-68545228D01*
X125951346Y-68616657D01*
X125927537Y-68664276D01*
X125903727Y-68688085D01*
X125856108Y-68711895D01*
X125665632Y-68711895D01*
X126118013Y-68449990D02*
X126427537Y-68449990D01*
X126260870Y-68640466D01*
X126332299Y-68640466D01*
X126379918Y-68664276D01*
X126403727Y-68688085D01*
X126427537Y-68735704D01*
X126427537Y-68854752D01*
X126403727Y-68902371D01*
X126379918Y-68926180D01*
X126332299Y-68949990D01*
X126189441Y-68949990D01*
X126141822Y-68926180D01*
X126118013Y-68902371D01*
X130515490Y-109290633D02*
X130277395Y-109457300D01*
X130515490Y-109576347D02*
X130015490Y-109576347D01*
X130015490Y-109385871D01*
X130039300Y-109338252D01*
X130063109Y-109314442D01*
X130110728Y-109290633D01*
X130182157Y-109290633D01*
X130229776Y-109314442D01*
X130253585Y-109338252D01*
X130277395Y-109385871D01*
X130277395Y-109576347D01*
X130015490Y-109123966D02*
X130015490Y-108790633D01*
X130515490Y-109004919D01*
X131976346Y-69199990D02*
X131809680Y-68961895D01*
X131690632Y-69199990D02*
X131690632Y-68699990D01*
X131881108Y-68699990D01*
X131928727Y-68723800D01*
X131952537Y-68747609D01*
X131976346Y-68795228D01*
X131976346Y-68866657D01*
X131952537Y-68914276D01*
X131928727Y-68938085D01*
X131881108Y-68961895D01*
X131690632Y-68961895D01*
X132262060Y-68914276D02*
X132214441Y-68890466D01*
X132190632Y-68866657D01*
X132166822Y-68819038D01*
X132166822Y-68795228D01*
X132190632Y-68747609D01*
X132214441Y-68723800D01*
X132262060Y-68699990D01*
X132357299Y-68699990D01*
X132404918Y-68723800D01*
X132428727Y-68747609D01*
X132452537Y-68795228D01*
X132452537Y-68819038D01*
X132428727Y-68866657D01*
X132404918Y-68890466D01*
X132357299Y-68914276D01*
X132262060Y-68914276D01*
X132214441Y-68938085D01*
X132190632Y-68961895D01*
X132166822Y-69009514D01*
X132166822Y-69104752D01*
X132190632Y-69152371D01*
X132214441Y-69176180D01*
X132262060Y-69199990D01*
X132357299Y-69199990D01*
X132404918Y-69176180D01*
X132428727Y-69152371D01*
X132452537Y-69104752D01*
X132452537Y-69009514D01*
X132428727Y-68961895D01*
X132404918Y-68938085D01*
X132357299Y-68914276D01*
X133435870Y-78945228D02*
X133197775Y-79111895D01*
X133435870Y-79230942D02*
X132935870Y-79230942D01*
X132935870Y-79040466D01*
X132959680Y-78992847D01*
X132983489Y-78969038D01*
X133031108Y-78945228D01*
X133102537Y-78945228D01*
X133150156Y-78969038D01*
X133173965Y-78992847D01*
X133197775Y-79040466D01*
X133197775Y-79230942D01*
X133435870Y-78469038D02*
X133435870Y-78754752D01*
X133435870Y-78611895D02*
X132935870Y-78611895D01*
X133007299Y-78659514D01*
X133054918Y-78707133D01*
X133078727Y-78754752D01*
X132983489Y-78278561D02*
X132959680Y-78254752D01*
X132935870Y-78207133D01*
X132935870Y-78088085D01*
X132959680Y-78040466D01*
X132983489Y-78016657D01*
X133031108Y-77992847D01*
X133078727Y-77992847D01*
X133150156Y-78016657D01*
X133435870Y-78302371D01*
X133435870Y-77992847D01*
X133510870Y-80945228D02*
X133272775Y-81111895D01*
X133510870Y-81230942D02*
X133010870Y-81230942D01*
X133010870Y-81040466D01*
X133034680Y-80992847D01*
X133058489Y-80969038D01*
X133106108Y-80945228D01*
X133177537Y-80945228D01*
X133225156Y-80969038D01*
X133248965Y-80992847D01*
X133272775Y-81040466D01*
X133272775Y-81230942D01*
X133510870Y-80469038D02*
X133510870Y-80754752D01*
X133510870Y-80611895D02*
X133010870Y-80611895D01*
X133082299Y-80659514D01*
X133129918Y-80707133D01*
X133153727Y-80754752D01*
X133010870Y-80302371D02*
X133010870Y-79992847D01*
X133201346Y-80159514D01*
X133201346Y-80088085D01*
X133225156Y-80040466D01*
X133248965Y-80016657D01*
X133296584Y-79992847D01*
X133415632Y-79992847D01*
X133463251Y-80016657D01*
X133487060Y-80040466D01*
X133510870Y-80088085D01*
X133510870Y-80230942D01*
X133487060Y-80278561D01*
X133463251Y-80302371D01*
X130360870Y-78770228D02*
X130122775Y-78936895D01*
X130360870Y-79055942D02*
X129860870Y-79055942D01*
X129860870Y-78865466D01*
X129884680Y-78817847D01*
X129908489Y-78794038D01*
X129956108Y-78770228D01*
X130027537Y-78770228D01*
X130075156Y-78794038D01*
X130098965Y-78817847D01*
X130122775Y-78865466D01*
X130122775Y-79055942D01*
X130360870Y-78294038D02*
X130360870Y-78579752D01*
X130360870Y-78436895D02*
X129860870Y-78436895D01*
X129932299Y-78484514D01*
X129979918Y-78532133D01*
X130003727Y-78579752D01*
X130027537Y-77865466D02*
X130360870Y-77865466D01*
X129837060Y-77984514D02*
X130194203Y-78103561D01*
X130194203Y-77794038D01*
X133435870Y-77220228D02*
X133197775Y-77386895D01*
X133435870Y-77505942D02*
X132935870Y-77505942D01*
X132935870Y-77315466D01*
X132959680Y-77267847D01*
X132983489Y-77244038D01*
X133031108Y-77220228D01*
X133102537Y-77220228D01*
X133150156Y-77244038D01*
X133173965Y-77267847D01*
X133197775Y-77315466D01*
X133197775Y-77505942D01*
X133435870Y-76744038D02*
X133435870Y-77029752D01*
X133435870Y-76886895D02*
X132935870Y-76886895D01*
X133007299Y-76934514D01*
X133054918Y-76982133D01*
X133078727Y-77029752D01*
X132935870Y-76291657D02*
X132935870Y-76529752D01*
X133173965Y-76553561D01*
X133150156Y-76529752D01*
X133126346Y-76482133D01*
X133126346Y-76363085D01*
X133150156Y-76315466D01*
X133173965Y-76291657D01*
X133221584Y-76267847D01*
X133340632Y-76267847D01*
X133388251Y-76291657D01*
X133412060Y-76315466D01*
X133435870Y-76363085D01*
X133435870Y-76482133D01*
X133412060Y-76529752D01*
X133388251Y-76553561D01*
X128613251Y-82074990D02*
X128446584Y-81836895D01*
X128327537Y-82074990D02*
X128327537Y-81574990D01*
X128518013Y-81574990D01*
X128565632Y-81598800D01*
X128589441Y-81622609D01*
X128613251Y-81670228D01*
X128613251Y-81741657D01*
X128589441Y-81789276D01*
X128565632Y-81813085D01*
X128518013Y-81836895D01*
X128327537Y-81836895D01*
X129089441Y-82074990D02*
X128803727Y-82074990D01*
X128946584Y-82074990D02*
X128946584Y-81574990D01*
X128898965Y-81646419D01*
X128851346Y-81694038D01*
X128803727Y-81717847D01*
X129518013Y-81574990D02*
X129422775Y-81574990D01*
X129375156Y-81598800D01*
X129351346Y-81622609D01*
X129303727Y-81694038D01*
X129279918Y-81789276D01*
X129279918Y-81979752D01*
X129303727Y-82027371D01*
X129327537Y-82051180D01*
X129375156Y-82074990D01*
X129470394Y-82074990D01*
X129518013Y-82051180D01*
X129541822Y-82027371D01*
X129565632Y-81979752D01*
X129565632Y-81860704D01*
X129541822Y-81813085D01*
X129518013Y-81789276D01*
X129470394Y-81765466D01*
X129375156Y-81765466D01*
X129327537Y-81789276D01*
X129303727Y-81813085D01*
X129279918Y-81860704D01*
X148835870Y-89420228D02*
X148597775Y-89586895D01*
X148835870Y-89705942D02*
X148335870Y-89705942D01*
X148335870Y-89515466D01*
X148359680Y-89467847D01*
X148383489Y-89444038D01*
X148431108Y-89420228D01*
X148502537Y-89420228D01*
X148550156Y-89444038D01*
X148573965Y-89467847D01*
X148597775Y-89515466D01*
X148597775Y-89705942D01*
X148335870Y-89253561D02*
X148335870Y-88944038D01*
X148526346Y-89110704D01*
X148526346Y-89039276D01*
X148550156Y-88991657D01*
X148573965Y-88967847D01*
X148621584Y-88944038D01*
X148740632Y-88944038D01*
X148788251Y-88967847D01*
X148812060Y-88991657D01*
X148835870Y-89039276D01*
X148835870Y-89182133D01*
X148812060Y-89229752D01*
X148788251Y-89253561D01*
X148383489Y-88753561D02*
X148359680Y-88729752D01*
X148335870Y-88682133D01*
X148335870Y-88563085D01*
X148359680Y-88515466D01*
X148383489Y-88491657D01*
X148431108Y-88467847D01*
X148478727Y-88467847D01*
X148550156Y-88491657D01*
X148835870Y-88777371D01*
X148835870Y-88467847D01*
X130185870Y-118970228D02*
X129947775Y-119136895D01*
X130185870Y-119255942D02*
X129685870Y-119255942D01*
X129685870Y-119065466D01*
X129709680Y-119017847D01*
X129733489Y-118994038D01*
X129781108Y-118970228D01*
X129852537Y-118970228D01*
X129900156Y-118994038D01*
X129923965Y-119017847D01*
X129947775Y-119065466D01*
X129947775Y-119255942D01*
X129685870Y-118803561D02*
X129685870Y-118494038D01*
X129876346Y-118660704D01*
X129876346Y-118589276D01*
X129900156Y-118541657D01*
X129923965Y-118517847D01*
X129971584Y-118494038D01*
X130090632Y-118494038D01*
X130138251Y-118517847D01*
X130162060Y-118541657D01*
X130185870Y-118589276D01*
X130185870Y-118732133D01*
X130162060Y-118779752D01*
X130138251Y-118803561D01*
X129900156Y-118208323D02*
X129876346Y-118255942D01*
X129852537Y-118279752D01*
X129804918Y-118303561D01*
X129781108Y-118303561D01*
X129733489Y-118279752D01*
X129709680Y-118255942D01*
X129685870Y-118208323D01*
X129685870Y-118113085D01*
X129709680Y-118065466D01*
X129733489Y-118041657D01*
X129781108Y-118017847D01*
X129804918Y-118017847D01*
X129852537Y-118041657D01*
X129876346Y-118065466D01*
X129900156Y-118113085D01*
X129900156Y-118208323D01*
X129923965Y-118255942D01*
X129947775Y-118279752D01*
X129995394Y-118303561D01*
X130090632Y-118303561D01*
X130138251Y-118279752D01*
X130162060Y-118255942D01*
X130185870Y-118208323D01*
X130185870Y-118113085D01*
X130162060Y-118065466D01*
X130138251Y-118041657D01*
X130090632Y-118017847D01*
X129995394Y-118017847D01*
X129947775Y-118041657D01*
X129923965Y-118065466D01*
X129900156Y-118113085D01*
X146797454Y-117056456D02*
X146847962Y-116770246D01*
X146595424Y-116854425D02*
X146948977Y-116500872D01*
X147083664Y-116635559D01*
X147100500Y-116686067D01*
X147100500Y-116719738D01*
X147083664Y-116770246D01*
X147033157Y-116820754D01*
X146982649Y-116837590D01*
X146948977Y-116837590D01*
X146898470Y-116820754D01*
X146763783Y-116686067D01*
X147268859Y-116820754D02*
X147487725Y-117039620D01*
X147235187Y-117056456D01*
X147285695Y-117106964D01*
X147302531Y-117157471D01*
X147302531Y-117191143D01*
X147285695Y-117241651D01*
X147201515Y-117325830D01*
X147151008Y-117342666D01*
X147117336Y-117342666D01*
X147066828Y-117325830D01*
X146965813Y-117224815D01*
X146948977Y-117174307D01*
X146948977Y-117140635D01*
X147302531Y-117561532D02*
X147369874Y-117628876D01*
X147420382Y-117645712D01*
X147454054Y-117645712D01*
X147538233Y-117628876D01*
X147622412Y-117578368D01*
X147757099Y-117443681D01*
X147773935Y-117393174D01*
X147773935Y-117359502D01*
X147757099Y-117308994D01*
X147689756Y-117241651D01*
X147639248Y-117224815D01*
X147605576Y-117224815D01*
X147555069Y-117241651D01*
X147470889Y-117325830D01*
X147454054Y-117376338D01*
X147454054Y-117410009D01*
X147470889Y-117460517D01*
X147538233Y-117527861D01*
X147588741Y-117544696D01*
X147622412Y-117544696D01*
X147672920Y-117527861D01*
X148985870Y-82541657D02*
X148985870Y-82255942D01*
X149485870Y-82398800D02*
X148985870Y-82398800D01*
X149485870Y-82089276D02*
X148985870Y-82089276D01*
X149223965Y-82089276D02*
X149223965Y-81803561D01*
X149485870Y-81803561D02*
X148985870Y-81803561D01*
X149485870Y-81303561D02*
X149485870Y-81589276D01*
X149485870Y-81446419D02*
X148985870Y-81446419D01*
X149057299Y-81494038D01*
X149104918Y-81541657D01*
X149128727Y-81589276D01*
X147184990Y-102933452D02*
X147589752Y-102933452D01*
X147637371Y-102909642D01*
X147661180Y-102885833D01*
X147684990Y-102838214D01*
X147684990Y-102742976D01*
X147661180Y-102695357D01*
X147637371Y-102671547D01*
X147589752Y-102647738D01*
X147184990Y-102647738D01*
X147684990Y-102147738D02*
X147684990Y-102433452D01*
X147684990Y-102290595D02*
X147184990Y-102290595D01*
X147256419Y-102338214D01*
X147304038Y-102385833D01*
X147327847Y-102433452D01*
X130193290Y-113131552D02*
X130598052Y-113131552D01*
X130645671Y-113107742D01*
X130669480Y-113083933D01*
X130693290Y-113036314D01*
X130693290Y-112941076D01*
X130669480Y-112893457D01*
X130645671Y-112869647D01*
X130598052Y-112845838D01*
X130193290Y-112845838D01*
X130193290Y-112655361D02*
X130193290Y-112322028D01*
X130693290Y-112536314D01*
X144247038Y-115932513D02*
X143960828Y-116218723D01*
X143943992Y-116269230D01*
X143943992Y-116302902D01*
X143960828Y-116353410D01*
X144028172Y-116420753D01*
X144078679Y-116437589D01*
X144112351Y-116437589D01*
X144162859Y-116420753D01*
X144449069Y-116134543D01*
X144516412Y-116504933D02*
X144499576Y-116454425D01*
X144499576Y-116420753D01*
X144516412Y-116370246D01*
X144533248Y-116353410D01*
X144583756Y-116336574D01*
X144617427Y-116336574D01*
X144667935Y-116353410D01*
X144735278Y-116420753D01*
X144752114Y-116471261D01*
X144752114Y-116504933D01*
X144735278Y-116555440D01*
X144718443Y-116572276D01*
X144667935Y-116589112D01*
X144634263Y-116589112D01*
X144583756Y-116572276D01*
X144516412Y-116504933D01*
X144465904Y-116488097D01*
X144432233Y-116488097D01*
X144381725Y-116504933D01*
X144314382Y-116572276D01*
X144297546Y-116622784D01*
X144297546Y-116656456D01*
X144314382Y-116706963D01*
X144381725Y-116774307D01*
X144432233Y-116791143D01*
X144465904Y-116791143D01*
X144516412Y-116774307D01*
X144583756Y-116706963D01*
X144600591Y-116656456D01*
X144600591Y-116622784D01*
X144583756Y-116572276D01*
X129790632Y-95799990D02*
X129790632Y-96204752D01*
X129814441Y-96252371D01*
X129838251Y-96276180D01*
X129885870Y-96299990D01*
X129981108Y-96299990D01*
X130028727Y-96276180D01*
X130052537Y-96252371D01*
X130076346Y-96204752D01*
X130076346Y-95799990D01*
X130576346Y-96299990D02*
X130290632Y-96299990D01*
X130433489Y-96299990D02*
X130433489Y-95799990D01*
X130385870Y-95871419D01*
X130338251Y-95919038D01*
X130290632Y-95942847D01*
X130885870Y-95799990D02*
X130933489Y-95799990D01*
X130981108Y-95823800D01*
X131004918Y-95847609D01*
X131028727Y-95895228D01*
X131052537Y-95990466D01*
X131052537Y-96109514D01*
X131028727Y-96204752D01*
X131004918Y-96252371D01*
X130981108Y-96276180D01*
X130933489Y-96299990D01*
X130885870Y-96299990D01*
X130838251Y-96276180D01*
X130814441Y-96252371D01*
X130790632Y-96204752D01*
X130766822Y-96109514D01*
X130766822Y-95990466D01*
X130790632Y-95895228D01*
X130814441Y-95847609D01*
X130838251Y-95823800D01*
X130885870Y-95799990D01*
M02*
