M48
;DRILL file {KiCad (2017-08-25 revision dd37d0595)-makepkg} date 04/16/18 21:33:23
;FORMAT={-:-/ absolute / inch / decimal}
FMAT,2
INCH,TZ
T1C0.011
T2C0.016
T3C0.024
T4C0.030
T5C0.033
T6C0.035
T7C0.126
%
G90
G05
M72
T1
X4.926Y-2.891
X4.9322Y-4.862
X4.965Y-2.7505
X5.0222Y-4.0466
X5.0322Y-3.6438
X5.037Y-4.2225
X5.0375Y-3.0015
X5.0506Y-3.7518
X5.0562Y-3.4184
X5.0759Y-3.3998
X5.076Y-2.655
X5.0899Y-3.7933
X5.0906Y-3.83
X5.0915Y-4.559
X5.0961Y-3.419
X5.1115Y-3.9185
X5.132Y-2.709
X5.1535Y-4.5005
X5.1632Y-4.1618
X5.1753Y-3.1617
X5.1815Y-3.9872
X5.1845Y-4.409
X5.1917Y-3.5837
X5.2012Y-4.209
X5.21Y-2.7812
X5.2129Y-3.7284
X5.214Y-3.7912
X5.2142Y-3.8978
X5.2255Y-2.66
X5.2258Y-3.8232
X5.2261Y-3.4236
X5.2276Y-3.6436
X5.2322Y-2.781
X5.2464Y-3.8234
X5.2464Y-3.1328
X5.2512Y-4.374
X5.2523Y-3.9696
X5.2541Y-3.9083
X5.2546Y-3.4679
X5.2563Y-3.4389
X5.2632Y-3.2155
X5.2635Y-4.068
X5.2635Y-4.0945
X5.2636Y-3.253
X5.2642Y-3.4133
X5.2679Y-2.8874
X5.2681Y-4.4005
X5.2694Y-3.371
X5.2714Y-2.9137
X5.3094Y-3.786
X5.3094Y-4.2735
X5.3118Y-3.6532
X5.3245Y-3.696
X5.3301Y-4.25
X5.3441Y-3.7439
X5.3537Y-4.2342
X5.364Y-3.2452
X5.3649Y-3.2722
X5.373Y-3.1985
X5.375Y-3.7699
X5.3813Y-3.1486
X5.3835Y-3.7167
X5.3915Y-4.1621
X5.3989Y-3.5656
X5.4094Y-4.1817
X5.4118Y-3.7094
X5.4134Y-3.2313
X5.4134Y-3.2824
X5.4134Y-3.3415
X5.4134Y-3.4006
X5.4134Y-3.4517
X5.4212Y-4.732
X5.4251Y-2.8917
X5.4256Y-2.9231
X5.4291Y-4.1994
X5.4332Y-3.7808
X5.4426Y-4.0955
X5.4531Y-4.7066
X5.4571Y-3.6781
X5.4625Y-4.419
X5.4634Y-4.7325
X5.4645Y-3.2313
X5.4645Y-3.2824
X5.4645Y-3.3415
X5.4645Y-3.4006
X5.4645Y-3.4517
X5.4718Y-4.5147
X5.473Y-4.1209
X5.4772Y-3.09
X5.4777Y-4.3917
X5.482Y-4.0956
X5.4832Y-3.546
X5.4872Y-3.174
X5.4969Y-4.6034
X5.5004Y-4.3732
X5.5129Y-4.1375
X5.5156Y-3.2313
X5.5156Y-3.2824
X5.5156Y-3.3415
X5.5156Y-3.4006
X5.5156Y-3.4517
X5.5171Y-4.5168
X5.5317Y-4.5686
X5.5318Y-4.156
X5.5326Y-3.735
X5.54Y-4.6293
X5.55Y-3.7076
X5.5502Y-3.9157
X5.5535Y-3.7551
X5.5665Y-4.6034
X5.5675Y-3.2725
X5.568Y-4.1349
X5.5693Y-3.374
X5.5718Y-4.1682
X5.5731Y-3.7733
X5.574Y-3.4695
X5.5769Y-3.9149
X5.5965Y-4.3452
X5.6034Y-3.9157
X5.6255Y-4.3454
X5.6306Y-4.1685
X5.6345Y-4.518
X5.6582Y-3.2132
X5.6585Y-3.2545
X5.6588Y-3.4507
X5.6596Y-3.2959
X5.6598Y-4.1258
X5.6598Y-3.3523
X5.6605Y-3.3946
X5.6624Y-4.6272
X5.6643Y-3.6337
X5.6872Y-4.1281
X5.688Y-4.2626
X5.6985Y-3.495
X5.7001Y-3.751
X5.7025Y-3.5603
X5.7028Y-4.184
X5.7049Y-4.1478
X5.7179Y-3.0826
X5.7247Y-3.8084
X5.742Y-4.3543
X5.7498Y-4.2827
X5.7512Y-3.8089
X5.7628Y-3.4698
X5.7638Y-3.3252
X5.7727Y-3.8243
X5.7864Y-4.0089
X5.7868Y-3.1742
X5.787Y-3.847
X5.8019Y-3.9404
X5.8101Y-3.5796
X5.8212Y-3.4881
X5.8282Y-2.833
X5.8284Y-3.3322
X5.8314Y-3.253
X5.8355Y-3.2795
X5.8518Y-3.2116
X5.86Y-3.264
X5.8874Y-3.2661
X5.9729Y-3.3552
X6.0044Y-3.554
X6.0044Y-3.5735
X6.028Y-3.554
X6.028Y-3.5735
X6.0475Y-3.0315
X6.0516Y-3.554
X6.0516Y-3.5735
X6.0753Y-3.554
X6.0753Y-3.5735
X6.0989Y-3.554
X6.0989Y-3.5735
X6.1225Y-3.554
X6.1225Y-3.5735
X6.1461Y-3.554
X6.1461Y-3.5735
X6.1698Y-3.554
X6.1698Y-3.5735
X6.1934Y-3.554
X6.1934Y-3.5735
X6.217Y-3.554
X6.217Y-3.5735
X6.403Y-2.806
X6.425Y-2.788
X6.4396Y-3.4462
X6.4579Y-3.554
X6.4579Y-3.5735
X6.4815Y-3.554
X6.4815Y-3.5735
X6.5051Y-3.554
X6.5051Y-3.5735
X6.5095Y-3.032
X6.5288Y-3.554
X6.5288Y-3.5735
X6.5524Y-3.554
X6.5524Y-3.5735
X6.576Y-3.554
X6.576Y-3.5735
X6.5996Y-3.554
X6.5996Y-3.5735
X6.6233Y-3.554
X6.6233Y-3.5735
X6.6469Y-3.554
X6.6469Y-3.5735
X6.6705Y-3.554
X6.6705Y-3.5735
X6.8603Y-2.7858
X6.8647Y-2.7562
X6.9103Y-3.554
X6.9103Y-3.5735
X6.9206Y-3.459
X6.934Y-3.554
X6.934Y-3.5735
X6.9576Y-3.554
X6.9576Y-3.5735
X6.958Y-3.0315
X6.9812Y-3.554
X6.9812Y-3.5735
X7.0048Y-3.554
X7.0048Y-3.5735
X7.0284Y-3.554
X7.0284Y-3.5735
X7.0521Y-3.554
X7.0521Y-3.5735
X7.0757Y-3.554
X7.0757Y-3.5735
X7.0993Y-3.554
X7.0993Y-3.5735
X7.1229Y-3.554
X7.1229Y-3.5735
X6.5381Y-3.3137
X6.0841Y-2.6505
X6.1392Y-2.5678
X6.6459Y-2.5685
X6.3506Y-2.8846
X6.9881Y-2.6772
X6.1122Y-3.2581
X6.5081Y-2.6787
X6.6183Y-2.5961
X6.8036Y-3.0234
X7.0708Y-2.6772
X6.3231Y-2.9948
X6.3782Y-2.9948
X4.8718Y-2.5838
X6.3782Y-2.857
X6.3506Y-2.857
X5.0892Y-4.084
X6.2955Y-2.857
X5.4032Y-3.191
X6.9335Y-3.3132
X5.4552Y-2.965
X7.0713Y-3.2581
X7.0437Y-3.2305
X5.3722Y-4.375
X6.8312Y-2.9407
X6.5106Y-3.3137
X6.483Y-3.231
X5.2562Y-2.651
X6.7485Y-2.9958
X6.0571Y-3.2856
X7.0162Y-3.3132
X5.6862Y-3.876
X6.8036Y-2.9407
X6.483Y-3.2586
X5.2782Y-4.611
X6.7761Y-2.9958
X6.1673Y-3.2305
X6.1949Y-3.3132
X6.5106Y-3.231
X6.9881Y-2.567
X6.8312Y-2.858
X6.0846Y-3.2305
X6.9606Y-2.5946
X6.5381Y-3.2586
X6.1117Y-2.678
X6.9881Y-2.5946
X6.0295Y-3.2581
X6.1944Y-2.678
X6.6459Y-2.6236
X6.9606Y-2.6221
X6.5381Y-3.2861
X6.9611Y-3.2305
X6.029Y-2.6505
X6.5356Y-2.6512
X7.0157Y-2.6497
X6.1673Y-3.2856
X6.9611Y-3.2856
X6.1392Y-2.678
X6.6183Y-2.6512
X6.5356Y-2.5685
X7.0708Y-2.567
X6.6484Y-3.2861
X6.1668Y-2.5954
X6.029Y-2.5678
X6.5907Y-2.5685
X6.2955Y-3.0224
X5.7742Y-2.934
X6.9881Y-2.6497
X6.1397Y-3.2581
X6.0566Y-2.6505
X6.933Y-2.567
X6.5632Y-2.6236
X6.3231Y-2.8846
X6.9606Y-2.6772
X6.1122Y-3.3132
X6.0841Y-2.678
X6.0841Y-2.5954
X6.3782Y-3.0224
X6.7761Y-3.0234
X7.0432Y-2.6772
X6.4805Y-2.6787
X6.6183Y-2.5685
X6.3782Y-2.8846
X5.7602Y-4.478
X6.3782Y-2.9397
X6.3231Y-2.9121
X5.4472Y-4.314
X6.5356Y-2.6236
X6.3231Y-2.9397
X5.6882Y-2.936
X7.0437Y-3.2581
X6.3506Y-2.9121
X5.7652Y-3.293
X6.7761Y-2.9407
X6.9611Y-3.3132
X6.8036Y-2.9131
X6.0571Y-3.2305
X6.9335Y-3.2856
X5.7514Y-3.5718
X6.7761Y-2.858
X6.6484Y-3.231
X7.0989Y-3.3132
X5.3242Y-4.677
X6.7761Y-2.9131
X6.1397Y-3.3132
X7.0989Y-3.2305
X6.1673Y-3.3132
X6.6208Y-3.2861
X6.8036Y-2.858
X6.6484Y-3.3137
X6.933Y-2.6497
X6.5106Y-3.2586
X6.0566Y-2.678
X7.0984Y-2.6221
X6.1673Y-3.2581
X6.9886Y-3.2305
X6.1668Y-2.678
X6.5356Y-2.6787
X7.0708Y-2.5946
X6.483Y-3.2861
X6.9335Y-3.2305
X6.9606Y-2.567
X6.1668Y-2.5678
X7.0157Y-2.6221
X6.0846Y-3.3132
X7.0162Y-3.2581
X6.1117Y-2.6229
X6.1944Y-2.5678
X6.3506Y-2.9948
X7.0708Y-2.6221
X6.1949Y-3.2581
X6.029Y-2.6229
X6.1117Y-2.5678
X6.5632Y-2.5685
X6.2955Y-2.9672
X5.1432Y-3.357
X6.9606Y-2.6497
X6.1122Y-3.2856
X6.1668Y-2.6229
X6.0841Y-2.5678
X6.5907Y-2.6236
X6.3782Y-2.9121
X6.933Y-2.6772
X6.1397Y-3.2305
X6.1944Y-2.6505
X6.029Y-2.5954
X6.6183Y-2.6236
X6.7485Y-3.0234
X5.0862Y-4.339
X6.1397Y-3.2856
X6.0566Y-2.5678
X6.5081Y-2.5685
X6.2955Y-2.8846
X7.0984Y-2.6772
X6.6459Y-2.5961
X6.2955Y-2.9397
X4.8561Y-2.7551
X6.3506Y-3.0224
X6.2955Y-2.9121
X5.5082Y-3.508
X7.0437Y-3.2856
X6.2955Y-2.9948
X5.8102Y-3.698
X6.9886Y-3.2581
X5.0962Y-2.701
X6.8036Y-2.9682
X7.0713Y-3.2305
X5.7642Y-3.399
X6.8312Y-2.8856
X6.0295Y-3.3132
X7.0989Y-3.2856
X6.7761Y-2.9682
X6.6208Y-3.231
X5.2812Y-4.316
X6.8036Y-2.8856
X6.6484Y-3.2586
X6.7761Y-2.8856
X6.6208Y-3.3137
X6.9886Y-3.3132
X6.7485Y-2.8856
X6.5657Y-3.231
X7.0713Y-3.3132
X7.0157Y-2.567
X6.8312Y-2.9131
X6.5932Y-3.231
X7.0708Y-2.6497
X6.5106Y-3.2861
X6.029Y-2.678
X7.0984Y-2.5946
X6.0295Y-3.2856
X6.0295Y-3.2305
X6.1117Y-2.6505
X6.5081Y-2.6512
X6.9881Y-2.6221
X6.0846Y-3.2581
X6.9611Y-3.2581
X6.1392Y-2.6229
X6.5907Y-2.6512
X7.0984Y-2.6497
X6.5932Y-3.2861
X6.1392Y-2.5954
X6.5907Y-2.6787
X6.4805Y-2.5685
X5.4792Y-4.877
X7.0984Y-2.567
X6.5932Y-3.3137
X6.1944Y-2.6229
X6.0566Y-2.5954
X6.5356Y-2.5961
X6.3506Y-2.9397
X5.4214Y-3.975
X6.5657Y-3.3137
X6.1392Y-2.6505
X6.6183Y-2.6787
X6.5632Y-2.5961
X6.3506Y-2.9672
X7.0157Y-2.6772
X6.0571Y-3.3132
X6.5632Y-2.6787
X6.5081Y-2.6236
X6.8312Y-3.0234
X5.8232Y-4.6771
X6.4805Y-2.5961
X6.3231Y-2.9672
X5.8228Y-4.5836
X6.5081Y-2.5961
X6.3782Y-2.9672
X5.1162Y-3.219
X6.3231Y-2.857
X5.6412Y-4.879
X5.1622Y-4.647
X5.6982Y-3.682
X6.7485Y-2.9407
X6.9335Y-3.2581
X5.4072Y-3.868
X6.7485Y-2.9682
X6.0571Y-3.2581
X7.0162Y-3.2856
X5.4212Y-4.767
X6.7485Y-2.9131
X6.0846Y-3.2856
X5.0772Y-4.442
X6.8312Y-2.9682
X6.6208Y-3.2586
X6.9886Y-3.2856
X4.8674Y-4.8688
X6.8312Y-2.9958
X6.1949Y-3.2305
X6.7485Y-2.858
X6.5381Y-3.231
X7.0437Y-3.3132
X7.0432Y-2.6221
X6.8036Y-2.9958
X6.1122Y-3.2305
X6.933Y-2.5946
X6.5657Y-3.2586
X6.1668Y-2.6505
X7.0157Y-2.5946
X6.5932Y-3.2586
X7.0713Y-3.2856
X6.0841Y-2.6229
X6.4805Y-2.6512
X7.0432Y-2.6497
X6.1949Y-3.2856
X7.0162Y-3.2305
X6.1944Y-2.5954
X6.5632Y-2.6512
X7.0432Y-2.567
X6.5657Y-3.2861
X7.0989Y-3.2581
X6.1117Y-2.5954
X6.6459Y-2.6512
X6.5907Y-2.5961
X5.4432Y-3.162
X7.0432Y-2.5946
X6.483Y-3.3137
X6.0566Y-2.6229
X6.6459Y-2.6787
X6.4805Y-2.6236
X6.3231Y-3.0224
X5.8322Y-4.204
X6.933Y-2.6221
T2
X5.83Y-4.8805
T4
X4.9491Y-3.5474
X4.9491Y-3.6262
X4.9491Y-3.7049
X4.9491Y-3.7837
X4.9491Y-3.8624
X4.9491Y-3.9411
X4.9491Y-4.0199
X4.9491Y-4.0986
X4.9491Y-3.0553
X4.9491Y-3.1341
X4.9491Y-3.2128
X4.9491Y-3.2915
X4.9491Y-3.3703
X4.9491Y-4.6503
X4.9491Y-4.729
X4.9491Y-4.2955
X4.9491Y-4.3742
X4.9491Y-4.4529
X5.3822Y-2.6616
X5.4609Y-2.6616
X5.5397Y-2.6616
X5.6184Y-2.6616
X5.6971Y-2.6616
X5.7759Y-2.6616
T5
X5.1328Y-4.7434
X5.3296Y-4.7434
T6
X6.0416Y-3.6419
X6.2385Y-3.6419
X6.8881Y-3.6419
X7.0849Y-3.6419
T7
X6.7897Y-2.6419
X6.3369Y-2.6419
T3
X5.0934Y-4.8635G85X5.0934Y-4.8359
G05
X5.369Y-4.8359G85X5.369Y-4.8635
G05
T0
M30
