G04 #@! TF.GenerationSoftware,KiCad,Pcbnew,(2017-08-25 revision dd37d0595)-makepkg*
G04 #@! TF.CreationDate,2018-04-16T21:33:21-04:00*
G04 #@! TF.ProjectId,VESC_6.4,564553435F362E342E6B696361645F70,rev?*
G04 #@! TF.SameCoordinates,Original*
G04 #@! TF.FileFunction,Paste,Bot*
G04 #@! TF.FilePolarity,Positive*
%FSLAX46Y46*%
G04 Gerber Fmt 4.6, Leading zero omitted, Abs format (unit mm)*
G04 Created by KiCad (PCBNEW (2017-08-25 revision dd37d0595)-makepkg) date 04/16/18 21:33:21*
%MOMM*%
%LPD*%
G01*
G04 APERTURE LIST*
%ADD10R,0.600000X0.600000*%
%ADD11R,6.200000X2.700000*%
%ADD12R,1.500000X1.900000*%
%ADD13R,0.400000X1.350000*%
%ADD14R,6.500000X6.500000*%
%ADD15R,5.000000X5.000000*%
%ADD16R,0.750000X0.800000*%
%ADD17R,0.800000X0.750000*%
%ADD18R,1.000000X2.500000*%
%ADD19R,2.500000X1.000000*%
%ADD20C,0.750000*%
%ADD21C,0.100000*%
%ADD22R,0.800000X0.800000*%
%ADD23R,1.300000X0.700000*%
%ADD24R,0.500000X0.900000*%
%ADD25R,0.900000X0.500000*%
%ADD26R,0.600000X1.550000*%
%ADD27C,1.000000*%
%ADD28R,1.800000X1.200000*%
%ADD29C,1.200000*%
%ADD30R,1.060000X0.650000*%
G04 APERTURE END LIST*
D10*
X166707400Y-73564900D03*
X166707400Y-78644900D03*
D11*
X166707400Y-80254900D03*
X166707400Y-71954900D03*
D12*
X133872480Y-123182900D03*
D13*
X132872480Y-120482900D03*
X132222480Y-120482900D03*
X131572480Y-120482900D03*
X134172480Y-120482900D03*
X133522480Y-120482900D03*
D12*
X131872480Y-123182900D03*
D14*
X166707400Y-96104900D03*
D15*
X178207400Y-67354900D03*
X166707400Y-67354900D03*
X155207400Y-67354900D03*
D16*
X147599400Y-102553200D03*
X147599400Y-101053200D03*
D17*
X138035600Y-95453200D03*
X139535600Y-95453200D03*
D16*
X139766040Y-99627120D03*
X139766040Y-98127120D03*
X139738100Y-102553200D03*
X139738100Y-101053200D03*
D17*
X146646900Y-108267500D03*
X145146900Y-108267500D03*
D16*
X135585200Y-91477400D03*
X135585200Y-92977400D03*
D17*
X131647500Y-95618300D03*
X133147500Y-95618300D03*
D18*
X134748400Y-97993200D03*
X131748400Y-97993200D03*
D17*
X143153700Y-79121000D03*
X144653700Y-79121000D03*
D16*
X147695402Y-79133000D03*
X147695402Y-80633000D03*
X141777202Y-79120300D03*
X141777202Y-80620300D03*
X135770102Y-80582200D03*
X135770102Y-79082200D03*
D19*
X156707400Y-86104900D03*
X156707400Y-89104900D03*
X153707400Y-89104900D03*
X153707400Y-86104900D03*
D17*
X138659300Y-79070200D03*
X137159300Y-79070200D03*
D19*
X168207400Y-86104900D03*
X168207400Y-89104900D03*
X165207400Y-89104900D03*
X165207400Y-86104900D03*
D17*
X131152200Y-79095600D03*
X132652200Y-79095600D03*
D19*
X176707400Y-86104900D03*
X176707400Y-89104900D03*
X179707400Y-89104900D03*
X179707400Y-86104900D03*
D20*
X140979630Y-122399530D03*
D21*
G36*
X141527638Y-122417208D02*
X140997308Y-122947538D01*
X140431622Y-122381852D01*
X140961952Y-121851522D01*
X141527638Y-122417208D01*
X141527638Y-122417208D01*
G37*
D20*
X139918970Y-121338870D03*
D21*
G36*
X140466978Y-121356548D02*
X139936648Y-121886878D01*
X139370962Y-121321192D01*
X139901292Y-120790862D01*
X140466978Y-121356548D01*
X140466978Y-121356548D01*
G37*
D20*
X146532600Y-116827300D03*
D21*
G36*
X145984592Y-116809622D02*
X146514922Y-116279292D01*
X147080608Y-116844978D01*
X146550278Y-117375308D01*
X145984592Y-116809622D01*
X145984592Y-116809622D01*
G37*
D20*
X145471940Y-115766640D03*
D21*
G36*
X144923932Y-115748962D02*
X145454262Y-115218632D01*
X146019948Y-115784318D01*
X145489618Y-116314648D01*
X144923932Y-115748962D01*
X144923932Y-115748962D01*
G37*
D22*
X146418300Y-110985400D03*
X146418300Y-112585400D03*
X143687800Y-112585400D03*
X143687800Y-110985400D03*
X145046700Y-112585400D03*
X145046700Y-110985400D03*
D23*
X129832100Y-93914000D03*
X129832100Y-92014000D03*
D24*
X127602680Y-123520200D03*
X126102680Y-123520200D03*
D25*
X136105900Y-112457800D03*
X136105900Y-113957800D03*
X137591800Y-113957800D03*
X137591800Y-112457800D03*
X147828000Y-112573500D03*
X147828000Y-111073500D03*
X142290800Y-111086200D03*
X142290800Y-112586200D03*
X140817600Y-112586200D03*
X140817600Y-111086200D03*
X147579310Y-91325000D03*
X147579310Y-92825000D03*
X146100800Y-92825000D03*
X146100800Y-91325000D03*
X137212272Y-91327304D03*
X137212272Y-92827304D03*
X138710872Y-92827304D03*
X138710872Y-91327304D03*
X140182100Y-91324626D03*
X140182100Y-92824626D03*
X141655300Y-92824626D03*
X141655300Y-91324626D03*
X143131047Y-92817555D03*
X143131047Y-91317555D03*
X144616947Y-91317555D03*
X144616947Y-92817555D03*
X146278600Y-79133000D03*
X146278600Y-80633000D03*
X140335000Y-79107600D03*
X140335000Y-80607600D03*
X134340600Y-79082200D03*
X134340600Y-80582200D03*
D24*
X145681000Y-82184498D03*
X147181000Y-82184498D03*
X145681000Y-83705700D03*
X147181000Y-83705700D03*
X147181700Y-85204300D03*
X145681700Y-85204300D03*
X145681000Y-86702900D03*
X147181000Y-86702900D03*
X145681000Y-88201500D03*
X147181000Y-88201500D03*
X147181000Y-89712800D03*
X145681000Y-89712800D03*
X130315400Y-97282000D03*
X128815400Y-97282000D03*
X128814402Y-98749728D03*
X130314402Y-98749728D03*
D26*
X143302400Y-77304900D03*
X144572400Y-77304900D03*
X145842400Y-77304900D03*
X147112400Y-77304900D03*
X147112400Y-71904900D03*
X145842400Y-71904900D03*
X144572400Y-71904900D03*
X143302400Y-71904900D03*
X137302400Y-71904900D03*
X138572400Y-71904900D03*
X139842400Y-71904900D03*
X141112400Y-71904900D03*
X141112400Y-77304900D03*
X139842400Y-77304900D03*
X138572400Y-77304900D03*
X137302400Y-77304900D03*
X131302400Y-77304900D03*
X132572400Y-77304900D03*
X133842400Y-77304900D03*
X135112400Y-77304900D03*
X135112400Y-71904900D03*
X133842400Y-71904900D03*
X132572400Y-71904900D03*
X131302400Y-71904900D03*
D27*
X147018060Y-122915560D03*
D21*
G36*
X147725167Y-122915560D02*
X147018060Y-123622667D01*
X146310953Y-122915560D01*
X147018060Y-122208453D01*
X147725167Y-122915560D01*
X147725167Y-122915560D01*
G37*
D27*
X147018060Y-120794240D03*
D21*
G36*
X148149431Y-121218504D02*
X147442324Y-121925611D01*
X145886689Y-120369976D01*
X146593796Y-119662869D01*
X148149431Y-121218504D01*
X148149431Y-121218504D01*
G37*
D27*
X144896740Y-122915560D03*
D21*
G36*
X146028111Y-123339824D02*
X145321004Y-124046931D01*
X143765369Y-122491296D01*
X144472476Y-121784189D01*
X146028111Y-123339824D01*
X146028111Y-123339824D01*
G37*
D28*
X145675100Y-103701700D03*
X141675100Y-103701700D03*
X141675100Y-101301700D03*
X145675100Y-101301700D03*
D29*
X142169615Y-120855342D03*
D21*
G36*
X141957483Y-121916002D02*
X141108955Y-121067474D01*
X142381747Y-119794682D01*
X143230275Y-120643210D01*
X141957483Y-121916002D01*
X141957483Y-121916002D01*
G37*
D29*
X144998042Y-118026915D03*
D21*
G36*
X144785910Y-119087575D02*
X143937382Y-118239047D01*
X145210174Y-116966255D01*
X146058702Y-117814783D01*
X144785910Y-119087575D01*
X144785910Y-119087575D01*
G37*
D29*
X143300985Y-116329858D03*
D21*
G36*
X143088853Y-117390518D02*
X142240325Y-116541990D01*
X143513117Y-115269198D01*
X144361645Y-116117726D01*
X143088853Y-117390518D01*
X143088853Y-117390518D01*
G37*
D29*
X140472558Y-119158285D03*
D21*
G36*
X140260426Y-120218945D02*
X139411898Y-119370417D01*
X140684690Y-118097625D01*
X141533218Y-118946153D01*
X140260426Y-120218945D01*
X140260426Y-120218945D01*
G37*
D11*
X155207400Y-71954900D03*
X155207400Y-80254900D03*
D10*
X155207400Y-78644900D03*
X155207400Y-73564900D03*
D11*
X178207400Y-71954900D03*
X178207400Y-80254900D03*
D10*
X178207400Y-78644900D03*
X178207400Y-73564900D03*
D30*
X131805500Y-92026700D03*
X131805500Y-93926700D03*
X134005500Y-93926700D03*
X134005500Y-92976700D03*
X134005500Y-92026700D03*
M02*
