G04 #@! TF.GenerationSoftware,KiCad,Pcbnew,(2017-08-25 revision dd37d0595)-makepkg*
G04 #@! TF.CreationDate,2018-04-16T21:33:21-04:00*
G04 #@! TF.ProjectId,VESC_6.4,564553435F362E342E6B696361645F70,rev?*
G04 #@! TF.SameCoordinates,Original*
G04 #@! TF.FileFunction,Copper,L3,Inr,Signal*
G04 #@! TF.FilePolarity,Positive*
%FSLAX46Y46*%
G04 Gerber Fmt 4.6, Leading zero omitted, Abs format (unit mm)*
G04 Created by KiCad (PCBNEW (2017-08-25 revision dd37d0595)-makepkg) date 04/16/18 21:33:21*
%MOMM*%
%LPD*%
G01*
G04 APERTURE LIST*
%ADD10C,0.546100*%
%ADD11O,1.200000X1.900000*%
%ADD12C,1.450000*%
%ADD13C,1.400000*%
%ADD14O,1.700000X1.200000*%
%ADD15R,1.700000X1.200000*%
%ADD16O,1.200000X1.700000*%
%ADD17R,1.200000X1.700000*%
%ADD18C,0.800000*%
%ADD19C,0.254000*%
G04 APERTURE END LIST*
D10*
X146084680Y-90723800D03*
X133507480Y-67335400D03*
X123631960Y-123667520D03*
X135234680Y-118795800D03*
X137698480Y-121081800D03*
X134066280Y-117119400D03*
X131119880Y-118033800D03*
X134142480Y-109626400D03*
X136453880Y-111125000D03*
X128960880Y-112826800D03*
X137342880Y-98247200D03*
X144429480Y-98450400D03*
X146436080Y-83642200D03*
X146410680Y-86334600D03*
X129443480Y-68605400D03*
X144734280Y-93522800D03*
X147579080Y-93929200D03*
X138562080Y-75311000D03*
X144480280Y-74574400D03*
X146664680Y-74523600D03*
X129189480Y-110210600D03*
X139171680Y-123875800D03*
X143286480Y-123926600D03*
X147909680Y-118798800D03*
X146309080Y-113741200D03*
X148137880Y-106781600D03*
X137241280Y-81051400D03*
X138257280Y-80314800D03*
X139908280Y-89103200D03*
X130637280Y-85267800D03*
X129951480Y-81762600D03*
X129265680Y-103733600D03*
X138358880Y-109575600D03*
X137703560Y-100965000D03*
X147899120Y-116423440D03*
X123344940Y-69979540D03*
X123743720Y-65628520D03*
X180298200Y-68001800D03*
X179598200Y-68001800D03*
X178898200Y-68001800D03*
X178198200Y-68001800D03*
X177498200Y-68001800D03*
X176798200Y-68001800D03*
X176098200Y-68001800D03*
X180298200Y-67301800D03*
X179598200Y-67301800D03*
X178898200Y-67301800D03*
X178198200Y-67301800D03*
X177498200Y-67301800D03*
X176798200Y-67301800D03*
X176098200Y-67301800D03*
X180298200Y-66601800D03*
X179598200Y-66601800D03*
X178898200Y-66601800D03*
X178198200Y-66601800D03*
X177498200Y-66601800D03*
X176798200Y-66601800D03*
X176098200Y-66601800D03*
X180298200Y-65901800D03*
X179598200Y-65901800D03*
X178898200Y-65901800D03*
X178198200Y-65901800D03*
X177498200Y-65901800D03*
X176798200Y-65901800D03*
X176098200Y-65901800D03*
X180298200Y-65201800D03*
X179598200Y-65201800D03*
X178898200Y-65201800D03*
X178198200Y-65201800D03*
X177498200Y-65201800D03*
X176798200Y-65201800D03*
X157336600Y-68022120D03*
X156636600Y-68022120D03*
X155936600Y-68022120D03*
X155236600Y-68022120D03*
X154536600Y-68022120D03*
X153836600Y-68022120D03*
X153136600Y-68022120D03*
X157336600Y-67322120D03*
X156636600Y-67322120D03*
X155936600Y-67322120D03*
X155236600Y-67322120D03*
X154536600Y-67322120D03*
X153836600Y-67322120D03*
X153136600Y-67322120D03*
X157336600Y-66622120D03*
X156636600Y-66622120D03*
X155936600Y-66622120D03*
X155236600Y-66622120D03*
X154536600Y-66622120D03*
X153836600Y-66622120D03*
X153136600Y-66622120D03*
X157336600Y-65922120D03*
X156636600Y-65922120D03*
X155936600Y-65922120D03*
X155236600Y-65922120D03*
X154536600Y-65922120D03*
X153836600Y-65922120D03*
X153136600Y-65922120D03*
X157336600Y-65222120D03*
X156636600Y-65222120D03*
X155936600Y-65222120D03*
X155236600Y-65222120D03*
X154536600Y-65222120D03*
X153836600Y-65222120D03*
X176098200Y-65201800D03*
X153136600Y-65222120D03*
X168804700Y-68039900D03*
X168104700Y-68039900D03*
X167404700Y-68039900D03*
X166704700Y-68039900D03*
X166004700Y-68039900D03*
X165304700Y-68039900D03*
X164604700Y-68039900D03*
X168804700Y-67339900D03*
X168104700Y-67339900D03*
X167404700Y-67339900D03*
X166704700Y-67339900D03*
X166004700Y-67339900D03*
X165304700Y-67339900D03*
X164604700Y-67339900D03*
X168804700Y-66639900D03*
X168104700Y-66639900D03*
X167404700Y-66639900D03*
X166704700Y-66639900D03*
X166004700Y-66639900D03*
X165304700Y-66639900D03*
X164604700Y-66639900D03*
X168804700Y-65939900D03*
X168104700Y-65939900D03*
X167404700Y-65939900D03*
X166704700Y-65939900D03*
X166004700Y-65939900D03*
X165304700Y-65939900D03*
X164604700Y-65939900D03*
X168804700Y-65239900D03*
X168104700Y-65239900D03*
X167404700Y-65239900D03*
X166704700Y-65239900D03*
X166004700Y-65239900D03*
X165304700Y-65239900D03*
X164604700Y-65239900D03*
X162005700Y-76767800D03*
X161305700Y-76067800D03*
X162005700Y-74667800D03*
X161305700Y-76767800D03*
X162005700Y-72567800D03*
X160605700Y-76067800D03*
X160605700Y-76767800D03*
X160605700Y-75367800D03*
X160605700Y-73967800D03*
X159905700Y-74667800D03*
X162005700Y-73967800D03*
X159905700Y-76067800D03*
X161305700Y-75367800D03*
X161305700Y-74667800D03*
X159905700Y-76767800D03*
X160605700Y-72567800D03*
X161305700Y-73267800D03*
X159905700Y-75367800D03*
X162005700Y-76067800D03*
X161305700Y-73967800D03*
X162005700Y-73267800D03*
X159905700Y-72567800D03*
X162005700Y-75367800D03*
X160605700Y-74667800D03*
X159905700Y-73967800D03*
X160605700Y-73267800D03*
X161305700Y-72567800D03*
X159905700Y-73267800D03*
X173511900Y-76793200D03*
X172811900Y-76793200D03*
X172111900Y-76793200D03*
X171411900Y-76793200D03*
X173511900Y-76093200D03*
X172811900Y-76093200D03*
X172111900Y-76093200D03*
X171411900Y-76093200D03*
X173511900Y-75393200D03*
X172811900Y-75393200D03*
X172111900Y-75393200D03*
X171411900Y-75393200D03*
X173511900Y-74693200D03*
X172811900Y-74693200D03*
X172111900Y-74693200D03*
X171411900Y-74693200D03*
X173511900Y-73993200D03*
X172811900Y-73993200D03*
X172111900Y-73993200D03*
X171411900Y-73993200D03*
X173511900Y-73293200D03*
X172811900Y-73293200D03*
X172111900Y-73293200D03*
X171411900Y-73293200D03*
X173511900Y-72593200D03*
X172811900Y-72593200D03*
X172111900Y-72593200D03*
X171411900Y-72593200D03*
X157349300Y-84154700D03*
X156649300Y-84154700D03*
X155949300Y-84154700D03*
X155249300Y-84154700D03*
X154549300Y-84154700D03*
X153849300Y-84154700D03*
X153149300Y-84154700D03*
X157349300Y-83454700D03*
X156649300Y-83454700D03*
X155949300Y-83454700D03*
X155249300Y-83454700D03*
X154549300Y-83454700D03*
X153849300Y-83454700D03*
X153149300Y-83454700D03*
X157349300Y-82754700D03*
X156649300Y-82754700D03*
X155949300Y-82754700D03*
X155249300Y-82754700D03*
X154549300Y-82754700D03*
X153849300Y-82754700D03*
X153149300Y-82754700D03*
X157349300Y-82054700D03*
X156649300Y-82054700D03*
X155949300Y-82054700D03*
X155249300Y-82054700D03*
X154549300Y-82054700D03*
X153849300Y-82054700D03*
X168868200Y-84167400D03*
X168168200Y-84167400D03*
X167468200Y-84167400D03*
X166768200Y-84167400D03*
X166068200Y-84167400D03*
X165368200Y-84167400D03*
X164668200Y-84167400D03*
X168868200Y-83467400D03*
X168168200Y-83467400D03*
X167468200Y-83467400D03*
X166768200Y-83467400D03*
X166068200Y-83467400D03*
X165368200Y-83467400D03*
X164668200Y-83467400D03*
X168868200Y-82767400D03*
X168168200Y-82767400D03*
X167468200Y-82767400D03*
X166768200Y-82767400D03*
X166068200Y-82767400D03*
X165368200Y-82767400D03*
X164668200Y-82767400D03*
X168868200Y-82067400D03*
X168168200Y-82067400D03*
X167468200Y-82067400D03*
X166768200Y-82067400D03*
X166068200Y-82067400D03*
X165368200Y-82067400D03*
X153149300Y-82054700D03*
X164668200Y-82067400D03*
X180310900Y-84154700D03*
X179610900Y-84154700D03*
X178910900Y-84154700D03*
X178210900Y-84154700D03*
X177510900Y-84154700D03*
X176810900Y-84154700D03*
X176110900Y-84154700D03*
X180310900Y-83454700D03*
X179610900Y-83454700D03*
X178910900Y-83454700D03*
X178210900Y-83454700D03*
X177510900Y-83454700D03*
X176810900Y-83454700D03*
X176110900Y-83454700D03*
X180310900Y-82754700D03*
X179610900Y-82754700D03*
X178910900Y-82754700D03*
X178210900Y-82754700D03*
X177510900Y-82754700D03*
X176810900Y-82754700D03*
X176110900Y-82754700D03*
X180310900Y-82054700D03*
X179610900Y-82054700D03*
X178910900Y-82054700D03*
X178210900Y-82054700D03*
X177510900Y-82054700D03*
X176810900Y-82054700D03*
X176110900Y-82054700D03*
D11*
X129372480Y-123182900D03*
X136372480Y-123182900D03*
D12*
X130372480Y-120482900D03*
X135372480Y-120482900D03*
D13*
X174957400Y-92504900D03*
X179957400Y-92504900D03*
X158457400Y-92504900D03*
X153457400Y-92504900D03*
D14*
X125707400Y-118116600D03*
D15*
X125707400Y-120116600D03*
D16*
X146707400Y-67604900D03*
X144707400Y-67604900D03*
X142707400Y-67604900D03*
X140707400Y-67604900D03*
X138707400Y-67604900D03*
D17*
X136707400Y-67604900D03*
D14*
X125707400Y-90104900D03*
X125707400Y-92104900D03*
X125707400Y-94104900D03*
X125707400Y-96104900D03*
X125707400Y-98104900D03*
X125707400Y-100104900D03*
X125707400Y-102104900D03*
D15*
X125707400Y-104104900D03*
D14*
X125707400Y-109104900D03*
X125707400Y-111104900D03*
D15*
X125707400Y-113104900D03*
D14*
X125707400Y-77604900D03*
X125707400Y-79604900D03*
X125707400Y-81604900D03*
X125707400Y-83604900D03*
D15*
X125707400Y-85604900D03*
D10*
X134859540Y-108546900D03*
X137900237Y-106663663D03*
X133454140Y-99271678D03*
X140715030Y-117583655D03*
X142886864Y-110374144D03*
X134919059Y-92791280D03*
X148036280Y-71958200D03*
X143017240Y-105879900D03*
X146044920Y-108780580D03*
X132435600Y-96296480D03*
X128285240Y-95295720D03*
X138798300Y-84874100D03*
X140096600Y-84874100D03*
X137500000Y-84874100D03*
X140096600Y-86374100D03*
X138798300Y-86374100D03*
X137500000Y-86374100D03*
X140096600Y-83374100D03*
X138798300Y-83374100D03*
X137500000Y-83374100D03*
X138798300Y-82074100D03*
X140096600Y-87674100D03*
X138798300Y-87674100D03*
X137500000Y-87674100D03*
X140096600Y-82074100D03*
X137500000Y-82074100D03*
X127952500Y-76238100D03*
X125120400Y-73431400D03*
X141389472Y-116925782D03*
X140505589Y-116041899D03*
X139621706Y-116925782D03*
X130898900Y-114312700D03*
X131145280Y-105709720D03*
X127563880Y-102782978D03*
X132727700Y-67564000D03*
X142326563Y-99457516D03*
X129284680Y-96348800D03*
X145846768Y-110598800D03*
X140133687Y-114725574D03*
X133259680Y-79573800D03*
X145234676Y-78298800D03*
X138003280Y-96032320D03*
X143717395Y-81614395D03*
X131869180Y-91025980D03*
X144782220Y-95275400D03*
X133258560Y-97114360D03*
X132735320Y-97109280D03*
X137698480Y-120192800D03*
X139120880Y-78486000D03*
X132407660Y-94701360D03*
X132440680Y-99004120D03*
X148221700Y-83299300D03*
X144475200Y-108270040D03*
X127817880Y-92552520D03*
X143824898Y-117531319D03*
X143116300Y-114757200D03*
X132110480Y-106908600D03*
X146989800Y-97713800D03*
X130352800Y-68808600D03*
X129324100Y-115798600D03*
X140975080Y-99458780D03*
X141653050Y-99438970D03*
X125277880Y-123494800D03*
X133380480Y-111099600D03*
X131452620Y-80307180D03*
X132781040Y-92547440D03*
X132897880Y-70637400D03*
X132334000Y-70642480D03*
X126111000Y-69862700D03*
X147576540Y-90921840D03*
X152511800Y-90271600D03*
X152511800Y-90766900D03*
X153111800Y-90766900D03*
X153711800Y-90766900D03*
X154311800Y-90766900D03*
X154911800Y-90766900D03*
X155511800Y-90766900D03*
X156111800Y-90766900D03*
X156711800Y-90766900D03*
X157311800Y-90766900D03*
X153111800Y-90271600D03*
X153711800Y-90271600D03*
X154311800Y-90271600D03*
X154911800Y-90271600D03*
X155511800Y-90271600D03*
X156111800Y-90271600D03*
X156711800Y-90271600D03*
X157311800Y-90271600D03*
X157911800Y-90271600D03*
X157911800Y-90766900D03*
X164030700Y-90271600D03*
X164630700Y-90271600D03*
X165230700Y-90271600D03*
X165830700Y-90271600D03*
X166430700Y-90271600D03*
X167030700Y-90271600D03*
X167630700Y-90271600D03*
X168230700Y-90271600D03*
X168830700Y-90271600D03*
X164030700Y-90766900D03*
X164630700Y-90766900D03*
X165230700Y-90766900D03*
X165830700Y-90766900D03*
X166430700Y-90766900D03*
X167030700Y-90766900D03*
X167630700Y-90766900D03*
X168230700Y-90766900D03*
X168830700Y-90766900D03*
X169430700Y-90271600D03*
X169430700Y-90766900D03*
X175522600Y-90271600D03*
X176122600Y-90271600D03*
X176722600Y-90271600D03*
X177322600Y-90271600D03*
X177922600Y-90271600D03*
X178522600Y-90271600D03*
X179122600Y-90271600D03*
X179722600Y-90271600D03*
X180322600Y-90271600D03*
X175522600Y-90766900D03*
X176122600Y-90766900D03*
X176722600Y-90766900D03*
X177322600Y-90766900D03*
X177922600Y-90766900D03*
X178522600Y-90766900D03*
X179122600Y-90766900D03*
X179722600Y-90766900D03*
X180322600Y-90766900D03*
X180922600Y-90766900D03*
X180922600Y-90271600D03*
X148635720Y-81575180D03*
X141414500Y-83121500D03*
X141459676Y-85698800D03*
X146400520Y-84460080D03*
X141579532Y-88124105D03*
X146375120Y-88132920D03*
X146984680Y-80623800D03*
X146627788Y-97137393D03*
X141557158Y-95840661D03*
X146080379Y-96745701D03*
X141058755Y-95378927D03*
X139374880Y-80619600D03*
X136684680Y-79973800D03*
X145407380Y-96733360D03*
X140528040Y-94869000D03*
X143873996Y-92295105D03*
X144842615Y-90432505D03*
X136740900Y-94404180D03*
X134858525Y-96164400D03*
X138769343Y-120204682D03*
X138509680Y-119548800D03*
D18*
X148082000Y-123964700D03*
D10*
X133692900Y-104000673D03*
X133692900Y-103327560D03*
X129440620Y-86842600D03*
X139243165Y-104029443D03*
X128928180Y-86354920D03*
X139013000Y-104671877D03*
X128428120Y-86827845D03*
X138243053Y-104026768D03*
X128930400Y-67437000D03*
X131609680Y-101273800D03*
X129301280Y-97282000D03*
X129832100Y-99529900D03*
X133409680Y-100827560D03*
X144851120Y-106273600D03*
X142151100Y-110367360D03*
X127939800Y-107251500D03*
X139710494Y-111078563D03*
X139134680Y-111548860D03*
X140970895Y-94173810D03*
X138611225Y-93422855D03*
X137458711Y-94219421D03*
X136526198Y-95755657D03*
X143725900Y-82664507D03*
X143753941Y-83714619D03*
X137809663Y-74246817D03*
X162636200Y-71272400D03*
X143759678Y-85148800D03*
X143776700Y-86223911D03*
X174251620Y-70759320D03*
X133892695Y-74008148D03*
X143734680Y-87648800D03*
X144741900Y-88773000D03*
X133809680Y-111773800D03*
X136943969Y-105718543D03*
X131686300Y-111988600D03*
X135384600Y-107950000D03*
X135984680Y-107548800D03*
X137398219Y-106215269D03*
X147367427Y-100086993D03*
X136474200Y-81241900D03*
X146975168Y-101826060D03*
X139273816Y-90067864D03*
X133843082Y-85624040D03*
X143758920Y-104795320D03*
X133695440Y-82626200D03*
X144454841Y-104854325D03*
X136245600Y-82428080D03*
X136267551Y-83113321D03*
X144905012Y-105354750D03*
X133510284Y-87348927D03*
X141523720Y-105872280D03*
X133709680Y-86698800D03*
X141428036Y-105026321D03*
X132742620Y-86959440D03*
X140508740Y-105562534D03*
X133684676Y-81673800D03*
X140027523Y-105091886D03*
X133465742Y-88084770D03*
X137133135Y-90567473D03*
X135241884Y-93879164D03*
X135739129Y-95095456D03*
X138984676Y-114673800D03*
X138747500Y-112242600D03*
X137798368Y-73448800D03*
X163195000Y-70815200D03*
X174363380Y-70007480D03*
X133805280Y-73340737D03*
X148117984Y-82625300D03*
X153606500Y-77000100D03*
X151711660Y-85222080D03*
X165341300Y-77012800D03*
X148844000Y-82905600D03*
X149539127Y-82959773D03*
X176733200Y-77000100D03*
X163565840Y-87533478D03*
X148041360Y-84637880D03*
X147859680Y-88598800D03*
X175783240Y-87858600D03*
D19*
G36*
X148466806Y-81049819D02*
X148324549Y-81108598D01*
X148169682Y-81263195D01*
X148085766Y-81465288D01*
X148085575Y-81684112D01*
X148169138Y-81886351D01*
X148323735Y-82041218D01*
X148467476Y-82100904D01*
X148467537Y-82196895D01*
X148429969Y-82159262D01*
X148227876Y-82075346D01*
X148009052Y-82075155D01*
X147806813Y-82158718D01*
X147651946Y-82313315D01*
X147568030Y-82515408D01*
X147567839Y-82734232D01*
X147651402Y-82936471D01*
X147739944Y-83025168D01*
X147671746Y-83189408D01*
X147671555Y-83408232D01*
X147755118Y-83610471D01*
X147909715Y-83765338D01*
X148111808Y-83849254D01*
X148330632Y-83849445D01*
X148468553Y-83792458D01*
X148468868Y-84287567D01*
X148353345Y-84171842D01*
X148151252Y-84087926D01*
X147932428Y-84087735D01*
X147730189Y-84171298D01*
X147575322Y-84325895D01*
X147491406Y-84527988D01*
X147491215Y-84746812D01*
X147574778Y-84949051D01*
X147729375Y-85103918D01*
X147931468Y-85187834D01*
X148150292Y-85188025D01*
X148352531Y-85104462D01*
X148469314Y-84987883D01*
X148473283Y-91220314D01*
X148482981Y-91268909D01*
X148510538Y-91310093D01*
X148551757Y-91337597D01*
X148600283Y-91347233D01*
X149599392Y-91347233D01*
X149647993Y-91337566D01*
X149689195Y-91310036D01*
X149716725Y-91268834D01*
X149726392Y-91220233D01*
X149726392Y-86998851D01*
X151567892Y-86998851D01*
X151567892Y-91220233D01*
X151577559Y-91268834D01*
X151605089Y-91310036D01*
X151646291Y-91337566D01*
X151694892Y-91347233D01*
X159132440Y-91347233D01*
X159181041Y-91337566D01*
X159222243Y-91310036D01*
X159249773Y-91268834D01*
X159255407Y-91240566D01*
X162654992Y-91240566D01*
X162664627Y-91289173D01*
X162692129Y-91330393D01*
X162733313Y-91357951D01*
X162781992Y-91367651D01*
X170554392Y-91367651D01*
X170602993Y-91357984D01*
X170644195Y-91330454D01*
X170671725Y-91289252D01*
X170681392Y-91240651D01*
X170681392Y-87024270D01*
X174239722Y-87024270D01*
X174240360Y-91235492D01*
X174250035Y-91284092D01*
X174277571Y-91325289D01*
X174318777Y-91352813D01*
X174367429Y-91362473D01*
X181590761Y-91358575D01*
X181639356Y-91348881D01*
X181680543Y-91321329D01*
X181708051Y-91280112D01*
X181717692Y-91231575D01*
X181717692Y-87024251D01*
X181708025Y-86975650D01*
X181680495Y-86934448D01*
X181639293Y-86906918D01*
X181590692Y-86897251D01*
X174366722Y-86897251D01*
X174318121Y-86906918D01*
X174276919Y-86934448D01*
X174249389Y-86975650D01*
X174239722Y-87024270D01*
X170681392Y-87024270D01*
X170681392Y-86973451D01*
X170671725Y-86924850D01*
X170644195Y-86883648D01*
X170602993Y-86856118D01*
X170554392Y-86846451D01*
X162784850Y-86846451D01*
X162736249Y-86856118D01*
X162695047Y-86883648D01*
X162667517Y-86924850D01*
X162657850Y-86973366D01*
X162654992Y-91240566D01*
X159255407Y-91240566D01*
X159259440Y-91220332D01*
X159262725Y-86998950D01*
X159253095Y-86950342D01*
X159225597Y-86909118D01*
X159184417Y-86881556D01*
X159135725Y-86871851D01*
X151694892Y-86871851D01*
X151646291Y-86881518D01*
X151605089Y-86909048D01*
X151577559Y-86950250D01*
X151567892Y-86998851D01*
X149726392Y-86998851D01*
X149726392Y-85535811D01*
X151247634Y-85535811D01*
X151399675Y-85688118D01*
X151601768Y-85772034D01*
X151820592Y-85772225D01*
X152022831Y-85688662D01*
X152175949Y-85535811D01*
X159136963Y-85535811D01*
X159185564Y-85526144D01*
X159226766Y-85498614D01*
X159254296Y-85457412D01*
X159263963Y-85408910D01*
X159263963Y-85408726D01*
X162658898Y-85408726D01*
X162668533Y-85457333D01*
X162696035Y-85498553D01*
X162737219Y-85526111D01*
X162785898Y-85535811D01*
X170554392Y-85535811D01*
X170602993Y-85526144D01*
X170644195Y-85498614D01*
X170671725Y-85457412D01*
X170681392Y-85408811D01*
X170681392Y-77148432D01*
X170671725Y-77099831D01*
X170644195Y-77058629D01*
X169995483Y-76409917D01*
X169954281Y-76382387D01*
X169905680Y-76372720D01*
X163555680Y-76372720D01*
X163507079Y-76382387D01*
X163465877Y-76409917D01*
X162708559Y-77167235D01*
X162701552Y-77171917D01*
X162674022Y-77213119D01*
X162664355Y-77261635D01*
X162658898Y-85408726D01*
X159263963Y-85408726D01*
X159270376Y-77167515D01*
X159260746Y-77118907D01*
X159233179Y-77077613D01*
X158565483Y-76409917D01*
X158524281Y-76382387D01*
X158475680Y-76372720D01*
X151998680Y-76372720D01*
X151998680Y-71800720D01*
X159147651Y-71800720D01*
X159196252Y-71791053D01*
X159236804Y-71763957D01*
X162396270Y-71768358D01*
X162526308Y-71822354D01*
X162745132Y-71822545D01*
X162797953Y-71800720D01*
X170554392Y-71800720D01*
X170602993Y-71791053D01*
X170644195Y-71763523D01*
X170647317Y-71758851D01*
X174271477Y-71758851D01*
X174274608Y-71763535D01*
X174315814Y-71791060D01*
X174364398Y-71800720D01*
X181208680Y-71800720D01*
X181208680Y-76372720D01*
X174985680Y-76372720D01*
X174937079Y-76382387D01*
X174895877Y-76409917D01*
X174275420Y-77030374D01*
X174247890Y-77071576D01*
X174238223Y-77120196D01*
X174239478Y-85411370D01*
X174249153Y-85459970D01*
X174276689Y-85501167D01*
X174317895Y-85528691D01*
X174366478Y-85538351D01*
X183660792Y-85538351D01*
X183660792Y-91382293D01*
X183653600Y-91418451D01*
X183653600Y-93252900D01*
X180590988Y-93252900D01*
X180785178Y-93059049D01*
X180934230Y-92700090D01*
X180934570Y-92311415D01*
X180786144Y-91952197D01*
X180511549Y-91677122D01*
X180152590Y-91528070D01*
X179763915Y-91527730D01*
X179404697Y-91676156D01*
X179129622Y-91950751D01*
X178980570Y-92309710D01*
X178980230Y-92698385D01*
X179128656Y-93057603D01*
X179323612Y-93252900D01*
X170207400Y-93252900D01*
X170072695Y-93279694D01*
X169958498Y-93355998D01*
X169882194Y-93470195D01*
X169855400Y-93604900D01*
X169855400Y-99252900D01*
X163559400Y-99252900D01*
X163559400Y-93604900D01*
X163532606Y-93470195D01*
X163456302Y-93355998D01*
X163342105Y-93279694D01*
X163207400Y-93252900D01*
X154090988Y-93252900D01*
X154285178Y-93059049D01*
X154434230Y-92700090D01*
X154434570Y-92311415D01*
X154286144Y-91952197D01*
X154011549Y-91677122D01*
X153652590Y-91528070D01*
X153263915Y-91527730D01*
X152904697Y-91676156D01*
X152629622Y-91950751D01*
X152480570Y-92309710D01*
X152480230Y-92698385D01*
X152628656Y-93057603D01*
X152823612Y-93252900D01*
X148707400Y-93252900D01*
X148572695Y-93279694D01*
X148458498Y-93355998D01*
X148382194Y-93470195D01*
X148355400Y-93604900D01*
X148355400Y-123345181D01*
X148217254Y-123287818D01*
X147947927Y-123287583D01*
X147699011Y-123390433D01*
X147508402Y-123580710D01*
X147405118Y-123829446D01*
X147404883Y-124098773D01*
X147468567Y-124252900D01*
X124242067Y-124252900D01*
X123770719Y-124159143D01*
X123400518Y-123911782D01*
X123194686Y-123603732D01*
X124727735Y-123603732D01*
X124811298Y-123805971D01*
X124965895Y-123960838D01*
X125167988Y-124044754D01*
X125386812Y-124044945D01*
X125589051Y-123961382D01*
X125743918Y-123806785D01*
X125827834Y-123604692D01*
X125828025Y-123385868D01*
X125744462Y-123183629D01*
X125589865Y-123028762D01*
X125387772Y-122944846D01*
X125168948Y-122944655D01*
X124966709Y-123028218D01*
X124811842Y-123182815D01*
X124727926Y-123384908D01*
X124727735Y-123603732D01*
X123194686Y-123603732D01*
X123153157Y-123541581D01*
X123059400Y-123070233D01*
X123059400Y-119516600D01*
X124574974Y-119516600D01*
X124574974Y-120716600D01*
X124596472Y-120824680D01*
X124657695Y-120916305D01*
X124749320Y-120977528D01*
X124857400Y-120999026D01*
X126557400Y-120999026D01*
X126665480Y-120977528D01*
X126757105Y-120916305D01*
X126818328Y-120824680D01*
X126839826Y-120716600D01*
X126839826Y-120301732D01*
X137148335Y-120301732D01*
X137231898Y-120503971D01*
X137386495Y-120658838D01*
X137588588Y-120742754D01*
X137807412Y-120742945D01*
X138009651Y-120659382D01*
X138164518Y-120504785D01*
X138231518Y-120343431D01*
X138302761Y-120515853D01*
X138457358Y-120670720D01*
X138659451Y-120754636D01*
X138878275Y-120754827D01*
X139080514Y-120671264D01*
X139235381Y-120516667D01*
X139319297Y-120314574D01*
X139319488Y-120095750D01*
X139235925Y-119893511D01*
X139081328Y-119738644D01*
X139034508Y-119719203D01*
X139059634Y-119658692D01*
X139059825Y-119439868D01*
X138976262Y-119237629D01*
X138821665Y-119082762D01*
X138619572Y-118998846D01*
X138400748Y-118998655D01*
X138198509Y-119082218D01*
X138043642Y-119236815D01*
X137959726Y-119438908D01*
X137959535Y-119657732D01*
X137983417Y-119715531D01*
X137808372Y-119642846D01*
X137589548Y-119642655D01*
X137387309Y-119726218D01*
X137232442Y-119880815D01*
X137148526Y-120082908D01*
X137148335Y-120301732D01*
X126839826Y-120301732D01*
X126839826Y-119516600D01*
X126818328Y-119408520D01*
X126757105Y-119316895D01*
X126665480Y-119255672D01*
X126557400Y-119234174D01*
X124857400Y-119234174D01*
X124749320Y-119255672D01*
X124657695Y-119316895D01*
X124596472Y-119408520D01*
X124574974Y-119516600D01*
X123059400Y-119516600D01*
X123059400Y-118116600D01*
X124558321Y-118116600D01*
X124625079Y-118452213D01*
X124815188Y-118736733D01*
X125099708Y-118926842D01*
X125435321Y-118993600D01*
X125979479Y-118993600D01*
X126315092Y-118926842D01*
X126599612Y-118736733D01*
X126789721Y-118452213D01*
X126856479Y-118116600D01*
X126789721Y-117780987D01*
X126695685Y-117640251D01*
X143274753Y-117640251D01*
X143358316Y-117842490D01*
X143512913Y-117997357D01*
X143715006Y-118081273D01*
X143933830Y-118081464D01*
X144136069Y-117997901D01*
X144290936Y-117843304D01*
X144374852Y-117641211D01*
X144375043Y-117422387D01*
X144291480Y-117220148D01*
X144136883Y-117065281D01*
X143934790Y-116981365D01*
X143715966Y-116981174D01*
X143513727Y-117064737D01*
X143358860Y-117219334D01*
X143274944Y-117421427D01*
X143274753Y-117640251D01*
X126695685Y-117640251D01*
X126599612Y-117496467D01*
X126315092Y-117306358D01*
X125979479Y-117239600D01*
X125435321Y-117239600D01*
X125099708Y-117306358D01*
X124815188Y-117496467D01*
X124625079Y-117780987D01*
X124558321Y-118116600D01*
X123059400Y-118116600D01*
X123059400Y-115907532D01*
X128773955Y-115907532D01*
X128857518Y-116109771D01*
X129012115Y-116264638D01*
X129214208Y-116348554D01*
X129433032Y-116348745D01*
X129635271Y-116265182D01*
X129790138Y-116110585D01*
X129874054Y-115908492D01*
X129874245Y-115689668D01*
X129790682Y-115487429D01*
X129636085Y-115332562D01*
X129433992Y-115248646D01*
X129215168Y-115248455D01*
X129012929Y-115332018D01*
X128858062Y-115486615D01*
X128774146Y-115688708D01*
X128773955Y-115907532D01*
X123059400Y-115907532D01*
X123059400Y-114782732D01*
X138434531Y-114782732D01*
X138518094Y-114984971D01*
X138672691Y-115139838D01*
X138874784Y-115223754D01*
X139093608Y-115223945D01*
X139295847Y-115140382D01*
X139450714Y-114985785D01*
X139513530Y-114834506D01*
X139583542Y-114834506D01*
X139667105Y-115036745D01*
X139821702Y-115191612D01*
X140023795Y-115275528D01*
X140242619Y-115275719D01*
X140444858Y-115192156D01*
X140599725Y-115037559D01*
X140670907Y-114866132D01*
X142566155Y-114866132D01*
X142649718Y-115068371D01*
X142804315Y-115223238D01*
X143006408Y-115307154D01*
X143225232Y-115307345D01*
X143427471Y-115223782D01*
X143582338Y-115069185D01*
X143666254Y-114867092D01*
X143666445Y-114648268D01*
X143582882Y-114446029D01*
X143428285Y-114291162D01*
X143226192Y-114207246D01*
X143007368Y-114207055D01*
X142805129Y-114290618D01*
X142650262Y-114445215D01*
X142566346Y-114647308D01*
X142566155Y-114866132D01*
X140670907Y-114866132D01*
X140683641Y-114835466D01*
X140683832Y-114616642D01*
X140600269Y-114414403D01*
X140445672Y-114259536D01*
X140243579Y-114175620D01*
X140024755Y-114175429D01*
X139822516Y-114258992D01*
X139667649Y-114413589D01*
X139583733Y-114615682D01*
X139583542Y-114834506D01*
X139513530Y-114834506D01*
X139534630Y-114783692D01*
X139534821Y-114564868D01*
X139451258Y-114362629D01*
X139296661Y-114207762D01*
X139094568Y-114123846D01*
X138875744Y-114123655D01*
X138673505Y-114207218D01*
X138518638Y-114361815D01*
X138434722Y-114563908D01*
X138434531Y-114782732D01*
X123059400Y-114782732D01*
X123059400Y-112097532D01*
X131136155Y-112097532D01*
X131219718Y-112299771D01*
X131374315Y-112454638D01*
X131576408Y-112538554D01*
X131795232Y-112538745D01*
X131997471Y-112455182D01*
X132101302Y-112351532D01*
X138197355Y-112351532D01*
X138280918Y-112553771D01*
X138435515Y-112708638D01*
X138637608Y-112792554D01*
X138856432Y-112792745D01*
X139058671Y-112709182D01*
X139213538Y-112554585D01*
X139297454Y-112352492D01*
X139297645Y-112133668D01*
X139277532Y-112084990D01*
X139445851Y-112015442D01*
X139600718Y-111860845D01*
X139684634Y-111658752D01*
X139684660Y-111628590D01*
X139819426Y-111628708D01*
X140021665Y-111545145D01*
X140176532Y-111390548D01*
X140260448Y-111188455D01*
X140260639Y-110969631D01*
X140177076Y-110767392D01*
X140022479Y-110612525D01*
X139820386Y-110528609D01*
X139601562Y-110528418D01*
X139399323Y-110611981D01*
X139244456Y-110766578D01*
X139160540Y-110968671D01*
X139160514Y-110998833D01*
X139025748Y-110998715D01*
X138823509Y-111082278D01*
X138668642Y-111236875D01*
X138584726Y-111438968D01*
X138584535Y-111657792D01*
X138604648Y-111706470D01*
X138436329Y-111776018D01*
X138281462Y-111930615D01*
X138197546Y-112132708D01*
X138197355Y-112351532D01*
X132101302Y-112351532D01*
X132152338Y-112300585D01*
X132236254Y-112098492D01*
X132236445Y-111879668D01*
X132152882Y-111677429D01*
X131998285Y-111522562D01*
X131796192Y-111438646D01*
X131577368Y-111438455D01*
X131375129Y-111522018D01*
X131220262Y-111676615D01*
X131136346Y-111878708D01*
X131136155Y-112097532D01*
X123059400Y-112097532D01*
X123059400Y-111104900D01*
X124558321Y-111104900D01*
X124625079Y-111440513D01*
X124815188Y-111725033D01*
X125099708Y-111915142D01*
X125435321Y-111981900D01*
X125979479Y-111981900D01*
X126315092Y-111915142D01*
X126599612Y-111725033D01*
X126789721Y-111440513D01*
X126835865Y-111208532D01*
X132830335Y-111208532D01*
X132913898Y-111410771D01*
X133068495Y-111565638D01*
X133266407Y-111647818D01*
X133259726Y-111663908D01*
X133259535Y-111882732D01*
X133343098Y-112084971D01*
X133497695Y-112239838D01*
X133699788Y-112323754D01*
X133918612Y-112323945D01*
X134120851Y-112240382D01*
X134275718Y-112085785D01*
X134359634Y-111883692D01*
X134359825Y-111664868D01*
X134276262Y-111462629D01*
X134121665Y-111307762D01*
X133923753Y-111225582D01*
X133930434Y-111209492D01*
X133930625Y-110990668D01*
X133847062Y-110788429D01*
X133692465Y-110633562D01*
X133490372Y-110549646D01*
X133271548Y-110549455D01*
X133069309Y-110633018D01*
X132914442Y-110787615D01*
X132830526Y-110989708D01*
X132830335Y-111208532D01*
X126835865Y-111208532D01*
X126856479Y-111104900D01*
X126789721Y-110769287D01*
X126599612Y-110484767D01*
X126586929Y-110476292D01*
X141600955Y-110476292D01*
X141684518Y-110678531D01*
X141839115Y-110833398D01*
X142041208Y-110917314D01*
X142260032Y-110917505D01*
X142462271Y-110833942D01*
X142588701Y-110707732D01*
X145296623Y-110707732D01*
X145380186Y-110909971D01*
X145534783Y-111064838D01*
X145736876Y-111148754D01*
X145955700Y-111148945D01*
X146157939Y-111065382D01*
X146312806Y-110910785D01*
X146396722Y-110708692D01*
X146396913Y-110489868D01*
X146313350Y-110287629D01*
X146158753Y-110132762D01*
X145956660Y-110048846D01*
X145737836Y-110048655D01*
X145535597Y-110132218D01*
X145380730Y-110286815D01*
X145296814Y-110488908D01*
X145296623Y-110707732D01*
X142588701Y-110707732D01*
X142617138Y-110679345D01*
X142701054Y-110477252D01*
X142701245Y-110258428D01*
X142617682Y-110056189D01*
X142463085Y-109901322D01*
X142260992Y-109817406D01*
X142042168Y-109817215D01*
X141839929Y-109900778D01*
X141685062Y-110055375D01*
X141601146Y-110257468D01*
X141600955Y-110476292D01*
X126586929Y-110476292D01*
X126315092Y-110294658D01*
X125979479Y-110227900D01*
X125435321Y-110227900D01*
X125099708Y-110294658D01*
X124815188Y-110484767D01*
X124625079Y-110769287D01*
X124558321Y-111104900D01*
X123059400Y-111104900D01*
X123059400Y-109104900D01*
X124558321Y-109104900D01*
X124625079Y-109440513D01*
X124815188Y-109725033D01*
X125099708Y-109915142D01*
X125435321Y-109981900D01*
X125979479Y-109981900D01*
X126315092Y-109915142D01*
X126599612Y-109725033D01*
X126789721Y-109440513D01*
X126856479Y-109104900D01*
X126789721Y-108769287D01*
X126713914Y-108655832D01*
X134309395Y-108655832D01*
X134392958Y-108858071D01*
X134547555Y-109012938D01*
X134749648Y-109096854D01*
X134968472Y-109097045D01*
X135170711Y-109013482D01*
X135325578Y-108858885D01*
X135409494Y-108656792D01*
X135409631Y-108500072D01*
X135493532Y-108500145D01*
X135695771Y-108416582D01*
X135733446Y-108378972D01*
X143925055Y-108378972D01*
X144008618Y-108581211D01*
X144163215Y-108736078D01*
X144365308Y-108819994D01*
X144584132Y-108820185D01*
X144786371Y-108736622D01*
X144941238Y-108582025D01*
X145025154Y-108379932D01*
X145025345Y-108161108D01*
X144941782Y-107958869D01*
X144787185Y-107804002D01*
X144585092Y-107720086D01*
X144366268Y-107719895D01*
X144164029Y-107803458D01*
X144009162Y-107958055D01*
X143925246Y-108160148D01*
X143925055Y-108378972D01*
X135733446Y-108378972D01*
X135850638Y-108261985D01*
X135918401Y-108098792D01*
X136093612Y-108098945D01*
X136295851Y-108015382D01*
X136450718Y-107860785D01*
X136534634Y-107658692D01*
X136534825Y-107439868D01*
X136451262Y-107237629D01*
X136296665Y-107082762D01*
X136094572Y-106998846D01*
X135875748Y-106998655D01*
X135673509Y-107082218D01*
X135518642Y-107236815D01*
X135450879Y-107400008D01*
X135275668Y-107399855D01*
X135073429Y-107483418D01*
X134918562Y-107638015D01*
X134834646Y-107840108D01*
X134834509Y-107996828D01*
X134750608Y-107996755D01*
X134548369Y-108080318D01*
X134393502Y-108234915D01*
X134309586Y-108437008D01*
X134309395Y-108655832D01*
X126713914Y-108655832D01*
X126599612Y-108484767D01*
X126315092Y-108294658D01*
X125979479Y-108227900D01*
X125435321Y-108227900D01*
X125099708Y-108294658D01*
X124815188Y-108484767D01*
X124625079Y-108769287D01*
X124558321Y-109104900D01*
X123059400Y-109104900D01*
X123059400Y-107360432D01*
X127389655Y-107360432D01*
X127473218Y-107562671D01*
X127627815Y-107717538D01*
X127829908Y-107801454D01*
X128048732Y-107801645D01*
X128250971Y-107718082D01*
X128405838Y-107563485D01*
X128489754Y-107361392D01*
X128489945Y-107142568D01*
X128438282Y-107017532D01*
X131560335Y-107017532D01*
X131643898Y-107219771D01*
X131798495Y-107374638D01*
X132000588Y-107458554D01*
X132219412Y-107458745D01*
X132421651Y-107375182D01*
X132576518Y-107220585D01*
X132660434Y-107018492D01*
X132660625Y-106799668D01*
X132577062Y-106597429D01*
X132422465Y-106442562D01*
X132220372Y-106358646D01*
X132001548Y-106358455D01*
X131799309Y-106442018D01*
X131644442Y-106596615D01*
X131560526Y-106798708D01*
X131560335Y-107017532D01*
X128438282Y-107017532D01*
X128406382Y-106940329D01*
X128251785Y-106785462D01*
X128049692Y-106701546D01*
X127830868Y-106701355D01*
X127628629Y-106784918D01*
X127473762Y-106939515D01*
X127389846Y-107141608D01*
X127389655Y-107360432D01*
X123059400Y-107360432D01*
X123059400Y-105827475D01*
X136393824Y-105827475D01*
X136477387Y-106029714D01*
X136631984Y-106184581D01*
X136834077Y-106268497D01*
X136848123Y-106268509D01*
X136848074Y-106324201D01*
X136931637Y-106526440D01*
X137086234Y-106681307D01*
X137288327Y-106765223D01*
X137350098Y-106765277D01*
X137350092Y-106772595D01*
X137433655Y-106974834D01*
X137588252Y-107129701D01*
X137790345Y-107213617D01*
X138009169Y-107213808D01*
X138211408Y-107130245D01*
X138366275Y-106975648D01*
X138450191Y-106773555D01*
X138450382Y-106554731D01*
X138366819Y-106352492D01*
X138212222Y-106197625D01*
X138010129Y-106113709D01*
X137948358Y-106113655D01*
X137948364Y-106106337D01*
X137864801Y-105904098D01*
X137710204Y-105749231D01*
X137508111Y-105665315D01*
X137494065Y-105665303D01*
X137494114Y-105609611D01*
X137410551Y-105407372D01*
X137255954Y-105252505D01*
X137053861Y-105168589D01*
X136835037Y-105168398D01*
X136632798Y-105251961D01*
X136477931Y-105406558D01*
X136394015Y-105608651D01*
X136393824Y-105827475D01*
X123059400Y-105827475D01*
X123059400Y-103504900D01*
X124574974Y-103504900D01*
X124574974Y-104704900D01*
X124596472Y-104812980D01*
X124657695Y-104904605D01*
X124749320Y-104965828D01*
X124857400Y-104987326D01*
X126557400Y-104987326D01*
X126665480Y-104965828D01*
X126757105Y-104904605D01*
X126818328Y-104812980D01*
X126839826Y-104704900D01*
X126839826Y-103504900D01*
X126826220Y-103436492D01*
X133142755Y-103436492D01*
X133226318Y-103638731D01*
X133251568Y-103664025D01*
X133226862Y-103688688D01*
X133142946Y-103890781D01*
X133142755Y-104109605D01*
X133226318Y-104311844D01*
X133380915Y-104466711D01*
X133583008Y-104550627D01*
X133801832Y-104550818D01*
X134004071Y-104467255D01*
X134158938Y-104312658D01*
X134232417Y-104135700D01*
X137692908Y-104135700D01*
X137776471Y-104337939D01*
X137931068Y-104492806D01*
X138133161Y-104576722D01*
X138351985Y-104576913D01*
X138478565Y-104524612D01*
X138463046Y-104561985D01*
X138462855Y-104780809D01*
X138546418Y-104983048D01*
X138701015Y-105137915D01*
X138903108Y-105221831D01*
X139121932Y-105222022D01*
X139324171Y-105138459D01*
X139477566Y-104985331D01*
X139477378Y-105200818D01*
X139560941Y-105403057D01*
X139715538Y-105557924D01*
X139917631Y-105641840D01*
X139958621Y-105641876D01*
X139958595Y-105671466D01*
X140042158Y-105873705D01*
X140196755Y-106028572D01*
X140398848Y-106112488D01*
X140617672Y-106112679D01*
X140819911Y-106029116D01*
X140973667Y-105875628D01*
X140973575Y-105981212D01*
X141057138Y-106183451D01*
X141211735Y-106338318D01*
X141413828Y-106422234D01*
X141632652Y-106422425D01*
X141834891Y-106338862D01*
X141989758Y-106184265D01*
X142073674Y-105982172D01*
X142073865Y-105763348D01*
X141990302Y-105561109D01*
X141835705Y-105406242D01*
X141828865Y-105403402D01*
X141894074Y-105338306D01*
X141977990Y-105136213D01*
X141978181Y-104917389D01*
X141972753Y-104904252D01*
X143208775Y-104904252D01*
X143292338Y-105106491D01*
X143446935Y-105261358D01*
X143649028Y-105345274D01*
X143867852Y-105345465D01*
X144070091Y-105261902D01*
X144077307Y-105254699D01*
X144142856Y-105320363D01*
X144344949Y-105404279D01*
X144354919Y-105404288D01*
X144354867Y-105463682D01*
X144438430Y-105665921D01*
X144567795Y-105795512D01*
X144539949Y-105807018D01*
X144385082Y-105961615D01*
X144301166Y-106163708D01*
X144300975Y-106382532D01*
X144384538Y-106584771D01*
X144539135Y-106739638D01*
X144741228Y-106823554D01*
X144960052Y-106823745D01*
X145162291Y-106740182D01*
X145317158Y-106585585D01*
X145401074Y-106383492D01*
X145401265Y-106164668D01*
X145317702Y-105962429D01*
X145188337Y-105832838D01*
X145216183Y-105821332D01*
X145371050Y-105666735D01*
X145454966Y-105464642D01*
X145455157Y-105245818D01*
X145371594Y-105043579D01*
X145216997Y-104888712D01*
X145014904Y-104804796D01*
X145004934Y-104804787D01*
X145004986Y-104745393D01*
X144921423Y-104543154D01*
X144766826Y-104388287D01*
X144564733Y-104304371D01*
X144345909Y-104304180D01*
X144143670Y-104387743D01*
X144136454Y-104394946D01*
X144070905Y-104329282D01*
X143868812Y-104245366D01*
X143649988Y-104245175D01*
X143447749Y-104328738D01*
X143292882Y-104483335D01*
X143208966Y-104685428D01*
X143208775Y-104904252D01*
X141972753Y-104904252D01*
X141894618Y-104715150D01*
X141740021Y-104560283D01*
X141537928Y-104476367D01*
X141319104Y-104476176D01*
X141116865Y-104559739D01*
X140961998Y-104714336D01*
X140878082Y-104916429D01*
X140877891Y-105135253D01*
X140890940Y-105166833D01*
X140820725Y-105096496D01*
X140618632Y-105012580D01*
X140577642Y-105012544D01*
X140577668Y-104982954D01*
X140494105Y-104780715D01*
X140339508Y-104625848D01*
X140137415Y-104541932D01*
X139918591Y-104541741D01*
X139716352Y-104625304D01*
X139562957Y-104778432D01*
X139563145Y-104562945D01*
X139538242Y-104502675D01*
X139554336Y-104496025D01*
X139709203Y-104341428D01*
X139793119Y-104139335D01*
X139793310Y-103920511D01*
X139709747Y-103718272D01*
X139555150Y-103563405D01*
X139353057Y-103479489D01*
X139134233Y-103479298D01*
X138931994Y-103562861D01*
X138777127Y-103717458D01*
X138743683Y-103798000D01*
X138709635Y-103715597D01*
X138555038Y-103560730D01*
X138352945Y-103476814D01*
X138134121Y-103476623D01*
X137931882Y-103560186D01*
X137777015Y-103714783D01*
X137693099Y-103916876D01*
X137692908Y-104135700D01*
X134232417Y-104135700D01*
X134242854Y-104110565D01*
X134243045Y-103891741D01*
X134159482Y-103689502D01*
X134134232Y-103664208D01*
X134158938Y-103639545D01*
X134242854Y-103437452D01*
X134243045Y-103218628D01*
X134159482Y-103016389D01*
X134004885Y-102861522D01*
X133802792Y-102777606D01*
X133583968Y-102777415D01*
X133381729Y-102860978D01*
X133226862Y-103015575D01*
X133142946Y-103217668D01*
X133142755Y-103436492D01*
X126826220Y-103436492D01*
X126818328Y-103396820D01*
X126757105Y-103305195D01*
X126665480Y-103243972D01*
X126557400Y-103222474D01*
X124857400Y-103222474D01*
X124749320Y-103243972D01*
X124657695Y-103305195D01*
X124596472Y-103396820D01*
X124574974Y-103504900D01*
X123059400Y-103504900D01*
X123059400Y-102104900D01*
X124558321Y-102104900D01*
X124625079Y-102440513D01*
X124815188Y-102725033D01*
X125099708Y-102915142D01*
X125435321Y-102981900D01*
X125979479Y-102981900D01*
X126315092Y-102915142D01*
X126349861Y-102891910D01*
X127013735Y-102891910D01*
X127097298Y-103094149D01*
X127251895Y-103249016D01*
X127453988Y-103332932D01*
X127672812Y-103333123D01*
X127875051Y-103249560D01*
X128029918Y-103094963D01*
X128113834Y-102892870D01*
X128114025Y-102674046D01*
X128030462Y-102471807D01*
X127875865Y-102316940D01*
X127673772Y-102233024D01*
X127454948Y-102232833D01*
X127252709Y-102316396D01*
X127097842Y-102470993D01*
X127013926Y-102673086D01*
X127013735Y-102891910D01*
X126349861Y-102891910D01*
X126599612Y-102725033D01*
X126789721Y-102440513D01*
X126856479Y-102104900D01*
X126822682Y-101934992D01*
X146425023Y-101934992D01*
X146508586Y-102137231D01*
X146663183Y-102292098D01*
X146865276Y-102376014D01*
X147084100Y-102376205D01*
X147286339Y-102292642D01*
X147441206Y-102138045D01*
X147525122Y-101935952D01*
X147525313Y-101717128D01*
X147441750Y-101514889D01*
X147287153Y-101360022D01*
X147085060Y-101276106D01*
X146866236Y-101275915D01*
X146663997Y-101359478D01*
X146509130Y-101514075D01*
X146425214Y-101716168D01*
X146425023Y-101934992D01*
X126822682Y-101934992D01*
X126789721Y-101769287D01*
X126599612Y-101484767D01*
X126446905Y-101382732D01*
X131059535Y-101382732D01*
X131143098Y-101584971D01*
X131297695Y-101739838D01*
X131499788Y-101823754D01*
X131718612Y-101823945D01*
X131920851Y-101740382D01*
X132075718Y-101585785D01*
X132159634Y-101383692D01*
X132159825Y-101164868D01*
X132076262Y-100962629D01*
X132050171Y-100936492D01*
X132859535Y-100936492D01*
X132943098Y-101138731D01*
X133097695Y-101293598D01*
X133299788Y-101377514D01*
X133518612Y-101377705D01*
X133720851Y-101294142D01*
X133875718Y-101139545D01*
X133959634Y-100937452D01*
X133959825Y-100718628D01*
X133876262Y-100516389D01*
X133721665Y-100361522D01*
X133519572Y-100277606D01*
X133300748Y-100277415D01*
X133098509Y-100360978D01*
X132943642Y-100515575D01*
X132859726Y-100717668D01*
X132859535Y-100936492D01*
X132050171Y-100936492D01*
X131921665Y-100807762D01*
X131719572Y-100723846D01*
X131500748Y-100723655D01*
X131298509Y-100807218D01*
X131143642Y-100961815D01*
X131059726Y-101163908D01*
X131059535Y-101382732D01*
X126446905Y-101382732D01*
X126315092Y-101294658D01*
X125979479Y-101227900D01*
X125435321Y-101227900D01*
X125099708Y-101294658D01*
X124815188Y-101484767D01*
X124625079Y-101769287D01*
X124558321Y-102104900D01*
X123059400Y-102104900D01*
X123059400Y-100195925D01*
X146817282Y-100195925D01*
X146900845Y-100398164D01*
X147055442Y-100553031D01*
X147257535Y-100636947D01*
X147476359Y-100637138D01*
X147678598Y-100553575D01*
X147833465Y-100398978D01*
X147917381Y-100196885D01*
X147917572Y-99978061D01*
X147834009Y-99775822D01*
X147679412Y-99620955D01*
X147477319Y-99537039D01*
X147258495Y-99536848D01*
X147056256Y-99620411D01*
X146901389Y-99775008D01*
X146817473Y-99977101D01*
X146817282Y-100195925D01*
X123059400Y-100195925D01*
X123059400Y-99638832D01*
X129281955Y-99638832D01*
X129365518Y-99841071D01*
X129520115Y-99995938D01*
X129722208Y-100079854D01*
X129941032Y-100080045D01*
X130143271Y-99996482D01*
X130298138Y-99841885D01*
X130382054Y-99639792D01*
X130382116Y-99567712D01*
X140424935Y-99567712D01*
X140508498Y-99769951D01*
X140663095Y-99924818D01*
X140865188Y-100008734D01*
X141084012Y-100008925D01*
X141286251Y-99925362D01*
X141323883Y-99887796D01*
X141341065Y-99905008D01*
X141543158Y-99988924D01*
X141761982Y-99989115D01*
X141964221Y-99905552D01*
X141980442Y-99889359D01*
X142014578Y-99923554D01*
X142216671Y-100007470D01*
X142435495Y-100007661D01*
X142637734Y-99924098D01*
X142792601Y-99769501D01*
X142876517Y-99567408D01*
X142876708Y-99348584D01*
X142793145Y-99146345D01*
X142638548Y-98991478D01*
X142436455Y-98907562D01*
X142217631Y-98907371D01*
X142015392Y-98990934D01*
X141999171Y-99007127D01*
X141965035Y-98972932D01*
X141762942Y-98889016D01*
X141544118Y-98888825D01*
X141341879Y-98972388D01*
X141304247Y-99009954D01*
X141287065Y-98992742D01*
X141084972Y-98908826D01*
X140866148Y-98908635D01*
X140663909Y-98992198D01*
X140509042Y-99146795D01*
X140425126Y-99348888D01*
X140424935Y-99567712D01*
X130382116Y-99567712D01*
X130382245Y-99420968D01*
X130298682Y-99218729D01*
X130193190Y-99113052D01*
X131890535Y-99113052D01*
X131974098Y-99315291D01*
X132128695Y-99470158D01*
X132330788Y-99554074D01*
X132549612Y-99554265D01*
X132751851Y-99470702D01*
X132906718Y-99316105D01*
X132990634Y-99114012D01*
X132990825Y-98895188D01*
X132907262Y-98692949D01*
X132752665Y-98538082D01*
X132550572Y-98454166D01*
X132331748Y-98453975D01*
X132129509Y-98537538D01*
X131974642Y-98692135D01*
X131890726Y-98894228D01*
X131890535Y-99113052D01*
X130193190Y-99113052D01*
X130144085Y-99063862D01*
X129941992Y-98979946D01*
X129723168Y-98979755D01*
X129520929Y-99063318D01*
X129366062Y-99217915D01*
X129282146Y-99420008D01*
X129281955Y-99638832D01*
X123059400Y-99638832D01*
X123059400Y-98104900D01*
X124558321Y-98104900D01*
X124625079Y-98440513D01*
X124815188Y-98725033D01*
X125099708Y-98915142D01*
X125435321Y-98981900D01*
X125979479Y-98981900D01*
X126315092Y-98915142D01*
X126599612Y-98725033D01*
X126789721Y-98440513D01*
X126856479Y-98104900D01*
X126789721Y-97769287D01*
X126599612Y-97484767D01*
X126315092Y-97294658D01*
X125979479Y-97227900D01*
X125435321Y-97227900D01*
X125099708Y-97294658D01*
X124815188Y-97484767D01*
X124625079Y-97769287D01*
X124558321Y-98104900D01*
X123059400Y-98104900D01*
X123059400Y-96104900D01*
X124558321Y-96104900D01*
X124625079Y-96440513D01*
X124815188Y-96725033D01*
X125099708Y-96915142D01*
X125435321Y-96981900D01*
X125979479Y-96981900D01*
X126315092Y-96915142D01*
X126599612Y-96725033D01*
X126778215Y-96457732D01*
X128734535Y-96457732D01*
X128818098Y-96659971D01*
X128972695Y-96814838D01*
X128985404Y-96820115D01*
X128835242Y-96970015D01*
X128751326Y-97172108D01*
X128751135Y-97390932D01*
X128834698Y-97593171D01*
X128989295Y-97748038D01*
X129191388Y-97831954D01*
X129410212Y-97832145D01*
X129612451Y-97748582D01*
X129767318Y-97593985D01*
X129851234Y-97391892D01*
X129851385Y-97218212D01*
X132185175Y-97218212D01*
X132268738Y-97420451D01*
X132423335Y-97575318D01*
X132625428Y-97659234D01*
X132844252Y-97659425D01*
X132990934Y-97598817D01*
X133148668Y-97664314D01*
X133367492Y-97664505D01*
X133569731Y-97580942D01*
X133724598Y-97426345D01*
X133808514Y-97224252D01*
X133808705Y-97005428D01*
X133741299Y-96842292D01*
X144857235Y-96842292D01*
X144940798Y-97044531D01*
X145095395Y-97199398D01*
X145297488Y-97283314D01*
X145516312Y-97283505D01*
X145718551Y-97199942D01*
X145737617Y-97180909D01*
X145768394Y-97211739D01*
X145970487Y-97295655D01*
X146098072Y-97295766D01*
X146161206Y-97448564D01*
X146315803Y-97603431D01*
X146439801Y-97654919D01*
X146439655Y-97822732D01*
X146523218Y-98024971D01*
X146677815Y-98179838D01*
X146879908Y-98263754D01*
X147098732Y-98263945D01*
X147300971Y-98180382D01*
X147455838Y-98025785D01*
X147539754Y-97823692D01*
X147539945Y-97604868D01*
X147456382Y-97402629D01*
X147301785Y-97247762D01*
X147177787Y-97196274D01*
X147177933Y-97028461D01*
X147094370Y-96826222D01*
X146939773Y-96671355D01*
X146737680Y-96587439D01*
X146610095Y-96587328D01*
X146546961Y-96434530D01*
X146392364Y-96279663D01*
X146190271Y-96195747D01*
X145971447Y-96195556D01*
X145769208Y-96279119D01*
X145750142Y-96298152D01*
X145719365Y-96267322D01*
X145517272Y-96183406D01*
X145298448Y-96183215D01*
X145096209Y-96266778D01*
X144941342Y-96421375D01*
X144857426Y-96623468D01*
X144857235Y-96842292D01*
X133741299Y-96842292D01*
X133725142Y-96803189D01*
X133570545Y-96648322D01*
X133368452Y-96564406D01*
X133149628Y-96564215D01*
X133002946Y-96624823D01*
X132845212Y-96559326D01*
X132626388Y-96559135D01*
X132424149Y-96642698D01*
X132269282Y-96797295D01*
X132185366Y-96999388D01*
X132185175Y-97218212D01*
X129851385Y-97218212D01*
X129851425Y-97173068D01*
X129767862Y-96970829D01*
X129613265Y-96815962D01*
X129600556Y-96810685D01*
X129750718Y-96660785D01*
X129834634Y-96458692D01*
X129834795Y-96273332D01*
X134308380Y-96273332D01*
X134391943Y-96475571D01*
X134546540Y-96630438D01*
X134748633Y-96714354D01*
X134967457Y-96714545D01*
X135169696Y-96630982D01*
X135324563Y-96476385D01*
X135408479Y-96274292D01*
X135408670Y-96055468D01*
X135325107Y-95853229D01*
X135170510Y-95698362D01*
X134968417Y-95614446D01*
X134749593Y-95614255D01*
X134547354Y-95697818D01*
X134392487Y-95852415D01*
X134308571Y-96054508D01*
X134308380Y-96273332D01*
X129834795Y-96273332D01*
X129834825Y-96239868D01*
X129751262Y-96037629D01*
X129596665Y-95882762D01*
X129394572Y-95798846D01*
X129175748Y-95798655D01*
X128973509Y-95882218D01*
X128818642Y-96036815D01*
X128734726Y-96238908D01*
X128734535Y-96457732D01*
X126778215Y-96457732D01*
X126789721Y-96440513D01*
X126856479Y-96104900D01*
X126789721Y-95769287D01*
X126599612Y-95484767D01*
X126315092Y-95294658D01*
X125979479Y-95227900D01*
X125435321Y-95227900D01*
X125099708Y-95294658D01*
X124815188Y-95484767D01*
X124625079Y-95769287D01*
X124558321Y-96104900D01*
X123059400Y-96104900D01*
X123059400Y-94104900D01*
X124558321Y-94104900D01*
X124625079Y-94440513D01*
X124815188Y-94725033D01*
X125099708Y-94915142D01*
X125435321Y-94981900D01*
X125979479Y-94981900D01*
X126315092Y-94915142D01*
X126472012Y-94810292D01*
X131857515Y-94810292D01*
X131941078Y-95012531D01*
X132095675Y-95167398D01*
X132297768Y-95251314D01*
X132516592Y-95251505D01*
X132630624Y-95204388D01*
X135188984Y-95204388D01*
X135272547Y-95406627D01*
X135427144Y-95561494D01*
X135629237Y-95645410D01*
X135848061Y-95645601D01*
X136002873Y-95581634D01*
X135976244Y-95645765D01*
X135976053Y-95864589D01*
X136059616Y-96066828D01*
X136214213Y-96221695D01*
X136416306Y-96305611D01*
X136635130Y-96305802D01*
X136837369Y-96222239D01*
X136918497Y-96141252D01*
X137453135Y-96141252D01*
X137536698Y-96343491D01*
X137691295Y-96498358D01*
X137893388Y-96582274D01*
X138112212Y-96582465D01*
X138314451Y-96498902D01*
X138469318Y-96344305D01*
X138553234Y-96142212D01*
X138553425Y-95923388D01*
X138469862Y-95721149D01*
X138315265Y-95566282D01*
X138113172Y-95482366D01*
X137894348Y-95482175D01*
X137692109Y-95565738D01*
X137537242Y-95720335D01*
X137453326Y-95922428D01*
X137453135Y-96141252D01*
X136918497Y-96141252D01*
X136992236Y-96067642D01*
X137076152Y-95865549D01*
X137076343Y-95646725D01*
X136992780Y-95444486D01*
X136838183Y-95289619D01*
X136636090Y-95205703D01*
X136417266Y-95205512D01*
X136262454Y-95269479D01*
X136289083Y-95205348D01*
X136289274Y-94986524D01*
X136285724Y-94977932D01*
X139977895Y-94977932D01*
X140061458Y-95180171D01*
X140216055Y-95335038D01*
X140418148Y-95418954D01*
X140508670Y-95419033D01*
X140508610Y-95487859D01*
X140592173Y-95690098D01*
X140746770Y-95844965D01*
X140948863Y-95928881D01*
X141007031Y-95928932D01*
X141007013Y-95949593D01*
X141090576Y-96151832D01*
X141245173Y-96306699D01*
X141447266Y-96390615D01*
X141666090Y-96390806D01*
X141868329Y-96307243D01*
X142023196Y-96152646D01*
X142107112Y-95950553D01*
X142107303Y-95731729D01*
X142023740Y-95529490D01*
X141878836Y-95384332D01*
X144232075Y-95384332D01*
X144315638Y-95586571D01*
X144470235Y-95741438D01*
X144672328Y-95825354D01*
X144891152Y-95825545D01*
X145093391Y-95741982D01*
X145248258Y-95587385D01*
X145332174Y-95385292D01*
X145332365Y-95166468D01*
X145248802Y-94964229D01*
X145094205Y-94809362D01*
X144892112Y-94725446D01*
X144673288Y-94725255D01*
X144471049Y-94808818D01*
X144316182Y-94963415D01*
X144232266Y-95165508D01*
X144232075Y-95384332D01*
X141878836Y-95384332D01*
X141869143Y-95374623D01*
X141667050Y-95290707D01*
X141608882Y-95290656D01*
X141608900Y-95269995D01*
X141525337Y-95067756D01*
X141370740Y-94912889D01*
X141168647Y-94828973D01*
X141078125Y-94828894D01*
X141078185Y-94760068D01*
X141063258Y-94723941D01*
X141079827Y-94723955D01*
X141282066Y-94640392D01*
X141436933Y-94485795D01*
X141520849Y-94283702D01*
X141521040Y-94064878D01*
X141437477Y-93862639D01*
X141282880Y-93707772D01*
X141080787Y-93623856D01*
X140861963Y-93623665D01*
X140659724Y-93707228D01*
X140504857Y-93861825D01*
X140420941Y-94063918D01*
X140420750Y-94282742D01*
X140435677Y-94318869D01*
X140419108Y-94318855D01*
X140216869Y-94402418D01*
X140062002Y-94557015D01*
X139978086Y-94759108D01*
X139977895Y-94977932D01*
X136285724Y-94977932D01*
X136205711Y-94784285D01*
X136051114Y-94629418D01*
X135849021Y-94545502D01*
X135630197Y-94545311D01*
X135427958Y-94628874D01*
X135273091Y-94783471D01*
X135189175Y-94985564D01*
X135188984Y-95204388D01*
X132630624Y-95204388D01*
X132718831Y-95167942D01*
X132873698Y-95013345D01*
X132957614Y-94811252D01*
X132957805Y-94592428D01*
X132925033Y-94513112D01*
X136190755Y-94513112D01*
X136274318Y-94715351D01*
X136428915Y-94870218D01*
X136631008Y-94954134D01*
X136849832Y-94954325D01*
X137052071Y-94870762D01*
X137206938Y-94716165D01*
X137208958Y-94711300D01*
X137348819Y-94769375D01*
X137567643Y-94769566D01*
X137769882Y-94686003D01*
X137924749Y-94531406D01*
X138008665Y-94329313D01*
X138008856Y-94110489D01*
X137925293Y-93908250D01*
X137770696Y-93753383D01*
X137568603Y-93669467D01*
X137349779Y-93669276D01*
X137147540Y-93752839D01*
X136992673Y-93907436D01*
X136990653Y-93912301D01*
X136850792Y-93854226D01*
X136631968Y-93854035D01*
X136429729Y-93937598D01*
X136274862Y-94092195D01*
X136190946Y-94294288D01*
X136190755Y-94513112D01*
X132925033Y-94513112D01*
X132874242Y-94390189D01*
X132719645Y-94235322D01*
X132517552Y-94151406D01*
X132298728Y-94151215D01*
X132096489Y-94234778D01*
X131941622Y-94389375D01*
X131857706Y-94591468D01*
X131857515Y-94810292D01*
X126472012Y-94810292D01*
X126599612Y-94725033D01*
X126789721Y-94440513D01*
X126856479Y-94104900D01*
X126833246Y-93988096D01*
X134691739Y-93988096D01*
X134775302Y-94190335D01*
X134929899Y-94345202D01*
X135131992Y-94429118D01*
X135350816Y-94429309D01*
X135553055Y-94345746D01*
X135707922Y-94191149D01*
X135791838Y-93989056D01*
X135792029Y-93770232D01*
X135708466Y-93567993D01*
X135672324Y-93531787D01*
X138061080Y-93531787D01*
X138144643Y-93734026D01*
X138299240Y-93888893D01*
X138501333Y-93972809D01*
X138720157Y-93973000D01*
X138922396Y-93889437D01*
X139077263Y-93734840D01*
X139161179Y-93532747D01*
X139161370Y-93313923D01*
X139077807Y-93111684D01*
X138923210Y-92956817D01*
X138721117Y-92872901D01*
X138502293Y-92872710D01*
X138300054Y-92956273D01*
X138145187Y-93110870D01*
X138061271Y-93312963D01*
X138061080Y-93531787D01*
X135672324Y-93531787D01*
X135553869Y-93413126D01*
X135351776Y-93329210D01*
X135132952Y-93329019D01*
X134930713Y-93412582D01*
X134775846Y-93567179D01*
X134691930Y-93769272D01*
X134691739Y-93988096D01*
X126833246Y-93988096D01*
X126789721Y-93769287D01*
X126599612Y-93484767D01*
X126315092Y-93294658D01*
X125979479Y-93227900D01*
X125435321Y-93227900D01*
X125099708Y-93294658D01*
X124815188Y-93484767D01*
X124625079Y-93769287D01*
X124558321Y-94104900D01*
X123059400Y-94104900D01*
X123059400Y-92104900D01*
X124558321Y-92104900D01*
X124625079Y-92440513D01*
X124815188Y-92725033D01*
X125099708Y-92915142D01*
X125435321Y-92981900D01*
X125979479Y-92981900D01*
X126315092Y-92915142D01*
X126599612Y-92725033D01*
X126642095Y-92661452D01*
X127267735Y-92661452D01*
X127351298Y-92863691D01*
X127505895Y-93018558D01*
X127707988Y-93102474D01*
X127926812Y-93102665D01*
X128129051Y-93019102D01*
X128283918Y-92864505D01*
X128367834Y-92662412D01*
X128367839Y-92656372D01*
X132230895Y-92656372D01*
X132314458Y-92858611D01*
X132469055Y-93013478D01*
X132671148Y-93097394D01*
X132889972Y-93097585D01*
X133092211Y-93014022D01*
X133247078Y-92859425D01*
X133330994Y-92657332D01*
X133331185Y-92438508D01*
X133316942Y-92404037D01*
X143323851Y-92404037D01*
X143407414Y-92606276D01*
X143562011Y-92761143D01*
X143764104Y-92845059D01*
X143982928Y-92845250D01*
X144185167Y-92761687D01*
X144340034Y-92607090D01*
X144423950Y-92404997D01*
X144424141Y-92186173D01*
X144340578Y-91983934D01*
X144185981Y-91829067D01*
X143983888Y-91745151D01*
X143765064Y-91744960D01*
X143562825Y-91828523D01*
X143407958Y-91983120D01*
X143324042Y-92185213D01*
X143323851Y-92404037D01*
X133316942Y-92404037D01*
X133247622Y-92236269D01*
X133093025Y-92081402D01*
X132890932Y-91997486D01*
X132672108Y-91997295D01*
X132469869Y-92080858D01*
X132315002Y-92235455D01*
X132231086Y-92437548D01*
X132230895Y-92656372D01*
X128367839Y-92656372D01*
X128368025Y-92443588D01*
X128284462Y-92241349D01*
X128129865Y-92086482D01*
X127927772Y-92002566D01*
X127708948Y-92002375D01*
X127506709Y-92085938D01*
X127351842Y-92240535D01*
X127267926Y-92442628D01*
X127267735Y-92661452D01*
X126642095Y-92661452D01*
X126789721Y-92440513D01*
X126856479Y-92104900D01*
X126789721Y-91769287D01*
X126599612Y-91484767D01*
X126315092Y-91294658D01*
X125979479Y-91227900D01*
X125435321Y-91227900D01*
X125099708Y-91294658D01*
X124815188Y-91484767D01*
X124625079Y-91769287D01*
X124558321Y-92104900D01*
X123059400Y-92104900D01*
X123059400Y-91134912D01*
X131319035Y-91134912D01*
X131402598Y-91337151D01*
X131557195Y-91492018D01*
X131759288Y-91575934D01*
X131978112Y-91576125D01*
X132180351Y-91492562D01*
X132335218Y-91337965D01*
X132419134Y-91135872D01*
X132419325Y-90917048D01*
X132335762Y-90714809D01*
X132297425Y-90676405D01*
X136582990Y-90676405D01*
X136666553Y-90878644D01*
X136821150Y-91033511D01*
X137023243Y-91117427D01*
X137242067Y-91117618D01*
X137444306Y-91034055D01*
X137447594Y-91030772D01*
X147026395Y-91030772D01*
X147109958Y-91233011D01*
X147264555Y-91387878D01*
X147466648Y-91471794D01*
X147685472Y-91471985D01*
X147887711Y-91388422D01*
X148042578Y-91233825D01*
X148126494Y-91031732D01*
X148126685Y-90812908D01*
X148043122Y-90610669D01*
X147888525Y-90455802D01*
X147686432Y-90371886D01*
X147467608Y-90371695D01*
X147265369Y-90455258D01*
X147110502Y-90609855D01*
X147026586Y-90811948D01*
X147026395Y-91030772D01*
X137447594Y-91030772D01*
X137599173Y-90879458D01*
X137683089Y-90677365D01*
X137683280Y-90458541D01*
X137599717Y-90256302D01*
X137520350Y-90176796D01*
X138723671Y-90176796D01*
X138807234Y-90379035D01*
X138961831Y-90533902D01*
X139163924Y-90617818D01*
X139382748Y-90618009D01*
X139568067Y-90541437D01*
X144292470Y-90541437D01*
X144376033Y-90743676D01*
X144530630Y-90898543D01*
X144732723Y-90982459D01*
X144951547Y-90982650D01*
X145153786Y-90899087D01*
X145308653Y-90744490D01*
X145392569Y-90542397D01*
X145392760Y-90323573D01*
X145309197Y-90121334D01*
X145154600Y-89966467D01*
X144952507Y-89882551D01*
X144733683Y-89882360D01*
X144531444Y-89965923D01*
X144376577Y-90120520D01*
X144292661Y-90322613D01*
X144292470Y-90541437D01*
X139568067Y-90541437D01*
X139584987Y-90534446D01*
X139739854Y-90379849D01*
X139823770Y-90177756D01*
X139823961Y-89958932D01*
X139740398Y-89756693D01*
X139585801Y-89601826D01*
X139383708Y-89517910D01*
X139164884Y-89517719D01*
X138962645Y-89601282D01*
X138807778Y-89755879D01*
X138723862Y-89957972D01*
X138723671Y-90176796D01*
X137520350Y-90176796D01*
X137445120Y-90101435D01*
X137243027Y-90017519D01*
X137024203Y-90017328D01*
X136821964Y-90100891D01*
X136667097Y-90255488D01*
X136583181Y-90457581D01*
X136582990Y-90676405D01*
X132297425Y-90676405D01*
X132181165Y-90559942D01*
X131979072Y-90476026D01*
X131760248Y-90475835D01*
X131558009Y-90559398D01*
X131403142Y-90713995D01*
X131319226Y-90916088D01*
X131319035Y-91134912D01*
X123059400Y-91134912D01*
X123059400Y-90104900D01*
X124558321Y-90104900D01*
X124625079Y-90440513D01*
X124815188Y-90725033D01*
X125099708Y-90915142D01*
X125435321Y-90981900D01*
X125979479Y-90981900D01*
X126315092Y-90915142D01*
X126599612Y-90725033D01*
X126789721Y-90440513D01*
X126856479Y-90104900D01*
X126789721Y-89769287D01*
X126599612Y-89484767D01*
X126315092Y-89294658D01*
X125979479Y-89227900D01*
X125435321Y-89227900D01*
X125099708Y-89294658D01*
X124815188Y-89484767D01*
X124625079Y-89769287D01*
X124558321Y-90104900D01*
X123059400Y-90104900D01*
X123059400Y-88881932D01*
X144191755Y-88881932D01*
X144275318Y-89084171D01*
X144429915Y-89239038D01*
X144632008Y-89322954D01*
X144850832Y-89323145D01*
X145053071Y-89239582D01*
X145207938Y-89084985D01*
X145291854Y-88882892D01*
X145292006Y-88707732D01*
X147309535Y-88707732D01*
X147393098Y-88909971D01*
X147547695Y-89064838D01*
X147749788Y-89148754D01*
X147968612Y-89148945D01*
X148170851Y-89065382D01*
X148325718Y-88910785D01*
X148409634Y-88708692D01*
X148409825Y-88489868D01*
X148326262Y-88287629D01*
X148171665Y-88132762D01*
X147969572Y-88048846D01*
X147750748Y-88048655D01*
X147548509Y-88132218D01*
X147393642Y-88286815D01*
X147309726Y-88488908D01*
X147309535Y-88707732D01*
X145292006Y-88707732D01*
X145292045Y-88664068D01*
X145208482Y-88461829D01*
X145053885Y-88306962D01*
X144897083Y-88241852D01*
X145824975Y-88241852D01*
X145908538Y-88444091D01*
X146063135Y-88598958D01*
X146265228Y-88682874D01*
X146484052Y-88683065D01*
X146686291Y-88599502D01*
X146841158Y-88444905D01*
X146925074Y-88242812D01*
X146925265Y-88023988D01*
X146841702Y-87821749D01*
X146687105Y-87666882D01*
X146485012Y-87582966D01*
X146266188Y-87582775D01*
X146063949Y-87666338D01*
X145909082Y-87820935D01*
X145825166Y-88023028D01*
X145824975Y-88241852D01*
X144897083Y-88241852D01*
X144851792Y-88223046D01*
X144632968Y-88222855D01*
X144430729Y-88306418D01*
X144275862Y-88461015D01*
X144191946Y-88663108D01*
X144191755Y-88881932D01*
X123059400Y-88881932D01*
X123059400Y-86936777D01*
X127877975Y-86936777D01*
X127961538Y-87139016D01*
X128116135Y-87293883D01*
X128318228Y-87377799D01*
X128537052Y-87377990D01*
X128739291Y-87294427D01*
X128894158Y-87139830D01*
X128931309Y-87050359D01*
X128974038Y-87153771D01*
X129128635Y-87308638D01*
X129330728Y-87392554D01*
X129549552Y-87392745D01*
X129751791Y-87309182D01*
X129906658Y-87154585D01*
X129942456Y-87068372D01*
X132192475Y-87068372D01*
X132276038Y-87270611D01*
X132430635Y-87425478D01*
X132632728Y-87509394D01*
X132851552Y-87509585D01*
X132962560Y-87463718D01*
X133043702Y-87660098D01*
X133078085Y-87694541D01*
X132999704Y-87772785D01*
X132915788Y-87974878D01*
X132915597Y-88193702D01*
X132999160Y-88395941D01*
X133153757Y-88550808D01*
X133355850Y-88634724D01*
X133574674Y-88634915D01*
X133776913Y-88551352D01*
X133931780Y-88396755D01*
X133999761Y-88233037D01*
X141029387Y-88233037D01*
X141112950Y-88435276D01*
X141267547Y-88590143D01*
X141469640Y-88674059D01*
X141688464Y-88674250D01*
X141890703Y-88590687D01*
X142045570Y-88436090D01*
X142129486Y-88233997D01*
X142129677Y-88015173D01*
X142046114Y-87812934D01*
X141991009Y-87757732D01*
X143184535Y-87757732D01*
X143268098Y-87959971D01*
X143422695Y-88114838D01*
X143624788Y-88198754D01*
X143843612Y-88198945D01*
X144045851Y-88115382D01*
X144200718Y-87960785D01*
X144284634Y-87758692D01*
X144284825Y-87539868D01*
X144201262Y-87337629D01*
X144046665Y-87182762D01*
X143844572Y-87098846D01*
X143625748Y-87098655D01*
X143423509Y-87182218D01*
X143268642Y-87336815D01*
X143184726Y-87538908D01*
X143184535Y-87757732D01*
X141991009Y-87757732D01*
X141891517Y-87658067D01*
X141689424Y-87574151D01*
X141470600Y-87573960D01*
X141268361Y-87657523D01*
X141113494Y-87812120D01*
X141029578Y-88014213D01*
X141029387Y-88233037D01*
X133999761Y-88233037D01*
X134015696Y-88194662D01*
X134015887Y-87975838D01*
X133932324Y-87773599D01*
X133897941Y-87739156D01*
X133976322Y-87660912D01*
X134060238Y-87458819D01*
X134060429Y-87239995D01*
X134027045Y-87159199D01*
X134175718Y-87010785D01*
X134259634Y-86808692D01*
X134259825Y-86589868D01*
X134176262Y-86387629D01*
X134021665Y-86232762D01*
X133880445Y-86174123D01*
X133952014Y-86174185D01*
X134154253Y-86090622D01*
X134309120Y-85936025D01*
X134362391Y-85807732D01*
X140909531Y-85807732D01*
X140993094Y-86009971D01*
X141147691Y-86164838D01*
X141349784Y-86248754D01*
X141568608Y-86248945D01*
X141770847Y-86165382D01*
X141925714Y-86010785D01*
X142009630Y-85808692D01*
X142009821Y-85589868D01*
X141926258Y-85387629D01*
X141796588Y-85257732D01*
X143209533Y-85257732D01*
X143293096Y-85459971D01*
X143447693Y-85614838D01*
X143628592Y-85689953D01*
X143465529Y-85757329D01*
X143310662Y-85911926D01*
X143226746Y-86114019D01*
X143226555Y-86332843D01*
X143310118Y-86535082D01*
X143464715Y-86689949D01*
X143666808Y-86773865D01*
X143885632Y-86774056D01*
X144087871Y-86690493D01*
X144242738Y-86535896D01*
X144326654Y-86333803D01*
X144326845Y-86114979D01*
X144243282Y-85912740D01*
X144088685Y-85757873D01*
X143907786Y-85682758D01*
X144070849Y-85615382D01*
X144225716Y-85460785D01*
X144309632Y-85258692D01*
X144309823Y-85039868D01*
X144226260Y-84837629D01*
X144071663Y-84682762D01*
X143869570Y-84598846D01*
X143650746Y-84598655D01*
X143448507Y-84682218D01*
X143293640Y-84836815D01*
X143209724Y-85038908D01*
X143209533Y-85257732D01*
X141796588Y-85257732D01*
X141771661Y-85232762D01*
X141569568Y-85148846D01*
X141350744Y-85148655D01*
X141148505Y-85232218D01*
X140993638Y-85386815D01*
X140909722Y-85588908D01*
X140909531Y-85807732D01*
X134362391Y-85807732D01*
X134393036Y-85733932D01*
X134393227Y-85515108D01*
X134309664Y-85312869D01*
X134155067Y-85158002D01*
X133952974Y-85074086D01*
X133734150Y-85073895D01*
X133531911Y-85157458D01*
X133377044Y-85312055D01*
X133293128Y-85514148D01*
X133292937Y-85732972D01*
X133376500Y-85935211D01*
X133531097Y-86090078D01*
X133672317Y-86148717D01*
X133600748Y-86148655D01*
X133398509Y-86232218D01*
X133243642Y-86386815D01*
X133159726Y-86588908D01*
X133159717Y-86598698D01*
X133054605Y-86493402D01*
X132852512Y-86409486D01*
X132633688Y-86409295D01*
X132431449Y-86492858D01*
X132276582Y-86647455D01*
X132192666Y-86849548D01*
X132192475Y-87068372D01*
X129942456Y-87068372D01*
X129990574Y-86952492D01*
X129990765Y-86733668D01*
X129907202Y-86531429D01*
X129752605Y-86376562D01*
X129550512Y-86292646D01*
X129478284Y-86292583D01*
X129478325Y-86245988D01*
X129394762Y-86043749D01*
X129240165Y-85888882D01*
X129038072Y-85804966D01*
X128819248Y-85804775D01*
X128617009Y-85888338D01*
X128462142Y-86042935D01*
X128378226Y-86245028D01*
X128378197Y-86277752D01*
X128319188Y-86277700D01*
X128116949Y-86361263D01*
X127962082Y-86515860D01*
X127878166Y-86717953D01*
X127877975Y-86936777D01*
X123059400Y-86936777D01*
X123059400Y-85004900D01*
X124574974Y-85004900D01*
X124574974Y-86204900D01*
X124596472Y-86312980D01*
X124657695Y-86404605D01*
X124749320Y-86465828D01*
X124857400Y-86487326D01*
X126557400Y-86487326D01*
X126665480Y-86465828D01*
X126757105Y-86404605D01*
X126818328Y-86312980D01*
X126839826Y-86204900D01*
X126839826Y-85004900D01*
X126818328Y-84896820D01*
X126757105Y-84805195D01*
X126665480Y-84743972D01*
X126557400Y-84722474D01*
X124857400Y-84722474D01*
X124749320Y-84743972D01*
X124657695Y-84805195D01*
X124596472Y-84896820D01*
X124574974Y-85004900D01*
X123059400Y-85004900D01*
X123059400Y-84569012D01*
X145850375Y-84569012D01*
X145933938Y-84771251D01*
X146088535Y-84926118D01*
X146290628Y-85010034D01*
X146509452Y-85010225D01*
X146711691Y-84926662D01*
X146866558Y-84772065D01*
X146950474Y-84569972D01*
X146950665Y-84351148D01*
X146867102Y-84148909D01*
X146712505Y-83994042D01*
X146510412Y-83910126D01*
X146291588Y-83909935D01*
X146089349Y-83993498D01*
X145934482Y-84148095D01*
X145850566Y-84350188D01*
X145850375Y-84569012D01*
X123059400Y-84569012D01*
X123059400Y-83604900D01*
X124558321Y-83604900D01*
X124625079Y-83940513D01*
X124815188Y-84225033D01*
X125099708Y-84415142D01*
X125435321Y-84481900D01*
X125979479Y-84481900D01*
X126315092Y-84415142D01*
X126599612Y-84225033D01*
X126789721Y-83940513D01*
X126856479Y-83604900D01*
X126789721Y-83269287D01*
X126599612Y-82984767D01*
X126315092Y-82794658D01*
X125979479Y-82727900D01*
X125435321Y-82727900D01*
X125099708Y-82794658D01*
X124815188Y-82984767D01*
X124625079Y-83269287D01*
X124558321Y-83604900D01*
X123059400Y-83604900D01*
X123059400Y-81782732D01*
X133134531Y-81782732D01*
X133218094Y-81984971D01*
X133372691Y-82139838D01*
X133402342Y-82152150D01*
X133384269Y-82159618D01*
X133229402Y-82314215D01*
X133145486Y-82516308D01*
X133145295Y-82735132D01*
X133228858Y-82937371D01*
X133383455Y-83092238D01*
X133585548Y-83176154D01*
X133804372Y-83176345D01*
X134006611Y-83092782D01*
X134161478Y-82938185D01*
X134245394Y-82736092D01*
X134245567Y-82537012D01*
X135695455Y-82537012D01*
X135779018Y-82739251D01*
X135821288Y-82781595D01*
X135801513Y-82801336D01*
X135717597Y-83003429D01*
X135717406Y-83222253D01*
X135800969Y-83424492D01*
X135955566Y-83579359D01*
X136157659Y-83663275D01*
X136376483Y-83663466D01*
X136578722Y-83579903D01*
X136733589Y-83425306D01*
X136814507Y-83230432D01*
X140864355Y-83230432D01*
X140947918Y-83432671D01*
X141102515Y-83587538D01*
X141304608Y-83671454D01*
X141523432Y-83671645D01*
X141725671Y-83588082D01*
X141880538Y-83433485D01*
X141964454Y-83231392D01*
X141964645Y-83012568D01*
X141881082Y-82810329D01*
X141726485Y-82655462D01*
X141524392Y-82571546D01*
X141305568Y-82571355D01*
X141103329Y-82654918D01*
X140948462Y-82809515D01*
X140864546Y-83011608D01*
X140864355Y-83230432D01*
X136814507Y-83230432D01*
X136817505Y-83223213D01*
X136817696Y-83004389D01*
X136734133Y-82802150D01*
X136691863Y-82759806D01*
X136711638Y-82740065D01*
X136795554Y-82537972D01*
X136795745Y-82319148D01*
X136712182Y-82116909D01*
X136557585Y-81962042D01*
X136355492Y-81878126D01*
X136136668Y-81877935D01*
X135934429Y-81961498D01*
X135779562Y-82116095D01*
X135695646Y-82318188D01*
X135695455Y-82537012D01*
X134245567Y-82537012D01*
X134245585Y-82517268D01*
X134162022Y-82315029D01*
X134007425Y-82160162D01*
X133977774Y-82147850D01*
X133995847Y-82140382D01*
X134150714Y-81985785D01*
X134234630Y-81783692D01*
X134234821Y-81564868D01*
X134151258Y-81362629D01*
X134139482Y-81350832D01*
X135924055Y-81350832D01*
X136007618Y-81553071D01*
X136162215Y-81707938D01*
X136364308Y-81791854D01*
X136583132Y-81792045D01*
X136749443Y-81723327D01*
X143167250Y-81723327D01*
X143250813Y-81925566D01*
X143405410Y-82080433D01*
X143551884Y-82141254D01*
X143414729Y-82197925D01*
X143259862Y-82352522D01*
X143175946Y-82554615D01*
X143175755Y-82773439D01*
X143259318Y-82975678D01*
X143413915Y-83130545D01*
X143570133Y-83195412D01*
X143442770Y-83248037D01*
X143287903Y-83402634D01*
X143203987Y-83604727D01*
X143203796Y-83823551D01*
X143287359Y-84025790D01*
X143441956Y-84180657D01*
X143644049Y-84264573D01*
X143862873Y-84264764D01*
X144065112Y-84181201D01*
X144219979Y-84026604D01*
X144303895Y-83824511D01*
X144304086Y-83605687D01*
X144220523Y-83403448D01*
X144065926Y-83248581D01*
X143909708Y-83183714D01*
X144037071Y-83131089D01*
X144191938Y-82976492D01*
X144275854Y-82774399D01*
X144276045Y-82555575D01*
X144192482Y-82353336D01*
X144037885Y-82198469D01*
X143891411Y-82137648D01*
X144028566Y-82080977D01*
X144183433Y-81926380D01*
X144267349Y-81724287D01*
X144267540Y-81505463D01*
X144183977Y-81303224D01*
X144029380Y-81148357D01*
X143827287Y-81064441D01*
X143608463Y-81064250D01*
X143406224Y-81147813D01*
X143251357Y-81302410D01*
X143167441Y-81504503D01*
X143167250Y-81723327D01*
X136749443Y-81723327D01*
X136785371Y-81708482D01*
X136940238Y-81553885D01*
X137024154Y-81351792D01*
X137024345Y-81132968D01*
X136940782Y-80930729D01*
X136786185Y-80775862D01*
X136672202Y-80728532D01*
X138824735Y-80728532D01*
X138908298Y-80930771D01*
X139062895Y-81085638D01*
X139264988Y-81169554D01*
X139483812Y-81169745D01*
X139686051Y-81086182D01*
X139840918Y-80931585D01*
X139923488Y-80732732D01*
X146434535Y-80732732D01*
X146518098Y-80934971D01*
X146672695Y-81089838D01*
X146874788Y-81173754D01*
X147093612Y-81173945D01*
X147295851Y-81090382D01*
X147450718Y-80935785D01*
X147534634Y-80733692D01*
X147534825Y-80514868D01*
X147451262Y-80312629D01*
X147296665Y-80157762D01*
X147094572Y-80073846D01*
X146875748Y-80073655D01*
X146673509Y-80157218D01*
X146518642Y-80311815D01*
X146434726Y-80513908D01*
X146434535Y-80732732D01*
X139923488Y-80732732D01*
X139924834Y-80729492D01*
X139925025Y-80510668D01*
X139841462Y-80308429D01*
X139686865Y-80153562D01*
X139484772Y-80069646D01*
X139265948Y-80069455D01*
X139063709Y-80153018D01*
X138908842Y-80307615D01*
X138824926Y-80509708D01*
X138824735Y-80728532D01*
X136672202Y-80728532D01*
X136584092Y-80691946D01*
X136365268Y-80691755D01*
X136163029Y-80775318D01*
X136008162Y-80929915D01*
X135924246Y-81132008D01*
X135924055Y-81350832D01*
X134139482Y-81350832D01*
X133996661Y-81207762D01*
X133794568Y-81123846D01*
X133575744Y-81123655D01*
X133373505Y-81207218D01*
X133218638Y-81361815D01*
X133134722Y-81563908D01*
X133134531Y-81782732D01*
X123059400Y-81782732D01*
X123059400Y-79604900D01*
X124558321Y-79604900D01*
X124625079Y-79940513D01*
X124815188Y-80225033D01*
X125099708Y-80415142D01*
X125435321Y-80481900D01*
X125979479Y-80481900D01*
X126310215Y-80416112D01*
X130902475Y-80416112D01*
X130986038Y-80618351D01*
X131140635Y-80773218D01*
X131342728Y-80857134D01*
X131561552Y-80857325D01*
X131763791Y-80773762D01*
X131918658Y-80619165D01*
X132002574Y-80417072D01*
X132002765Y-80198248D01*
X131919202Y-79996009D01*
X131764605Y-79841142D01*
X131562512Y-79757226D01*
X131343688Y-79757035D01*
X131141449Y-79840598D01*
X130986582Y-79995195D01*
X130902666Y-80197288D01*
X130902475Y-80416112D01*
X126310215Y-80416112D01*
X126315092Y-80415142D01*
X126599612Y-80225033D01*
X126789721Y-79940513D01*
X126840997Y-79682732D01*
X132709535Y-79682732D01*
X132793098Y-79884971D01*
X132947695Y-80039838D01*
X133149788Y-80123754D01*
X133368612Y-80123945D01*
X133468355Y-80082732D01*
X136134535Y-80082732D01*
X136218098Y-80284971D01*
X136372695Y-80439838D01*
X136574788Y-80523754D01*
X136793612Y-80523945D01*
X136995851Y-80440382D01*
X137150718Y-80285785D01*
X137234634Y-80083692D01*
X137234825Y-79864868D01*
X137151262Y-79662629D01*
X136996665Y-79507762D01*
X136794572Y-79423846D01*
X136575748Y-79423655D01*
X136373509Y-79507218D01*
X136218642Y-79661815D01*
X136134726Y-79863908D01*
X136134535Y-80082732D01*
X133468355Y-80082732D01*
X133570851Y-80040382D01*
X133725718Y-79885785D01*
X133809634Y-79683692D01*
X133809825Y-79464868D01*
X133726262Y-79262629D01*
X133571665Y-79107762D01*
X133369572Y-79023846D01*
X133150748Y-79023655D01*
X132948509Y-79107218D01*
X132793642Y-79261815D01*
X132709726Y-79463908D01*
X132709535Y-79682732D01*
X126840997Y-79682732D01*
X126856479Y-79604900D01*
X126789721Y-79269287D01*
X126599612Y-78984767D01*
X126315092Y-78794658D01*
X125979479Y-78727900D01*
X125435321Y-78727900D01*
X125099708Y-78794658D01*
X124815188Y-78984767D01*
X124625079Y-79269287D01*
X124558321Y-79604900D01*
X123059400Y-79604900D01*
X123059400Y-78594932D01*
X138570735Y-78594932D01*
X138654298Y-78797171D01*
X138808895Y-78952038D01*
X139010988Y-79035954D01*
X139229812Y-79036145D01*
X139432051Y-78952582D01*
X139586918Y-78797985D01*
X139670834Y-78595892D01*
X139670998Y-78407732D01*
X144684531Y-78407732D01*
X144768094Y-78609971D01*
X144922691Y-78764838D01*
X145124784Y-78848754D01*
X145343608Y-78848945D01*
X145545847Y-78765382D01*
X145700714Y-78610785D01*
X145784630Y-78408692D01*
X145784821Y-78189868D01*
X145701258Y-77987629D01*
X145546661Y-77832762D01*
X145344568Y-77748846D01*
X145125744Y-77748655D01*
X144923505Y-77832218D01*
X144768638Y-77986815D01*
X144684722Y-78188908D01*
X144684531Y-78407732D01*
X139670998Y-78407732D01*
X139671025Y-78377068D01*
X139587462Y-78174829D01*
X139432865Y-78019962D01*
X139230772Y-77936046D01*
X139011948Y-77935855D01*
X138809709Y-78019418D01*
X138654842Y-78174015D01*
X138570926Y-78376108D01*
X138570735Y-78594932D01*
X123059400Y-78594932D01*
X123059400Y-77604900D01*
X124558321Y-77604900D01*
X124625079Y-77940513D01*
X124815188Y-78225033D01*
X125099708Y-78415142D01*
X125435321Y-78481900D01*
X125979479Y-78481900D01*
X126315092Y-78415142D01*
X126599612Y-78225033D01*
X126789721Y-77940513D01*
X126856479Y-77604900D01*
X126789721Y-77269287D01*
X126599612Y-76984767D01*
X126315092Y-76794658D01*
X125979479Y-76727900D01*
X125435321Y-76727900D01*
X125099708Y-76794658D01*
X124815188Y-76984767D01*
X124625079Y-77269287D01*
X124558321Y-77604900D01*
X123059400Y-77604900D01*
X123059400Y-73449669D01*
X133255135Y-73449669D01*
X133338698Y-73651908D01*
X133413796Y-73727137D01*
X133342741Y-73898256D01*
X133342550Y-74117080D01*
X133426113Y-74319319D01*
X133580710Y-74474186D01*
X133782803Y-74558102D01*
X134001627Y-74558293D01*
X134203866Y-74474730D01*
X134358733Y-74320133D01*
X134442649Y-74118040D01*
X134442840Y-73899216D01*
X134359277Y-73696977D01*
X134284179Y-73621748D01*
X134310760Y-73557732D01*
X137248223Y-73557732D01*
X137331786Y-73759971D01*
X137425126Y-73853474D01*
X137343625Y-73934832D01*
X137259709Y-74136925D01*
X137259518Y-74355749D01*
X137343081Y-74557988D01*
X137497678Y-74712855D01*
X137699771Y-74796771D01*
X137918595Y-74796962D01*
X138120834Y-74713399D01*
X138275701Y-74558802D01*
X138359617Y-74356709D01*
X138359808Y-74137885D01*
X138276245Y-73935646D01*
X138182905Y-73842143D01*
X138264406Y-73760785D01*
X138348322Y-73558692D01*
X138348513Y-73339868D01*
X138264950Y-73137629D01*
X138110353Y-72982762D01*
X137908260Y-72898846D01*
X137689436Y-72898655D01*
X137487197Y-72982218D01*
X137332330Y-73136815D01*
X137248414Y-73338908D01*
X137248223Y-73557732D01*
X134310760Y-73557732D01*
X134355234Y-73450629D01*
X134355425Y-73231805D01*
X134271862Y-73029566D01*
X134117265Y-72874699D01*
X133915172Y-72790783D01*
X133696348Y-72790592D01*
X133494109Y-72874155D01*
X133339242Y-73028752D01*
X133255326Y-73230845D01*
X133255135Y-73449669D01*
X123059400Y-73449669D01*
X123059400Y-70751412D01*
X131783855Y-70751412D01*
X131867418Y-70953651D01*
X132022015Y-71108518D01*
X132224108Y-71192434D01*
X132442932Y-71192625D01*
X132622249Y-71118533D01*
X132787988Y-71187354D01*
X133006812Y-71187545D01*
X133209051Y-71103982D01*
X133363918Y-70949385D01*
X133447834Y-70747292D01*
X133448025Y-70528468D01*
X133364462Y-70326229D01*
X133209865Y-70171362D01*
X133007772Y-70087446D01*
X132788948Y-70087255D01*
X132609631Y-70161347D01*
X132443892Y-70092526D01*
X132225068Y-70092335D01*
X132022829Y-70175898D01*
X131867962Y-70330495D01*
X131784046Y-70532588D01*
X131783855Y-70751412D01*
X123059400Y-70751412D01*
X123059400Y-69971632D01*
X125560855Y-69971632D01*
X125644418Y-70173871D01*
X125799015Y-70328738D01*
X126001108Y-70412654D01*
X126219932Y-70412845D01*
X126422171Y-70329282D01*
X126577038Y-70174685D01*
X126660954Y-69972592D01*
X126661145Y-69753768D01*
X126577582Y-69551529D01*
X126422985Y-69396662D01*
X126220892Y-69312746D01*
X126002068Y-69312555D01*
X125799829Y-69396118D01*
X125644962Y-69550715D01*
X125561046Y-69752808D01*
X125560855Y-69971632D01*
X123059400Y-69971632D01*
X123059400Y-68917532D01*
X129802655Y-68917532D01*
X129886218Y-69119771D01*
X130040815Y-69274638D01*
X130242908Y-69358554D01*
X130461732Y-69358745D01*
X130663971Y-69275182D01*
X130818838Y-69120585D01*
X130902754Y-68918492D01*
X130902945Y-68699668D01*
X130819382Y-68497429D01*
X130664785Y-68342562D01*
X130462692Y-68258646D01*
X130243868Y-68258455D01*
X130041629Y-68342018D01*
X129886762Y-68496615D01*
X129802846Y-68698708D01*
X129802655Y-68917532D01*
X123059400Y-68917532D01*
X123059400Y-67545932D01*
X128380255Y-67545932D01*
X128463818Y-67748171D01*
X128618415Y-67903038D01*
X128820508Y-67986954D01*
X129039332Y-67987145D01*
X129241571Y-67903582D01*
X129396438Y-67748985D01*
X129428017Y-67672932D01*
X132177555Y-67672932D01*
X132261118Y-67875171D01*
X132415715Y-68030038D01*
X132617808Y-68113954D01*
X132836632Y-68114145D01*
X133038871Y-68030582D01*
X133193738Y-67875985D01*
X133277654Y-67673892D01*
X133277845Y-67455068D01*
X133194282Y-67252829D01*
X133039685Y-67097962D01*
X132837592Y-67014046D01*
X132618768Y-67013855D01*
X132416529Y-67097418D01*
X132261662Y-67252015D01*
X132177746Y-67454108D01*
X132177555Y-67672932D01*
X129428017Y-67672932D01*
X129480354Y-67546892D01*
X129480545Y-67328068D01*
X129396982Y-67125829D01*
X129242385Y-66970962D01*
X129040292Y-66887046D01*
X128821468Y-66886855D01*
X128619229Y-66970418D01*
X128464362Y-67125015D01*
X128380446Y-67327108D01*
X128380255Y-67545932D01*
X123059400Y-67545932D01*
X123059400Y-66754900D01*
X135824974Y-66754900D01*
X135824974Y-68454900D01*
X135846472Y-68562980D01*
X135907695Y-68654605D01*
X135999320Y-68715828D01*
X136107400Y-68737326D01*
X137307400Y-68737326D01*
X137415480Y-68715828D01*
X137507105Y-68654605D01*
X137568328Y-68562980D01*
X137589826Y-68454900D01*
X137589826Y-67332821D01*
X137830400Y-67332821D01*
X137830400Y-67876979D01*
X137897158Y-68212592D01*
X138087267Y-68497112D01*
X138371787Y-68687221D01*
X138707400Y-68753979D01*
X139043013Y-68687221D01*
X139327533Y-68497112D01*
X139517642Y-68212592D01*
X139584400Y-67876979D01*
X139584400Y-67332821D01*
X139830400Y-67332821D01*
X139830400Y-67876979D01*
X139897158Y-68212592D01*
X140087267Y-68497112D01*
X140371787Y-68687221D01*
X140707400Y-68753979D01*
X141043013Y-68687221D01*
X141327533Y-68497112D01*
X141517642Y-68212592D01*
X141584400Y-67876979D01*
X141584400Y-67332821D01*
X141830400Y-67332821D01*
X141830400Y-67876979D01*
X141897158Y-68212592D01*
X142087267Y-68497112D01*
X142371787Y-68687221D01*
X142707400Y-68753979D01*
X143043013Y-68687221D01*
X143327533Y-68497112D01*
X143517642Y-68212592D01*
X143584400Y-67876979D01*
X143584400Y-67332821D01*
X143830400Y-67332821D01*
X143830400Y-67876979D01*
X143897158Y-68212592D01*
X144087267Y-68497112D01*
X144371787Y-68687221D01*
X144707400Y-68753979D01*
X145043013Y-68687221D01*
X145327533Y-68497112D01*
X145517642Y-68212592D01*
X145584400Y-67876979D01*
X145584400Y-67332821D01*
X145517642Y-66997208D01*
X145327533Y-66712688D01*
X145043013Y-66522579D01*
X144707400Y-66455821D01*
X144371787Y-66522579D01*
X144087267Y-66712688D01*
X143897158Y-66997208D01*
X143830400Y-67332821D01*
X143584400Y-67332821D01*
X143517642Y-66997208D01*
X143327533Y-66712688D01*
X143043013Y-66522579D01*
X142707400Y-66455821D01*
X142371787Y-66522579D01*
X142087267Y-66712688D01*
X141897158Y-66997208D01*
X141830400Y-67332821D01*
X141584400Y-67332821D01*
X141517642Y-66997208D01*
X141327533Y-66712688D01*
X141043013Y-66522579D01*
X140707400Y-66455821D01*
X140371787Y-66522579D01*
X140087267Y-66712688D01*
X139897158Y-66997208D01*
X139830400Y-67332821D01*
X139584400Y-67332821D01*
X139517642Y-66997208D01*
X139327533Y-66712688D01*
X139043013Y-66522579D01*
X138707400Y-66455821D01*
X138371787Y-66522579D01*
X138087267Y-66712688D01*
X137897158Y-66997208D01*
X137830400Y-67332821D01*
X137589826Y-67332821D01*
X137589826Y-66754900D01*
X137568328Y-66646820D01*
X137507105Y-66555195D01*
X137415480Y-66493972D01*
X137307400Y-66472474D01*
X136107400Y-66472474D01*
X135999320Y-66493972D01*
X135907695Y-66555195D01*
X135846472Y-66646820D01*
X135824974Y-66754900D01*
X123059400Y-66754900D01*
X123059400Y-66139567D01*
X123153157Y-65668219D01*
X123400518Y-65298018D01*
X123770719Y-65050657D01*
X124242067Y-64956900D01*
X148456558Y-64956900D01*
X148466806Y-81049819D01*
X148466806Y-81049819D01*
G37*
X148466806Y-81049819D02*
X148324549Y-81108598D01*
X148169682Y-81263195D01*
X148085766Y-81465288D01*
X148085575Y-81684112D01*
X148169138Y-81886351D01*
X148323735Y-82041218D01*
X148467476Y-82100904D01*
X148467537Y-82196895D01*
X148429969Y-82159262D01*
X148227876Y-82075346D01*
X148009052Y-82075155D01*
X147806813Y-82158718D01*
X147651946Y-82313315D01*
X147568030Y-82515408D01*
X147567839Y-82734232D01*
X147651402Y-82936471D01*
X147739944Y-83025168D01*
X147671746Y-83189408D01*
X147671555Y-83408232D01*
X147755118Y-83610471D01*
X147909715Y-83765338D01*
X148111808Y-83849254D01*
X148330632Y-83849445D01*
X148468553Y-83792458D01*
X148468868Y-84287567D01*
X148353345Y-84171842D01*
X148151252Y-84087926D01*
X147932428Y-84087735D01*
X147730189Y-84171298D01*
X147575322Y-84325895D01*
X147491406Y-84527988D01*
X147491215Y-84746812D01*
X147574778Y-84949051D01*
X147729375Y-85103918D01*
X147931468Y-85187834D01*
X148150292Y-85188025D01*
X148352531Y-85104462D01*
X148469314Y-84987883D01*
X148473283Y-91220314D01*
X148482981Y-91268909D01*
X148510538Y-91310093D01*
X148551757Y-91337597D01*
X148600283Y-91347233D01*
X149599392Y-91347233D01*
X149647993Y-91337566D01*
X149689195Y-91310036D01*
X149716725Y-91268834D01*
X149726392Y-91220233D01*
X149726392Y-86998851D01*
X151567892Y-86998851D01*
X151567892Y-91220233D01*
X151577559Y-91268834D01*
X151605089Y-91310036D01*
X151646291Y-91337566D01*
X151694892Y-91347233D01*
X159132440Y-91347233D01*
X159181041Y-91337566D01*
X159222243Y-91310036D01*
X159249773Y-91268834D01*
X159255407Y-91240566D01*
X162654992Y-91240566D01*
X162664627Y-91289173D01*
X162692129Y-91330393D01*
X162733313Y-91357951D01*
X162781992Y-91367651D01*
X170554392Y-91367651D01*
X170602993Y-91357984D01*
X170644195Y-91330454D01*
X170671725Y-91289252D01*
X170681392Y-91240651D01*
X170681392Y-87024270D01*
X174239722Y-87024270D01*
X174240360Y-91235492D01*
X174250035Y-91284092D01*
X174277571Y-91325289D01*
X174318777Y-91352813D01*
X174367429Y-91362473D01*
X181590761Y-91358575D01*
X181639356Y-91348881D01*
X181680543Y-91321329D01*
X181708051Y-91280112D01*
X181717692Y-91231575D01*
X181717692Y-87024251D01*
X181708025Y-86975650D01*
X181680495Y-86934448D01*
X181639293Y-86906918D01*
X181590692Y-86897251D01*
X174366722Y-86897251D01*
X174318121Y-86906918D01*
X174276919Y-86934448D01*
X174249389Y-86975650D01*
X174239722Y-87024270D01*
X170681392Y-87024270D01*
X170681392Y-86973451D01*
X170671725Y-86924850D01*
X170644195Y-86883648D01*
X170602993Y-86856118D01*
X170554392Y-86846451D01*
X162784850Y-86846451D01*
X162736249Y-86856118D01*
X162695047Y-86883648D01*
X162667517Y-86924850D01*
X162657850Y-86973366D01*
X162654992Y-91240566D01*
X159255407Y-91240566D01*
X159259440Y-91220332D01*
X159262725Y-86998950D01*
X159253095Y-86950342D01*
X159225597Y-86909118D01*
X159184417Y-86881556D01*
X159135725Y-86871851D01*
X151694892Y-86871851D01*
X151646291Y-86881518D01*
X151605089Y-86909048D01*
X151577559Y-86950250D01*
X151567892Y-86998851D01*
X149726392Y-86998851D01*
X149726392Y-85535811D01*
X151247634Y-85535811D01*
X151399675Y-85688118D01*
X151601768Y-85772034D01*
X151820592Y-85772225D01*
X152022831Y-85688662D01*
X152175949Y-85535811D01*
X159136963Y-85535811D01*
X159185564Y-85526144D01*
X159226766Y-85498614D01*
X159254296Y-85457412D01*
X159263963Y-85408910D01*
X159263963Y-85408726D01*
X162658898Y-85408726D01*
X162668533Y-85457333D01*
X162696035Y-85498553D01*
X162737219Y-85526111D01*
X162785898Y-85535811D01*
X170554392Y-85535811D01*
X170602993Y-85526144D01*
X170644195Y-85498614D01*
X170671725Y-85457412D01*
X170681392Y-85408811D01*
X170681392Y-77148432D01*
X170671725Y-77099831D01*
X170644195Y-77058629D01*
X169995483Y-76409917D01*
X169954281Y-76382387D01*
X169905680Y-76372720D01*
X163555680Y-76372720D01*
X163507079Y-76382387D01*
X163465877Y-76409917D01*
X162708559Y-77167235D01*
X162701552Y-77171917D01*
X162674022Y-77213119D01*
X162664355Y-77261635D01*
X162658898Y-85408726D01*
X159263963Y-85408726D01*
X159270376Y-77167515D01*
X159260746Y-77118907D01*
X159233179Y-77077613D01*
X158565483Y-76409917D01*
X158524281Y-76382387D01*
X158475680Y-76372720D01*
X151998680Y-76372720D01*
X151998680Y-71800720D01*
X159147651Y-71800720D01*
X159196252Y-71791053D01*
X159236804Y-71763957D01*
X162396270Y-71768358D01*
X162526308Y-71822354D01*
X162745132Y-71822545D01*
X162797953Y-71800720D01*
X170554392Y-71800720D01*
X170602993Y-71791053D01*
X170644195Y-71763523D01*
X170647317Y-71758851D01*
X174271477Y-71758851D01*
X174274608Y-71763535D01*
X174315814Y-71791060D01*
X174364398Y-71800720D01*
X181208680Y-71800720D01*
X181208680Y-76372720D01*
X174985680Y-76372720D01*
X174937079Y-76382387D01*
X174895877Y-76409917D01*
X174275420Y-77030374D01*
X174247890Y-77071576D01*
X174238223Y-77120196D01*
X174239478Y-85411370D01*
X174249153Y-85459970D01*
X174276689Y-85501167D01*
X174317895Y-85528691D01*
X174366478Y-85538351D01*
X183660792Y-85538351D01*
X183660792Y-91382293D01*
X183653600Y-91418451D01*
X183653600Y-93252900D01*
X180590988Y-93252900D01*
X180785178Y-93059049D01*
X180934230Y-92700090D01*
X180934570Y-92311415D01*
X180786144Y-91952197D01*
X180511549Y-91677122D01*
X180152590Y-91528070D01*
X179763915Y-91527730D01*
X179404697Y-91676156D01*
X179129622Y-91950751D01*
X178980570Y-92309710D01*
X178980230Y-92698385D01*
X179128656Y-93057603D01*
X179323612Y-93252900D01*
X170207400Y-93252900D01*
X170072695Y-93279694D01*
X169958498Y-93355998D01*
X169882194Y-93470195D01*
X169855400Y-93604900D01*
X169855400Y-99252900D01*
X163559400Y-99252900D01*
X163559400Y-93604900D01*
X163532606Y-93470195D01*
X163456302Y-93355998D01*
X163342105Y-93279694D01*
X163207400Y-93252900D01*
X154090988Y-93252900D01*
X154285178Y-93059049D01*
X154434230Y-92700090D01*
X154434570Y-92311415D01*
X154286144Y-91952197D01*
X154011549Y-91677122D01*
X153652590Y-91528070D01*
X153263915Y-91527730D01*
X152904697Y-91676156D01*
X152629622Y-91950751D01*
X152480570Y-92309710D01*
X152480230Y-92698385D01*
X152628656Y-93057603D01*
X152823612Y-93252900D01*
X148707400Y-93252900D01*
X148572695Y-93279694D01*
X148458498Y-93355998D01*
X148382194Y-93470195D01*
X148355400Y-93604900D01*
X148355400Y-123345181D01*
X148217254Y-123287818D01*
X147947927Y-123287583D01*
X147699011Y-123390433D01*
X147508402Y-123580710D01*
X147405118Y-123829446D01*
X147404883Y-124098773D01*
X147468567Y-124252900D01*
X124242067Y-124252900D01*
X123770719Y-124159143D01*
X123400518Y-123911782D01*
X123194686Y-123603732D01*
X124727735Y-123603732D01*
X124811298Y-123805971D01*
X124965895Y-123960838D01*
X125167988Y-124044754D01*
X125386812Y-124044945D01*
X125589051Y-123961382D01*
X125743918Y-123806785D01*
X125827834Y-123604692D01*
X125828025Y-123385868D01*
X125744462Y-123183629D01*
X125589865Y-123028762D01*
X125387772Y-122944846D01*
X125168948Y-122944655D01*
X124966709Y-123028218D01*
X124811842Y-123182815D01*
X124727926Y-123384908D01*
X124727735Y-123603732D01*
X123194686Y-123603732D01*
X123153157Y-123541581D01*
X123059400Y-123070233D01*
X123059400Y-119516600D01*
X124574974Y-119516600D01*
X124574974Y-120716600D01*
X124596472Y-120824680D01*
X124657695Y-120916305D01*
X124749320Y-120977528D01*
X124857400Y-120999026D01*
X126557400Y-120999026D01*
X126665480Y-120977528D01*
X126757105Y-120916305D01*
X126818328Y-120824680D01*
X126839826Y-120716600D01*
X126839826Y-120301732D01*
X137148335Y-120301732D01*
X137231898Y-120503971D01*
X137386495Y-120658838D01*
X137588588Y-120742754D01*
X137807412Y-120742945D01*
X138009651Y-120659382D01*
X138164518Y-120504785D01*
X138231518Y-120343431D01*
X138302761Y-120515853D01*
X138457358Y-120670720D01*
X138659451Y-120754636D01*
X138878275Y-120754827D01*
X139080514Y-120671264D01*
X139235381Y-120516667D01*
X139319297Y-120314574D01*
X139319488Y-120095750D01*
X139235925Y-119893511D01*
X139081328Y-119738644D01*
X139034508Y-119719203D01*
X139059634Y-119658692D01*
X139059825Y-119439868D01*
X138976262Y-119237629D01*
X138821665Y-119082762D01*
X138619572Y-118998846D01*
X138400748Y-118998655D01*
X138198509Y-119082218D01*
X138043642Y-119236815D01*
X137959726Y-119438908D01*
X137959535Y-119657732D01*
X137983417Y-119715531D01*
X137808372Y-119642846D01*
X137589548Y-119642655D01*
X137387309Y-119726218D01*
X137232442Y-119880815D01*
X137148526Y-120082908D01*
X137148335Y-120301732D01*
X126839826Y-120301732D01*
X126839826Y-119516600D01*
X126818328Y-119408520D01*
X126757105Y-119316895D01*
X126665480Y-119255672D01*
X126557400Y-119234174D01*
X124857400Y-119234174D01*
X124749320Y-119255672D01*
X124657695Y-119316895D01*
X124596472Y-119408520D01*
X124574974Y-119516600D01*
X123059400Y-119516600D01*
X123059400Y-118116600D01*
X124558321Y-118116600D01*
X124625079Y-118452213D01*
X124815188Y-118736733D01*
X125099708Y-118926842D01*
X125435321Y-118993600D01*
X125979479Y-118993600D01*
X126315092Y-118926842D01*
X126599612Y-118736733D01*
X126789721Y-118452213D01*
X126856479Y-118116600D01*
X126789721Y-117780987D01*
X126695685Y-117640251D01*
X143274753Y-117640251D01*
X143358316Y-117842490D01*
X143512913Y-117997357D01*
X143715006Y-118081273D01*
X143933830Y-118081464D01*
X144136069Y-117997901D01*
X144290936Y-117843304D01*
X144374852Y-117641211D01*
X144375043Y-117422387D01*
X144291480Y-117220148D01*
X144136883Y-117065281D01*
X143934790Y-116981365D01*
X143715966Y-116981174D01*
X143513727Y-117064737D01*
X143358860Y-117219334D01*
X143274944Y-117421427D01*
X143274753Y-117640251D01*
X126695685Y-117640251D01*
X126599612Y-117496467D01*
X126315092Y-117306358D01*
X125979479Y-117239600D01*
X125435321Y-117239600D01*
X125099708Y-117306358D01*
X124815188Y-117496467D01*
X124625079Y-117780987D01*
X124558321Y-118116600D01*
X123059400Y-118116600D01*
X123059400Y-115907532D01*
X128773955Y-115907532D01*
X128857518Y-116109771D01*
X129012115Y-116264638D01*
X129214208Y-116348554D01*
X129433032Y-116348745D01*
X129635271Y-116265182D01*
X129790138Y-116110585D01*
X129874054Y-115908492D01*
X129874245Y-115689668D01*
X129790682Y-115487429D01*
X129636085Y-115332562D01*
X129433992Y-115248646D01*
X129215168Y-115248455D01*
X129012929Y-115332018D01*
X128858062Y-115486615D01*
X128774146Y-115688708D01*
X128773955Y-115907532D01*
X123059400Y-115907532D01*
X123059400Y-114782732D01*
X138434531Y-114782732D01*
X138518094Y-114984971D01*
X138672691Y-115139838D01*
X138874784Y-115223754D01*
X139093608Y-115223945D01*
X139295847Y-115140382D01*
X139450714Y-114985785D01*
X139513530Y-114834506D01*
X139583542Y-114834506D01*
X139667105Y-115036745D01*
X139821702Y-115191612D01*
X140023795Y-115275528D01*
X140242619Y-115275719D01*
X140444858Y-115192156D01*
X140599725Y-115037559D01*
X140670907Y-114866132D01*
X142566155Y-114866132D01*
X142649718Y-115068371D01*
X142804315Y-115223238D01*
X143006408Y-115307154D01*
X143225232Y-115307345D01*
X143427471Y-115223782D01*
X143582338Y-115069185D01*
X143666254Y-114867092D01*
X143666445Y-114648268D01*
X143582882Y-114446029D01*
X143428285Y-114291162D01*
X143226192Y-114207246D01*
X143007368Y-114207055D01*
X142805129Y-114290618D01*
X142650262Y-114445215D01*
X142566346Y-114647308D01*
X142566155Y-114866132D01*
X140670907Y-114866132D01*
X140683641Y-114835466D01*
X140683832Y-114616642D01*
X140600269Y-114414403D01*
X140445672Y-114259536D01*
X140243579Y-114175620D01*
X140024755Y-114175429D01*
X139822516Y-114258992D01*
X139667649Y-114413589D01*
X139583733Y-114615682D01*
X139583542Y-114834506D01*
X139513530Y-114834506D01*
X139534630Y-114783692D01*
X139534821Y-114564868D01*
X139451258Y-114362629D01*
X139296661Y-114207762D01*
X139094568Y-114123846D01*
X138875744Y-114123655D01*
X138673505Y-114207218D01*
X138518638Y-114361815D01*
X138434722Y-114563908D01*
X138434531Y-114782732D01*
X123059400Y-114782732D01*
X123059400Y-112097532D01*
X131136155Y-112097532D01*
X131219718Y-112299771D01*
X131374315Y-112454638D01*
X131576408Y-112538554D01*
X131795232Y-112538745D01*
X131997471Y-112455182D01*
X132101302Y-112351532D01*
X138197355Y-112351532D01*
X138280918Y-112553771D01*
X138435515Y-112708638D01*
X138637608Y-112792554D01*
X138856432Y-112792745D01*
X139058671Y-112709182D01*
X139213538Y-112554585D01*
X139297454Y-112352492D01*
X139297645Y-112133668D01*
X139277532Y-112084990D01*
X139445851Y-112015442D01*
X139600718Y-111860845D01*
X139684634Y-111658752D01*
X139684660Y-111628590D01*
X139819426Y-111628708D01*
X140021665Y-111545145D01*
X140176532Y-111390548D01*
X140260448Y-111188455D01*
X140260639Y-110969631D01*
X140177076Y-110767392D01*
X140022479Y-110612525D01*
X139820386Y-110528609D01*
X139601562Y-110528418D01*
X139399323Y-110611981D01*
X139244456Y-110766578D01*
X139160540Y-110968671D01*
X139160514Y-110998833D01*
X139025748Y-110998715D01*
X138823509Y-111082278D01*
X138668642Y-111236875D01*
X138584726Y-111438968D01*
X138584535Y-111657792D01*
X138604648Y-111706470D01*
X138436329Y-111776018D01*
X138281462Y-111930615D01*
X138197546Y-112132708D01*
X138197355Y-112351532D01*
X132101302Y-112351532D01*
X132152338Y-112300585D01*
X132236254Y-112098492D01*
X132236445Y-111879668D01*
X132152882Y-111677429D01*
X131998285Y-111522562D01*
X131796192Y-111438646D01*
X131577368Y-111438455D01*
X131375129Y-111522018D01*
X131220262Y-111676615D01*
X131136346Y-111878708D01*
X131136155Y-112097532D01*
X123059400Y-112097532D01*
X123059400Y-111104900D01*
X124558321Y-111104900D01*
X124625079Y-111440513D01*
X124815188Y-111725033D01*
X125099708Y-111915142D01*
X125435321Y-111981900D01*
X125979479Y-111981900D01*
X126315092Y-111915142D01*
X126599612Y-111725033D01*
X126789721Y-111440513D01*
X126835865Y-111208532D01*
X132830335Y-111208532D01*
X132913898Y-111410771D01*
X133068495Y-111565638D01*
X133266407Y-111647818D01*
X133259726Y-111663908D01*
X133259535Y-111882732D01*
X133343098Y-112084971D01*
X133497695Y-112239838D01*
X133699788Y-112323754D01*
X133918612Y-112323945D01*
X134120851Y-112240382D01*
X134275718Y-112085785D01*
X134359634Y-111883692D01*
X134359825Y-111664868D01*
X134276262Y-111462629D01*
X134121665Y-111307762D01*
X133923753Y-111225582D01*
X133930434Y-111209492D01*
X133930625Y-110990668D01*
X133847062Y-110788429D01*
X133692465Y-110633562D01*
X133490372Y-110549646D01*
X133271548Y-110549455D01*
X133069309Y-110633018D01*
X132914442Y-110787615D01*
X132830526Y-110989708D01*
X132830335Y-111208532D01*
X126835865Y-111208532D01*
X126856479Y-111104900D01*
X126789721Y-110769287D01*
X126599612Y-110484767D01*
X126586929Y-110476292D01*
X141600955Y-110476292D01*
X141684518Y-110678531D01*
X141839115Y-110833398D01*
X142041208Y-110917314D01*
X142260032Y-110917505D01*
X142462271Y-110833942D01*
X142588701Y-110707732D01*
X145296623Y-110707732D01*
X145380186Y-110909971D01*
X145534783Y-111064838D01*
X145736876Y-111148754D01*
X145955700Y-111148945D01*
X146157939Y-111065382D01*
X146312806Y-110910785D01*
X146396722Y-110708692D01*
X146396913Y-110489868D01*
X146313350Y-110287629D01*
X146158753Y-110132762D01*
X145956660Y-110048846D01*
X145737836Y-110048655D01*
X145535597Y-110132218D01*
X145380730Y-110286815D01*
X145296814Y-110488908D01*
X145296623Y-110707732D01*
X142588701Y-110707732D01*
X142617138Y-110679345D01*
X142701054Y-110477252D01*
X142701245Y-110258428D01*
X142617682Y-110056189D01*
X142463085Y-109901322D01*
X142260992Y-109817406D01*
X142042168Y-109817215D01*
X141839929Y-109900778D01*
X141685062Y-110055375D01*
X141601146Y-110257468D01*
X141600955Y-110476292D01*
X126586929Y-110476292D01*
X126315092Y-110294658D01*
X125979479Y-110227900D01*
X125435321Y-110227900D01*
X125099708Y-110294658D01*
X124815188Y-110484767D01*
X124625079Y-110769287D01*
X124558321Y-111104900D01*
X123059400Y-111104900D01*
X123059400Y-109104900D01*
X124558321Y-109104900D01*
X124625079Y-109440513D01*
X124815188Y-109725033D01*
X125099708Y-109915142D01*
X125435321Y-109981900D01*
X125979479Y-109981900D01*
X126315092Y-109915142D01*
X126599612Y-109725033D01*
X126789721Y-109440513D01*
X126856479Y-109104900D01*
X126789721Y-108769287D01*
X126713914Y-108655832D01*
X134309395Y-108655832D01*
X134392958Y-108858071D01*
X134547555Y-109012938D01*
X134749648Y-109096854D01*
X134968472Y-109097045D01*
X135170711Y-109013482D01*
X135325578Y-108858885D01*
X135409494Y-108656792D01*
X135409631Y-108500072D01*
X135493532Y-108500145D01*
X135695771Y-108416582D01*
X135733446Y-108378972D01*
X143925055Y-108378972D01*
X144008618Y-108581211D01*
X144163215Y-108736078D01*
X144365308Y-108819994D01*
X144584132Y-108820185D01*
X144786371Y-108736622D01*
X144941238Y-108582025D01*
X145025154Y-108379932D01*
X145025345Y-108161108D01*
X144941782Y-107958869D01*
X144787185Y-107804002D01*
X144585092Y-107720086D01*
X144366268Y-107719895D01*
X144164029Y-107803458D01*
X144009162Y-107958055D01*
X143925246Y-108160148D01*
X143925055Y-108378972D01*
X135733446Y-108378972D01*
X135850638Y-108261985D01*
X135918401Y-108098792D01*
X136093612Y-108098945D01*
X136295851Y-108015382D01*
X136450718Y-107860785D01*
X136534634Y-107658692D01*
X136534825Y-107439868D01*
X136451262Y-107237629D01*
X136296665Y-107082762D01*
X136094572Y-106998846D01*
X135875748Y-106998655D01*
X135673509Y-107082218D01*
X135518642Y-107236815D01*
X135450879Y-107400008D01*
X135275668Y-107399855D01*
X135073429Y-107483418D01*
X134918562Y-107638015D01*
X134834646Y-107840108D01*
X134834509Y-107996828D01*
X134750608Y-107996755D01*
X134548369Y-108080318D01*
X134393502Y-108234915D01*
X134309586Y-108437008D01*
X134309395Y-108655832D01*
X126713914Y-108655832D01*
X126599612Y-108484767D01*
X126315092Y-108294658D01*
X125979479Y-108227900D01*
X125435321Y-108227900D01*
X125099708Y-108294658D01*
X124815188Y-108484767D01*
X124625079Y-108769287D01*
X124558321Y-109104900D01*
X123059400Y-109104900D01*
X123059400Y-107360432D01*
X127389655Y-107360432D01*
X127473218Y-107562671D01*
X127627815Y-107717538D01*
X127829908Y-107801454D01*
X128048732Y-107801645D01*
X128250971Y-107718082D01*
X128405838Y-107563485D01*
X128489754Y-107361392D01*
X128489945Y-107142568D01*
X128438282Y-107017532D01*
X131560335Y-107017532D01*
X131643898Y-107219771D01*
X131798495Y-107374638D01*
X132000588Y-107458554D01*
X132219412Y-107458745D01*
X132421651Y-107375182D01*
X132576518Y-107220585D01*
X132660434Y-107018492D01*
X132660625Y-106799668D01*
X132577062Y-106597429D01*
X132422465Y-106442562D01*
X132220372Y-106358646D01*
X132001548Y-106358455D01*
X131799309Y-106442018D01*
X131644442Y-106596615D01*
X131560526Y-106798708D01*
X131560335Y-107017532D01*
X128438282Y-107017532D01*
X128406382Y-106940329D01*
X128251785Y-106785462D01*
X128049692Y-106701546D01*
X127830868Y-106701355D01*
X127628629Y-106784918D01*
X127473762Y-106939515D01*
X127389846Y-107141608D01*
X127389655Y-107360432D01*
X123059400Y-107360432D01*
X123059400Y-105827475D01*
X136393824Y-105827475D01*
X136477387Y-106029714D01*
X136631984Y-106184581D01*
X136834077Y-106268497D01*
X136848123Y-106268509D01*
X136848074Y-106324201D01*
X136931637Y-106526440D01*
X137086234Y-106681307D01*
X137288327Y-106765223D01*
X137350098Y-106765277D01*
X137350092Y-106772595D01*
X137433655Y-106974834D01*
X137588252Y-107129701D01*
X137790345Y-107213617D01*
X138009169Y-107213808D01*
X138211408Y-107130245D01*
X138366275Y-106975648D01*
X138450191Y-106773555D01*
X138450382Y-106554731D01*
X138366819Y-106352492D01*
X138212222Y-106197625D01*
X138010129Y-106113709D01*
X137948358Y-106113655D01*
X137948364Y-106106337D01*
X137864801Y-105904098D01*
X137710204Y-105749231D01*
X137508111Y-105665315D01*
X137494065Y-105665303D01*
X137494114Y-105609611D01*
X137410551Y-105407372D01*
X137255954Y-105252505D01*
X137053861Y-105168589D01*
X136835037Y-105168398D01*
X136632798Y-105251961D01*
X136477931Y-105406558D01*
X136394015Y-105608651D01*
X136393824Y-105827475D01*
X123059400Y-105827475D01*
X123059400Y-103504900D01*
X124574974Y-103504900D01*
X124574974Y-104704900D01*
X124596472Y-104812980D01*
X124657695Y-104904605D01*
X124749320Y-104965828D01*
X124857400Y-104987326D01*
X126557400Y-104987326D01*
X126665480Y-104965828D01*
X126757105Y-104904605D01*
X126818328Y-104812980D01*
X126839826Y-104704900D01*
X126839826Y-103504900D01*
X126826220Y-103436492D01*
X133142755Y-103436492D01*
X133226318Y-103638731D01*
X133251568Y-103664025D01*
X133226862Y-103688688D01*
X133142946Y-103890781D01*
X133142755Y-104109605D01*
X133226318Y-104311844D01*
X133380915Y-104466711D01*
X133583008Y-104550627D01*
X133801832Y-104550818D01*
X134004071Y-104467255D01*
X134158938Y-104312658D01*
X134232417Y-104135700D01*
X137692908Y-104135700D01*
X137776471Y-104337939D01*
X137931068Y-104492806D01*
X138133161Y-104576722D01*
X138351985Y-104576913D01*
X138478565Y-104524612D01*
X138463046Y-104561985D01*
X138462855Y-104780809D01*
X138546418Y-104983048D01*
X138701015Y-105137915D01*
X138903108Y-105221831D01*
X139121932Y-105222022D01*
X139324171Y-105138459D01*
X139477566Y-104985331D01*
X139477378Y-105200818D01*
X139560941Y-105403057D01*
X139715538Y-105557924D01*
X139917631Y-105641840D01*
X139958621Y-105641876D01*
X139958595Y-105671466D01*
X140042158Y-105873705D01*
X140196755Y-106028572D01*
X140398848Y-106112488D01*
X140617672Y-106112679D01*
X140819911Y-106029116D01*
X140973667Y-105875628D01*
X140973575Y-105981212D01*
X141057138Y-106183451D01*
X141211735Y-106338318D01*
X141413828Y-106422234D01*
X141632652Y-106422425D01*
X141834891Y-106338862D01*
X141989758Y-106184265D01*
X142073674Y-105982172D01*
X142073865Y-105763348D01*
X141990302Y-105561109D01*
X141835705Y-105406242D01*
X141828865Y-105403402D01*
X141894074Y-105338306D01*
X141977990Y-105136213D01*
X141978181Y-104917389D01*
X141972753Y-104904252D01*
X143208775Y-104904252D01*
X143292338Y-105106491D01*
X143446935Y-105261358D01*
X143649028Y-105345274D01*
X143867852Y-105345465D01*
X144070091Y-105261902D01*
X144077307Y-105254699D01*
X144142856Y-105320363D01*
X144344949Y-105404279D01*
X144354919Y-105404288D01*
X144354867Y-105463682D01*
X144438430Y-105665921D01*
X144567795Y-105795512D01*
X144539949Y-105807018D01*
X144385082Y-105961615D01*
X144301166Y-106163708D01*
X144300975Y-106382532D01*
X144384538Y-106584771D01*
X144539135Y-106739638D01*
X144741228Y-106823554D01*
X144960052Y-106823745D01*
X145162291Y-106740182D01*
X145317158Y-106585585D01*
X145401074Y-106383492D01*
X145401265Y-106164668D01*
X145317702Y-105962429D01*
X145188337Y-105832838D01*
X145216183Y-105821332D01*
X145371050Y-105666735D01*
X145454966Y-105464642D01*
X145455157Y-105245818D01*
X145371594Y-105043579D01*
X145216997Y-104888712D01*
X145014904Y-104804796D01*
X145004934Y-104804787D01*
X145004986Y-104745393D01*
X144921423Y-104543154D01*
X144766826Y-104388287D01*
X144564733Y-104304371D01*
X144345909Y-104304180D01*
X144143670Y-104387743D01*
X144136454Y-104394946D01*
X144070905Y-104329282D01*
X143868812Y-104245366D01*
X143649988Y-104245175D01*
X143447749Y-104328738D01*
X143292882Y-104483335D01*
X143208966Y-104685428D01*
X143208775Y-104904252D01*
X141972753Y-104904252D01*
X141894618Y-104715150D01*
X141740021Y-104560283D01*
X141537928Y-104476367D01*
X141319104Y-104476176D01*
X141116865Y-104559739D01*
X140961998Y-104714336D01*
X140878082Y-104916429D01*
X140877891Y-105135253D01*
X140890940Y-105166833D01*
X140820725Y-105096496D01*
X140618632Y-105012580D01*
X140577642Y-105012544D01*
X140577668Y-104982954D01*
X140494105Y-104780715D01*
X140339508Y-104625848D01*
X140137415Y-104541932D01*
X139918591Y-104541741D01*
X139716352Y-104625304D01*
X139562957Y-104778432D01*
X139563145Y-104562945D01*
X139538242Y-104502675D01*
X139554336Y-104496025D01*
X139709203Y-104341428D01*
X139793119Y-104139335D01*
X139793310Y-103920511D01*
X139709747Y-103718272D01*
X139555150Y-103563405D01*
X139353057Y-103479489D01*
X139134233Y-103479298D01*
X138931994Y-103562861D01*
X138777127Y-103717458D01*
X138743683Y-103798000D01*
X138709635Y-103715597D01*
X138555038Y-103560730D01*
X138352945Y-103476814D01*
X138134121Y-103476623D01*
X137931882Y-103560186D01*
X137777015Y-103714783D01*
X137693099Y-103916876D01*
X137692908Y-104135700D01*
X134232417Y-104135700D01*
X134242854Y-104110565D01*
X134243045Y-103891741D01*
X134159482Y-103689502D01*
X134134232Y-103664208D01*
X134158938Y-103639545D01*
X134242854Y-103437452D01*
X134243045Y-103218628D01*
X134159482Y-103016389D01*
X134004885Y-102861522D01*
X133802792Y-102777606D01*
X133583968Y-102777415D01*
X133381729Y-102860978D01*
X133226862Y-103015575D01*
X133142946Y-103217668D01*
X133142755Y-103436492D01*
X126826220Y-103436492D01*
X126818328Y-103396820D01*
X126757105Y-103305195D01*
X126665480Y-103243972D01*
X126557400Y-103222474D01*
X124857400Y-103222474D01*
X124749320Y-103243972D01*
X124657695Y-103305195D01*
X124596472Y-103396820D01*
X124574974Y-103504900D01*
X123059400Y-103504900D01*
X123059400Y-102104900D01*
X124558321Y-102104900D01*
X124625079Y-102440513D01*
X124815188Y-102725033D01*
X125099708Y-102915142D01*
X125435321Y-102981900D01*
X125979479Y-102981900D01*
X126315092Y-102915142D01*
X126349861Y-102891910D01*
X127013735Y-102891910D01*
X127097298Y-103094149D01*
X127251895Y-103249016D01*
X127453988Y-103332932D01*
X127672812Y-103333123D01*
X127875051Y-103249560D01*
X128029918Y-103094963D01*
X128113834Y-102892870D01*
X128114025Y-102674046D01*
X128030462Y-102471807D01*
X127875865Y-102316940D01*
X127673772Y-102233024D01*
X127454948Y-102232833D01*
X127252709Y-102316396D01*
X127097842Y-102470993D01*
X127013926Y-102673086D01*
X127013735Y-102891910D01*
X126349861Y-102891910D01*
X126599612Y-102725033D01*
X126789721Y-102440513D01*
X126856479Y-102104900D01*
X126822682Y-101934992D01*
X146425023Y-101934992D01*
X146508586Y-102137231D01*
X146663183Y-102292098D01*
X146865276Y-102376014D01*
X147084100Y-102376205D01*
X147286339Y-102292642D01*
X147441206Y-102138045D01*
X147525122Y-101935952D01*
X147525313Y-101717128D01*
X147441750Y-101514889D01*
X147287153Y-101360022D01*
X147085060Y-101276106D01*
X146866236Y-101275915D01*
X146663997Y-101359478D01*
X146509130Y-101514075D01*
X146425214Y-101716168D01*
X146425023Y-101934992D01*
X126822682Y-101934992D01*
X126789721Y-101769287D01*
X126599612Y-101484767D01*
X126446905Y-101382732D01*
X131059535Y-101382732D01*
X131143098Y-101584971D01*
X131297695Y-101739838D01*
X131499788Y-101823754D01*
X131718612Y-101823945D01*
X131920851Y-101740382D01*
X132075718Y-101585785D01*
X132159634Y-101383692D01*
X132159825Y-101164868D01*
X132076262Y-100962629D01*
X132050171Y-100936492D01*
X132859535Y-100936492D01*
X132943098Y-101138731D01*
X133097695Y-101293598D01*
X133299788Y-101377514D01*
X133518612Y-101377705D01*
X133720851Y-101294142D01*
X133875718Y-101139545D01*
X133959634Y-100937452D01*
X133959825Y-100718628D01*
X133876262Y-100516389D01*
X133721665Y-100361522D01*
X133519572Y-100277606D01*
X133300748Y-100277415D01*
X133098509Y-100360978D01*
X132943642Y-100515575D01*
X132859726Y-100717668D01*
X132859535Y-100936492D01*
X132050171Y-100936492D01*
X131921665Y-100807762D01*
X131719572Y-100723846D01*
X131500748Y-100723655D01*
X131298509Y-100807218D01*
X131143642Y-100961815D01*
X131059726Y-101163908D01*
X131059535Y-101382732D01*
X126446905Y-101382732D01*
X126315092Y-101294658D01*
X125979479Y-101227900D01*
X125435321Y-101227900D01*
X125099708Y-101294658D01*
X124815188Y-101484767D01*
X124625079Y-101769287D01*
X124558321Y-102104900D01*
X123059400Y-102104900D01*
X123059400Y-100195925D01*
X146817282Y-100195925D01*
X146900845Y-100398164D01*
X147055442Y-100553031D01*
X147257535Y-100636947D01*
X147476359Y-100637138D01*
X147678598Y-100553575D01*
X147833465Y-100398978D01*
X147917381Y-100196885D01*
X147917572Y-99978061D01*
X147834009Y-99775822D01*
X147679412Y-99620955D01*
X147477319Y-99537039D01*
X147258495Y-99536848D01*
X147056256Y-99620411D01*
X146901389Y-99775008D01*
X146817473Y-99977101D01*
X146817282Y-100195925D01*
X123059400Y-100195925D01*
X123059400Y-99638832D01*
X129281955Y-99638832D01*
X129365518Y-99841071D01*
X129520115Y-99995938D01*
X129722208Y-100079854D01*
X129941032Y-100080045D01*
X130143271Y-99996482D01*
X130298138Y-99841885D01*
X130382054Y-99639792D01*
X130382116Y-99567712D01*
X140424935Y-99567712D01*
X140508498Y-99769951D01*
X140663095Y-99924818D01*
X140865188Y-100008734D01*
X141084012Y-100008925D01*
X141286251Y-99925362D01*
X141323883Y-99887796D01*
X141341065Y-99905008D01*
X141543158Y-99988924D01*
X141761982Y-99989115D01*
X141964221Y-99905552D01*
X141980442Y-99889359D01*
X142014578Y-99923554D01*
X142216671Y-100007470D01*
X142435495Y-100007661D01*
X142637734Y-99924098D01*
X142792601Y-99769501D01*
X142876517Y-99567408D01*
X142876708Y-99348584D01*
X142793145Y-99146345D01*
X142638548Y-98991478D01*
X142436455Y-98907562D01*
X142217631Y-98907371D01*
X142015392Y-98990934D01*
X141999171Y-99007127D01*
X141965035Y-98972932D01*
X141762942Y-98889016D01*
X141544118Y-98888825D01*
X141341879Y-98972388D01*
X141304247Y-99009954D01*
X141287065Y-98992742D01*
X141084972Y-98908826D01*
X140866148Y-98908635D01*
X140663909Y-98992198D01*
X140509042Y-99146795D01*
X140425126Y-99348888D01*
X140424935Y-99567712D01*
X130382116Y-99567712D01*
X130382245Y-99420968D01*
X130298682Y-99218729D01*
X130193190Y-99113052D01*
X131890535Y-99113052D01*
X131974098Y-99315291D01*
X132128695Y-99470158D01*
X132330788Y-99554074D01*
X132549612Y-99554265D01*
X132751851Y-99470702D01*
X132906718Y-99316105D01*
X132990634Y-99114012D01*
X132990825Y-98895188D01*
X132907262Y-98692949D01*
X132752665Y-98538082D01*
X132550572Y-98454166D01*
X132331748Y-98453975D01*
X132129509Y-98537538D01*
X131974642Y-98692135D01*
X131890726Y-98894228D01*
X131890535Y-99113052D01*
X130193190Y-99113052D01*
X130144085Y-99063862D01*
X129941992Y-98979946D01*
X129723168Y-98979755D01*
X129520929Y-99063318D01*
X129366062Y-99217915D01*
X129282146Y-99420008D01*
X129281955Y-99638832D01*
X123059400Y-99638832D01*
X123059400Y-98104900D01*
X124558321Y-98104900D01*
X124625079Y-98440513D01*
X124815188Y-98725033D01*
X125099708Y-98915142D01*
X125435321Y-98981900D01*
X125979479Y-98981900D01*
X126315092Y-98915142D01*
X126599612Y-98725033D01*
X126789721Y-98440513D01*
X126856479Y-98104900D01*
X126789721Y-97769287D01*
X126599612Y-97484767D01*
X126315092Y-97294658D01*
X125979479Y-97227900D01*
X125435321Y-97227900D01*
X125099708Y-97294658D01*
X124815188Y-97484767D01*
X124625079Y-97769287D01*
X124558321Y-98104900D01*
X123059400Y-98104900D01*
X123059400Y-96104900D01*
X124558321Y-96104900D01*
X124625079Y-96440513D01*
X124815188Y-96725033D01*
X125099708Y-96915142D01*
X125435321Y-96981900D01*
X125979479Y-96981900D01*
X126315092Y-96915142D01*
X126599612Y-96725033D01*
X126778215Y-96457732D01*
X128734535Y-96457732D01*
X128818098Y-96659971D01*
X128972695Y-96814838D01*
X128985404Y-96820115D01*
X128835242Y-96970015D01*
X128751326Y-97172108D01*
X128751135Y-97390932D01*
X128834698Y-97593171D01*
X128989295Y-97748038D01*
X129191388Y-97831954D01*
X129410212Y-97832145D01*
X129612451Y-97748582D01*
X129767318Y-97593985D01*
X129851234Y-97391892D01*
X129851385Y-97218212D01*
X132185175Y-97218212D01*
X132268738Y-97420451D01*
X132423335Y-97575318D01*
X132625428Y-97659234D01*
X132844252Y-97659425D01*
X132990934Y-97598817D01*
X133148668Y-97664314D01*
X133367492Y-97664505D01*
X133569731Y-97580942D01*
X133724598Y-97426345D01*
X133808514Y-97224252D01*
X133808705Y-97005428D01*
X133741299Y-96842292D01*
X144857235Y-96842292D01*
X144940798Y-97044531D01*
X145095395Y-97199398D01*
X145297488Y-97283314D01*
X145516312Y-97283505D01*
X145718551Y-97199942D01*
X145737617Y-97180909D01*
X145768394Y-97211739D01*
X145970487Y-97295655D01*
X146098072Y-97295766D01*
X146161206Y-97448564D01*
X146315803Y-97603431D01*
X146439801Y-97654919D01*
X146439655Y-97822732D01*
X146523218Y-98024971D01*
X146677815Y-98179838D01*
X146879908Y-98263754D01*
X147098732Y-98263945D01*
X147300971Y-98180382D01*
X147455838Y-98025785D01*
X147539754Y-97823692D01*
X147539945Y-97604868D01*
X147456382Y-97402629D01*
X147301785Y-97247762D01*
X147177787Y-97196274D01*
X147177933Y-97028461D01*
X147094370Y-96826222D01*
X146939773Y-96671355D01*
X146737680Y-96587439D01*
X146610095Y-96587328D01*
X146546961Y-96434530D01*
X146392364Y-96279663D01*
X146190271Y-96195747D01*
X145971447Y-96195556D01*
X145769208Y-96279119D01*
X145750142Y-96298152D01*
X145719365Y-96267322D01*
X145517272Y-96183406D01*
X145298448Y-96183215D01*
X145096209Y-96266778D01*
X144941342Y-96421375D01*
X144857426Y-96623468D01*
X144857235Y-96842292D01*
X133741299Y-96842292D01*
X133725142Y-96803189D01*
X133570545Y-96648322D01*
X133368452Y-96564406D01*
X133149628Y-96564215D01*
X133002946Y-96624823D01*
X132845212Y-96559326D01*
X132626388Y-96559135D01*
X132424149Y-96642698D01*
X132269282Y-96797295D01*
X132185366Y-96999388D01*
X132185175Y-97218212D01*
X129851385Y-97218212D01*
X129851425Y-97173068D01*
X129767862Y-96970829D01*
X129613265Y-96815962D01*
X129600556Y-96810685D01*
X129750718Y-96660785D01*
X129834634Y-96458692D01*
X129834795Y-96273332D01*
X134308380Y-96273332D01*
X134391943Y-96475571D01*
X134546540Y-96630438D01*
X134748633Y-96714354D01*
X134967457Y-96714545D01*
X135169696Y-96630982D01*
X135324563Y-96476385D01*
X135408479Y-96274292D01*
X135408670Y-96055468D01*
X135325107Y-95853229D01*
X135170510Y-95698362D01*
X134968417Y-95614446D01*
X134749593Y-95614255D01*
X134547354Y-95697818D01*
X134392487Y-95852415D01*
X134308571Y-96054508D01*
X134308380Y-96273332D01*
X129834795Y-96273332D01*
X129834825Y-96239868D01*
X129751262Y-96037629D01*
X129596665Y-95882762D01*
X129394572Y-95798846D01*
X129175748Y-95798655D01*
X128973509Y-95882218D01*
X128818642Y-96036815D01*
X128734726Y-96238908D01*
X128734535Y-96457732D01*
X126778215Y-96457732D01*
X126789721Y-96440513D01*
X126856479Y-96104900D01*
X126789721Y-95769287D01*
X126599612Y-95484767D01*
X126315092Y-95294658D01*
X125979479Y-95227900D01*
X125435321Y-95227900D01*
X125099708Y-95294658D01*
X124815188Y-95484767D01*
X124625079Y-95769287D01*
X124558321Y-96104900D01*
X123059400Y-96104900D01*
X123059400Y-94104900D01*
X124558321Y-94104900D01*
X124625079Y-94440513D01*
X124815188Y-94725033D01*
X125099708Y-94915142D01*
X125435321Y-94981900D01*
X125979479Y-94981900D01*
X126315092Y-94915142D01*
X126472012Y-94810292D01*
X131857515Y-94810292D01*
X131941078Y-95012531D01*
X132095675Y-95167398D01*
X132297768Y-95251314D01*
X132516592Y-95251505D01*
X132630624Y-95204388D01*
X135188984Y-95204388D01*
X135272547Y-95406627D01*
X135427144Y-95561494D01*
X135629237Y-95645410D01*
X135848061Y-95645601D01*
X136002873Y-95581634D01*
X135976244Y-95645765D01*
X135976053Y-95864589D01*
X136059616Y-96066828D01*
X136214213Y-96221695D01*
X136416306Y-96305611D01*
X136635130Y-96305802D01*
X136837369Y-96222239D01*
X136918497Y-96141252D01*
X137453135Y-96141252D01*
X137536698Y-96343491D01*
X137691295Y-96498358D01*
X137893388Y-96582274D01*
X138112212Y-96582465D01*
X138314451Y-96498902D01*
X138469318Y-96344305D01*
X138553234Y-96142212D01*
X138553425Y-95923388D01*
X138469862Y-95721149D01*
X138315265Y-95566282D01*
X138113172Y-95482366D01*
X137894348Y-95482175D01*
X137692109Y-95565738D01*
X137537242Y-95720335D01*
X137453326Y-95922428D01*
X137453135Y-96141252D01*
X136918497Y-96141252D01*
X136992236Y-96067642D01*
X137076152Y-95865549D01*
X137076343Y-95646725D01*
X136992780Y-95444486D01*
X136838183Y-95289619D01*
X136636090Y-95205703D01*
X136417266Y-95205512D01*
X136262454Y-95269479D01*
X136289083Y-95205348D01*
X136289274Y-94986524D01*
X136285724Y-94977932D01*
X139977895Y-94977932D01*
X140061458Y-95180171D01*
X140216055Y-95335038D01*
X140418148Y-95418954D01*
X140508670Y-95419033D01*
X140508610Y-95487859D01*
X140592173Y-95690098D01*
X140746770Y-95844965D01*
X140948863Y-95928881D01*
X141007031Y-95928932D01*
X141007013Y-95949593D01*
X141090576Y-96151832D01*
X141245173Y-96306699D01*
X141447266Y-96390615D01*
X141666090Y-96390806D01*
X141868329Y-96307243D01*
X142023196Y-96152646D01*
X142107112Y-95950553D01*
X142107303Y-95731729D01*
X142023740Y-95529490D01*
X141878836Y-95384332D01*
X144232075Y-95384332D01*
X144315638Y-95586571D01*
X144470235Y-95741438D01*
X144672328Y-95825354D01*
X144891152Y-95825545D01*
X145093391Y-95741982D01*
X145248258Y-95587385D01*
X145332174Y-95385292D01*
X145332365Y-95166468D01*
X145248802Y-94964229D01*
X145094205Y-94809362D01*
X144892112Y-94725446D01*
X144673288Y-94725255D01*
X144471049Y-94808818D01*
X144316182Y-94963415D01*
X144232266Y-95165508D01*
X144232075Y-95384332D01*
X141878836Y-95384332D01*
X141869143Y-95374623D01*
X141667050Y-95290707D01*
X141608882Y-95290656D01*
X141608900Y-95269995D01*
X141525337Y-95067756D01*
X141370740Y-94912889D01*
X141168647Y-94828973D01*
X141078125Y-94828894D01*
X141078185Y-94760068D01*
X141063258Y-94723941D01*
X141079827Y-94723955D01*
X141282066Y-94640392D01*
X141436933Y-94485795D01*
X141520849Y-94283702D01*
X141521040Y-94064878D01*
X141437477Y-93862639D01*
X141282880Y-93707772D01*
X141080787Y-93623856D01*
X140861963Y-93623665D01*
X140659724Y-93707228D01*
X140504857Y-93861825D01*
X140420941Y-94063918D01*
X140420750Y-94282742D01*
X140435677Y-94318869D01*
X140419108Y-94318855D01*
X140216869Y-94402418D01*
X140062002Y-94557015D01*
X139978086Y-94759108D01*
X139977895Y-94977932D01*
X136285724Y-94977932D01*
X136205711Y-94784285D01*
X136051114Y-94629418D01*
X135849021Y-94545502D01*
X135630197Y-94545311D01*
X135427958Y-94628874D01*
X135273091Y-94783471D01*
X135189175Y-94985564D01*
X135188984Y-95204388D01*
X132630624Y-95204388D01*
X132718831Y-95167942D01*
X132873698Y-95013345D01*
X132957614Y-94811252D01*
X132957805Y-94592428D01*
X132925033Y-94513112D01*
X136190755Y-94513112D01*
X136274318Y-94715351D01*
X136428915Y-94870218D01*
X136631008Y-94954134D01*
X136849832Y-94954325D01*
X137052071Y-94870762D01*
X137206938Y-94716165D01*
X137208958Y-94711300D01*
X137348819Y-94769375D01*
X137567643Y-94769566D01*
X137769882Y-94686003D01*
X137924749Y-94531406D01*
X138008665Y-94329313D01*
X138008856Y-94110489D01*
X137925293Y-93908250D01*
X137770696Y-93753383D01*
X137568603Y-93669467D01*
X137349779Y-93669276D01*
X137147540Y-93752839D01*
X136992673Y-93907436D01*
X136990653Y-93912301D01*
X136850792Y-93854226D01*
X136631968Y-93854035D01*
X136429729Y-93937598D01*
X136274862Y-94092195D01*
X136190946Y-94294288D01*
X136190755Y-94513112D01*
X132925033Y-94513112D01*
X132874242Y-94390189D01*
X132719645Y-94235322D01*
X132517552Y-94151406D01*
X132298728Y-94151215D01*
X132096489Y-94234778D01*
X131941622Y-94389375D01*
X131857706Y-94591468D01*
X131857515Y-94810292D01*
X126472012Y-94810292D01*
X126599612Y-94725033D01*
X126789721Y-94440513D01*
X126856479Y-94104900D01*
X126833246Y-93988096D01*
X134691739Y-93988096D01*
X134775302Y-94190335D01*
X134929899Y-94345202D01*
X135131992Y-94429118D01*
X135350816Y-94429309D01*
X135553055Y-94345746D01*
X135707922Y-94191149D01*
X135791838Y-93989056D01*
X135792029Y-93770232D01*
X135708466Y-93567993D01*
X135672324Y-93531787D01*
X138061080Y-93531787D01*
X138144643Y-93734026D01*
X138299240Y-93888893D01*
X138501333Y-93972809D01*
X138720157Y-93973000D01*
X138922396Y-93889437D01*
X139077263Y-93734840D01*
X139161179Y-93532747D01*
X139161370Y-93313923D01*
X139077807Y-93111684D01*
X138923210Y-92956817D01*
X138721117Y-92872901D01*
X138502293Y-92872710D01*
X138300054Y-92956273D01*
X138145187Y-93110870D01*
X138061271Y-93312963D01*
X138061080Y-93531787D01*
X135672324Y-93531787D01*
X135553869Y-93413126D01*
X135351776Y-93329210D01*
X135132952Y-93329019D01*
X134930713Y-93412582D01*
X134775846Y-93567179D01*
X134691930Y-93769272D01*
X134691739Y-93988096D01*
X126833246Y-93988096D01*
X126789721Y-93769287D01*
X126599612Y-93484767D01*
X126315092Y-93294658D01*
X125979479Y-93227900D01*
X125435321Y-93227900D01*
X125099708Y-93294658D01*
X124815188Y-93484767D01*
X124625079Y-93769287D01*
X124558321Y-94104900D01*
X123059400Y-94104900D01*
X123059400Y-92104900D01*
X124558321Y-92104900D01*
X124625079Y-92440513D01*
X124815188Y-92725033D01*
X125099708Y-92915142D01*
X125435321Y-92981900D01*
X125979479Y-92981900D01*
X126315092Y-92915142D01*
X126599612Y-92725033D01*
X126642095Y-92661452D01*
X127267735Y-92661452D01*
X127351298Y-92863691D01*
X127505895Y-93018558D01*
X127707988Y-93102474D01*
X127926812Y-93102665D01*
X128129051Y-93019102D01*
X128283918Y-92864505D01*
X128367834Y-92662412D01*
X128367839Y-92656372D01*
X132230895Y-92656372D01*
X132314458Y-92858611D01*
X132469055Y-93013478D01*
X132671148Y-93097394D01*
X132889972Y-93097585D01*
X133092211Y-93014022D01*
X133247078Y-92859425D01*
X133330994Y-92657332D01*
X133331185Y-92438508D01*
X133316942Y-92404037D01*
X143323851Y-92404037D01*
X143407414Y-92606276D01*
X143562011Y-92761143D01*
X143764104Y-92845059D01*
X143982928Y-92845250D01*
X144185167Y-92761687D01*
X144340034Y-92607090D01*
X144423950Y-92404997D01*
X144424141Y-92186173D01*
X144340578Y-91983934D01*
X144185981Y-91829067D01*
X143983888Y-91745151D01*
X143765064Y-91744960D01*
X143562825Y-91828523D01*
X143407958Y-91983120D01*
X143324042Y-92185213D01*
X143323851Y-92404037D01*
X133316942Y-92404037D01*
X133247622Y-92236269D01*
X133093025Y-92081402D01*
X132890932Y-91997486D01*
X132672108Y-91997295D01*
X132469869Y-92080858D01*
X132315002Y-92235455D01*
X132231086Y-92437548D01*
X132230895Y-92656372D01*
X128367839Y-92656372D01*
X128368025Y-92443588D01*
X128284462Y-92241349D01*
X128129865Y-92086482D01*
X127927772Y-92002566D01*
X127708948Y-92002375D01*
X127506709Y-92085938D01*
X127351842Y-92240535D01*
X127267926Y-92442628D01*
X127267735Y-92661452D01*
X126642095Y-92661452D01*
X126789721Y-92440513D01*
X126856479Y-92104900D01*
X126789721Y-91769287D01*
X126599612Y-91484767D01*
X126315092Y-91294658D01*
X125979479Y-91227900D01*
X125435321Y-91227900D01*
X125099708Y-91294658D01*
X124815188Y-91484767D01*
X124625079Y-91769287D01*
X124558321Y-92104900D01*
X123059400Y-92104900D01*
X123059400Y-91134912D01*
X131319035Y-91134912D01*
X131402598Y-91337151D01*
X131557195Y-91492018D01*
X131759288Y-91575934D01*
X131978112Y-91576125D01*
X132180351Y-91492562D01*
X132335218Y-91337965D01*
X132419134Y-91135872D01*
X132419325Y-90917048D01*
X132335762Y-90714809D01*
X132297425Y-90676405D01*
X136582990Y-90676405D01*
X136666553Y-90878644D01*
X136821150Y-91033511D01*
X137023243Y-91117427D01*
X137242067Y-91117618D01*
X137444306Y-91034055D01*
X137447594Y-91030772D01*
X147026395Y-91030772D01*
X147109958Y-91233011D01*
X147264555Y-91387878D01*
X147466648Y-91471794D01*
X147685472Y-91471985D01*
X147887711Y-91388422D01*
X148042578Y-91233825D01*
X148126494Y-91031732D01*
X148126685Y-90812908D01*
X148043122Y-90610669D01*
X147888525Y-90455802D01*
X147686432Y-90371886D01*
X147467608Y-90371695D01*
X147265369Y-90455258D01*
X147110502Y-90609855D01*
X147026586Y-90811948D01*
X147026395Y-91030772D01*
X137447594Y-91030772D01*
X137599173Y-90879458D01*
X137683089Y-90677365D01*
X137683280Y-90458541D01*
X137599717Y-90256302D01*
X137520350Y-90176796D01*
X138723671Y-90176796D01*
X138807234Y-90379035D01*
X138961831Y-90533902D01*
X139163924Y-90617818D01*
X139382748Y-90618009D01*
X139568067Y-90541437D01*
X144292470Y-90541437D01*
X144376033Y-90743676D01*
X144530630Y-90898543D01*
X144732723Y-90982459D01*
X144951547Y-90982650D01*
X145153786Y-90899087D01*
X145308653Y-90744490D01*
X145392569Y-90542397D01*
X145392760Y-90323573D01*
X145309197Y-90121334D01*
X145154600Y-89966467D01*
X144952507Y-89882551D01*
X144733683Y-89882360D01*
X144531444Y-89965923D01*
X144376577Y-90120520D01*
X144292661Y-90322613D01*
X144292470Y-90541437D01*
X139568067Y-90541437D01*
X139584987Y-90534446D01*
X139739854Y-90379849D01*
X139823770Y-90177756D01*
X139823961Y-89958932D01*
X139740398Y-89756693D01*
X139585801Y-89601826D01*
X139383708Y-89517910D01*
X139164884Y-89517719D01*
X138962645Y-89601282D01*
X138807778Y-89755879D01*
X138723862Y-89957972D01*
X138723671Y-90176796D01*
X137520350Y-90176796D01*
X137445120Y-90101435D01*
X137243027Y-90017519D01*
X137024203Y-90017328D01*
X136821964Y-90100891D01*
X136667097Y-90255488D01*
X136583181Y-90457581D01*
X136582990Y-90676405D01*
X132297425Y-90676405D01*
X132181165Y-90559942D01*
X131979072Y-90476026D01*
X131760248Y-90475835D01*
X131558009Y-90559398D01*
X131403142Y-90713995D01*
X131319226Y-90916088D01*
X131319035Y-91134912D01*
X123059400Y-91134912D01*
X123059400Y-90104900D01*
X124558321Y-90104900D01*
X124625079Y-90440513D01*
X124815188Y-90725033D01*
X125099708Y-90915142D01*
X125435321Y-90981900D01*
X125979479Y-90981900D01*
X126315092Y-90915142D01*
X126599612Y-90725033D01*
X126789721Y-90440513D01*
X126856479Y-90104900D01*
X126789721Y-89769287D01*
X126599612Y-89484767D01*
X126315092Y-89294658D01*
X125979479Y-89227900D01*
X125435321Y-89227900D01*
X125099708Y-89294658D01*
X124815188Y-89484767D01*
X124625079Y-89769287D01*
X124558321Y-90104900D01*
X123059400Y-90104900D01*
X123059400Y-88881932D01*
X144191755Y-88881932D01*
X144275318Y-89084171D01*
X144429915Y-89239038D01*
X144632008Y-89322954D01*
X144850832Y-89323145D01*
X145053071Y-89239582D01*
X145207938Y-89084985D01*
X145291854Y-88882892D01*
X145292006Y-88707732D01*
X147309535Y-88707732D01*
X147393098Y-88909971D01*
X147547695Y-89064838D01*
X147749788Y-89148754D01*
X147968612Y-89148945D01*
X148170851Y-89065382D01*
X148325718Y-88910785D01*
X148409634Y-88708692D01*
X148409825Y-88489868D01*
X148326262Y-88287629D01*
X148171665Y-88132762D01*
X147969572Y-88048846D01*
X147750748Y-88048655D01*
X147548509Y-88132218D01*
X147393642Y-88286815D01*
X147309726Y-88488908D01*
X147309535Y-88707732D01*
X145292006Y-88707732D01*
X145292045Y-88664068D01*
X145208482Y-88461829D01*
X145053885Y-88306962D01*
X144897083Y-88241852D01*
X145824975Y-88241852D01*
X145908538Y-88444091D01*
X146063135Y-88598958D01*
X146265228Y-88682874D01*
X146484052Y-88683065D01*
X146686291Y-88599502D01*
X146841158Y-88444905D01*
X146925074Y-88242812D01*
X146925265Y-88023988D01*
X146841702Y-87821749D01*
X146687105Y-87666882D01*
X146485012Y-87582966D01*
X146266188Y-87582775D01*
X146063949Y-87666338D01*
X145909082Y-87820935D01*
X145825166Y-88023028D01*
X145824975Y-88241852D01*
X144897083Y-88241852D01*
X144851792Y-88223046D01*
X144632968Y-88222855D01*
X144430729Y-88306418D01*
X144275862Y-88461015D01*
X144191946Y-88663108D01*
X144191755Y-88881932D01*
X123059400Y-88881932D01*
X123059400Y-86936777D01*
X127877975Y-86936777D01*
X127961538Y-87139016D01*
X128116135Y-87293883D01*
X128318228Y-87377799D01*
X128537052Y-87377990D01*
X128739291Y-87294427D01*
X128894158Y-87139830D01*
X128931309Y-87050359D01*
X128974038Y-87153771D01*
X129128635Y-87308638D01*
X129330728Y-87392554D01*
X129549552Y-87392745D01*
X129751791Y-87309182D01*
X129906658Y-87154585D01*
X129942456Y-87068372D01*
X132192475Y-87068372D01*
X132276038Y-87270611D01*
X132430635Y-87425478D01*
X132632728Y-87509394D01*
X132851552Y-87509585D01*
X132962560Y-87463718D01*
X133043702Y-87660098D01*
X133078085Y-87694541D01*
X132999704Y-87772785D01*
X132915788Y-87974878D01*
X132915597Y-88193702D01*
X132999160Y-88395941D01*
X133153757Y-88550808D01*
X133355850Y-88634724D01*
X133574674Y-88634915D01*
X133776913Y-88551352D01*
X133931780Y-88396755D01*
X133999761Y-88233037D01*
X141029387Y-88233037D01*
X141112950Y-88435276D01*
X141267547Y-88590143D01*
X141469640Y-88674059D01*
X141688464Y-88674250D01*
X141890703Y-88590687D01*
X142045570Y-88436090D01*
X142129486Y-88233997D01*
X142129677Y-88015173D01*
X142046114Y-87812934D01*
X141991009Y-87757732D01*
X143184535Y-87757732D01*
X143268098Y-87959971D01*
X143422695Y-88114838D01*
X143624788Y-88198754D01*
X143843612Y-88198945D01*
X144045851Y-88115382D01*
X144200718Y-87960785D01*
X144284634Y-87758692D01*
X144284825Y-87539868D01*
X144201262Y-87337629D01*
X144046665Y-87182762D01*
X143844572Y-87098846D01*
X143625748Y-87098655D01*
X143423509Y-87182218D01*
X143268642Y-87336815D01*
X143184726Y-87538908D01*
X143184535Y-87757732D01*
X141991009Y-87757732D01*
X141891517Y-87658067D01*
X141689424Y-87574151D01*
X141470600Y-87573960D01*
X141268361Y-87657523D01*
X141113494Y-87812120D01*
X141029578Y-88014213D01*
X141029387Y-88233037D01*
X133999761Y-88233037D01*
X134015696Y-88194662D01*
X134015887Y-87975838D01*
X133932324Y-87773599D01*
X133897941Y-87739156D01*
X133976322Y-87660912D01*
X134060238Y-87458819D01*
X134060429Y-87239995D01*
X134027045Y-87159199D01*
X134175718Y-87010785D01*
X134259634Y-86808692D01*
X134259825Y-86589868D01*
X134176262Y-86387629D01*
X134021665Y-86232762D01*
X133880445Y-86174123D01*
X133952014Y-86174185D01*
X134154253Y-86090622D01*
X134309120Y-85936025D01*
X134362391Y-85807732D01*
X140909531Y-85807732D01*
X140993094Y-86009971D01*
X141147691Y-86164838D01*
X141349784Y-86248754D01*
X141568608Y-86248945D01*
X141770847Y-86165382D01*
X141925714Y-86010785D01*
X142009630Y-85808692D01*
X142009821Y-85589868D01*
X141926258Y-85387629D01*
X141796588Y-85257732D01*
X143209533Y-85257732D01*
X143293096Y-85459971D01*
X143447693Y-85614838D01*
X143628592Y-85689953D01*
X143465529Y-85757329D01*
X143310662Y-85911926D01*
X143226746Y-86114019D01*
X143226555Y-86332843D01*
X143310118Y-86535082D01*
X143464715Y-86689949D01*
X143666808Y-86773865D01*
X143885632Y-86774056D01*
X144087871Y-86690493D01*
X144242738Y-86535896D01*
X144326654Y-86333803D01*
X144326845Y-86114979D01*
X144243282Y-85912740D01*
X144088685Y-85757873D01*
X143907786Y-85682758D01*
X144070849Y-85615382D01*
X144225716Y-85460785D01*
X144309632Y-85258692D01*
X144309823Y-85039868D01*
X144226260Y-84837629D01*
X144071663Y-84682762D01*
X143869570Y-84598846D01*
X143650746Y-84598655D01*
X143448507Y-84682218D01*
X143293640Y-84836815D01*
X143209724Y-85038908D01*
X143209533Y-85257732D01*
X141796588Y-85257732D01*
X141771661Y-85232762D01*
X141569568Y-85148846D01*
X141350744Y-85148655D01*
X141148505Y-85232218D01*
X140993638Y-85386815D01*
X140909722Y-85588908D01*
X140909531Y-85807732D01*
X134362391Y-85807732D01*
X134393036Y-85733932D01*
X134393227Y-85515108D01*
X134309664Y-85312869D01*
X134155067Y-85158002D01*
X133952974Y-85074086D01*
X133734150Y-85073895D01*
X133531911Y-85157458D01*
X133377044Y-85312055D01*
X133293128Y-85514148D01*
X133292937Y-85732972D01*
X133376500Y-85935211D01*
X133531097Y-86090078D01*
X133672317Y-86148717D01*
X133600748Y-86148655D01*
X133398509Y-86232218D01*
X133243642Y-86386815D01*
X133159726Y-86588908D01*
X133159717Y-86598698D01*
X133054605Y-86493402D01*
X132852512Y-86409486D01*
X132633688Y-86409295D01*
X132431449Y-86492858D01*
X132276582Y-86647455D01*
X132192666Y-86849548D01*
X132192475Y-87068372D01*
X129942456Y-87068372D01*
X129990574Y-86952492D01*
X129990765Y-86733668D01*
X129907202Y-86531429D01*
X129752605Y-86376562D01*
X129550512Y-86292646D01*
X129478284Y-86292583D01*
X129478325Y-86245988D01*
X129394762Y-86043749D01*
X129240165Y-85888882D01*
X129038072Y-85804966D01*
X128819248Y-85804775D01*
X128617009Y-85888338D01*
X128462142Y-86042935D01*
X128378226Y-86245028D01*
X128378197Y-86277752D01*
X128319188Y-86277700D01*
X128116949Y-86361263D01*
X127962082Y-86515860D01*
X127878166Y-86717953D01*
X127877975Y-86936777D01*
X123059400Y-86936777D01*
X123059400Y-85004900D01*
X124574974Y-85004900D01*
X124574974Y-86204900D01*
X124596472Y-86312980D01*
X124657695Y-86404605D01*
X124749320Y-86465828D01*
X124857400Y-86487326D01*
X126557400Y-86487326D01*
X126665480Y-86465828D01*
X126757105Y-86404605D01*
X126818328Y-86312980D01*
X126839826Y-86204900D01*
X126839826Y-85004900D01*
X126818328Y-84896820D01*
X126757105Y-84805195D01*
X126665480Y-84743972D01*
X126557400Y-84722474D01*
X124857400Y-84722474D01*
X124749320Y-84743972D01*
X124657695Y-84805195D01*
X124596472Y-84896820D01*
X124574974Y-85004900D01*
X123059400Y-85004900D01*
X123059400Y-84569012D01*
X145850375Y-84569012D01*
X145933938Y-84771251D01*
X146088535Y-84926118D01*
X146290628Y-85010034D01*
X146509452Y-85010225D01*
X146711691Y-84926662D01*
X146866558Y-84772065D01*
X146950474Y-84569972D01*
X146950665Y-84351148D01*
X146867102Y-84148909D01*
X146712505Y-83994042D01*
X146510412Y-83910126D01*
X146291588Y-83909935D01*
X146089349Y-83993498D01*
X145934482Y-84148095D01*
X145850566Y-84350188D01*
X145850375Y-84569012D01*
X123059400Y-84569012D01*
X123059400Y-83604900D01*
X124558321Y-83604900D01*
X124625079Y-83940513D01*
X124815188Y-84225033D01*
X125099708Y-84415142D01*
X125435321Y-84481900D01*
X125979479Y-84481900D01*
X126315092Y-84415142D01*
X126599612Y-84225033D01*
X126789721Y-83940513D01*
X126856479Y-83604900D01*
X126789721Y-83269287D01*
X126599612Y-82984767D01*
X126315092Y-82794658D01*
X125979479Y-82727900D01*
X125435321Y-82727900D01*
X125099708Y-82794658D01*
X124815188Y-82984767D01*
X124625079Y-83269287D01*
X124558321Y-83604900D01*
X123059400Y-83604900D01*
X123059400Y-81782732D01*
X133134531Y-81782732D01*
X133218094Y-81984971D01*
X133372691Y-82139838D01*
X133402342Y-82152150D01*
X133384269Y-82159618D01*
X133229402Y-82314215D01*
X133145486Y-82516308D01*
X133145295Y-82735132D01*
X133228858Y-82937371D01*
X133383455Y-83092238D01*
X133585548Y-83176154D01*
X133804372Y-83176345D01*
X134006611Y-83092782D01*
X134161478Y-82938185D01*
X134245394Y-82736092D01*
X134245567Y-82537012D01*
X135695455Y-82537012D01*
X135779018Y-82739251D01*
X135821288Y-82781595D01*
X135801513Y-82801336D01*
X135717597Y-83003429D01*
X135717406Y-83222253D01*
X135800969Y-83424492D01*
X135955566Y-83579359D01*
X136157659Y-83663275D01*
X136376483Y-83663466D01*
X136578722Y-83579903D01*
X136733589Y-83425306D01*
X136814507Y-83230432D01*
X140864355Y-83230432D01*
X140947918Y-83432671D01*
X141102515Y-83587538D01*
X141304608Y-83671454D01*
X141523432Y-83671645D01*
X141725671Y-83588082D01*
X141880538Y-83433485D01*
X141964454Y-83231392D01*
X141964645Y-83012568D01*
X141881082Y-82810329D01*
X141726485Y-82655462D01*
X141524392Y-82571546D01*
X141305568Y-82571355D01*
X141103329Y-82654918D01*
X140948462Y-82809515D01*
X140864546Y-83011608D01*
X140864355Y-83230432D01*
X136814507Y-83230432D01*
X136817505Y-83223213D01*
X136817696Y-83004389D01*
X136734133Y-82802150D01*
X136691863Y-82759806D01*
X136711638Y-82740065D01*
X136795554Y-82537972D01*
X136795745Y-82319148D01*
X136712182Y-82116909D01*
X136557585Y-81962042D01*
X136355492Y-81878126D01*
X136136668Y-81877935D01*
X135934429Y-81961498D01*
X135779562Y-82116095D01*
X135695646Y-82318188D01*
X135695455Y-82537012D01*
X134245567Y-82537012D01*
X134245585Y-82517268D01*
X134162022Y-82315029D01*
X134007425Y-82160162D01*
X133977774Y-82147850D01*
X133995847Y-82140382D01*
X134150714Y-81985785D01*
X134234630Y-81783692D01*
X134234821Y-81564868D01*
X134151258Y-81362629D01*
X134139482Y-81350832D01*
X135924055Y-81350832D01*
X136007618Y-81553071D01*
X136162215Y-81707938D01*
X136364308Y-81791854D01*
X136583132Y-81792045D01*
X136749443Y-81723327D01*
X143167250Y-81723327D01*
X143250813Y-81925566D01*
X143405410Y-82080433D01*
X143551884Y-82141254D01*
X143414729Y-82197925D01*
X143259862Y-82352522D01*
X143175946Y-82554615D01*
X143175755Y-82773439D01*
X143259318Y-82975678D01*
X143413915Y-83130545D01*
X143570133Y-83195412D01*
X143442770Y-83248037D01*
X143287903Y-83402634D01*
X143203987Y-83604727D01*
X143203796Y-83823551D01*
X143287359Y-84025790D01*
X143441956Y-84180657D01*
X143644049Y-84264573D01*
X143862873Y-84264764D01*
X144065112Y-84181201D01*
X144219979Y-84026604D01*
X144303895Y-83824511D01*
X144304086Y-83605687D01*
X144220523Y-83403448D01*
X144065926Y-83248581D01*
X143909708Y-83183714D01*
X144037071Y-83131089D01*
X144191938Y-82976492D01*
X144275854Y-82774399D01*
X144276045Y-82555575D01*
X144192482Y-82353336D01*
X144037885Y-82198469D01*
X143891411Y-82137648D01*
X144028566Y-82080977D01*
X144183433Y-81926380D01*
X144267349Y-81724287D01*
X144267540Y-81505463D01*
X144183977Y-81303224D01*
X144029380Y-81148357D01*
X143827287Y-81064441D01*
X143608463Y-81064250D01*
X143406224Y-81147813D01*
X143251357Y-81302410D01*
X143167441Y-81504503D01*
X143167250Y-81723327D01*
X136749443Y-81723327D01*
X136785371Y-81708482D01*
X136940238Y-81553885D01*
X137024154Y-81351792D01*
X137024345Y-81132968D01*
X136940782Y-80930729D01*
X136786185Y-80775862D01*
X136672202Y-80728532D01*
X138824735Y-80728532D01*
X138908298Y-80930771D01*
X139062895Y-81085638D01*
X139264988Y-81169554D01*
X139483812Y-81169745D01*
X139686051Y-81086182D01*
X139840918Y-80931585D01*
X139923488Y-80732732D01*
X146434535Y-80732732D01*
X146518098Y-80934971D01*
X146672695Y-81089838D01*
X146874788Y-81173754D01*
X147093612Y-81173945D01*
X147295851Y-81090382D01*
X147450718Y-80935785D01*
X147534634Y-80733692D01*
X147534825Y-80514868D01*
X147451262Y-80312629D01*
X147296665Y-80157762D01*
X147094572Y-80073846D01*
X146875748Y-80073655D01*
X146673509Y-80157218D01*
X146518642Y-80311815D01*
X146434726Y-80513908D01*
X146434535Y-80732732D01*
X139923488Y-80732732D01*
X139924834Y-80729492D01*
X139925025Y-80510668D01*
X139841462Y-80308429D01*
X139686865Y-80153562D01*
X139484772Y-80069646D01*
X139265948Y-80069455D01*
X139063709Y-80153018D01*
X138908842Y-80307615D01*
X138824926Y-80509708D01*
X138824735Y-80728532D01*
X136672202Y-80728532D01*
X136584092Y-80691946D01*
X136365268Y-80691755D01*
X136163029Y-80775318D01*
X136008162Y-80929915D01*
X135924246Y-81132008D01*
X135924055Y-81350832D01*
X134139482Y-81350832D01*
X133996661Y-81207762D01*
X133794568Y-81123846D01*
X133575744Y-81123655D01*
X133373505Y-81207218D01*
X133218638Y-81361815D01*
X133134722Y-81563908D01*
X133134531Y-81782732D01*
X123059400Y-81782732D01*
X123059400Y-79604900D01*
X124558321Y-79604900D01*
X124625079Y-79940513D01*
X124815188Y-80225033D01*
X125099708Y-80415142D01*
X125435321Y-80481900D01*
X125979479Y-80481900D01*
X126310215Y-80416112D01*
X130902475Y-80416112D01*
X130986038Y-80618351D01*
X131140635Y-80773218D01*
X131342728Y-80857134D01*
X131561552Y-80857325D01*
X131763791Y-80773762D01*
X131918658Y-80619165D01*
X132002574Y-80417072D01*
X132002765Y-80198248D01*
X131919202Y-79996009D01*
X131764605Y-79841142D01*
X131562512Y-79757226D01*
X131343688Y-79757035D01*
X131141449Y-79840598D01*
X130986582Y-79995195D01*
X130902666Y-80197288D01*
X130902475Y-80416112D01*
X126310215Y-80416112D01*
X126315092Y-80415142D01*
X126599612Y-80225033D01*
X126789721Y-79940513D01*
X126840997Y-79682732D01*
X132709535Y-79682732D01*
X132793098Y-79884971D01*
X132947695Y-80039838D01*
X133149788Y-80123754D01*
X133368612Y-80123945D01*
X133468355Y-80082732D01*
X136134535Y-80082732D01*
X136218098Y-80284971D01*
X136372695Y-80439838D01*
X136574788Y-80523754D01*
X136793612Y-80523945D01*
X136995851Y-80440382D01*
X137150718Y-80285785D01*
X137234634Y-80083692D01*
X137234825Y-79864868D01*
X137151262Y-79662629D01*
X136996665Y-79507762D01*
X136794572Y-79423846D01*
X136575748Y-79423655D01*
X136373509Y-79507218D01*
X136218642Y-79661815D01*
X136134726Y-79863908D01*
X136134535Y-80082732D01*
X133468355Y-80082732D01*
X133570851Y-80040382D01*
X133725718Y-79885785D01*
X133809634Y-79683692D01*
X133809825Y-79464868D01*
X133726262Y-79262629D01*
X133571665Y-79107762D01*
X133369572Y-79023846D01*
X133150748Y-79023655D01*
X132948509Y-79107218D01*
X132793642Y-79261815D01*
X132709726Y-79463908D01*
X132709535Y-79682732D01*
X126840997Y-79682732D01*
X126856479Y-79604900D01*
X126789721Y-79269287D01*
X126599612Y-78984767D01*
X126315092Y-78794658D01*
X125979479Y-78727900D01*
X125435321Y-78727900D01*
X125099708Y-78794658D01*
X124815188Y-78984767D01*
X124625079Y-79269287D01*
X124558321Y-79604900D01*
X123059400Y-79604900D01*
X123059400Y-78594932D01*
X138570735Y-78594932D01*
X138654298Y-78797171D01*
X138808895Y-78952038D01*
X139010988Y-79035954D01*
X139229812Y-79036145D01*
X139432051Y-78952582D01*
X139586918Y-78797985D01*
X139670834Y-78595892D01*
X139670998Y-78407732D01*
X144684531Y-78407732D01*
X144768094Y-78609971D01*
X144922691Y-78764838D01*
X145124784Y-78848754D01*
X145343608Y-78848945D01*
X145545847Y-78765382D01*
X145700714Y-78610785D01*
X145784630Y-78408692D01*
X145784821Y-78189868D01*
X145701258Y-77987629D01*
X145546661Y-77832762D01*
X145344568Y-77748846D01*
X145125744Y-77748655D01*
X144923505Y-77832218D01*
X144768638Y-77986815D01*
X144684722Y-78188908D01*
X144684531Y-78407732D01*
X139670998Y-78407732D01*
X139671025Y-78377068D01*
X139587462Y-78174829D01*
X139432865Y-78019962D01*
X139230772Y-77936046D01*
X139011948Y-77935855D01*
X138809709Y-78019418D01*
X138654842Y-78174015D01*
X138570926Y-78376108D01*
X138570735Y-78594932D01*
X123059400Y-78594932D01*
X123059400Y-77604900D01*
X124558321Y-77604900D01*
X124625079Y-77940513D01*
X124815188Y-78225033D01*
X125099708Y-78415142D01*
X125435321Y-78481900D01*
X125979479Y-78481900D01*
X126315092Y-78415142D01*
X126599612Y-78225033D01*
X126789721Y-77940513D01*
X126856479Y-77604900D01*
X126789721Y-77269287D01*
X126599612Y-76984767D01*
X126315092Y-76794658D01*
X125979479Y-76727900D01*
X125435321Y-76727900D01*
X125099708Y-76794658D01*
X124815188Y-76984767D01*
X124625079Y-77269287D01*
X124558321Y-77604900D01*
X123059400Y-77604900D01*
X123059400Y-73449669D01*
X133255135Y-73449669D01*
X133338698Y-73651908D01*
X133413796Y-73727137D01*
X133342741Y-73898256D01*
X133342550Y-74117080D01*
X133426113Y-74319319D01*
X133580710Y-74474186D01*
X133782803Y-74558102D01*
X134001627Y-74558293D01*
X134203866Y-74474730D01*
X134358733Y-74320133D01*
X134442649Y-74118040D01*
X134442840Y-73899216D01*
X134359277Y-73696977D01*
X134284179Y-73621748D01*
X134310760Y-73557732D01*
X137248223Y-73557732D01*
X137331786Y-73759971D01*
X137425126Y-73853474D01*
X137343625Y-73934832D01*
X137259709Y-74136925D01*
X137259518Y-74355749D01*
X137343081Y-74557988D01*
X137497678Y-74712855D01*
X137699771Y-74796771D01*
X137918595Y-74796962D01*
X138120834Y-74713399D01*
X138275701Y-74558802D01*
X138359617Y-74356709D01*
X138359808Y-74137885D01*
X138276245Y-73935646D01*
X138182905Y-73842143D01*
X138264406Y-73760785D01*
X138348322Y-73558692D01*
X138348513Y-73339868D01*
X138264950Y-73137629D01*
X138110353Y-72982762D01*
X137908260Y-72898846D01*
X137689436Y-72898655D01*
X137487197Y-72982218D01*
X137332330Y-73136815D01*
X137248414Y-73338908D01*
X137248223Y-73557732D01*
X134310760Y-73557732D01*
X134355234Y-73450629D01*
X134355425Y-73231805D01*
X134271862Y-73029566D01*
X134117265Y-72874699D01*
X133915172Y-72790783D01*
X133696348Y-72790592D01*
X133494109Y-72874155D01*
X133339242Y-73028752D01*
X133255326Y-73230845D01*
X133255135Y-73449669D01*
X123059400Y-73449669D01*
X123059400Y-70751412D01*
X131783855Y-70751412D01*
X131867418Y-70953651D01*
X132022015Y-71108518D01*
X132224108Y-71192434D01*
X132442932Y-71192625D01*
X132622249Y-71118533D01*
X132787988Y-71187354D01*
X133006812Y-71187545D01*
X133209051Y-71103982D01*
X133363918Y-70949385D01*
X133447834Y-70747292D01*
X133448025Y-70528468D01*
X133364462Y-70326229D01*
X133209865Y-70171362D01*
X133007772Y-70087446D01*
X132788948Y-70087255D01*
X132609631Y-70161347D01*
X132443892Y-70092526D01*
X132225068Y-70092335D01*
X132022829Y-70175898D01*
X131867962Y-70330495D01*
X131784046Y-70532588D01*
X131783855Y-70751412D01*
X123059400Y-70751412D01*
X123059400Y-69971632D01*
X125560855Y-69971632D01*
X125644418Y-70173871D01*
X125799015Y-70328738D01*
X126001108Y-70412654D01*
X126219932Y-70412845D01*
X126422171Y-70329282D01*
X126577038Y-70174685D01*
X126660954Y-69972592D01*
X126661145Y-69753768D01*
X126577582Y-69551529D01*
X126422985Y-69396662D01*
X126220892Y-69312746D01*
X126002068Y-69312555D01*
X125799829Y-69396118D01*
X125644962Y-69550715D01*
X125561046Y-69752808D01*
X125560855Y-69971632D01*
X123059400Y-69971632D01*
X123059400Y-68917532D01*
X129802655Y-68917532D01*
X129886218Y-69119771D01*
X130040815Y-69274638D01*
X130242908Y-69358554D01*
X130461732Y-69358745D01*
X130663971Y-69275182D01*
X130818838Y-69120585D01*
X130902754Y-68918492D01*
X130902945Y-68699668D01*
X130819382Y-68497429D01*
X130664785Y-68342562D01*
X130462692Y-68258646D01*
X130243868Y-68258455D01*
X130041629Y-68342018D01*
X129886762Y-68496615D01*
X129802846Y-68698708D01*
X129802655Y-68917532D01*
X123059400Y-68917532D01*
X123059400Y-67545932D01*
X128380255Y-67545932D01*
X128463818Y-67748171D01*
X128618415Y-67903038D01*
X128820508Y-67986954D01*
X129039332Y-67987145D01*
X129241571Y-67903582D01*
X129396438Y-67748985D01*
X129428017Y-67672932D01*
X132177555Y-67672932D01*
X132261118Y-67875171D01*
X132415715Y-68030038D01*
X132617808Y-68113954D01*
X132836632Y-68114145D01*
X133038871Y-68030582D01*
X133193738Y-67875985D01*
X133277654Y-67673892D01*
X133277845Y-67455068D01*
X133194282Y-67252829D01*
X133039685Y-67097962D01*
X132837592Y-67014046D01*
X132618768Y-67013855D01*
X132416529Y-67097418D01*
X132261662Y-67252015D01*
X132177746Y-67454108D01*
X132177555Y-67672932D01*
X129428017Y-67672932D01*
X129480354Y-67546892D01*
X129480545Y-67328068D01*
X129396982Y-67125829D01*
X129242385Y-66970962D01*
X129040292Y-66887046D01*
X128821468Y-66886855D01*
X128619229Y-66970418D01*
X128464362Y-67125015D01*
X128380446Y-67327108D01*
X128380255Y-67545932D01*
X123059400Y-67545932D01*
X123059400Y-66754900D01*
X135824974Y-66754900D01*
X135824974Y-68454900D01*
X135846472Y-68562980D01*
X135907695Y-68654605D01*
X135999320Y-68715828D01*
X136107400Y-68737326D01*
X137307400Y-68737326D01*
X137415480Y-68715828D01*
X137507105Y-68654605D01*
X137568328Y-68562980D01*
X137589826Y-68454900D01*
X137589826Y-67332821D01*
X137830400Y-67332821D01*
X137830400Y-67876979D01*
X137897158Y-68212592D01*
X138087267Y-68497112D01*
X138371787Y-68687221D01*
X138707400Y-68753979D01*
X139043013Y-68687221D01*
X139327533Y-68497112D01*
X139517642Y-68212592D01*
X139584400Y-67876979D01*
X139584400Y-67332821D01*
X139830400Y-67332821D01*
X139830400Y-67876979D01*
X139897158Y-68212592D01*
X140087267Y-68497112D01*
X140371787Y-68687221D01*
X140707400Y-68753979D01*
X141043013Y-68687221D01*
X141327533Y-68497112D01*
X141517642Y-68212592D01*
X141584400Y-67876979D01*
X141584400Y-67332821D01*
X141830400Y-67332821D01*
X141830400Y-67876979D01*
X141897158Y-68212592D01*
X142087267Y-68497112D01*
X142371787Y-68687221D01*
X142707400Y-68753979D01*
X143043013Y-68687221D01*
X143327533Y-68497112D01*
X143517642Y-68212592D01*
X143584400Y-67876979D01*
X143584400Y-67332821D01*
X143830400Y-67332821D01*
X143830400Y-67876979D01*
X143897158Y-68212592D01*
X144087267Y-68497112D01*
X144371787Y-68687221D01*
X144707400Y-68753979D01*
X145043013Y-68687221D01*
X145327533Y-68497112D01*
X145517642Y-68212592D01*
X145584400Y-67876979D01*
X145584400Y-67332821D01*
X145517642Y-66997208D01*
X145327533Y-66712688D01*
X145043013Y-66522579D01*
X144707400Y-66455821D01*
X144371787Y-66522579D01*
X144087267Y-66712688D01*
X143897158Y-66997208D01*
X143830400Y-67332821D01*
X143584400Y-67332821D01*
X143517642Y-66997208D01*
X143327533Y-66712688D01*
X143043013Y-66522579D01*
X142707400Y-66455821D01*
X142371787Y-66522579D01*
X142087267Y-66712688D01*
X141897158Y-66997208D01*
X141830400Y-67332821D01*
X141584400Y-67332821D01*
X141517642Y-66997208D01*
X141327533Y-66712688D01*
X141043013Y-66522579D01*
X140707400Y-66455821D01*
X140371787Y-66522579D01*
X140087267Y-66712688D01*
X139897158Y-66997208D01*
X139830400Y-67332821D01*
X139584400Y-67332821D01*
X139517642Y-66997208D01*
X139327533Y-66712688D01*
X139043013Y-66522579D01*
X138707400Y-66455821D01*
X138371787Y-66522579D01*
X138087267Y-66712688D01*
X137897158Y-66997208D01*
X137830400Y-67332821D01*
X137589826Y-67332821D01*
X137589826Y-66754900D01*
X137568328Y-66646820D01*
X137507105Y-66555195D01*
X137415480Y-66493972D01*
X137307400Y-66472474D01*
X136107400Y-66472474D01*
X135999320Y-66493972D01*
X135907695Y-66555195D01*
X135846472Y-66646820D01*
X135824974Y-66754900D01*
X123059400Y-66754900D01*
X123059400Y-66139567D01*
X123153157Y-65668219D01*
X123400518Y-65298018D01*
X123770719Y-65050657D01*
X124242067Y-64956900D01*
X148456558Y-64956900D01*
X148466806Y-81049819D01*
M02*
