G04 #@! TF.GenerationSoftware,KiCad,Pcbnew,(2017-08-25 revision dd37d0595)-makepkg*
G04 #@! TF.CreationDate,2018-04-16T21:33:21-04:00*
G04 #@! TF.ProjectId,VESC_6.4,564553435F362E342E6B696361645F70,rev?*
G04 #@! TF.SameCoordinates,Original*
G04 #@! TF.FileFunction,Copper,L2,Inr,Signal*
G04 #@! TF.FilePolarity,Positive*
%FSLAX46Y46*%
G04 Gerber Fmt 4.6, Leading zero omitted, Abs format (unit mm)*
G04 Created by KiCad (PCBNEW (2017-08-25 revision dd37d0595)-makepkg) date 04/16/18 21:33:21*
%MOMM*%
%LPD*%
G01*
G04 APERTURE LIST*
%ADD10C,0.546100*%
%ADD11O,1.200000X1.900000*%
%ADD12C,1.450000*%
%ADD13C,1.400000*%
%ADD14O,1.700000X1.200000*%
%ADD15R,1.700000X1.200000*%
%ADD16O,1.200000X1.700000*%
%ADD17R,1.200000X1.700000*%
%ADD18C,0.800000*%
%ADD19C,0.500000*%
%ADD20C,0.250000*%
%ADD21C,0.200000*%
G04 APERTURE END LIST*
D10*
X146084680Y-90723800D03*
X133507480Y-67335400D03*
X123631960Y-123667520D03*
X135234680Y-118795800D03*
X137698480Y-121081800D03*
X134066280Y-117119400D03*
X131119880Y-118033800D03*
X134142480Y-109626400D03*
X136453880Y-111125000D03*
X128960880Y-112826800D03*
X137342880Y-98247200D03*
X144429480Y-98450400D03*
X146436080Y-83642200D03*
X146410680Y-86334600D03*
X129443480Y-68605400D03*
X144734280Y-93522800D03*
X147579080Y-93929200D03*
X138562080Y-75311000D03*
X144480280Y-74574400D03*
X146664680Y-74523600D03*
X129189480Y-110210600D03*
X139171680Y-123875800D03*
X143286480Y-123926600D03*
X147909680Y-118798800D03*
X146309080Y-113741200D03*
X148137880Y-106781600D03*
X137241280Y-81051400D03*
X138257280Y-80314800D03*
X139908280Y-89103200D03*
X130637280Y-85267800D03*
X129951480Y-81762600D03*
X129265680Y-103733600D03*
X138358880Y-109575600D03*
X137703560Y-100965000D03*
X147899120Y-116423440D03*
X123344940Y-69979540D03*
X123743720Y-65628520D03*
X180298200Y-68001800D03*
X179598200Y-68001800D03*
X178898200Y-68001800D03*
X178198200Y-68001800D03*
X177498200Y-68001800D03*
X176798200Y-68001800D03*
X176098200Y-68001800D03*
X180298200Y-67301800D03*
X179598200Y-67301800D03*
X178898200Y-67301800D03*
X178198200Y-67301800D03*
X177498200Y-67301800D03*
X176798200Y-67301800D03*
X176098200Y-67301800D03*
X180298200Y-66601800D03*
X179598200Y-66601800D03*
X178898200Y-66601800D03*
X178198200Y-66601800D03*
X177498200Y-66601800D03*
X176798200Y-66601800D03*
X176098200Y-66601800D03*
X180298200Y-65901800D03*
X179598200Y-65901800D03*
X178898200Y-65901800D03*
X178198200Y-65901800D03*
X177498200Y-65901800D03*
X176798200Y-65901800D03*
X176098200Y-65901800D03*
X180298200Y-65201800D03*
X179598200Y-65201800D03*
X178898200Y-65201800D03*
X178198200Y-65201800D03*
X177498200Y-65201800D03*
X176798200Y-65201800D03*
X157336600Y-68022120D03*
X156636600Y-68022120D03*
X155936600Y-68022120D03*
X155236600Y-68022120D03*
X154536600Y-68022120D03*
X153836600Y-68022120D03*
X153136600Y-68022120D03*
X157336600Y-67322120D03*
X156636600Y-67322120D03*
X155936600Y-67322120D03*
X155236600Y-67322120D03*
X154536600Y-67322120D03*
X153836600Y-67322120D03*
X153136600Y-67322120D03*
X157336600Y-66622120D03*
X156636600Y-66622120D03*
X155936600Y-66622120D03*
X155236600Y-66622120D03*
X154536600Y-66622120D03*
X153836600Y-66622120D03*
X153136600Y-66622120D03*
X157336600Y-65922120D03*
X156636600Y-65922120D03*
X155936600Y-65922120D03*
X155236600Y-65922120D03*
X154536600Y-65922120D03*
X153836600Y-65922120D03*
X153136600Y-65922120D03*
X157336600Y-65222120D03*
X156636600Y-65222120D03*
X155936600Y-65222120D03*
X155236600Y-65222120D03*
X154536600Y-65222120D03*
X153836600Y-65222120D03*
X176098200Y-65201800D03*
X153136600Y-65222120D03*
X168804700Y-68039900D03*
X168104700Y-68039900D03*
X167404700Y-68039900D03*
X166704700Y-68039900D03*
X166004700Y-68039900D03*
X165304700Y-68039900D03*
X164604700Y-68039900D03*
X168804700Y-67339900D03*
X168104700Y-67339900D03*
X167404700Y-67339900D03*
X166704700Y-67339900D03*
X166004700Y-67339900D03*
X165304700Y-67339900D03*
X164604700Y-67339900D03*
X168804700Y-66639900D03*
X168104700Y-66639900D03*
X167404700Y-66639900D03*
X166704700Y-66639900D03*
X166004700Y-66639900D03*
X165304700Y-66639900D03*
X164604700Y-66639900D03*
X168804700Y-65939900D03*
X168104700Y-65939900D03*
X167404700Y-65939900D03*
X166704700Y-65939900D03*
X166004700Y-65939900D03*
X165304700Y-65939900D03*
X164604700Y-65939900D03*
X168804700Y-65239900D03*
X168104700Y-65239900D03*
X167404700Y-65239900D03*
X166704700Y-65239900D03*
X166004700Y-65239900D03*
X165304700Y-65239900D03*
X164604700Y-65239900D03*
X162005700Y-76767800D03*
X161305700Y-76067800D03*
X162005700Y-74667800D03*
X161305700Y-76767800D03*
X162005700Y-72567800D03*
X160605700Y-76067800D03*
X160605700Y-76767800D03*
X160605700Y-75367800D03*
X160605700Y-73967800D03*
X159905700Y-74667800D03*
X162005700Y-73967800D03*
X159905700Y-76067800D03*
X161305700Y-75367800D03*
X161305700Y-74667800D03*
X159905700Y-76767800D03*
X160605700Y-72567800D03*
X161305700Y-73267800D03*
X159905700Y-75367800D03*
X162005700Y-76067800D03*
X161305700Y-73967800D03*
X162005700Y-73267800D03*
X159905700Y-72567800D03*
X162005700Y-75367800D03*
X160605700Y-74667800D03*
X159905700Y-73967800D03*
X160605700Y-73267800D03*
X161305700Y-72567800D03*
X159905700Y-73267800D03*
X173511900Y-76793200D03*
X172811900Y-76793200D03*
X172111900Y-76793200D03*
X171411900Y-76793200D03*
X173511900Y-76093200D03*
X172811900Y-76093200D03*
X172111900Y-76093200D03*
X171411900Y-76093200D03*
X173511900Y-75393200D03*
X172811900Y-75393200D03*
X172111900Y-75393200D03*
X171411900Y-75393200D03*
X173511900Y-74693200D03*
X172811900Y-74693200D03*
X172111900Y-74693200D03*
X171411900Y-74693200D03*
X173511900Y-73993200D03*
X172811900Y-73993200D03*
X172111900Y-73993200D03*
X171411900Y-73993200D03*
X173511900Y-73293200D03*
X172811900Y-73293200D03*
X172111900Y-73293200D03*
X171411900Y-73293200D03*
X173511900Y-72593200D03*
X172811900Y-72593200D03*
X172111900Y-72593200D03*
X171411900Y-72593200D03*
X157349300Y-84154700D03*
X156649300Y-84154700D03*
X155949300Y-84154700D03*
X155249300Y-84154700D03*
X154549300Y-84154700D03*
X153849300Y-84154700D03*
X153149300Y-84154700D03*
X157349300Y-83454700D03*
X156649300Y-83454700D03*
X155949300Y-83454700D03*
X155249300Y-83454700D03*
X154549300Y-83454700D03*
X153849300Y-83454700D03*
X153149300Y-83454700D03*
X157349300Y-82754700D03*
X156649300Y-82754700D03*
X155949300Y-82754700D03*
X155249300Y-82754700D03*
X154549300Y-82754700D03*
X153849300Y-82754700D03*
X153149300Y-82754700D03*
X157349300Y-82054700D03*
X156649300Y-82054700D03*
X155949300Y-82054700D03*
X155249300Y-82054700D03*
X154549300Y-82054700D03*
X153849300Y-82054700D03*
X168868200Y-84167400D03*
X168168200Y-84167400D03*
X167468200Y-84167400D03*
X166768200Y-84167400D03*
X166068200Y-84167400D03*
X165368200Y-84167400D03*
X164668200Y-84167400D03*
X168868200Y-83467400D03*
X168168200Y-83467400D03*
X167468200Y-83467400D03*
X166768200Y-83467400D03*
X166068200Y-83467400D03*
X165368200Y-83467400D03*
X164668200Y-83467400D03*
X168868200Y-82767400D03*
X168168200Y-82767400D03*
X167468200Y-82767400D03*
X166768200Y-82767400D03*
X166068200Y-82767400D03*
X165368200Y-82767400D03*
X164668200Y-82767400D03*
X168868200Y-82067400D03*
X168168200Y-82067400D03*
X167468200Y-82067400D03*
X166768200Y-82067400D03*
X166068200Y-82067400D03*
X165368200Y-82067400D03*
X153149300Y-82054700D03*
X164668200Y-82067400D03*
X180310900Y-84154700D03*
X179610900Y-84154700D03*
X178910900Y-84154700D03*
X178210900Y-84154700D03*
X177510900Y-84154700D03*
X176810900Y-84154700D03*
X176110900Y-84154700D03*
X180310900Y-83454700D03*
X179610900Y-83454700D03*
X178910900Y-83454700D03*
X178210900Y-83454700D03*
X177510900Y-83454700D03*
X176810900Y-83454700D03*
X176110900Y-83454700D03*
X180310900Y-82754700D03*
X179610900Y-82754700D03*
X178910900Y-82754700D03*
X178210900Y-82754700D03*
X177510900Y-82754700D03*
X176810900Y-82754700D03*
X176110900Y-82754700D03*
X180310900Y-82054700D03*
X179610900Y-82054700D03*
X178910900Y-82054700D03*
X178210900Y-82054700D03*
X177510900Y-82054700D03*
X176810900Y-82054700D03*
X176110900Y-82054700D03*
D11*
X129372480Y-123182900D03*
X136372480Y-123182900D03*
D12*
X130372480Y-120482900D03*
X135372480Y-120482900D03*
D13*
X174957400Y-92504900D03*
X179957400Y-92504900D03*
X158457400Y-92504900D03*
X153457400Y-92504900D03*
D14*
X125707400Y-118116600D03*
D15*
X125707400Y-120116600D03*
D16*
X146707400Y-67604900D03*
X144707400Y-67604900D03*
X142707400Y-67604900D03*
X140707400Y-67604900D03*
X138707400Y-67604900D03*
D17*
X136707400Y-67604900D03*
D14*
X125707400Y-90104900D03*
X125707400Y-92104900D03*
X125707400Y-94104900D03*
X125707400Y-96104900D03*
X125707400Y-98104900D03*
X125707400Y-100104900D03*
X125707400Y-102104900D03*
D15*
X125707400Y-104104900D03*
D14*
X125707400Y-109104900D03*
X125707400Y-111104900D03*
D15*
X125707400Y-113104900D03*
D14*
X125707400Y-77604900D03*
X125707400Y-79604900D03*
X125707400Y-81604900D03*
X125707400Y-83604900D03*
D15*
X125707400Y-85604900D03*
D10*
X134859540Y-108546900D03*
X137900237Y-106663663D03*
X133454140Y-99271678D03*
X140715030Y-117583655D03*
X142886864Y-110374144D03*
X134919059Y-92791280D03*
X148036280Y-71958200D03*
X143017240Y-105879900D03*
X146044920Y-108780580D03*
X132435600Y-96296480D03*
X128285240Y-95295720D03*
X138798300Y-84874100D03*
X140096600Y-84874100D03*
X137500000Y-84874100D03*
X140096600Y-86374100D03*
X138798300Y-86374100D03*
X137500000Y-86374100D03*
X140096600Y-83374100D03*
X138798300Y-83374100D03*
X137500000Y-83374100D03*
X138798300Y-82074100D03*
X140096600Y-87674100D03*
X138798300Y-87674100D03*
X137500000Y-87674100D03*
X140096600Y-82074100D03*
X137500000Y-82074100D03*
X127952500Y-76238100D03*
X125120400Y-73431400D03*
X141389472Y-116925782D03*
X140505589Y-116041899D03*
X139621706Y-116925782D03*
X130898900Y-114312700D03*
X131145280Y-105709720D03*
X127563880Y-102782978D03*
X132727700Y-67564000D03*
X142326563Y-99457516D03*
X129284680Y-96348800D03*
X145846768Y-110598800D03*
X140133687Y-114725574D03*
X133259680Y-79573800D03*
X145234676Y-78298800D03*
X138003280Y-96032320D03*
X143717395Y-81614395D03*
X131869180Y-91025980D03*
X144782220Y-95275400D03*
X133258560Y-97114360D03*
X132735320Y-97109280D03*
X137698480Y-120192800D03*
X139120880Y-78486000D03*
X132407660Y-94701360D03*
X132440680Y-99004120D03*
X148221700Y-83299300D03*
X144475200Y-108270040D03*
X127817880Y-92552520D03*
X143824898Y-117531319D03*
X143116300Y-114757200D03*
X132110480Y-106908600D03*
X146989800Y-97713800D03*
X130352800Y-68808600D03*
X129324100Y-115798600D03*
X140975080Y-99458780D03*
X141653050Y-99438970D03*
X125277880Y-123494800D03*
X133380480Y-111099600D03*
X131452620Y-80307180D03*
X132781040Y-92547440D03*
X132897880Y-70637400D03*
X132334000Y-70642480D03*
X126111000Y-69862700D03*
X147576540Y-90921840D03*
X152511800Y-90271600D03*
X152511800Y-90766900D03*
X153111800Y-90766900D03*
X153711800Y-90766900D03*
X154311800Y-90766900D03*
X154911800Y-90766900D03*
X155511800Y-90766900D03*
X156111800Y-90766900D03*
X156711800Y-90766900D03*
X157311800Y-90766900D03*
X153111800Y-90271600D03*
X153711800Y-90271600D03*
X154311800Y-90271600D03*
X154911800Y-90271600D03*
X155511800Y-90271600D03*
X156111800Y-90271600D03*
X156711800Y-90271600D03*
X157311800Y-90271600D03*
X157911800Y-90271600D03*
X157911800Y-90766900D03*
X164030700Y-90271600D03*
X164630700Y-90271600D03*
X165230700Y-90271600D03*
X165830700Y-90271600D03*
X166430700Y-90271600D03*
X167030700Y-90271600D03*
X167630700Y-90271600D03*
X168230700Y-90271600D03*
X168830700Y-90271600D03*
X164030700Y-90766900D03*
X164630700Y-90766900D03*
X165230700Y-90766900D03*
X165830700Y-90766900D03*
X166430700Y-90766900D03*
X167030700Y-90766900D03*
X167630700Y-90766900D03*
X168230700Y-90766900D03*
X168830700Y-90766900D03*
X169430700Y-90271600D03*
X169430700Y-90766900D03*
X175522600Y-90271600D03*
X176122600Y-90271600D03*
X176722600Y-90271600D03*
X177322600Y-90271600D03*
X177922600Y-90271600D03*
X178522600Y-90271600D03*
X179122600Y-90271600D03*
X179722600Y-90271600D03*
X180322600Y-90271600D03*
X175522600Y-90766900D03*
X176122600Y-90766900D03*
X176722600Y-90766900D03*
X177322600Y-90766900D03*
X177922600Y-90766900D03*
X178522600Y-90766900D03*
X179122600Y-90766900D03*
X179722600Y-90766900D03*
X180322600Y-90766900D03*
X180922600Y-90766900D03*
X180922600Y-90271600D03*
X148635720Y-81575180D03*
X141414500Y-83121500D03*
X141459676Y-85698800D03*
X146400520Y-84460080D03*
X141579532Y-88124105D03*
X146375120Y-88132920D03*
X146984680Y-80623800D03*
X146627788Y-97137393D03*
X141557158Y-95840661D03*
X146080379Y-96745701D03*
X141058755Y-95378927D03*
X139374880Y-80619600D03*
X136684680Y-79973800D03*
X145407380Y-96733360D03*
X140528040Y-94869000D03*
X143873996Y-92295105D03*
X144842615Y-90432505D03*
X136740900Y-94404180D03*
X134858525Y-96164400D03*
X138769343Y-120204682D03*
X138509680Y-119548800D03*
D18*
X148082000Y-123964700D03*
D10*
X133692900Y-104000673D03*
X133692900Y-103327560D03*
X129440620Y-86842600D03*
X139243165Y-104029443D03*
X128928180Y-86354920D03*
X139013000Y-104671877D03*
X128428120Y-86827845D03*
X138243053Y-104026768D03*
X128930400Y-67437000D03*
X131609680Y-101273800D03*
X129301280Y-97282000D03*
X129832100Y-99529900D03*
X133409680Y-100827560D03*
X144851120Y-106273600D03*
X142151100Y-110367360D03*
X127939800Y-107251500D03*
X139710494Y-111078563D03*
X139134680Y-111548860D03*
X140970895Y-94173810D03*
X138611225Y-93422855D03*
X137458711Y-94219421D03*
X136526198Y-95755657D03*
X143725900Y-82664507D03*
X143753941Y-83714619D03*
X137809663Y-74246817D03*
X162636200Y-71272400D03*
X143759678Y-85148800D03*
X143776700Y-86223911D03*
X174251620Y-70759320D03*
X133892695Y-74008148D03*
X143734680Y-87648800D03*
X144741900Y-88773000D03*
X133809680Y-111773800D03*
X136943969Y-105718543D03*
X131686300Y-111988600D03*
X135384600Y-107950000D03*
X135984680Y-107548800D03*
X137398219Y-106215269D03*
X147367427Y-100086993D03*
X136474200Y-81241900D03*
X146975168Y-101826060D03*
X139273816Y-90067864D03*
X133843082Y-85624040D03*
X143758920Y-104795320D03*
X133695440Y-82626200D03*
X144454841Y-104854325D03*
X136245600Y-82428080D03*
X136267551Y-83113321D03*
X144905012Y-105354750D03*
X133510284Y-87348927D03*
X141523720Y-105872280D03*
X133709680Y-86698800D03*
X141428036Y-105026321D03*
X132742620Y-86959440D03*
X140508740Y-105562534D03*
X133684676Y-81673800D03*
X140027523Y-105091886D03*
X133465742Y-88084770D03*
X137133135Y-90567473D03*
X135241884Y-93879164D03*
X135739129Y-95095456D03*
X138984676Y-114673800D03*
X138747500Y-112242600D03*
X137798368Y-73448800D03*
X163195000Y-70815200D03*
X174363380Y-70007480D03*
X133805280Y-73340737D03*
X148117984Y-82625300D03*
X153606500Y-77000100D03*
X151711660Y-85222080D03*
X165341300Y-77012800D03*
X148844000Y-82905600D03*
X149539127Y-82959773D03*
X176733200Y-77000100D03*
X163565840Y-87533478D03*
X148041360Y-84637880D03*
X147859680Y-88598800D03*
X175783240Y-87858600D03*
D19*
X123329700Y-88074500D02*
X126042420Y-88074500D01*
X126042420Y-88074500D02*
X130515360Y-92547440D01*
X130515360Y-92547440D02*
X132462842Y-92547440D01*
X132462842Y-92547440D02*
X132781040Y-92547440D01*
D20*
X125277880Y-123494800D02*
X124959682Y-123494800D01*
X124959682Y-123494800D02*
X123195080Y-121730198D01*
X123195080Y-121730198D02*
X123195080Y-109032040D01*
X123195080Y-109032040D02*
X123329700Y-108897420D01*
D19*
X123329700Y-108897420D02*
X123329700Y-111099600D01*
X123329700Y-111099600D02*
X125404880Y-111099600D01*
X123329700Y-104114600D02*
X123329700Y-108897420D01*
D20*
X133380480Y-111099600D02*
X125712700Y-111099600D01*
X125712700Y-111099600D02*
X125707400Y-111104900D01*
D19*
X123329700Y-71247000D02*
X123329700Y-80606900D01*
X123329700Y-80606900D02*
X123329700Y-88074500D01*
D21*
X131452620Y-80307180D02*
X131134422Y-80307180D01*
X131134422Y-80307180D02*
X130834702Y-80606900D01*
X130834702Y-80606900D02*
X123329700Y-80606900D01*
D19*
X132015802Y-70642480D02*
X132334000Y-70642480D01*
X126154180Y-70642480D02*
X132015802Y-70642480D01*
X126111000Y-70599300D02*
X126154180Y-70642480D01*
X126111000Y-70599300D02*
X123977400Y-70599300D01*
X126111000Y-70599300D02*
X126111000Y-69862700D01*
X123329700Y-88074500D02*
X123329700Y-104114600D01*
X125707400Y-104104900D02*
X123339400Y-104104900D01*
X123339400Y-104104900D02*
X123329700Y-104114600D01*
X123977400Y-70599300D02*
X123329700Y-71247000D01*
D21*
X146673569Y-84187031D02*
X146400520Y-84460080D01*
X164180849Y-84654751D02*
X152059667Y-84654751D01*
X151542745Y-84137829D02*
X146722771Y-84137829D01*
X164668200Y-84167400D02*
X164180849Y-84654751D01*
X152059667Y-84654751D02*
X151542745Y-84137829D01*
X146722771Y-84137829D02*
X146673569Y-84187031D01*
X146648169Y-87859871D02*
X146375120Y-88132920D01*
X176110900Y-84154700D02*
X172132680Y-88132920D01*
X148133878Y-88132920D02*
X147860829Y-87859871D01*
X172132680Y-88132920D02*
X148133878Y-88132920D01*
X147860829Y-87859871D02*
X146648169Y-87859871D01*
X146627788Y-97137393D02*
X146627788Y-92924870D01*
X146627788Y-92924870D02*
X143098520Y-89395602D01*
X143098520Y-89395602D02*
X143098520Y-81259960D01*
X143098520Y-81259960D02*
X143734680Y-80623800D01*
X143734680Y-80623800D02*
X146598529Y-80623800D01*
X146598529Y-80623800D02*
X146984680Y-80623800D01*
X146080379Y-92844165D02*
X146080379Y-96359550D01*
X139374880Y-80619600D02*
X142303500Y-80619600D01*
X142303500Y-80619600D02*
X142659100Y-80975200D01*
X142659100Y-89422886D02*
X146080379Y-92844165D01*
X142659100Y-80975200D02*
X142659100Y-89422886D01*
X146080379Y-96359550D02*
X146080379Y-96745701D01*
X137070831Y-79973800D02*
X136684680Y-79973800D01*
X141604671Y-81119651D02*
X138216682Y-81119651D01*
X142308580Y-89539070D02*
X142308580Y-81823560D01*
X138216682Y-81119651D02*
X137070831Y-79973800D01*
X145407380Y-92637870D02*
X142308580Y-89539070D01*
X145407380Y-96733360D02*
X145407380Y-92637870D01*
X142308580Y-81823560D02*
X141604671Y-81119651D01*
X134364648Y-91766308D02*
X134364648Y-95918201D01*
X134364648Y-95918201D02*
X134358474Y-95924375D01*
X134358474Y-95924375D02*
X134358474Y-96398251D01*
X129440940Y-86842600D02*
X134364648Y-91766308D01*
X139243165Y-101282942D02*
X139243165Y-103643292D01*
X139243165Y-103643292D02*
X139243165Y-104029443D01*
X129440620Y-86842600D02*
X129440940Y-86842600D01*
X134358474Y-96398251D02*
X139243165Y-101282942D01*
X128928180Y-86741071D02*
X128928180Y-86354920D01*
X134037637Y-91901759D02*
X131000507Y-88864629D01*
X128928180Y-87948474D02*
X128928180Y-86741071D01*
X134031463Y-96539877D02*
X134031463Y-95788923D01*
X136794429Y-99302843D02*
X134031463Y-96539877D01*
X134031463Y-95788923D02*
X134037637Y-95782749D01*
X136794429Y-101838066D02*
X136794429Y-99302843D01*
X138743105Y-104401982D02*
X138743105Y-103786742D01*
X129844335Y-88864629D02*
X128928180Y-87948474D01*
X138743105Y-103786742D02*
X136794429Y-101838066D01*
X134037637Y-95782749D02*
X134037637Y-91901759D01*
X131000507Y-88864629D02*
X129844335Y-88864629D01*
X139013000Y-104671877D02*
X138743105Y-104401982D01*
X128428120Y-87213996D02*
X128428120Y-86827845D01*
X129707640Y-89194640D02*
X128428120Y-87915120D01*
X133704452Y-92031036D02*
X130868056Y-89194640D01*
X136464418Y-102248133D02*
X136464418Y-99506110D01*
X133704452Y-96746144D02*
X133704452Y-92031036D01*
X138243053Y-104026768D02*
X136464418Y-102248133D01*
X128428120Y-87915120D02*
X128428120Y-87213996D01*
X130868056Y-89194640D02*
X129707640Y-89194640D01*
X136464418Y-99506110D02*
X133704452Y-96746144D01*
D20*
X137902423Y-74246817D02*
X137809663Y-74246817D01*
X140876840Y-71272400D02*
X137902423Y-74246817D01*
X162636200Y-71272400D02*
X140876840Y-71272400D01*
X173509940Y-70017640D02*
X173978571Y-70486271D01*
X137883203Y-70017640D02*
X173509940Y-70017640D01*
X133892695Y-74008148D02*
X137883203Y-70017640D01*
X173978571Y-70486271D02*
X174251620Y-70759320D01*
D21*
X144282160Y-97001726D02*
X147094378Y-99813944D01*
X144282160Y-94336130D02*
X144282160Y-97001726D01*
X136879539Y-81647239D02*
X136879539Y-89000539D01*
X136926320Y-89047320D02*
X138993350Y-89047320D01*
X136474200Y-81241900D02*
X136879539Y-81647239D01*
X138993350Y-89047320D02*
X144282160Y-94336130D01*
X136879539Y-89000539D02*
X136926320Y-89047320D01*
X147094378Y-99813944D02*
X147367427Y-100086993D01*
X146702119Y-101553011D02*
X146975168Y-101826060D01*
X143723360Y-98574252D02*
X146702119Y-101553011D01*
X143723360Y-94517408D02*
X143723360Y-98574252D01*
X139273816Y-90067864D02*
X143723360Y-94517408D01*
X143758920Y-100182680D02*
X143758920Y-104409169D01*
X135315960Y-88837078D02*
X136526392Y-90047510D01*
X135315960Y-84246720D02*
X135315960Y-88837078D01*
X142179040Y-98602800D02*
X143758920Y-100182680D01*
X142179040Y-94635320D02*
X142179040Y-98602800D01*
X133695440Y-82626200D02*
X135315960Y-84246720D01*
X136526392Y-90047510D02*
X137591231Y-90047511D01*
X137591231Y-90047511D02*
X142179040Y-94635320D01*
X143758920Y-104409169D02*
X143758920Y-104795320D01*
X135732520Y-82941160D02*
X135732520Y-88786932D01*
X144454841Y-100324881D02*
X144454841Y-104468174D01*
X136663088Y-89717500D02*
X137738741Y-89717501D01*
X144454841Y-104468174D02*
X144454841Y-104854325D01*
X142793720Y-94772480D02*
X142793720Y-98663760D01*
X142793720Y-98663760D02*
X144454841Y-100324881D01*
X137738741Y-89717501D02*
X142793720Y-94772480D01*
X136245600Y-82428080D02*
X135732520Y-82941160D01*
X135732520Y-88786932D02*
X136663088Y-89717500D01*
X136799784Y-89387490D02*
X136267551Y-88855257D01*
X136267551Y-88855257D02*
X136267551Y-83499472D01*
X145178061Y-105081701D02*
X145178061Y-100528025D01*
X144905012Y-105354750D02*
X145178061Y-105081701D01*
X137886251Y-89387491D02*
X136799784Y-89387490D01*
X143195040Y-98545004D02*
X143195040Y-94696280D01*
X136267551Y-83499472D02*
X136267551Y-83113321D01*
X145178061Y-100528025D02*
X143195040Y-98545004D01*
X143195040Y-94696280D02*
X137886251Y-89387491D01*
X137290097Y-91394535D02*
X136757658Y-91394535D01*
X139608750Y-99842510D02*
X139608750Y-93713188D01*
X133783333Y-87621976D02*
X133510284Y-87348927D01*
X136757658Y-91394535D02*
X133965802Y-88602679D01*
X133965802Y-88602679D02*
X133965802Y-87804445D01*
X141523720Y-105872280D02*
X140911239Y-105259799D01*
X139608750Y-93713188D02*
X137290097Y-91394535D01*
X140911239Y-101144999D02*
X139608750Y-99842510D01*
X140911239Y-105259799D02*
X140911239Y-101144999D01*
X133965802Y-87804445D02*
X133783333Y-87621976D01*
X133982729Y-86971849D02*
X133709680Y-86698800D01*
X134879080Y-87868200D02*
X133982729Y-86971849D01*
X139938760Y-99486720D02*
X139938760Y-93375480D01*
X139938760Y-93375480D02*
X137630804Y-91067524D01*
X141428036Y-100975996D02*
X139938760Y-99486720D01*
X141428036Y-105026321D02*
X141428036Y-100975996D01*
X137630804Y-91067524D02*
X136893110Y-91067524D01*
X136893110Y-91067524D02*
X134879080Y-89053494D01*
X134879080Y-89053494D02*
X134879080Y-87868200D01*
X140536002Y-105535272D02*
X140508740Y-105562534D01*
X140536002Y-101440322D02*
X140536002Y-105535272D01*
X139110720Y-100015040D02*
X140536002Y-101440322D01*
X139110720Y-94662426D02*
X139110720Y-100015040D01*
X132742620Y-86959440D02*
X132742620Y-88294326D01*
X132742620Y-88294326D02*
X139110720Y-94662426D01*
X132242560Y-83115916D02*
X133411627Y-81946849D01*
X133411627Y-81946849D02*
X133684676Y-81673800D01*
X132242560Y-88256729D02*
X132242560Y-83115916D01*
X138775440Y-94789609D02*
X132242560Y-88256729D01*
X138775440Y-100146466D02*
X138775440Y-94789609D01*
X140027523Y-101398549D02*
X138775440Y-100146466D01*
X140027523Y-105091886D02*
X140027523Y-101398549D01*
D20*
X163195000Y-70815200D02*
X162921951Y-70542151D01*
X162921951Y-70542151D02*
X140705017Y-70542151D01*
X140705017Y-70542151D02*
X138071417Y-73175751D01*
X138071417Y-73175751D02*
X137798368Y-73448800D01*
X174090331Y-69734431D02*
X174363380Y-70007480D01*
X173889389Y-69533489D02*
X174090331Y-69734431D01*
X137612528Y-69533489D02*
X173889389Y-69533489D01*
X133805280Y-73340737D02*
X137612528Y-69533489D01*
X153606500Y-77000100D02*
X150283380Y-77000100D01*
X150283380Y-77000100D02*
X148107400Y-79176080D01*
X148107400Y-79176080D02*
X148107400Y-82614716D01*
X148107400Y-82614716D02*
X148117984Y-82625300D01*
X149117049Y-82632551D02*
X148844000Y-82905600D01*
X149160771Y-82588829D02*
X149117049Y-82632551D01*
X150075900Y-77838300D02*
X149160771Y-78753429D01*
X164515800Y-77838300D02*
X150075900Y-77838300D01*
X165341300Y-77012800D02*
X164515800Y-77838300D01*
X149160771Y-78753429D02*
X149160771Y-82588829D01*
X150546789Y-78218311D02*
X174587889Y-78218311D01*
X174587889Y-78218311D02*
X175806100Y-77000100D01*
X175806100Y-77000100D02*
X176733200Y-77000100D01*
X149580600Y-79184500D02*
X149580600Y-82918300D01*
X150546789Y-78218311D02*
X149580600Y-79184500D01*
X148041360Y-84637880D02*
X148041360Y-86299040D01*
X149275798Y-87533478D02*
X163247642Y-87533478D01*
X148041360Y-86299040D02*
X149275798Y-87533478D01*
X163247642Y-87533478D02*
X163565840Y-87533478D01*
X148245831Y-88598800D02*
X147859680Y-88598800D01*
X175043040Y-88598800D02*
X148245831Y-88598800D01*
X175783240Y-87858600D02*
X175043040Y-88598800D01*
D21*
G36*
X148492812Y-69108489D02*
X137612528Y-69108489D01*
X137449887Y-69140840D01*
X137312008Y-69232968D01*
X133777315Y-72767662D01*
X133691793Y-72767587D01*
X133481097Y-72854645D01*
X133319755Y-73015706D01*
X133232329Y-73226250D01*
X133232130Y-73454224D01*
X133319188Y-73664920D01*
X133386660Y-73732510D01*
X133319744Y-73893661D01*
X133319545Y-74121635D01*
X133406603Y-74332331D01*
X133567664Y-74493673D01*
X133778208Y-74581099D01*
X134006182Y-74581298D01*
X134216878Y-74494240D01*
X134378220Y-74333179D01*
X134465646Y-74122635D01*
X134465721Y-74036162D01*
X138059244Y-70442640D01*
X140203488Y-70442640D01*
X137770900Y-72875228D01*
X137770897Y-72875230D01*
X137770402Y-72875725D01*
X137684881Y-72875650D01*
X137474185Y-72962708D01*
X137312843Y-73123769D01*
X137225417Y-73334313D01*
X137225218Y-73562287D01*
X137312276Y-73772983D01*
X137392598Y-73853445D01*
X137324138Y-73921786D01*
X137236712Y-74132330D01*
X137236513Y-74360304D01*
X137323571Y-74571000D01*
X137484632Y-74732342D01*
X137695176Y-74819768D01*
X137923150Y-74819967D01*
X138133846Y-74732909D01*
X138178946Y-74687887D01*
X143907130Y-74687887D01*
X143994188Y-74898583D01*
X144155249Y-75059925D01*
X144365793Y-75147351D01*
X144593767Y-75147550D01*
X144804463Y-75060492D01*
X144965805Y-74899431D01*
X145053231Y-74688887D01*
X145053276Y-74637087D01*
X146091530Y-74637087D01*
X146178588Y-74847783D01*
X146339649Y-75009125D01*
X146550193Y-75096551D01*
X146778167Y-75096750D01*
X146988863Y-75009692D01*
X147150205Y-74848631D01*
X147237631Y-74638087D01*
X147237830Y-74410113D01*
X147150772Y-74199417D01*
X146989711Y-74038075D01*
X146779167Y-73950649D01*
X146551193Y-73950450D01*
X146340497Y-74037508D01*
X146179155Y-74198569D01*
X146091729Y-74409113D01*
X146091530Y-74637087D01*
X145053276Y-74637087D01*
X145053430Y-74460913D01*
X144966372Y-74250217D01*
X144805311Y-74088875D01*
X144594767Y-74001449D01*
X144366793Y-74001250D01*
X144156097Y-74088308D01*
X143994755Y-74249369D01*
X143907329Y-74459913D01*
X143907130Y-74687887D01*
X138178946Y-74687887D01*
X138295188Y-74571848D01*
X138378096Y-74372184D01*
X141052880Y-71697400D01*
X147524084Y-71697400D01*
X147463329Y-71843713D01*
X147463130Y-72071687D01*
X147550188Y-72282383D01*
X147711249Y-72443725D01*
X147921793Y-72531151D01*
X148149767Y-72531350D01*
X148360463Y-72444292D01*
X148494850Y-72310139D01*
X148498591Y-78183849D01*
X147806880Y-78875560D01*
X147714751Y-79013439D01*
X147714751Y-79013440D01*
X147682400Y-79176080D01*
X147682400Y-82250415D01*
X147632459Y-82300269D01*
X147545033Y-82510813D01*
X147544834Y-82738787D01*
X147631892Y-82949483D01*
X147792953Y-83110825D01*
X148003497Y-83198251D01*
X148231471Y-83198450D01*
X148328411Y-83158395D01*
X148357908Y-83229783D01*
X148501896Y-83374022D01*
X148502128Y-83737829D01*
X147009047Y-83737829D01*
X147009230Y-83528713D01*
X146922172Y-83318017D01*
X146761111Y-83156675D01*
X146550567Y-83069249D01*
X146322593Y-83069050D01*
X146111897Y-83156108D01*
X145950555Y-83317169D01*
X145863129Y-83527713D01*
X145862930Y-83755687D01*
X145949988Y-83966383D01*
X146016855Y-84033367D01*
X145914995Y-84135049D01*
X145827569Y-84345593D01*
X145827370Y-84573567D01*
X145914428Y-84784263D01*
X146075489Y-84945605D01*
X146286033Y-85033031D01*
X146514007Y-85033230D01*
X146724703Y-84946172D01*
X146886045Y-84785111D01*
X146973471Y-84574567D01*
X146973503Y-84537829D01*
X147468396Y-84537829D01*
X147468210Y-84751367D01*
X147555268Y-84962063D01*
X147616360Y-85023262D01*
X147616360Y-86299040D01*
X147633715Y-86386290D01*
X147648711Y-86461681D01*
X147740840Y-86599560D01*
X148504436Y-87363156D01*
X148504672Y-87732920D01*
X148299563Y-87732920D01*
X148143672Y-87577028D01*
X148013903Y-87490319D01*
X147860829Y-87459871D01*
X146648174Y-87459871D01*
X146648169Y-87459870D01*
X146495096Y-87490319D01*
X146390986Y-87559883D01*
X146261633Y-87559770D01*
X146050937Y-87646828D01*
X145889595Y-87807889D01*
X145802169Y-88018433D01*
X145801970Y-88246407D01*
X145889028Y-88457103D01*
X146050089Y-88618445D01*
X146260633Y-88705871D01*
X146488607Y-88706070D01*
X146699303Y-88619012D01*
X146860645Y-88457951D01*
X146942895Y-88259871D01*
X147388077Y-88259871D01*
X147374155Y-88273769D01*
X147286729Y-88484313D01*
X147286530Y-88712287D01*
X147373588Y-88922983D01*
X147534649Y-89084325D01*
X147745193Y-89171751D01*
X147973167Y-89171950D01*
X148183863Y-89084892D01*
X148245062Y-89023800D01*
X148505494Y-89023800D01*
X148508214Y-93295649D01*
X148442235Y-93339735D01*
X148360945Y-93461394D01*
X148332400Y-93604900D01*
X148332400Y-106241882D01*
X148252367Y-106208649D01*
X148024393Y-106208450D01*
X147813697Y-106295508D01*
X147652355Y-106456569D01*
X147564929Y-106667113D01*
X147564730Y-106895087D01*
X147651788Y-107105783D01*
X147812849Y-107267125D01*
X148023393Y-107354551D01*
X148251367Y-107354750D01*
X148332400Y-107321268D01*
X148332400Y-116046353D01*
X148224151Y-115937915D01*
X148013607Y-115850489D01*
X147785633Y-115850290D01*
X147574937Y-115937348D01*
X147413595Y-116098409D01*
X147326169Y-116308953D01*
X147325970Y-116536927D01*
X147413028Y-116747623D01*
X147574089Y-116908965D01*
X147784633Y-116996391D01*
X148012607Y-116996590D01*
X148223303Y-116909532D01*
X148332400Y-116800625D01*
X148332400Y-118411134D01*
X148234711Y-118313275D01*
X148024167Y-118225849D01*
X147796193Y-118225650D01*
X147585497Y-118312708D01*
X147424155Y-118473769D01*
X147336729Y-118684313D01*
X147336530Y-118912287D01*
X147423588Y-119122983D01*
X147584649Y-119284325D01*
X147795193Y-119371751D01*
X148023167Y-119371950D01*
X148233863Y-119284892D01*
X148332400Y-119186527D01*
X148332400Y-123310726D01*
X148221850Y-123264822D01*
X147943372Y-123264579D01*
X147686000Y-123370923D01*
X147488915Y-123567664D01*
X147382122Y-123824850D01*
X147381879Y-124103328D01*
X147434178Y-124229900D01*
X143781029Y-124229900D01*
X143859431Y-124041087D01*
X143859630Y-123813113D01*
X143772572Y-123602417D01*
X143611511Y-123441075D01*
X143400967Y-123353649D01*
X143172993Y-123353450D01*
X142962297Y-123440508D01*
X142800955Y-123601569D01*
X142713529Y-123812113D01*
X142713330Y-124040087D01*
X142791759Y-124229900D01*
X139628085Y-124229900D01*
X139657205Y-124200831D01*
X139744631Y-123990287D01*
X139744830Y-123762313D01*
X139657772Y-123551617D01*
X139496711Y-123390275D01*
X139286167Y-123302849D01*
X139058193Y-123302650D01*
X138847497Y-123389708D01*
X138686155Y-123550769D01*
X138598729Y-123761313D01*
X138598530Y-123989287D01*
X138685588Y-124199983D01*
X138715453Y-124229900D01*
X136954826Y-124229900D01*
X137008876Y-124193785D01*
X137203972Y-123901804D01*
X137272480Y-123557389D01*
X137272480Y-122808411D01*
X137203972Y-122463996D01*
X137008876Y-122172015D01*
X136716895Y-121976919D01*
X136372480Y-121908411D01*
X136028065Y-121976919D01*
X135736084Y-122172015D01*
X135540988Y-122463996D01*
X135472480Y-122808411D01*
X135472480Y-123557389D01*
X135540988Y-123901804D01*
X135736084Y-124193785D01*
X135790134Y-124229900D01*
X129954826Y-124229900D01*
X130008876Y-124193785D01*
X130203972Y-123901804D01*
X130272480Y-123557389D01*
X130272480Y-122808411D01*
X130203972Y-122463996D01*
X130008876Y-122172015D01*
X129716895Y-121976919D01*
X129372480Y-121908411D01*
X129028065Y-121976919D01*
X128736084Y-122172015D01*
X128540988Y-122463996D01*
X128472480Y-122808411D01*
X128472480Y-123557389D01*
X128540988Y-123901804D01*
X128736084Y-124193785D01*
X128790134Y-124229900D01*
X124244332Y-124229900D01*
X123925162Y-124166413D01*
X123956143Y-124153612D01*
X124117485Y-123992551D01*
X124204911Y-123782007D01*
X124205110Y-123554033D01*
X124118052Y-123343337D01*
X123956991Y-123181995D01*
X123746447Y-123094569D01*
X123518473Y-123094370D01*
X123307777Y-123181428D01*
X123146435Y-123342489D01*
X123140060Y-123357842D01*
X123082400Y-123067968D01*
X123082400Y-122218558D01*
X124659162Y-123795320D01*
X124797041Y-123887449D01*
X124824025Y-123892816D01*
X124875767Y-123903108D01*
X124952849Y-123980325D01*
X125163393Y-124067751D01*
X125391367Y-124067950D01*
X125602063Y-123980892D01*
X125763405Y-123819831D01*
X125850831Y-123609287D01*
X125851030Y-123381313D01*
X125763972Y-123170617D01*
X125602911Y-123009275D01*
X125392367Y-122921849D01*
X125164393Y-122921650D01*
X125039271Y-122973349D01*
X123620080Y-121554158D01*
X123620080Y-119516600D01*
X124551523Y-119516600D01*
X124551523Y-120716600D01*
X124574807Y-120833654D01*
X124641112Y-120932888D01*
X124740346Y-120999193D01*
X124857400Y-121022477D01*
X126557400Y-121022477D01*
X126674454Y-120999193D01*
X126773688Y-120932888D01*
X126839993Y-120833654D01*
X126863277Y-120716600D01*
X126863277Y-120685891D01*
X129347302Y-120685891D01*
X129503021Y-121062757D01*
X129791106Y-121351346D01*
X130167700Y-121507722D01*
X130575471Y-121508078D01*
X130952337Y-121352359D01*
X131240926Y-121064274D01*
X131397302Y-120687680D01*
X131397303Y-120685891D01*
X134347302Y-120685891D01*
X134503021Y-121062757D01*
X134791106Y-121351346D01*
X135167700Y-121507722D01*
X135575471Y-121508078D01*
X135952337Y-121352359D01*
X136109683Y-121195287D01*
X137125330Y-121195287D01*
X137212388Y-121405983D01*
X137373449Y-121567325D01*
X137583993Y-121654751D01*
X137811967Y-121654950D01*
X138022663Y-121567892D01*
X138184005Y-121406831D01*
X138271431Y-121196287D01*
X138271630Y-120968313D01*
X138184572Y-120757617D01*
X138023511Y-120596275D01*
X137812967Y-120508849D01*
X137584993Y-120508650D01*
X137374297Y-120595708D01*
X137212955Y-120756769D01*
X137125529Y-120967313D01*
X137125330Y-121195287D01*
X136109683Y-121195287D01*
X136240926Y-121064274D01*
X136397302Y-120687680D01*
X136397658Y-120279909D01*
X136241939Y-119903043D01*
X136001604Y-119662287D01*
X137936530Y-119662287D01*
X138023588Y-119872983D01*
X138184649Y-120034325D01*
X138214453Y-120046701D01*
X138196392Y-120090195D01*
X138196193Y-120318169D01*
X138283251Y-120528865D01*
X138444312Y-120690207D01*
X138654856Y-120777633D01*
X138882830Y-120777832D01*
X139093526Y-120690774D01*
X139254868Y-120529713D01*
X139342294Y-120319169D01*
X139342493Y-120091195D01*
X139255435Y-119880499D01*
X139094374Y-119719157D01*
X139064570Y-119706781D01*
X139082631Y-119663287D01*
X139082830Y-119435313D01*
X138995772Y-119224617D01*
X138834711Y-119063275D01*
X138624167Y-118975849D01*
X138396193Y-118975650D01*
X138185497Y-119062708D01*
X138024155Y-119223769D01*
X137936729Y-119434313D01*
X137936530Y-119662287D01*
X136001604Y-119662287D01*
X135953854Y-119614454D01*
X135577260Y-119458078D01*
X135169489Y-119457722D01*
X134792623Y-119613441D01*
X134504034Y-119901526D01*
X134347658Y-120278120D01*
X134347302Y-120685891D01*
X131397303Y-120685891D01*
X131397658Y-120279909D01*
X131241939Y-119903043D01*
X130953854Y-119614454D01*
X130577260Y-119458078D01*
X130169489Y-119457722D01*
X129792623Y-119613441D01*
X129504034Y-119901526D01*
X129347658Y-120278120D01*
X129347302Y-120685891D01*
X126863277Y-120685891D01*
X126863277Y-119516600D01*
X126839993Y-119399546D01*
X126773688Y-119300312D01*
X126674454Y-119234007D01*
X126557400Y-119210723D01*
X124857400Y-119210723D01*
X124740346Y-119234007D01*
X124641112Y-119300312D01*
X124574807Y-119399546D01*
X124551523Y-119516600D01*
X123620080Y-119516600D01*
X123620080Y-118116600D01*
X124534870Y-118116600D01*
X124603378Y-118461015D01*
X124798474Y-118752996D01*
X125090455Y-118948092D01*
X125434870Y-119016600D01*
X125979930Y-119016600D01*
X126324345Y-118948092D01*
X126382420Y-118909287D01*
X134661530Y-118909287D01*
X134748588Y-119119983D01*
X134909649Y-119281325D01*
X135120193Y-119368751D01*
X135348167Y-119368950D01*
X135558863Y-119281892D01*
X135720205Y-119120831D01*
X135807631Y-118910287D01*
X135807830Y-118682313D01*
X135720772Y-118471617D01*
X135559711Y-118310275D01*
X135349167Y-118222849D01*
X135121193Y-118222650D01*
X134910497Y-118309708D01*
X134749155Y-118470769D01*
X134661729Y-118681313D01*
X134661530Y-118909287D01*
X126382420Y-118909287D01*
X126616326Y-118752996D01*
X126811422Y-118461015D01*
X126873826Y-118147287D01*
X130546730Y-118147287D01*
X130633788Y-118357983D01*
X130794849Y-118519325D01*
X131005393Y-118606751D01*
X131233367Y-118606950D01*
X131444063Y-118519892D01*
X131605405Y-118358831D01*
X131692831Y-118148287D01*
X131693030Y-117920313D01*
X131605972Y-117709617D01*
X131593519Y-117697142D01*
X140141880Y-117697142D01*
X140228938Y-117907838D01*
X140389999Y-118069180D01*
X140600543Y-118156606D01*
X140828517Y-118156805D01*
X141039213Y-118069747D01*
X141200555Y-117908686D01*
X141287981Y-117698142D01*
X141288155Y-117498744D01*
X141502959Y-117498932D01*
X141713655Y-117411874D01*
X141874997Y-117250813D01*
X141962423Y-117040269D01*
X141962622Y-116812295D01*
X141875564Y-116601599D01*
X141714503Y-116440257D01*
X141503959Y-116352831D01*
X141275985Y-116352632D01*
X141065289Y-116439690D01*
X140903947Y-116600751D01*
X140816521Y-116811295D01*
X140816347Y-117010693D01*
X140601543Y-117010505D01*
X140390847Y-117097563D01*
X140229505Y-117258624D01*
X140142079Y-117469168D01*
X140141880Y-117697142D01*
X131593519Y-117697142D01*
X131444911Y-117548275D01*
X131234367Y-117460849D01*
X131006393Y-117460650D01*
X130795697Y-117547708D01*
X130634355Y-117708769D01*
X130546929Y-117919313D01*
X130546730Y-118147287D01*
X126873826Y-118147287D01*
X126879930Y-118116600D01*
X126811422Y-117772185D01*
X126616326Y-117480204D01*
X126324345Y-117285108D01*
X126061811Y-117232887D01*
X133493130Y-117232887D01*
X133580188Y-117443583D01*
X133741249Y-117604925D01*
X133951793Y-117692351D01*
X134179767Y-117692550D01*
X134390463Y-117605492D01*
X134551805Y-117444431D01*
X134639231Y-117233887D01*
X134639400Y-117039269D01*
X139048556Y-117039269D01*
X139135614Y-117249965D01*
X139296675Y-117411307D01*
X139507219Y-117498733D01*
X139735193Y-117498932D01*
X139945889Y-117411874D01*
X140107231Y-117250813D01*
X140194657Y-117040269D01*
X140194856Y-116812295D01*
X140107798Y-116601599D01*
X139946737Y-116440257D01*
X139736193Y-116352831D01*
X139508219Y-116352632D01*
X139297523Y-116439690D01*
X139136181Y-116600751D01*
X139048755Y-116811295D01*
X139048556Y-117039269D01*
X134639400Y-117039269D01*
X134639430Y-117005913D01*
X134552372Y-116795217D01*
X134391311Y-116633875D01*
X134180767Y-116546449D01*
X133952793Y-116546250D01*
X133742097Y-116633308D01*
X133580755Y-116794369D01*
X133493329Y-117004913D01*
X133493130Y-117232887D01*
X126061811Y-117232887D01*
X125979930Y-117216600D01*
X125434870Y-117216600D01*
X125090455Y-117285108D01*
X124798474Y-117480204D01*
X124603378Y-117772185D01*
X124534870Y-118116600D01*
X123620080Y-118116600D01*
X123620080Y-116155386D01*
X139932439Y-116155386D01*
X140019497Y-116366082D01*
X140180558Y-116527424D01*
X140391102Y-116614850D01*
X140619076Y-116615049D01*
X140829772Y-116527991D01*
X140991114Y-116366930D01*
X141078540Y-116156386D01*
X141078739Y-115928412D01*
X140991681Y-115717716D01*
X140830620Y-115556374D01*
X140620076Y-115468948D01*
X140392102Y-115468749D01*
X140181406Y-115555807D01*
X140020064Y-115716868D01*
X139932638Y-115927412D01*
X139932439Y-116155386D01*
X123620080Y-116155386D01*
X123620080Y-114426187D01*
X130325750Y-114426187D01*
X130412808Y-114636883D01*
X130573869Y-114798225D01*
X130784413Y-114885651D01*
X131012387Y-114885850D01*
X131223083Y-114798792D01*
X131234608Y-114787287D01*
X138411526Y-114787287D01*
X138498584Y-114997983D01*
X138659645Y-115159325D01*
X138870189Y-115246751D01*
X139098163Y-115246950D01*
X139308859Y-115159892D01*
X139470201Y-114998831D01*
X139557627Y-114788287D01*
X139557826Y-114560313D01*
X139470768Y-114349617D01*
X139309707Y-114188275D01*
X139099163Y-114100849D01*
X138871189Y-114100650D01*
X138660493Y-114187708D01*
X138499151Y-114348769D01*
X138411725Y-114559313D01*
X138411526Y-114787287D01*
X131234608Y-114787287D01*
X131384425Y-114637731D01*
X131471851Y-114427187D01*
X131472050Y-114199213D01*
X131384992Y-113988517D01*
X131251396Y-113854687D01*
X145735930Y-113854687D01*
X145822988Y-114065383D01*
X145984049Y-114226725D01*
X146194593Y-114314151D01*
X146422567Y-114314350D01*
X146633263Y-114227292D01*
X146794605Y-114066231D01*
X146882031Y-113855687D01*
X146882230Y-113627713D01*
X146795172Y-113417017D01*
X146634111Y-113255675D01*
X146423567Y-113168249D01*
X146195593Y-113168050D01*
X145984897Y-113255108D01*
X145823555Y-113416169D01*
X145736129Y-113626713D01*
X145735930Y-113854687D01*
X131251396Y-113854687D01*
X131223931Y-113827175D01*
X131013387Y-113739749D01*
X130785413Y-113739550D01*
X130574717Y-113826608D01*
X130413375Y-113987669D01*
X130325949Y-114198213D01*
X130325750Y-114426187D01*
X123620080Y-114426187D01*
X123620080Y-112504900D01*
X124551523Y-112504900D01*
X124551523Y-113704900D01*
X124574807Y-113821954D01*
X124641112Y-113921188D01*
X124740346Y-113987493D01*
X124857400Y-114010777D01*
X126557400Y-114010777D01*
X126674454Y-113987493D01*
X126773688Y-113921188D01*
X126839993Y-113821954D01*
X126863277Y-113704900D01*
X126863277Y-112940287D01*
X128387730Y-112940287D01*
X128474788Y-113150983D01*
X128635849Y-113312325D01*
X128846393Y-113399751D01*
X129074367Y-113399950D01*
X129285063Y-113312892D01*
X129446405Y-113151831D01*
X129533831Y-112941287D01*
X129534030Y-112713313D01*
X129446972Y-112502617D01*
X129285911Y-112341275D01*
X129075367Y-112253849D01*
X128847393Y-112253650D01*
X128636697Y-112340708D01*
X128475355Y-112501769D01*
X128387929Y-112712313D01*
X128387730Y-112940287D01*
X126863277Y-112940287D01*
X126863277Y-112504900D01*
X126839993Y-112387846D01*
X126773688Y-112288612D01*
X126674454Y-112222307D01*
X126557400Y-112199023D01*
X124857400Y-112199023D01*
X124740346Y-112222307D01*
X124641112Y-112288612D01*
X124574807Y-112387846D01*
X124551523Y-112504900D01*
X123620080Y-112504900D01*
X123620080Y-111649600D01*
X124737205Y-111649600D01*
X124798474Y-111741296D01*
X125090455Y-111936392D01*
X125434870Y-112004900D01*
X125979930Y-112004900D01*
X126324345Y-111936392D01*
X126616326Y-111741296D01*
X126761118Y-111524600D01*
X131339986Y-111524600D01*
X131200775Y-111663569D01*
X131113349Y-111874113D01*
X131113150Y-112102087D01*
X131200208Y-112312783D01*
X131361269Y-112474125D01*
X131571813Y-112561551D01*
X131799787Y-112561750D01*
X132010483Y-112474692D01*
X132129294Y-112356087D01*
X138174350Y-112356087D01*
X138261408Y-112566783D01*
X138422469Y-112728125D01*
X138633013Y-112815551D01*
X138860987Y-112815750D01*
X139071683Y-112728692D01*
X139233025Y-112567631D01*
X139320451Y-112357087D01*
X139320650Y-112129113D01*
X139307573Y-112097464D01*
X139458863Y-112034952D01*
X139620205Y-111873891D01*
X139707631Y-111663347D01*
X139707641Y-111651611D01*
X139823981Y-111651713D01*
X140034677Y-111564655D01*
X140196019Y-111403594D01*
X140283445Y-111193050D01*
X140283644Y-110965076D01*
X140196586Y-110754380D01*
X140035525Y-110593038D01*
X139824981Y-110505612D01*
X139597007Y-110505413D01*
X139386311Y-110592471D01*
X139224969Y-110753532D01*
X139137543Y-110964076D01*
X139137533Y-110975812D01*
X139021193Y-110975710D01*
X138810497Y-111062768D01*
X138649155Y-111223829D01*
X138561729Y-111434373D01*
X138561530Y-111662347D01*
X138574607Y-111693996D01*
X138423317Y-111756508D01*
X138261975Y-111917569D01*
X138174549Y-112128113D01*
X138174350Y-112356087D01*
X132129294Y-112356087D01*
X132171825Y-112313631D01*
X132259251Y-112103087D01*
X132259450Y-111875113D01*
X132172392Y-111664417D01*
X132032819Y-111524600D01*
X132995029Y-111524600D01*
X133055449Y-111585125D01*
X133236728Y-111660399D01*
X133236530Y-111887287D01*
X133323588Y-112097983D01*
X133484649Y-112259325D01*
X133695193Y-112346751D01*
X133923167Y-112346950D01*
X134133863Y-112259892D01*
X134295205Y-112098831D01*
X134382631Y-111888287D01*
X134382830Y-111660313D01*
X134295772Y-111449617D01*
X134134711Y-111288275D01*
X134014809Y-111238487D01*
X135880730Y-111238487D01*
X135967788Y-111449183D01*
X136128849Y-111610525D01*
X136339393Y-111697951D01*
X136567367Y-111698150D01*
X136778063Y-111611092D01*
X136939405Y-111450031D01*
X137026831Y-111239487D01*
X137027030Y-111011513D01*
X136939972Y-110800817D01*
X136778911Y-110639475D01*
X136568367Y-110552049D01*
X136340393Y-110551850D01*
X136129697Y-110638908D01*
X135968355Y-110799969D01*
X135880929Y-111010513D01*
X135880730Y-111238487D01*
X134014809Y-111238487D01*
X133953432Y-111213001D01*
X133953630Y-110986113D01*
X133866572Y-110775417D01*
X133705511Y-110614075D01*
X133494967Y-110526649D01*
X133266993Y-110526450D01*
X133056297Y-110613508D01*
X132995098Y-110674600D01*
X129535794Y-110674600D01*
X129675005Y-110535631D01*
X129697753Y-110480847D01*
X141577950Y-110480847D01*
X141665008Y-110691543D01*
X141826069Y-110852885D01*
X142036613Y-110940311D01*
X142264587Y-110940510D01*
X142475283Y-110853452D01*
X142515525Y-110813280D01*
X142561833Y-110859669D01*
X142772377Y-110947095D01*
X143000351Y-110947294D01*
X143211047Y-110860236D01*
X143372389Y-110699175D01*
X143459815Y-110488631D01*
X143460014Y-110260657D01*
X143372956Y-110049961D01*
X143211895Y-109888619D01*
X143001351Y-109801193D01*
X142773377Y-109800994D01*
X142562681Y-109888052D01*
X142522439Y-109928224D01*
X142476131Y-109881835D01*
X142265587Y-109794409D01*
X142037613Y-109794210D01*
X141826917Y-109881268D01*
X141665575Y-110042329D01*
X141578149Y-110252873D01*
X141577950Y-110480847D01*
X129697753Y-110480847D01*
X129762431Y-110325087D01*
X129762630Y-110097113D01*
X129675572Y-109886417D01*
X129529298Y-109739887D01*
X133569330Y-109739887D01*
X133656388Y-109950583D01*
X133817449Y-110111925D01*
X134027993Y-110199351D01*
X134255967Y-110199550D01*
X134466663Y-110112492D01*
X134628005Y-109951431D01*
X134715431Y-109740887D01*
X134715476Y-109689087D01*
X137785730Y-109689087D01*
X137872788Y-109899783D01*
X138033849Y-110061125D01*
X138244393Y-110148551D01*
X138472367Y-110148750D01*
X138683063Y-110061692D01*
X138844405Y-109900631D01*
X138931831Y-109690087D01*
X138932030Y-109462113D01*
X138844972Y-109251417D01*
X138683911Y-109090075D01*
X138473367Y-109002649D01*
X138245393Y-109002450D01*
X138034697Y-109089508D01*
X137873355Y-109250569D01*
X137785929Y-109461113D01*
X137785730Y-109689087D01*
X134715476Y-109689087D01*
X134715630Y-109512913D01*
X134628572Y-109302217D01*
X134467511Y-109140875D01*
X134256967Y-109053449D01*
X134028993Y-109053250D01*
X133818297Y-109140308D01*
X133656955Y-109301369D01*
X133569529Y-109511913D01*
X133569330Y-109739887D01*
X129529298Y-109739887D01*
X129514511Y-109725075D01*
X129303967Y-109637649D01*
X129075993Y-109637450D01*
X128865297Y-109724508D01*
X128703955Y-109885569D01*
X128616529Y-110096113D01*
X128616330Y-110324087D01*
X128703388Y-110534783D01*
X128842961Y-110674600D01*
X126754035Y-110674600D01*
X126616326Y-110468504D01*
X126324345Y-110273408D01*
X125979930Y-110204900D01*
X125434870Y-110204900D01*
X125090455Y-110273408D01*
X124798474Y-110468504D01*
X124744287Y-110549600D01*
X123879700Y-110549600D01*
X123879700Y-109104900D01*
X124534870Y-109104900D01*
X124603378Y-109449315D01*
X124798474Y-109741296D01*
X125090455Y-109936392D01*
X125434870Y-110004900D01*
X125979930Y-110004900D01*
X126324345Y-109936392D01*
X126616326Y-109741296D01*
X126811422Y-109449315D01*
X126879930Y-109104900D01*
X126811422Y-108760485D01*
X126744539Y-108660387D01*
X134286390Y-108660387D01*
X134373448Y-108871083D01*
X134534509Y-109032425D01*
X134745053Y-109119851D01*
X134973027Y-109120050D01*
X135183723Y-109032992D01*
X135322890Y-108894067D01*
X145471770Y-108894067D01*
X145558828Y-109104763D01*
X145719889Y-109266105D01*
X145930433Y-109353531D01*
X146158407Y-109353730D01*
X146369103Y-109266672D01*
X146530445Y-109105611D01*
X146617871Y-108895067D01*
X146618070Y-108667093D01*
X146531012Y-108456397D01*
X146369951Y-108295055D01*
X146159407Y-108207629D01*
X145931433Y-108207430D01*
X145720737Y-108294488D01*
X145559395Y-108455549D01*
X145471969Y-108666093D01*
X145471770Y-108894067D01*
X135322890Y-108894067D01*
X135345065Y-108871931D01*
X135432491Y-108661387D01*
X135432612Y-108523093D01*
X135498087Y-108523150D01*
X135708783Y-108436092D01*
X135870125Y-108275031D01*
X135933750Y-108121806D01*
X136098167Y-108121950D01*
X136308863Y-108034892D01*
X136470205Y-107873831D01*
X136557631Y-107663287D01*
X136557830Y-107435313D01*
X136470772Y-107224617D01*
X136309711Y-107063275D01*
X136099167Y-106975849D01*
X135871193Y-106975650D01*
X135660497Y-107062708D01*
X135499155Y-107223769D01*
X135435530Y-107376994D01*
X135271113Y-107376850D01*
X135060417Y-107463908D01*
X134899075Y-107624969D01*
X134811649Y-107835513D01*
X134811528Y-107973807D01*
X134746053Y-107973750D01*
X134535357Y-108060808D01*
X134374015Y-108221869D01*
X134286589Y-108432413D01*
X134286390Y-108660387D01*
X126744539Y-108660387D01*
X126616326Y-108468504D01*
X126324345Y-108273408D01*
X125979930Y-108204900D01*
X125434870Y-108204900D01*
X125090455Y-108273408D01*
X124798474Y-108468504D01*
X124603378Y-108760485D01*
X124534870Y-109104900D01*
X123879700Y-109104900D01*
X123879700Y-107364987D01*
X127366650Y-107364987D01*
X127453708Y-107575683D01*
X127614769Y-107737025D01*
X127825313Y-107824451D01*
X128053287Y-107824650D01*
X128263983Y-107737592D01*
X128425325Y-107576531D01*
X128512751Y-107365987D01*
X128512950Y-107138013D01*
X128425892Y-106927317D01*
X128264831Y-106765975D01*
X128054287Y-106678549D01*
X127826313Y-106678350D01*
X127615617Y-106765408D01*
X127454275Y-106926469D01*
X127366849Y-107137013D01*
X127366650Y-107364987D01*
X123879700Y-107364987D01*
X123879700Y-105823207D01*
X130572130Y-105823207D01*
X130659188Y-106033903D01*
X130820249Y-106195245D01*
X131030793Y-106282671D01*
X131258767Y-106282870D01*
X131469463Y-106195812D01*
X131630805Y-106034751D01*
X131714982Y-105832030D01*
X136370819Y-105832030D01*
X136457877Y-106042726D01*
X136618938Y-106204068D01*
X136825103Y-106289676D01*
X136825069Y-106328756D01*
X136912127Y-106539452D01*
X137073188Y-106700794D01*
X137283732Y-106788220D01*
X137331678Y-106788262D01*
X137414145Y-106987846D01*
X137575206Y-107149188D01*
X137785750Y-107236614D01*
X138013724Y-107236813D01*
X138224420Y-107149755D01*
X138385762Y-106988694D01*
X138473188Y-106778150D01*
X138473387Y-106550176D01*
X138386329Y-106339480D01*
X138225268Y-106178138D01*
X138014724Y-106090712D01*
X137966778Y-106090670D01*
X137884311Y-105891086D01*
X137723250Y-105729744D01*
X137517085Y-105644136D01*
X137517119Y-105605056D01*
X137430061Y-105394360D01*
X137269000Y-105233018D01*
X137058456Y-105145592D01*
X136830482Y-105145393D01*
X136619786Y-105232451D01*
X136458444Y-105393512D01*
X136371018Y-105604056D01*
X136370819Y-105832030D01*
X131714982Y-105832030D01*
X131718231Y-105824207D01*
X131718430Y-105596233D01*
X131631372Y-105385537D01*
X131470311Y-105224195D01*
X131259767Y-105136769D01*
X131031793Y-105136570D01*
X130821097Y-105223628D01*
X130659755Y-105384689D01*
X130572329Y-105595233D01*
X130572130Y-105823207D01*
X123879700Y-105823207D01*
X123879700Y-104654900D01*
X124551523Y-104654900D01*
X124551523Y-104704900D01*
X124574807Y-104821954D01*
X124641112Y-104921188D01*
X124740346Y-104987493D01*
X124857400Y-105010777D01*
X126557400Y-105010777D01*
X126674454Y-104987493D01*
X126773688Y-104921188D01*
X126839993Y-104821954D01*
X126863277Y-104704900D01*
X126863277Y-103847087D01*
X128692530Y-103847087D01*
X128779588Y-104057783D01*
X128940649Y-104219125D01*
X129151193Y-104306551D01*
X129379167Y-104306750D01*
X129589863Y-104219692D01*
X129751205Y-104058631D01*
X129838631Y-103848087D01*
X129838830Y-103620113D01*
X129764842Y-103441047D01*
X133119750Y-103441047D01*
X133206808Y-103651743D01*
X133219040Y-103663997D01*
X133207375Y-103675642D01*
X133119949Y-103886186D01*
X133119750Y-104114160D01*
X133206808Y-104324856D01*
X133367869Y-104486198D01*
X133578413Y-104573624D01*
X133806387Y-104573823D01*
X134017083Y-104486765D01*
X134178425Y-104325704D01*
X134265851Y-104115160D01*
X134266050Y-103887186D01*
X134178992Y-103676490D01*
X134166760Y-103664236D01*
X134178425Y-103652591D01*
X134265851Y-103442047D01*
X134266050Y-103214073D01*
X134178992Y-103003377D01*
X134017931Y-102842035D01*
X133807387Y-102754609D01*
X133579413Y-102754410D01*
X133368717Y-102841468D01*
X133207375Y-103002529D01*
X133119949Y-103213073D01*
X133119750Y-103441047D01*
X129764842Y-103441047D01*
X129751772Y-103409417D01*
X129590711Y-103248075D01*
X129380167Y-103160649D01*
X129152193Y-103160450D01*
X128941497Y-103247508D01*
X128780155Y-103408569D01*
X128692729Y-103619113D01*
X128692530Y-103847087D01*
X126863277Y-103847087D01*
X126863277Y-103504900D01*
X126839993Y-103387846D01*
X126773688Y-103288612D01*
X126674454Y-103222307D01*
X126557400Y-103199023D01*
X126478744Y-103199023D01*
X126509909Y-103190246D01*
X126883196Y-102896193D01*
X126990898Y-102704043D01*
X126990730Y-102896465D01*
X127077788Y-103107161D01*
X127238849Y-103268503D01*
X127449393Y-103355929D01*
X127677367Y-103356128D01*
X127888063Y-103269070D01*
X128049405Y-103108009D01*
X128136831Y-102897465D01*
X128137030Y-102669491D01*
X128049972Y-102458795D01*
X127888911Y-102297453D01*
X127678367Y-102210027D01*
X127450393Y-102209828D01*
X127239697Y-102296886D01*
X127107239Y-102429113D01*
X127002110Y-102258900D01*
X125861400Y-102258900D01*
X125861400Y-102278900D01*
X125553400Y-102278900D01*
X125553400Y-102258900D01*
X124412690Y-102258900D01*
X124298098Y-102444435D01*
X124299261Y-102481673D01*
X124531604Y-102896193D01*
X124904891Y-103190246D01*
X124936056Y-103199023D01*
X124857400Y-103199023D01*
X124740346Y-103222307D01*
X124641112Y-103288612D01*
X124574807Y-103387846D01*
X124551523Y-103504900D01*
X124551523Y-103554900D01*
X123879700Y-103554900D01*
X123879700Y-101765365D01*
X124298098Y-101765365D01*
X124412690Y-101950900D01*
X125553400Y-101950900D01*
X125553400Y-101930900D01*
X125861400Y-101930900D01*
X125861400Y-101950900D01*
X127002110Y-101950900D01*
X127116702Y-101765365D01*
X127115539Y-101728127D01*
X126924495Y-101387287D01*
X131036530Y-101387287D01*
X131123588Y-101597983D01*
X131284649Y-101759325D01*
X131495193Y-101846751D01*
X131723167Y-101846950D01*
X131933863Y-101759892D01*
X132095205Y-101598831D01*
X132182631Y-101388287D01*
X132182830Y-101160313D01*
X132095772Y-100949617D01*
X132087217Y-100941047D01*
X132836530Y-100941047D01*
X132923588Y-101151743D01*
X133084649Y-101313085D01*
X133295193Y-101400511D01*
X133523167Y-101400710D01*
X133733863Y-101313652D01*
X133895205Y-101152591D01*
X133982631Y-100942047D01*
X133982830Y-100714073D01*
X133895772Y-100503377D01*
X133734711Y-100342035D01*
X133524167Y-100254609D01*
X133296193Y-100254410D01*
X133085497Y-100341468D01*
X132924155Y-100502529D01*
X132836729Y-100713073D01*
X132836530Y-100941047D01*
X132087217Y-100941047D01*
X131934711Y-100788275D01*
X131724167Y-100700849D01*
X131496193Y-100700650D01*
X131285497Y-100787708D01*
X131124155Y-100948769D01*
X131036729Y-101159313D01*
X131036530Y-101387287D01*
X126924495Y-101387287D01*
X126883196Y-101313607D01*
X126509909Y-101019554D01*
X126260040Y-100949183D01*
X126324345Y-100936392D01*
X126616326Y-100741296D01*
X126811422Y-100449315D01*
X126879930Y-100104900D01*
X126811422Y-99760485D01*
X126733180Y-99643387D01*
X129258950Y-99643387D01*
X129346008Y-99854083D01*
X129507069Y-100015425D01*
X129717613Y-100102851D01*
X129945587Y-100103050D01*
X130156283Y-100015992D01*
X130317625Y-99854931D01*
X130405051Y-99644387D01*
X130405250Y-99416413D01*
X130392339Y-99385165D01*
X132880990Y-99385165D01*
X132968048Y-99595861D01*
X133129109Y-99757203D01*
X133339653Y-99844629D01*
X133567627Y-99844828D01*
X133778323Y-99757770D01*
X133939665Y-99596709D01*
X134027091Y-99386165D01*
X134027290Y-99158191D01*
X133940232Y-98947495D01*
X133779171Y-98786153D01*
X133568627Y-98698727D01*
X133340653Y-98698528D01*
X133129957Y-98785586D01*
X132968615Y-98946647D01*
X132881189Y-99157191D01*
X132880990Y-99385165D01*
X130392339Y-99385165D01*
X130318192Y-99205717D01*
X130157131Y-99044375D01*
X129946587Y-98956949D01*
X129718613Y-98956750D01*
X129507917Y-99043808D01*
X129346575Y-99204869D01*
X129259149Y-99415413D01*
X129258950Y-99643387D01*
X126733180Y-99643387D01*
X126616326Y-99468504D01*
X126324345Y-99273408D01*
X125979930Y-99204900D01*
X125434870Y-99204900D01*
X125090455Y-99273408D01*
X124798474Y-99468504D01*
X124603378Y-99760485D01*
X124534870Y-100104900D01*
X124603378Y-100449315D01*
X124798474Y-100741296D01*
X125090455Y-100936392D01*
X125154760Y-100949183D01*
X124904891Y-101019554D01*
X124531604Y-101313607D01*
X124299261Y-101728127D01*
X124298098Y-101765365D01*
X123879700Y-101765365D01*
X123879700Y-98104900D01*
X124534870Y-98104900D01*
X124603378Y-98449315D01*
X124798474Y-98741296D01*
X125090455Y-98936392D01*
X125434870Y-99004900D01*
X125979930Y-99004900D01*
X126324345Y-98936392D01*
X126616326Y-98741296D01*
X126811422Y-98449315D01*
X126879930Y-98104900D01*
X126811422Y-97760485D01*
X126616326Y-97468504D01*
X126507049Y-97395487D01*
X128728130Y-97395487D01*
X128815188Y-97606183D01*
X128976249Y-97767525D01*
X129186793Y-97854951D01*
X129414767Y-97855150D01*
X129625463Y-97768092D01*
X129786805Y-97607031D01*
X129874231Y-97396487D01*
X129874430Y-97168513D01*
X129787372Y-96957817D01*
X129626311Y-96796475D01*
X129415767Y-96709049D01*
X129187793Y-96708850D01*
X128977097Y-96795908D01*
X128815755Y-96956969D01*
X128728329Y-97167513D01*
X128728130Y-97395487D01*
X126507049Y-97395487D01*
X126324345Y-97273408D01*
X125979930Y-97204900D01*
X125434870Y-97204900D01*
X125090455Y-97273408D01*
X124798474Y-97468504D01*
X124603378Y-97760485D01*
X124534870Y-98104900D01*
X123879700Y-98104900D01*
X123879700Y-96104900D01*
X124534870Y-96104900D01*
X124603378Y-96449315D01*
X124798474Y-96741296D01*
X125090455Y-96936392D01*
X125434870Y-97004900D01*
X125979930Y-97004900D01*
X126324345Y-96936392D01*
X126616326Y-96741296D01*
X126811422Y-96449315D01*
X126819248Y-96409967D01*
X131862450Y-96409967D01*
X131949508Y-96620663D01*
X132110569Y-96782005D01*
X132321113Y-96869431D01*
X132549087Y-96869630D01*
X132759783Y-96782572D01*
X132921125Y-96621511D01*
X133008551Y-96410967D01*
X133008750Y-96182993D01*
X132921692Y-95972297D01*
X132760631Y-95810955D01*
X132550087Y-95723529D01*
X132322113Y-95723330D01*
X132111417Y-95810388D01*
X131950075Y-95971449D01*
X131862649Y-96181993D01*
X131862450Y-96409967D01*
X126819248Y-96409967D01*
X126879930Y-96104900D01*
X126811422Y-95760485D01*
X126616326Y-95468504D01*
X126527583Y-95409207D01*
X127712090Y-95409207D01*
X127799148Y-95619903D01*
X127960209Y-95781245D01*
X128170753Y-95868671D01*
X128398727Y-95868870D01*
X128609423Y-95781812D01*
X128770765Y-95620751D01*
X128858191Y-95410207D01*
X128858390Y-95182233D01*
X128771332Y-94971537D01*
X128610271Y-94810195D01*
X128399727Y-94722769D01*
X128171753Y-94722570D01*
X127961057Y-94809628D01*
X127799715Y-94970689D01*
X127712289Y-95181233D01*
X127712090Y-95409207D01*
X126527583Y-95409207D01*
X126324345Y-95273408D01*
X125979930Y-95204900D01*
X125434870Y-95204900D01*
X125090455Y-95273408D01*
X124798474Y-95468504D01*
X124603378Y-95760485D01*
X124534870Y-96104900D01*
X123879700Y-96104900D01*
X123879700Y-94104900D01*
X124534870Y-94104900D01*
X124603378Y-94449315D01*
X124798474Y-94741296D01*
X125090455Y-94936392D01*
X125434870Y-95004900D01*
X125979930Y-95004900D01*
X126324345Y-94936392D01*
X126616326Y-94741296D01*
X126811422Y-94449315D01*
X126879930Y-94104900D01*
X126811422Y-93760485D01*
X126616326Y-93468504D01*
X126324345Y-93273408D01*
X125979930Y-93204900D01*
X125434870Y-93204900D01*
X125090455Y-93273408D01*
X124798474Y-93468504D01*
X124603378Y-93760485D01*
X124534870Y-94104900D01*
X123879700Y-94104900D01*
X123879700Y-92104900D01*
X124534870Y-92104900D01*
X124603378Y-92449315D01*
X124798474Y-92741296D01*
X125090455Y-92936392D01*
X125434870Y-93004900D01*
X125979930Y-93004900D01*
X126324345Y-92936392D01*
X126616326Y-92741296D01*
X126811422Y-92449315D01*
X126879930Y-92104900D01*
X126811422Y-91760485D01*
X126616326Y-91468504D01*
X126324345Y-91273408D01*
X125979930Y-91204900D01*
X125434870Y-91204900D01*
X125090455Y-91273408D01*
X124798474Y-91468504D01*
X124603378Y-91760485D01*
X124534870Y-92104900D01*
X123879700Y-92104900D01*
X123879700Y-90104900D01*
X124534870Y-90104900D01*
X124603378Y-90449315D01*
X124798474Y-90741296D01*
X125090455Y-90936392D01*
X125434870Y-91004900D01*
X125979930Y-91004900D01*
X126324345Y-90936392D01*
X126616326Y-90741296D01*
X126811422Y-90449315D01*
X126879930Y-90104900D01*
X126811422Y-89760485D01*
X126616326Y-89468504D01*
X126324345Y-89273408D01*
X125979930Y-89204900D01*
X125434870Y-89204900D01*
X125090455Y-89273408D01*
X124798474Y-89468504D01*
X124603378Y-89760485D01*
X124534870Y-90104900D01*
X123879700Y-90104900D01*
X123879700Y-88624500D01*
X125814602Y-88624500D01*
X130126449Y-92936346D01*
X130126451Y-92936349D01*
X130304884Y-93055574D01*
X130515360Y-93097440D01*
X132611281Y-93097440D01*
X132666553Y-93120391D01*
X132894527Y-93120590D01*
X133105223Y-93033532D01*
X133266565Y-92872471D01*
X133304452Y-92781229D01*
X133304452Y-96746144D01*
X133334900Y-96899218D01*
X133421609Y-97028987D01*
X136064418Y-99671795D01*
X136064418Y-102248133D01*
X136094866Y-102401207D01*
X136181575Y-102530976D01*
X137670008Y-104019409D01*
X137669903Y-104140255D01*
X137756961Y-104350951D01*
X137918022Y-104512293D01*
X138128566Y-104599719D01*
X138356540Y-104599918D01*
X138393363Y-104584703D01*
X138439964Y-104654447D01*
X138439850Y-104785364D01*
X138526908Y-104996060D01*
X138687969Y-105157402D01*
X138898513Y-105244828D01*
X139126487Y-105245027D01*
X139337183Y-105157969D01*
X139454517Y-105040840D01*
X139454373Y-105205373D01*
X139541431Y-105416069D01*
X139702492Y-105577411D01*
X139913036Y-105664837D01*
X139935600Y-105664857D01*
X139935590Y-105676021D01*
X140022648Y-105886717D01*
X140183709Y-106048059D01*
X140394253Y-106135485D01*
X140622227Y-106135684D01*
X140832923Y-106048626D01*
X140950618Y-105931136D01*
X140950570Y-105985767D01*
X141037628Y-106196463D01*
X141198689Y-106357805D01*
X141409233Y-106445231D01*
X141637207Y-106445430D01*
X141847903Y-106358372D01*
X142009245Y-106197311D01*
X142093922Y-105993387D01*
X142444090Y-105993387D01*
X142531148Y-106204083D01*
X142692209Y-106365425D01*
X142902753Y-106452851D01*
X143130727Y-106453050D01*
X143341423Y-106365992D01*
X143502765Y-106204931D01*
X143590191Y-105994387D01*
X143590390Y-105766413D01*
X143503332Y-105555717D01*
X143342271Y-105394375D01*
X143131727Y-105306949D01*
X142903753Y-105306750D01*
X142693057Y-105393808D01*
X142531715Y-105554869D01*
X142444289Y-105765413D01*
X142444090Y-105993387D01*
X142093922Y-105993387D01*
X142096671Y-105986767D01*
X142096870Y-105758793D01*
X142009812Y-105548097D01*
X141863398Y-105401428D01*
X141913561Y-105351352D01*
X142000987Y-105140808D01*
X142001186Y-104912834D01*
X141914128Y-104702138D01*
X141828036Y-104615896D01*
X141828036Y-100975996D01*
X141797588Y-100822923D01*
X141710879Y-100693153D01*
X141710876Y-100693151D01*
X141049621Y-100031896D01*
X141088567Y-100031930D01*
X141299263Y-99944872D01*
X141323855Y-99920323D01*
X141328019Y-99924495D01*
X141538563Y-100011921D01*
X141766537Y-100012120D01*
X141977233Y-99925062D01*
X141980414Y-99921886D01*
X142001532Y-99943041D01*
X142212076Y-100030467D01*
X142440050Y-100030666D01*
X142650746Y-99943608D01*
X142802586Y-99792032D01*
X143358920Y-100348366D01*
X143358920Y-104384913D01*
X143273395Y-104470289D01*
X143185969Y-104680833D01*
X143185770Y-104908807D01*
X143272828Y-105119503D01*
X143433889Y-105280845D01*
X143644433Y-105368271D01*
X143872407Y-105368470D01*
X144074870Y-105284814D01*
X144129810Y-105339850D01*
X144331901Y-105423766D01*
X144331862Y-105468237D01*
X144418920Y-105678933D01*
X144527198Y-105787400D01*
X144526937Y-105787508D01*
X144365595Y-105948569D01*
X144278169Y-106159113D01*
X144277970Y-106387087D01*
X144365028Y-106597783D01*
X144526089Y-106759125D01*
X144736633Y-106846551D01*
X144964607Y-106846750D01*
X145175303Y-106759692D01*
X145336645Y-106598631D01*
X145424071Y-106388087D01*
X145424270Y-106160113D01*
X145337212Y-105949417D01*
X145228934Y-105840950D01*
X145229195Y-105840842D01*
X145390537Y-105679781D01*
X145477963Y-105469237D01*
X145478077Y-105338843D01*
X145547613Y-105234774D01*
X145558629Y-105179394D01*
X145578062Y-105081701D01*
X145578061Y-105081696D01*
X145578061Y-100994638D01*
X146402123Y-101818700D01*
X146402018Y-101939547D01*
X146489076Y-102150243D01*
X146650137Y-102311585D01*
X146860681Y-102399011D01*
X147088655Y-102399210D01*
X147299351Y-102312152D01*
X147460693Y-102151091D01*
X147548119Y-101940547D01*
X147548318Y-101712573D01*
X147461260Y-101501877D01*
X147300199Y-101340535D01*
X147089655Y-101253109D01*
X146967796Y-101253003D01*
X144681219Y-98966425D01*
X144753663Y-98936492D01*
X144915005Y-98775431D01*
X145002431Y-98564887D01*
X145002630Y-98336913D01*
X144968105Y-98253357D01*
X146794382Y-100079634D01*
X146794277Y-100200480D01*
X146881335Y-100411176D01*
X147042396Y-100572518D01*
X147252940Y-100659944D01*
X147480914Y-100660143D01*
X147691610Y-100573085D01*
X147852952Y-100412024D01*
X147940378Y-100201480D01*
X147940577Y-99973506D01*
X147853519Y-99762810D01*
X147692458Y-99601468D01*
X147481914Y-99514042D01*
X147360056Y-99513936D01*
X144682160Y-96836040D01*
X144682160Y-94336135D01*
X144682161Y-94336130D01*
X144651712Y-94183056D01*
X144583233Y-94080570D01*
X144619793Y-94095751D01*
X144847767Y-94095950D01*
X145007380Y-94029999D01*
X145007380Y-96322953D01*
X144921855Y-96408329D01*
X144834429Y-96618873D01*
X144834230Y-96846847D01*
X144921288Y-97057543D01*
X145082349Y-97218885D01*
X145292893Y-97306311D01*
X145520867Y-97306510D01*
X145731563Y-97219452D01*
X145737589Y-97213436D01*
X145755348Y-97231226D01*
X145965892Y-97318652D01*
X146082683Y-97318754D01*
X146141696Y-97461576D01*
X146302757Y-97622918D01*
X146513301Y-97710344D01*
X146741275Y-97710543D01*
X146951971Y-97623485D01*
X147113313Y-97462424D01*
X147200739Y-97251880D01*
X147200938Y-97023906D01*
X147113880Y-96813210D01*
X147027788Y-96726968D01*
X147027788Y-94095587D01*
X147092988Y-94253383D01*
X147254049Y-94414725D01*
X147464593Y-94502151D01*
X147692567Y-94502350D01*
X147903263Y-94415292D01*
X148064605Y-94254231D01*
X148152031Y-94043687D01*
X148152230Y-93815713D01*
X148065172Y-93605017D01*
X147904111Y-93443675D01*
X147693567Y-93356249D01*
X147465593Y-93356050D01*
X147254897Y-93443108D01*
X147093555Y-93604169D01*
X147027788Y-93762553D01*
X147027788Y-92924875D01*
X147027789Y-92924870D01*
X146997340Y-92771796D01*
X146934529Y-92677793D01*
X146910631Y-92642027D01*
X146910628Y-92642025D01*
X145177008Y-90908405D01*
X145248249Y-90837287D01*
X145511530Y-90837287D01*
X145598588Y-91047983D01*
X145759649Y-91209325D01*
X145970193Y-91296751D01*
X146198167Y-91296950D01*
X146408863Y-91209892D01*
X146570205Y-91048831D01*
X146575812Y-91035327D01*
X147003390Y-91035327D01*
X147090448Y-91246023D01*
X147251509Y-91407365D01*
X147462053Y-91494791D01*
X147690027Y-91494990D01*
X147900723Y-91407932D01*
X148062065Y-91246871D01*
X148149491Y-91036327D01*
X148149690Y-90808353D01*
X148062632Y-90597657D01*
X147901571Y-90436315D01*
X147691027Y-90348889D01*
X147463053Y-90348690D01*
X147252357Y-90435748D01*
X147091015Y-90596809D01*
X147003589Y-90807353D01*
X147003390Y-91035327D01*
X146575812Y-91035327D01*
X146657631Y-90838287D01*
X146657830Y-90610313D01*
X146570772Y-90399617D01*
X146409711Y-90238275D01*
X146199167Y-90150849D01*
X145971193Y-90150650D01*
X145760497Y-90237708D01*
X145599155Y-90398769D01*
X145511729Y-90609313D01*
X145511530Y-90837287D01*
X145248249Y-90837287D01*
X145328140Y-90757536D01*
X145415566Y-90546992D01*
X145415765Y-90319018D01*
X145328707Y-90108322D01*
X145167646Y-89946980D01*
X144957102Y-89859554D01*
X144729128Y-89859355D01*
X144518432Y-89946413D01*
X144366592Y-90097988D01*
X143498520Y-89229916D01*
X143498520Y-88886487D01*
X144168750Y-88886487D01*
X144255808Y-89097183D01*
X144416869Y-89258525D01*
X144627413Y-89345951D01*
X144855387Y-89346150D01*
X145066083Y-89259092D01*
X145227425Y-89098031D01*
X145314851Y-88887487D01*
X145315050Y-88659513D01*
X145227992Y-88448817D01*
X145066931Y-88287475D01*
X144856387Y-88200049D01*
X144628413Y-88199850D01*
X144417717Y-88286908D01*
X144256375Y-88447969D01*
X144168949Y-88658513D01*
X144168750Y-88886487D01*
X143498520Y-88886487D01*
X143498520Y-88171228D01*
X143620193Y-88221751D01*
X143848167Y-88221950D01*
X144058863Y-88134892D01*
X144220205Y-87973831D01*
X144307631Y-87763287D01*
X144307830Y-87535313D01*
X144220772Y-87324617D01*
X144059711Y-87163275D01*
X143849167Y-87075849D01*
X143621193Y-87075650D01*
X143498520Y-87126338D01*
X143498520Y-86728890D01*
X143662213Y-86796862D01*
X143890187Y-86797061D01*
X144100883Y-86710003D01*
X144262225Y-86548942D01*
X144304103Y-86448087D01*
X145837530Y-86448087D01*
X145924588Y-86658783D01*
X146085649Y-86820125D01*
X146296193Y-86907551D01*
X146524167Y-86907750D01*
X146734863Y-86820692D01*
X146896205Y-86659631D01*
X146983631Y-86449087D01*
X146983830Y-86221113D01*
X146896772Y-86010417D01*
X146735711Y-85849075D01*
X146525167Y-85761649D01*
X146297193Y-85761450D01*
X146086497Y-85848508D01*
X145925155Y-86009569D01*
X145837729Y-86220113D01*
X145837530Y-86448087D01*
X144304103Y-86448087D01*
X144349651Y-86338398D01*
X144349850Y-86110424D01*
X144262792Y-85899728D01*
X144101731Y-85738386D01*
X143967890Y-85682810D01*
X144083861Y-85634892D01*
X144245203Y-85473831D01*
X144332629Y-85263287D01*
X144332828Y-85035313D01*
X144245770Y-84824617D01*
X144084709Y-84663275D01*
X143874165Y-84575849D01*
X143646191Y-84575650D01*
X143498520Y-84636667D01*
X143498520Y-84229049D01*
X143639454Y-84287570D01*
X143867428Y-84287769D01*
X144078124Y-84200711D01*
X144239466Y-84039650D01*
X144326892Y-83829106D01*
X144327091Y-83601132D01*
X144240033Y-83390436D01*
X144078972Y-83229094D01*
X143969812Y-83183766D01*
X144050083Y-83150599D01*
X144211425Y-82989538D01*
X144298851Y-82778994D01*
X144299050Y-82551020D01*
X144211992Y-82340324D01*
X144050931Y-82178982D01*
X143840387Y-82091556D01*
X143612413Y-82091357D01*
X143498520Y-82138417D01*
X143498520Y-81425646D01*
X143900366Y-81023800D01*
X146574273Y-81023800D01*
X146659649Y-81109325D01*
X146870193Y-81196751D01*
X147098167Y-81196950D01*
X147308863Y-81109892D01*
X147470205Y-80948831D01*
X147557631Y-80738287D01*
X147557830Y-80510313D01*
X147470772Y-80299617D01*
X147309711Y-80138275D01*
X147099167Y-80050849D01*
X146871193Y-80050650D01*
X146660497Y-80137708D01*
X146574255Y-80223800D01*
X143734680Y-80223800D01*
X143581606Y-80254248D01*
X143451837Y-80340957D01*
X143005427Y-80787367D01*
X142941943Y-80692357D01*
X142941940Y-80692355D01*
X142586343Y-80336757D01*
X142456574Y-80250048D01*
X142303500Y-80219600D01*
X139785287Y-80219600D01*
X139699911Y-80134075D01*
X139489367Y-80046649D01*
X139261393Y-80046450D01*
X139050697Y-80133508D01*
X138889355Y-80294569D01*
X138801929Y-80505113D01*
X138801742Y-80719651D01*
X138662846Y-80719651D01*
X138742805Y-80639831D01*
X138830231Y-80429287D01*
X138830430Y-80201313D01*
X138743372Y-79990617D01*
X138582311Y-79829275D01*
X138371767Y-79741849D01*
X138143793Y-79741650D01*
X137933097Y-79828708D01*
X137771755Y-79989769D01*
X137736761Y-80074044D01*
X137353674Y-79690957D01*
X137223905Y-79604248D01*
X137101097Y-79579820D01*
X137009711Y-79488275D01*
X136799167Y-79400849D01*
X136571193Y-79400650D01*
X136360497Y-79487708D01*
X136199155Y-79648769D01*
X136111729Y-79859313D01*
X136111530Y-80087287D01*
X136198588Y-80297983D01*
X136359649Y-80459325D01*
X136570193Y-80546751D01*
X136798167Y-80546950D01*
X136996391Y-80465046D01*
X137044154Y-80512809D01*
X136917097Y-80565308D01*
X136755755Y-80726369D01*
X136751522Y-80736564D01*
X136588687Y-80668949D01*
X136360713Y-80668750D01*
X136150017Y-80755808D01*
X135988675Y-80916869D01*
X135901249Y-81127413D01*
X135901050Y-81355387D01*
X135988108Y-81566083D01*
X136149169Y-81727425D01*
X136359713Y-81814851D01*
X136479539Y-81814956D01*
X136479539Y-81904730D01*
X136360087Y-81855129D01*
X136132113Y-81854930D01*
X135921417Y-81941988D01*
X135760075Y-82103049D01*
X135672649Y-82313593D01*
X135672543Y-82435452D01*
X135449677Y-82658317D01*
X135362968Y-82788086D01*
X135342980Y-82888575D01*
X135332520Y-82941160D01*
X135332520Y-83697595D01*
X134268485Y-82633559D01*
X134268590Y-82512713D01*
X134181532Y-82302017D01*
X134024284Y-82144494D01*
X134170201Y-81998831D01*
X134257627Y-81788287D01*
X134257826Y-81560313D01*
X134170768Y-81349617D01*
X134009707Y-81188275D01*
X133799163Y-81100849D01*
X133571189Y-81100650D01*
X133360493Y-81187708D01*
X133199151Y-81348769D01*
X133111725Y-81559313D01*
X133111619Y-81681172D01*
X131959717Y-82833073D01*
X131873008Y-82962842D01*
X131857717Y-83039716D01*
X131842560Y-83115916D01*
X131842560Y-88256729D01*
X131873008Y-88409803D01*
X131959717Y-88539572D01*
X137147935Y-93727789D01*
X137134528Y-93733329D01*
X136983265Y-93884329D01*
X136855387Y-93831229D01*
X136627413Y-93831030D01*
X136416717Y-93918088D01*
X136255375Y-94079149D01*
X136167949Y-94289693D01*
X136167750Y-94517667D01*
X136254808Y-94728363D01*
X136415869Y-94889705D01*
X136626413Y-94977131D01*
X136854387Y-94977330D01*
X137065083Y-94890272D01*
X137216346Y-94739272D01*
X137344224Y-94792372D01*
X137572198Y-94792571D01*
X137782894Y-94705513D01*
X137944236Y-94544452D01*
X137950210Y-94530064D01*
X138375440Y-94955294D01*
X138375440Y-99849531D01*
X137346163Y-98820254D01*
X137456367Y-98820350D01*
X137667063Y-98733292D01*
X137828405Y-98572231D01*
X137915831Y-98361687D01*
X137916030Y-98133713D01*
X137828972Y-97923017D01*
X137667911Y-97761675D01*
X137457367Y-97674249D01*
X137229393Y-97674050D01*
X137018697Y-97761108D01*
X136857355Y-97922169D01*
X136769929Y-98132713D01*
X136769832Y-98243923D01*
X135178245Y-96652336D01*
X135182708Y-96650492D01*
X135344050Y-96489431D01*
X135431476Y-96278887D01*
X135431675Y-96050913D01*
X135344617Y-95840217D01*
X135183556Y-95678875D01*
X134973012Y-95591449D01*
X134764648Y-95591267D01*
X134764648Y-95208943D01*
X135165979Y-95208943D01*
X135253037Y-95419639D01*
X135414098Y-95580981D01*
X135624642Y-95668407D01*
X135852616Y-95668606D01*
X135960336Y-95624097D01*
X135953247Y-95641170D01*
X135953048Y-95869144D01*
X136040106Y-96079840D01*
X136201167Y-96241182D01*
X136411711Y-96328608D01*
X136639685Y-96328807D01*
X136850381Y-96241749D01*
X137011723Y-96080688D01*
X137099149Y-95870144D01*
X137099348Y-95642170D01*
X137012290Y-95431474D01*
X136851229Y-95270132D01*
X136640685Y-95182706D01*
X136412711Y-95182507D01*
X136304991Y-95227016D01*
X136312080Y-95209943D01*
X136312279Y-94981969D01*
X136225221Y-94771273D01*
X136064160Y-94609931D01*
X135853616Y-94522505D01*
X135625642Y-94522306D01*
X135414946Y-94609364D01*
X135253604Y-94770425D01*
X135166178Y-94980969D01*
X135165979Y-95208943D01*
X134764648Y-95208943D01*
X134764648Y-94212218D01*
X134916853Y-94364689D01*
X135127397Y-94452115D01*
X135355371Y-94452314D01*
X135566067Y-94365256D01*
X135727409Y-94204195D01*
X135814835Y-93993651D01*
X135815034Y-93765677D01*
X135727976Y-93554981D01*
X135566915Y-93393639D01*
X135356371Y-93306213D01*
X135173827Y-93306054D01*
X135243242Y-93277372D01*
X135404584Y-93116311D01*
X135492010Y-92905767D01*
X135492209Y-92677793D01*
X135405151Y-92467097D01*
X135244090Y-92305755D01*
X135033546Y-92218329D01*
X134805572Y-92218130D01*
X134764648Y-92235039D01*
X134764648Y-91766313D01*
X134764649Y-91766308D01*
X134734200Y-91613234D01*
X134680059Y-91532207D01*
X134647491Y-91483465D01*
X134647488Y-91483463D01*
X130013665Y-86849639D01*
X130013770Y-86729113D01*
X129926712Y-86518417D01*
X129765651Y-86357075D01*
X129555107Y-86269649D01*
X129501305Y-86269602D01*
X129501330Y-86241433D01*
X129414272Y-86030737D01*
X129253211Y-85869395D01*
X129042667Y-85781969D01*
X128814693Y-85781770D01*
X128603997Y-85868828D01*
X128442655Y-86029889D01*
X128355229Y-86240433D01*
X128355217Y-86254730D01*
X128314633Y-86254695D01*
X128103937Y-86341753D01*
X127942595Y-86502814D01*
X127855169Y-86713358D01*
X127854970Y-86941332D01*
X127942028Y-87152028D01*
X128028120Y-87238270D01*
X128028120Y-87915120D01*
X128058568Y-88068194D01*
X128145277Y-88197963D01*
X129424795Y-89477480D01*
X129424797Y-89477483D01*
X129531344Y-89548675D01*
X129554567Y-89564192D01*
X129707640Y-89594641D01*
X129707645Y-89594640D01*
X130702370Y-89594640D01*
X133304452Y-92196721D01*
X133304452Y-92313578D01*
X133267132Y-92223257D01*
X133106071Y-92061915D01*
X132895527Y-91974489D01*
X132667553Y-91974290D01*
X132611526Y-91997440D01*
X130743177Y-91997440D01*
X126431329Y-87685591D01*
X126252896Y-87566366D01*
X126042420Y-87524500D01*
X123879700Y-87524500D01*
X123879700Y-85004900D01*
X124551523Y-85004900D01*
X124551523Y-86204900D01*
X124574807Y-86321954D01*
X124641112Y-86421188D01*
X124740346Y-86487493D01*
X124857400Y-86510777D01*
X126557400Y-86510777D01*
X126674454Y-86487493D01*
X126773688Y-86421188D01*
X126839993Y-86321954D01*
X126863277Y-86204900D01*
X126863277Y-85381287D01*
X130064130Y-85381287D01*
X130151188Y-85591983D01*
X130312249Y-85753325D01*
X130522793Y-85840751D01*
X130750767Y-85840950D01*
X130961463Y-85753892D01*
X131122805Y-85592831D01*
X131210231Y-85382287D01*
X131210430Y-85154313D01*
X131123372Y-84943617D01*
X130962311Y-84782275D01*
X130751767Y-84694849D01*
X130523793Y-84694650D01*
X130313097Y-84781708D01*
X130151755Y-84942769D01*
X130064329Y-85153313D01*
X130064130Y-85381287D01*
X126863277Y-85381287D01*
X126863277Y-85004900D01*
X126839993Y-84887846D01*
X126773688Y-84788612D01*
X126674454Y-84722307D01*
X126557400Y-84699023D01*
X124857400Y-84699023D01*
X124740346Y-84722307D01*
X124641112Y-84788612D01*
X124574807Y-84887846D01*
X124551523Y-85004900D01*
X123879700Y-85004900D01*
X123879700Y-83604900D01*
X124534870Y-83604900D01*
X124603378Y-83949315D01*
X124798474Y-84241296D01*
X125090455Y-84436392D01*
X125434870Y-84504900D01*
X125979930Y-84504900D01*
X126324345Y-84436392D01*
X126616326Y-84241296D01*
X126811422Y-83949315D01*
X126879930Y-83604900D01*
X126811422Y-83260485D01*
X126616326Y-82968504D01*
X126324345Y-82773408D01*
X125979930Y-82704900D01*
X125434870Y-82704900D01*
X125090455Y-82773408D01*
X124798474Y-82968504D01*
X124603378Y-83260485D01*
X124534870Y-83604900D01*
X123879700Y-83604900D01*
X123879700Y-81006900D01*
X124772819Y-81006900D01*
X124603378Y-81260485D01*
X124534870Y-81604900D01*
X124603378Y-81949315D01*
X124798474Y-82241296D01*
X125090455Y-82436392D01*
X125434870Y-82504900D01*
X125979930Y-82504900D01*
X126324345Y-82436392D01*
X126616326Y-82241296D01*
X126811422Y-81949315D01*
X126825987Y-81876087D01*
X129378330Y-81876087D01*
X129465388Y-82086783D01*
X129626449Y-82248125D01*
X129836993Y-82335551D01*
X130064967Y-82335750D01*
X130275663Y-82248692D01*
X130437005Y-82087631D01*
X130524431Y-81877087D01*
X130524630Y-81649113D01*
X130437572Y-81438417D01*
X130276511Y-81277075D01*
X130065967Y-81189649D01*
X129837993Y-81189450D01*
X129627297Y-81276508D01*
X129465955Y-81437569D01*
X129378529Y-81648113D01*
X129378330Y-81876087D01*
X126825987Y-81876087D01*
X126879930Y-81604900D01*
X126811422Y-81260485D01*
X126641981Y-81006900D01*
X130834702Y-81006900D01*
X130987776Y-80976452D01*
X131117545Y-80889743D01*
X131189058Y-80818230D01*
X131338133Y-80880131D01*
X131566107Y-80880330D01*
X131776803Y-80793272D01*
X131938145Y-80632211D01*
X132025571Y-80421667D01*
X132025770Y-80193693D01*
X131938712Y-79982997D01*
X131777651Y-79821655D01*
X131567107Y-79734229D01*
X131339133Y-79734030D01*
X131128437Y-79821088D01*
X131019245Y-79930090D01*
X130981348Y-79937628D01*
X130851579Y-80024337D01*
X130669016Y-80206900D01*
X126639309Y-80206900D01*
X126811422Y-79949315D01*
X126879930Y-79604900D01*
X126811422Y-79260485D01*
X126616326Y-78968504D01*
X126324345Y-78773408D01*
X126260040Y-78760617D01*
X126509909Y-78690246D01*
X126883196Y-78396193D01*
X127115539Y-77981673D01*
X127116702Y-77944435D01*
X127002110Y-77758900D01*
X125861400Y-77758900D01*
X125861400Y-77778900D01*
X125553400Y-77778900D01*
X125553400Y-77758900D01*
X124412690Y-77758900D01*
X124298098Y-77944435D01*
X124299261Y-77981673D01*
X124531604Y-78396193D01*
X124904891Y-78690246D01*
X125154760Y-78760617D01*
X125090455Y-78773408D01*
X124798474Y-78968504D01*
X124603378Y-79260485D01*
X124534870Y-79604900D01*
X124603378Y-79949315D01*
X124775491Y-80206900D01*
X123879700Y-80206900D01*
X123879700Y-77265365D01*
X124298098Y-77265365D01*
X124412690Y-77450900D01*
X125553400Y-77450900D01*
X125553400Y-76542805D01*
X125861400Y-76542805D01*
X125861400Y-77450900D01*
X127002110Y-77450900D01*
X127116702Y-77265365D01*
X127115539Y-77228127D01*
X126883196Y-76813607D01*
X126509909Y-76519554D01*
X126052508Y-76390735D01*
X125861400Y-76542805D01*
X125553400Y-76542805D01*
X125362292Y-76390735D01*
X124904891Y-76519554D01*
X124531604Y-76813607D01*
X124299261Y-77228127D01*
X124298098Y-77265365D01*
X123879700Y-77265365D01*
X123879700Y-76351587D01*
X127379350Y-76351587D01*
X127466408Y-76562283D01*
X127627469Y-76723625D01*
X127838013Y-76811051D01*
X128065987Y-76811250D01*
X128276683Y-76724192D01*
X128438025Y-76563131D01*
X128525451Y-76352587D01*
X128525650Y-76124613D01*
X128438592Y-75913917D01*
X128277531Y-75752575D01*
X128066987Y-75665149D01*
X127839013Y-75664950D01*
X127628317Y-75752008D01*
X127466975Y-75913069D01*
X127379549Y-76123613D01*
X127379350Y-76351587D01*
X123879700Y-76351587D01*
X123879700Y-75424487D01*
X137988930Y-75424487D01*
X138075988Y-75635183D01*
X138237049Y-75796525D01*
X138447593Y-75883951D01*
X138675567Y-75884150D01*
X138886263Y-75797092D01*
X139047605Y-75636031D01*
X139135031Y-75425487D01*
X139135230Y-75197513D01*
X139048172Y-74986817D01*
X138887111Y-74825475D01*
X138676567Y-74738049D01*
X138448593Y-74737850D01*
X138237897Y-74824908D01*
X138076555Y-74985969D01*
X137989129Y-75196513D01*
X137988930Y-75424487D01*
X123879700Y-75424487D01*
X123879700Y-73544887D01*
X124547250Y-73544887D01*
X124634308Y-73755583D01*
X124795369Y-73916925D01*
X125005913Y-74004351D01*
X125233887Y-74004550D01*
X125444583Y-73917492D01*
X125605925Y-73756431D01*
X125693351Y-73545887D01*
X125693550Y-73317913D01*
X125606492Y-73107217D01*
X125445431Y-72945875D01*
X125234887Y-72858449D01*
X125006913Y-72858250D01*
X124796217Y-72945308D01*
X124634875Y-73106369D01*
X124547449Y-73316913D01*
X124547250Y-73544887D01*
X123879700Y-73544887D01*
X123879700Y-71474818D01*
X124205218Y-71149300D01*
X125941737Y-71149300D01*
X125943704Y-71150614D01*
X126154180Y-71192481D01*
X126154185Y-71192480D01*
X132164241Y-71192480D01*
X132219513Y-71215431D01*
X132447487Y-71215630D01*
X132622227Y-71143429D01*
X132783393Y-71210351D01*
X133011367Y-71210550D01*
X133222063Y-71123492D01*
X133383405Y-70962431D01*
X133470831Y-70751887D01*
X133471030Y-70523913D01*
X133383972Y-70313217D01*
X133222911Y-70151875D01*
X133012367Y-70064449D01*
X132784393Y-70064250D01*
X132609653Y-70136451D01*
X132448487Y-70069529D01*
X132220513Y-70069330D01*
X132164486Y-70092480D01*
X126661000Y-70092480D01*
X126661000Y-70032459D01*
X126683951Y-69977187D01*
X126684150Y-69749213D01*
X126597092Y-69538517D01*
X126436031Y-69377175D01*
X126225487Y-69289749D01*
X125997513Y-69289550D01*
X125786817Y-69376608D01*
X125625475Y-69537669D01*
X125538049Y-69748213D01*
X125537850Y-69976187D01*
X125561000Y-70032214D01*
X125561000Y-70049300D01*
X123977400Y-70049300D01*
X123917920Y-70061131D01*
X123918090Y-69866053D01*
X123831032Y-69655357D01*
X123669971Y-69494015D01*
X123459427Y-69406589D01*
X123231453Y-69406390D01*
X123082400Y-69467978D01*
X123082400Y-68718887D01*
X128870330Y-68718887D01*
X128957388Y-68929583D01*
X129118449Y-69090925D01*
X129328993Y-69178351D01*
X129556967Y-69178550D01*
X129767663Y-69091492D01*
X129929005Y-68930431D01*
X130016431Y-68719887D01*
X130016630Y-68491913D01*
X129929572Y-68281217D01*
X129768511Y-68119875D01*
X129557967Y-68032449D01*
X129329993Y-68032250D01*
X129119297Y-68119308D01*
X128957955Y-68280369D01*
X128870529Y-68490913D01*
X128870330Y-68718887D01*
X123082400Y-68718887D01*
X123082400Y-67550487D01*
X128357250Y-67550487D01*
X128444308Y-67761183D01*
X128605369Y-67922525D01*
X128815913Y-68009951D01*
X129043887Y-68010150D01*
X129254583Y-67923092D01*
X129415925Y-67762031D01*
X129451030Y-67677487D01*
X132154550Y-67677487D01*
X132241608Y-67888183D01*
X132402669Y-68049525D01*
X132613213Y-68136951D01*
X132841187Y-68137150D01*
X133051883Y-68050092D01*
X133213225Y-67889031D01*
X133232820Y-67841841D01*
X133392993Y-67908351D01*
X133620967Y-67908550D01*
X133831663Y-67821492D01*
X133993005Y-67660431D01*
X134080431Y-67449887D01*
X134080630Y-67221913D01*
X133993572Y-67011217D01*
X133832511Y-66849875D01*
X133621967Y-66762449D01*
X133393993Y-66762250D01*
X133183297Y-66849308D01*
X133021955Y-67010369D01*
X133002360Y-67057559D01*
X132842187Y-66991049D01*
X132614213Y-66990850D01*
X132403517Y-67077908D01*
X132242175Y-67238969D01*
X132154749Y-67449513D01*
X132154550Y-67677487D01*
X129451030Y-67677487D01*
X129503351Y-67551487D01*
X129503550Y-67323513D01*
X129416492Y-67112817D01*
X129255431Y-66951475D01*
X129044887Y-66864049D01*
X128816913Y-66863850D01*
X128606217Y-66950908D01*
X128444875Y-67111969D01*
X128357449Y-67322513D01*
X128357250Y-67550487D01*
X123082400Y-67550487D01*
X123082400Y-66754900D01*
X135801523Y-66754900D01*
X135801523Y-68454900D01*
X135824807Y-68571954D01*
X135891112Y-68671188D01*
X135990346Y-68737493D01*
X136107400Y-68760777D01*
X137307400Y-68760777D01*
X137424454Y-68737493D01*
X137523688Y-68671188D01*
X137589993Y-68571954D01*
X137613277Y-68454900D01*
X137613277Y-67332370D01*
X137807400Y-67332370D01*
X137807400Y-67877430D01*
X137875908Y-68221845D01*
X138071004Y-68513826D01*
X138362985Y-68708922D01*
X138707400Y-68777430D01*
X139051815Y-68708922D01*
X139343796Y-68513826D01*
X139538892Y-68221845D01*
X139607400Y-67877430D01*
X139607400Y-67332370D01*
X139807400Y-67332370D01*
X139807400Y-67877430D01*
X139875908Y-68221845D01*
X140071004Y-68513826D01*
X140362985Y-68708922D01*
X140707400Y-68777430D01*
X141051815Y-68708922D01*
X141343796Y-68513826D01*
X141538892Y-68221845D01*
X141607400Y-67877430D01*
X141607400Y-67332370D01*
X141807400Y-67332370D01*
X141807400Y-67877430D01*
X141875908Y-68221845D01*
X142071004Y-68513826D01*
X142362985Y-68708922D01*
X142707400Y-68777430D01*
X143051815Y-68708922D01*
X143343796Y-68513826D01*
X143538892Y-68221845D01*
X143607400Y-67877430D01*
X143607400Y-67332370D01*
X143807400Y-67332370D01*
X143807400Y-67877430D01*
X143875908Y-68221845D01*
X144071004Y-68513826D01*
X144362985Y-68708922D01*
X144707400Y-68777430D01*
X145051815Y-68708922D01*
X145343796Y-68513826D01*
X145538892Y-68221845D01*
X145607400Y-67877430D01*
X145607400Y-67332370D01*
X145807400Y-67332370D01*
X145807400Y-67877430D01*
X145875908Y-68221845D01*
X146071004Y-68513826D01*
X146362985Y-68708922D01*
X146707400Y-68777430D01*
X147051815Y-68708922D01*
X147343796Y-68513826D01*
X147538892Y-68221845D01*
X147607400Y-67877430D01*
X147607400Y-67332370D01*
X147538892Y-66987955D01*
X147343796Y-66695974D01*
X147051815Y-66500878D01*
X146707400Y-66432370D01*
X146362985Y-66500878D01*
X146071004Y-66695974D01*
X145875908Y-66987955D01*
X145807400Y-67332370D01*
X145607400Y-67332370D01*
X145538892Y-66987955D01*
X145343796Y-66695974D01*
X145051815Y-66500878D01*
X144707400Y-66432370D01*
X144362985Y-66500878D01*
X144071004Y-66695974D01*
X143875908Y-66987955D01*
X143807400Y-67332370D01*
X143607400Y-67332370D01*
X143538892Y-66987955D01*
X143343796Y-66695974D01*
X143051815Y-66500878D01*
X142707400Y-66432370D01*
X142362985Y-66500878D01*
X142071004Y-66695974D01*
X141875908Y-66987955D01*
X141807400Y-67332370D01*
X141607400Y-67332370D01*
X141538892Y-66987955D01*
X141343796Y-66695974D01*
X141051815Y-66500878D01*
X140707400Y-66432370D01*
X140362985Y-66500878D01*
X140071004Y-66695974D01*
X139875908Y-66987955D01*
X139807400Y-67332370D01*
X139607400Y-67332370D01*
X139538892Y-66987955D01*
X139343796Y-66695974D01*
X139051815Y-66500878D01*
X138707400Y-66432370D01*
X138362985Y-66500878D01*
X138071004Y-66695974D01*
X137875908Y-66987955D01*
X137807400Y-67332370D01*
X137613277Y-67332370D01*
X137613277Y-66754900D01*
X137589993Y-66637846D01*
X137523688Y-66538612D01*
X137424454Y-66472307D01*
X137307400Y-66449023D01*
X136107400Y-66449023D01*
X135990346Y-66472307D01*
X135891112Y-66538612D01*
X135824807Y-66637846D01*
X135801523Y-66754900D01*
X123082400Y-66754900D01*
X123082400Y-66141832D01*
X123170608Y-65698381D01*
X123170570Y-65742007D01*
X123257628Y-65952703D01*
X123418689Y-66114045D01*
X123629233Y-66201471D01*
X123857207Y-66201670D01*
X124067903Y-66114612D01*
X124229245Y-65953551D01*
X124316671Y-65743007D01*
X124316870Y-65515033D01*
X124229812Y-65304337D01*
X124068751Y-65142995D01*
X123860057Y-65056337D01*
X124244332Y-64979900D01*
X148490183Y-64979900D01*
X148492812Y-69108489D01*
X148492812Y-69108489D01*
G37*
X148492812Y-69108489D02*
X137612528Y-69108489D01*
X137449887Y-69140840D01*
X137312008Y-69232968D01*
X133777315Y-72767662D01*
X133691793Y-72767587D01*
X133481097Y-72854645D01*
X133319755Y-73015706D01*
X133232329Y-73226250D01*
X133232130Y-73454224D01*
X133319188Y-73664920D01*
X133386660Y-73732510D01*
X133319744Y-73893661D01*
X133319545Y-74121635D01*
X133406603Y-74332331D01*
X133567664Y-74493673D01*
X133778208Y-74581099D01*
X134006182Y-74581298D01*
X134216878Y-74494240D01*
X134378220Y-74333179D01*
X134465646Y-74122635D01*
X134465721Y-74036162D01*
X138059244Y-70442640D01*
X140203488Y-70442640D01*
X137770900Y-72875228D01*
X137770897Y-72875230D01*
X137770402Y-72875725D01*
X137684881Y-72875650D01*
X137474185Y-72962708D01*
X137312843Y-73123769D01*
X137225417Y-73334313D01*
X137225218Y-73562287D01*
X137312276Y-73772983D01*
X137392598Y-73853445D01*
X137324138Y-73921786D01*
X137236712Y-74132330D01*
X137236513Y-74360304D01*
X137323571Y-74571000D01*
X137484632Y-74732342D01*
X137695176Y-74819768D01*
X137923150Y-74819967D01*
X138133846Y-74732909D01*
X138178946Y-74687887D01*
X143907130Y-74687887D01*
X143994188Y-74898583D01*
X144155249Y-75059925D01*
X144365793Y-75147351D01*
X144593767Y-75147550D01*
X144804463Y-75060492D01*
X144965805Y-74899431D01*
X145053231Y-74688887D01*
X145053276Y-74637087D01*
X146091530Y-74637087D01*
X146178588Y-74847783D01*
X146339649Y-75009125D01*
X146550193Y-75096551D01*
X146778167Y-75096750D01*
X146988863Y-75009692D01*
X147150205Y-74848631D01*
X147237631Y-74638087D01*
X147237830Y-74410113D01*
X147150772Y-74199417D01*
X146989711Y-74038075D01*
X146779167Y-73950649D01*
X146551193Y-73950450D01*
X146340497Y-74037508D01*
X146179155Y-74198569D01*
X146091729Y-74409113D01*
X146091530Y-74637087D01*
X145053276Y-74637087D01*
X145053430Y-74460913D01*
X144966372Y-74250217D01*
X144805311Y-74088875D01*
X144594767Y-74001449D01*
X144366793Y-74001250D01*
X144156097Y-74088308D01*
X143994755Y-74249369D01*
X143907329Y-74459913D01*
X143907130Y-74687887D01*
X138178946Y-74687887D01*
X138295188Y-74571848D01*
X138378096Y-74372184D01*
X141052880Y-71697400D01*
X147524084Y-71697400D01*
X147463329Y-71843713D01*
X147463130Y-72071687D01*
X147550188Y-72282383D01*
X147711249Y-72443725D01*
X147921793Y-72531151D01*
X148149767Y-72531350D01*
X148360463Y-72444292D01*
X148494850Y-72310139D01*
X148498591Y-78183849D01*
X147806880Y-78875560D01*
X147714751Y-79013439D01*
X147714751Y-79013440D01*
X147682400Y-79176080D01*
X147682400Y-82250415D01*
X147632459Y-82300269D01*
X147545033Y-82510813D01*
X147544834Y-82738787D01*
X147631892Y-82949483D01*
X147792953Y-83110825D01*
X148003497Y-83198251D01*
X148231471Y-83198450D01*
X148328411Y-83158395D01*
X148357908Y-83229783D01*
X148501896Y-83374022D01*
X148502128Y-83737829D01*
X147009047Y-83737829D01*
X147009230Y-83528713D01*
X146922172Y-83318017D01*
X146761111Y-83156675D01*
X146550567Y-83069249D01*
X146322593Y-83069050D01*
X146111897Y-83156108D01*
X145950555Y-83317169D01*
X145863129Y-83527713D01*
X145862930Y-83755687D01*
X145949988Y-83966383D01*
X146016855Y-84033367D01*
X145914995Y-84135049D01*
X145827569Y-84345593D01*
X145827370Y-84573567D01*
X145914428Y-84784263D01*
X146075489Y-84945605D01*
X146286033Y-85033031D01*
X146514007Y-85033230D01*
X146724703Y-84946172D01*
X146886045Y-84785111D01*
X146973471Y-84574567D01*
X146973503Y-84537829D01*
X147468396Y-84537829D01*
X147468210Y-84751367D01*
X147555268Y-84962063D01*
X147616360Y-85023262D01*
X147616360Y-86299040D01*
X147633715Y-86386290D01*
X147648711Y-86461681D01*
X147740840Y-86599560D01*
X148504436Y-87363156D01*
X148504672Y-87732920D01*
X148299563Y-87732920D01*
X148143672Y-87577028D01*
X148013903Y-87490319D01*
X147860829Y-87459871D01*
X146648174Y-87459871D01*
X146648169Y-87459870D01*
X146495096Y-87490319D01*
X146390986Y-87559883D01*
X146261633Y-87559770D01*
X146050937Y-87646828D01*
X145889595Y-87807889D01*
X145802169Y-88018433D01*
X145801970Y-88246407D01*
X145889028Y-88457103D01*
X146050089Y-88618445D01*
X146260633Y-88705871D01*
X146488607Y-88706070D01*
X146699303Y-88619012D01*
X146860645Y-88457951D01*
X146942895Y-88259871D01*
X147388077Y-88259871D01*
X147374155Y-88273769D01*
X147286729Y-88484313D01*
X147286530Y-88712287D01*
X147373588Y-88922983D01*
X147534649Y-89084325D01*
X147745193Y-89171751D01*
X147973167Y-89171950D01*
X148183863Y-89084892D01*
X148245062Y-89023800D01*
X148505494Y-89023800D01*
X148508214Y-93295649D01*
X148442235Y-93339735D01*
X148360945Y-93461394D01*
X148332400Y-93604900D01*
X148332400Y-106241882D01*
X148252367Y-106208649D01*
X148024393Y-106208450D01*
X147813697Y-106295508D01*
X147652355Y-106456569D01*
X147564929Y-106667113D01*
X147564730Y-106895087D01*
X147651788Y-107105783D01*
X147812849Y-107267125D01*
X148023393Y-107354551D01*
X148251367Y-107354750D01*
X148332400Y-107321268D01*
X148332400Y-116046353D01*
X148224151Y-115937915D01*
X148013607Y-115850489D01*
X147785633Y-115850290D01*
X147574937Y-115937348D01*
X147413595Y-116098409D01*
X147326169Y-116308953D01*
X147325970Y-116536927D01*
X147413028Y-116747623D01*
X147574089Y-116908965D01*
X147784633Y-116996391D01*
X148012607Y-116996590D01*
X148223303Y-116909532D01*
X148332400Y-116800625D01*
X148332400Y-118411134D01*
X148234711Y-118313275D01*
X148024167Y-118225849D01*
X147796193Y-118225650D01*
X147585497Y-118312708D01*
X147424155Y-118473769D01*
X147336729Y-118684313D01*
X147336530Y-118912287D01*
X147423588Y-119122983D01*
X147584649Y-119284325D01*
X147795193Y-119371751D01*
X148023167Y-119371950D01*
X148233863Y-119284892D01*
X148332400Y-119186527D01*
X148332400Y-123310726D01*
X148221850Y-123264822D01*
X147943372Y-123264579D01*
X147686000Y-123370923D01*
X147488915Y-123567664D01*
X147382122Y-123824850D01*
X147381879Y-124103328D01*
X147434178Y-124229900D01*
X143781029Y-124229900D01*
X143859431Y-124041087D01*
X143859630Y-123813113D01*
X143772572Y-123602417D01*
X143611511Y-123441075D01*
X143400967Y-123353649D01*
X143172993Y-123353450D01*
X142962297Y-123440508D01*
X142800955Y-123601569D01*
X142713529Y-123812113D01*
X142713330Y-124040087D01*
X142791759Y-124229900D01*
X139628085Y-124229900D01*
X139657205Y-124200831D01*
X139744631Y-123990287D01*
X139744830Y-123762313D01*
X139657772Y-123551617D01*
X139496711Y-123390275D01*
X139286167Y-123302849D01*
X139058193Y-123302650D01*
X138847497Y-123389708D01*
X138686155Y-123550769D01*
X138598729Y-123761313D01*
X138598530Y-123989287D01*
X138685588Y-124199983D01*
X138715453Y-124229900D01*
X136954826Y-124229900D01*
X137008876Y-124193785D01*
X137203972Y-123901804D01*
X137272480Y-123557389D01*
X137272480Y-122808411D01*
X137203972Y-122463996D01*
X137008876Y-122172015D01*
X136716895Y-121976919D01*
X136372480Y-121908411D01*
X136028065Y-121976919D01*
X135736084Y-122172015D01*
X135540988Y-122463996D01*
X135472480Y-122808411D01*
X135472480Y-123557389D01*
X135540988Y-123901804D01*
X135736084Y-124193785D01*
X135790134Y-124229900D01*
X129954826Y-124229900D01*
X130008876Y-124193785D01*
X130203972Y-123901804D01*
X130272480Y-123557389D01*
X130272480Y-122808411D01*
X130203972Y-122463996D01*
X130008876Y-122172015D01*
X129716895Y-121976919D01*
X129372480Y-121908411D01*
X129028065Y-121976919D01*
X128736084Y-122172015D01*
X128540988Y-122463996D01*
X128472480Y-122808411D01*
X128472480Y-123557389D01*
X128540988Y-123901804D01*
X128736084Y-124193785D01*
X128790134Y-124229900D01*
X124244332Y-124229900D01*
X123925162Y-124166413D01*
X123956143Y-124153612D01*
X124117485Y-123992551D01*
X124204911Y-123782007D01*
X124205110Y-123554033D01*
X124118052Y-123343337D01*
X123956991Y-123181995D01*
X123746447Y-123094569D01*
X123518473Y-123094370D01*
X123307777Y-123181428D01*
X123146435Y-123342489D01*
X123140060Y-123357842D01*
X123082400Y-123067968D01*
X123082400Y-122218558D01*
X124659162Y-123795320D01*
X124797041Y-123887449D01*
X124824025Y-123892816D01*
X124875767Y-123903108D01*
X124952849Y-123980325D01*
X125163393Y-124067751D01*
X125391367Y-124067950D01*
X125602063Y-123980892D01*
X125763405Y-123819831D01*
X125850831Y-123609287D01*
X125851030Y-123381313D01*
X125763972Y-123170617D01*
X125602911Y-123009275D01*
X125392367Y-122921849D01*
X125164393Y-122921650D01*
X125039271Y-122973349D01*
X123620080Y-121554158D01*
X123620080Y-119516600D01*
X124551523Y-119516600D01*
X124551523Y-120716600D01*
X124574807Y-120833654D01*
X124641112Y-120932888D01*
X124740346Y-120999193D01*
X124857400Y-121022477D01*
X126557400Y-121022477D01*
X126674454Y-120999193D01*
X126773688Y-120932888D01*
X126839993Y-120833654D01*
X126863277Y-120716600D01*
X126863277Y-120685891D01*
X129347302Y-120685891D01*
X129503021Y-121062757D01*
X129791106Y-121351346D01*
X130167700Y-121507722D01*
X130575471Y-121508078D01*
X130952337Y-121352359D01*
X131240926Y-121064274D01*
X131397302Y-120687680D01*
X131397303Y-120685891D01*
X134347302Y-120685891D01*
X134503021Y-121062757D01*
X134791106Y-121351346D01*
X135167700Y-121507722D01*
X135575471Y-121508078D01*
X135952337Y-121352359D01*
X136109683Y-121195287D01*
X137125330Y-121195287D01*
X137212388Y-121405983D01*
X137373449Y-121567325D01*
X137583993Y-121654751D01*
X137811967Y-121654950D01*
X138022663Y-121567892D01*
X138184005Y-121406831D01*
X138271431Y-121196287D01*
X138271630Y-120968313D01*
X138184572Y-120757617D01*
X138023511Y-120596275D01*
X137812967Y-120508849D01*
X137584993Y-120508650D01*
X137374297Y-120595708D01*
X137212955Y-120756769D01*
X137125529Y-120967313D01*
X137125330Y-121195287D01*
X136109683Y-121195287D01*
X136240926Y-121064274D01*
X136397302Y-120687680D01*
X136397658Y-120279909D01*
X136241939Y-119903043D01*
X136001604Y-119662287D01*
X137936530Y-119662287D01*
X138023588Y-119872983D01*
X138184649Y-120034325D01*
X138214453Y-120046701D01*
X138196392Y-120090195D01*
X138196193Y-120318169D01*
X138283251Y-120528865D01*
X138444312Y-120690207D01*
X138654856Y-120777633D01*
X138882830Y-120777832D01*
X139093526Y-120690774D01*
X139254868Y-120529713D01*
X139342294Y-120319169D01*
X139342493Y-120091195D01*
X139255435Y-119880499D01*
X139094374Y-119719157D01*
X139064570Y-119706781D01*
X139082631Y-119663287D01*
X139082830Y-119435313D01*
X138995772Y-119224617D01*
X138834711Y-119063275D01*
X138624167Y-118975849D01*
X138396193Y-118975650D01*
X138185497Y-119062708D01*
X138024155Y-119223769D01*
X137936729Y-119434313D01*
X137936530Y-119662287D01*
X136001604Y-119662287D01*
X135953854Y-119614454D01*
X135577260Y-119458078D01*
X135169489Y-119457722D01*
X134792623Y-119613441D01*
X134504034Y-119901526D01*
X134347658Y-120278120D01*
X134347302Y-120685891D01*
X131397303Y-120685891D01*
X131397658Y-120279909D01*
X131241939Y-119903043D01*
X130953854Y-119614454D01*
X130577260Y-119458078D01*
X130169489Y-119457722D01*
X129792623Y-119613441D01*
X129504034Y-119901526D01*
X129347658Y-120278120D01*
X129347302Y-120685891D01*
X126863277Y-120685891D01*
X126863277Y-119516600D01*
X126839993Y-119399546D01*
X126773688Y-119300312D01*
X126674454Y-119234007D01*
X126557400Y-119210723D01*
X124857400Y-119210723D01*
X124740346Y-119234007D01*
X124641112Y-119300312D01*
X124574807Y-119399546D01*
X124551523Y-119516600D01*
X123620080Y-119516600D01*
X123620080Y-118116600D01*
X124534870Y-118116600D01*
X124603378Y-118461015D01*
X124798474Y-118752996D01*
X125090455Y-118948092D01*
X125434870Y-119016600D01*
X125979930Y-119016600D01*
X126324345Y-118948092D01*
X126382420Y-118909287D01*
X134661530Y-118909287D01*
X134748588Y-119119983D01*
X134909649Y-119281325D01*
X135120193Y-119368751D01*
X135348167Y-119368950D01*
X135558863Y-119281892D01*
X135720205Y-119120831D01*
X135807631Y-118910287D01*
X135807830Y-118682313D01*
X135720772Y-118471617D01*
X135559711Y-118310275D01*
X135349167Y-118222849D01*
X135121193Y-118222650D01*
X134910497Y-118309708D01*
X134749155Y-118470769D01*
X134661729Y-118681313D01*
X134661530Y-118909287D01*
X126382420Y-118909287D01*
X126616326Y-118752996D01*
X126811422Y-118461015D01*
X126873826Y-118147287D01*
X130546730Y-118147287D01*
X130633788Y-118357983D01*
X130794849Y-118519325D01*
X131005393Y-118606751D01*
X131233367Y-118606950D01*
X131444063Y-118519892D01*
X131605405Y-118358831D01*
X131692831Y-118148287D01*
X131693030Y-117920313D01*
X131605972Y-117709617D01*
X131593519Y-117697142D01*
X140141880Y-117697142D01*
X140228938Y-117907838D01*
X140389999Y-118069180D01*
X140600543Y-118156606D01*
X140828517Y-118156805D01*
X141039213Y-118069747D01*
X141200555Y-117908686D01*
X141287981Y-117698142D01*
X141288155Y-117498744D01*
X141502959Y-117498932D01*
X141713655Y-117411874D01*
X141874997Y-117250813D01*
X141962423Y-117040269D01*
X141962622Y-116812295D01*
X141875564Y-116601599D01*
X141714503Y-116440257D01*
X141503959Y-116352831D01*
X141275985Y-116352632D01*
X141065289Y-116439690D01*
X140903947Y-116600751D01*
X140816521Y-116811295D01*
X140816347Y-117010693D01*
X140601543Y-117010505D01*
X140390847Y-117097563D01*
X140229505Y-117258624D01*
X140142079Y-117469168D01*
X140141880Y-117697142D01*
X131593519Y-117697142D01*
X131444911Y-117548275D01*
X131234367Y-117460849D01*
X131006393Y-117460650D01*
X130795697Y-117547708D01*
X130634355Y-117708769D01*
X130546929Y-117919313D01*
X130546730Y-118147287D01*
X126873826Y-118147287D01*
X126879930Y-118116600D01*
X126811422Y-117772185D01*
X126616326Y-117480204D01*
X126324345Y-117285108D01*
X126061811Y-117232887D01*
X133493130Y-117232887D01*
X133580188Y-117443583D01*
X133741249Y-117604925D01*
X133951793Y-117692351D01*
X134179767Y-117692550D01*
X134390463Y-117605492D01*
X134551805Y-117444431D01*
X134639231Y-117233887D01*
X134639400Y-117039269D01*
X139048556Y-117039269D01*
X139135614Y-117249965D01*
X139296675Y-117411307D01*
X139507219Y-117498733D01*
X139735193Y-117498932D01*
X139945889Y-117411874D01*
X140107231Y-117250813D01*
X140194657Y-117040269D01*
X140194856Y-116812295D01*
X140107798Y-116601599D01*
X139946737Y-116440257D01*
X139736193Y-116352831D01*
X139508219Y-116352632D01*
X139297523Y-116439690D01*
X139136181Y-116600751D01*
X139048755Y-116811295D01*
X139048556Y-117039269D01*
X134639400Y-117039269D01*
X134639430Y-117005913D01*
X134552372Y-116795217D01*
X134391311Y-116633875D01*
X134180767Y-116546449D01*
X133952793Y-116546250D01*
X133742097Y-116633308D01*
X133580755Y-116794369D01*
X133493329Y-117004913D01*
X133493130Y-117232887D01*
X126061811Y-117232887D01*
X125979930Y-117216600D01*
X125434870Y-117216600D01*
X125090455Y-117285108D01*
X124798474Y-117480204D01*
X124603378Y-117772185D01*
X124534870Y-118116600D01*
X123620080Y-118116600D01*
X123620080Y-116155386D01*
X139932439Y-116155386D01*
X140019497Y-116366082D01*
X140180558Y-116527424D01*
X140391102Y-116614850D01*
X140619076Y-116615049D01*
X140829772Y-116527991D01*
X140991114Y-116366930D01*
X141078540Y-116156386D01*
X141078739Y-115928412D01*
X140991681Y-115717716D01*
X140830620Y-115556374D01*
X140620076Y-115468948D01*
X140392102Y-115468749D01*
X140181406Y-115555807D01*
X140020064Y-115716868D01*
X139932638Y-115927412D01*
X139932439Y-116155386D01*
X123620080Y-116155386D01*
X123620080Y-114426187D01*
X130325750Y-114426187D01*
X130412808Y-114636883D01*
X130573869Y-114798225D01*
X130784413Y-114885651D01*
X131012387Y-114885850D01*
X131223083Y-114798792D01*
X131234608Y-114787287D01*
X138411526Y-114787287D01*
X138498584Y-114997983D01*
X138659645Y-115159325D01*
X138870189Y-115246751D01*
X139098163Y-115246950D01*
X139308859Y-115159892D01*
X139470201Y-114998831D01*
X139557627Y-114788287D01*
X139557826Y-114560313D01*
X139470768Y-114349617D01*
X139309707Y-114188275D01*
X139099163Y-114100849D01*
X138871189Y-114100650D01*
X138660493Y-114187708D01*
X138499151Y-114348769D01*
X138411725Y-114559313D01*
X138411526Y-114787287D01*
X131234608Y-114787287D01*
X131384425Y-114637731D01*
X131471851Y-114427187D01*
X131472050Y-114199213D01*
X131384992Y-113988517D01*
X131251396Y-113854687D01*
X145735930Y-113854687D01*
X145822988Y-114065383D01*
X145984049Y-114226725D01*
X146194593Y-114314151D01*
X146422567Y-114314350D01*
X146633263Y-114227292D01*
X146794605Y-114066231D01*
X146882031Y-113855687D01*
X146882230Y-113627713D01*
X146795172Y-113417017D01*
X146634111Y-113255675D01*
X146423567Y-113168249D01*
X146195593Y-113168050D01*
X145984897Y-113255108D01*
X145823555Y-113416169D01*
X145736129Y-113626713D01*
X145735930Y-113854687D01*
X131251396Y-113854687D01*
X131223931Y-113827175D01*
X131013387Y-113739749D01*
X130785413Y-113739550D01*
X130574717Y-113826608D01*
X130413375Y-113987669D01*
X130325949Y-114198213D01*
X130325750Y-114426187D01*
X123620080Y-114426187D01*
X123620080Y-112504900D01*
X124551523Y-112504900D01*
X124551523Y-113704900D01*
X124574807Y-113821954D01*
X124641112Y-113921188D01*
X124740346Y-113987493D01*
X124857400Y-114010777D01*
X126557400Y-114010777D01*
X126674454Y-113987493D01*
X126773688Y-113921188D01*
X126839993Y-113821954D01*
X126863277Y-113704900D01*
X126863277Y-112940287D01*
X128387730Y-112940287D01*
X128474788Y-113150983D01*
X128635849Y-113312325D01*
X128846393Y-113399751D01*
X129074367Y-113399950D01*
X129285063Y-113312892D01*
X129446405Y-113151831D01*
X129533831Y-112941287D01*
X129534030Y-112713313D01*
X129446972Y-112502617D01*
X129285911Y-112341275D01*
X129075367Y-112253849D01*
X128847393Y-112253650D01*
X128636697Y-112340708D01*
X128475355Y-112501769D01*
X128387929Y-112712313D01*
X128387730Y-112940287D01*
X126863277Y-112940287D01*
X126863277Y-112504900D01*
X126839993Y-112387846D01*
X126773688Y-112288612D01*
X126674454Y-112222307D01*
X126557400Y-112199023D01*
X124857400Y-112199023D01*
X124740346Y-112222307D01*
X124641112Y-112288612D01*
X124574807Y-112387846D01*
X124551523Y-112504900D01*
X123620080Y-112504900D01*
X123620080Y-111649600D01*
X124737205Y-111649600D01*
X124798474Y-111741296D01*
X125090455Y-111936392D01*
X125434870Y-112004900D01*
X125979930Y-112004900D01*
X126324345Y-111936392D01*
X126616326Y-111741296D01*
X126761118Y-111524600D01*
X131339986Y-111524600D01*
X131200775Y-111663569D01*
X131113349Y-111874113D01*
X131113150Y-112102087D01*
X131200208Y-112312783D01*
X131361269Y-112474125D01*
X131571813Y-112561551D01*
X131799787Y-112561750D01*
X132010483Y-112474692D01*
X132129294Y-112356087D01*
X138174350Y-112356087D01*
X138261408Y-112566783D01*
X138422469Y-112728125D01*
X138633013Y-112815551D01*
X138860987Y-112815750D01*
X139071683Y-112728692D01*
X139233025Y-112567631D01*
X139320451Y-112357087D01*
X139320650Y-112129113D01*
X139307573Y-112097464D01*
X139458863Y-112034952D01*
X139620205Y-111873891D01*
X139707631Y-111663347D01*
X139707641Y-111651611D01*
X139823981Y-111651713D01*
X140034677Y-111564655D01*
X140196019Y-111403594D01*
X140283445Y-111193050D01*
X140283644Y-110965076D01*
X140196586Y-110754380D01*
X140035525Y-110593038D01*
X139824981Y-110505612D01*
X139597007Y-110505413D01*
X139386311Y-110592471D01*
X139224969Y-110753532D01*
X139137543Y-110964076D01*
X139137533Y-110975812D01*
X139021193Y-110975710D01*
X138810497Y-111062768D01*
X138649155Y-111223829D01*
X138561729Y-111434373D01*
X138561530Y-111662347D01*
X138574607Y-111693996D01*
X138423317Y-111756508D01*
X138261975Y-111917569D01*
X138174549Y-112128113D01*
X138174350Y-112356087D01*
X132129294Y-112356087D01*
X132171825Y-112313631D01*
X132259251Y-112103087D01*
X132259450Y-111875113D01*
X132172392Y-111664417D01*
X132032819Y-111524600D01*
X132995029Y-111524600D01*
X133055449Y-111585125D01*
X133236728Y-111660399D01*
X133236530Y-111887287D01*
X133323588Y-112097983D01*
X133484649Y-112259325D01*
X133695193Y-112346751D01*
X133923167Y-112346950D01*
X134133863Y-112259892D01*
X134295205Y-112098831D01*
X134382631Y-111888287D01*
X134382830Y-111660313D01*
X134295772Y-111449617D01*
X134134711Y-111288275D01*
X134014809Y-111238487D01*
X135880730Y-111238487D01*
X135967788Y-111449183D01*
X136128849Y-111610525D01*
X136339393Y-111697951D01*
X136567367Y-111698150D01*
X136778063Y-111611092D01*
X136939405Y-111450031D01*
X137026831Y-111239487D01*
X137027030Y-111011513D01*
X136939972Y-110800817D01*
X136778911Y-110639475D01*
X136568367Y-110552049D01*
X136340393Y-110551850D01*
X136129697Y-110638908D01*
X135968355Y-110799969D01*
X135880929Y-111010513D01*
X135880730Y-111238487D01*
X134014809Y-111238487D01*
X133953432Y-111213001D01*
X133953630Y-110986113D01*
X133866572Y-110775417D01*
X133705511Y-110614075D01*
X133494967Y-110526649D01*
X133266993Y-110526450D01*
X133056297Y-110613508D01*
X132995098Y-110674600D01*
X129535794Y-110674600D01*
X129675005Y-110535631D01*
X129697753Y-110480847D01*
X141577950Y-110480847D01*
X141665008Y-110691543D01*
X141826069Y-110852885D01*
X142036613Y-110940311D01*
X142264587Y-110940510D01*
X142475283Y-110853452D01*
X142515525Y-110813280D01*
X142561833Y-110859669D01*
X142772377Y-110947095D01*
X143000351Y-110947294D01*
X143211047Y-110860236D01*
X143372389Y-110699175D01*
X143459815Y-110488631D01*
X143460014Y-110260657D01*
X143372956Y-110049961D01*
X143211895Y-109888619D01*
X143001351Y-109801193D01*
X142773377Y-109800994D01*
X142562681Y-109888052D01*
X142522439Y-109928224D01*
X142476131Y-109881835D01*
X142265587Y-109794409D01*
X142037613Y-109794210D01*
X141826917Y-109881268D01*
X141665575Y-110042329D01*
X141578149Y-110252873D01*
X141577950Y-110480847D01*
X129697753Y-110480847D01*
X129762431Y-110325087D01*
X129762630Y-110097113D01*
X129675572Y-109886417D01*
X129529298Y-109739887D01*
X133569330Y-109739887D01*
X133656388Y-109950583D01*
X133817449Y-110111925D01*
X134027993Y-110199351D01*
X134255967Y-110199550D01*
X134466663Y-110112492D01*
X134628005Y-109951431D01*
X134715431Y-109740887D01*
X134715476Y-109689087D01*
X137785730Y-109689087D01*
X137872788Y-109899783D01*
X138033849Y-110061125D01*
X138244393Y-110148551D01*
X138472367Y-110148750D01*
X138683063Y-110061692D01*
X138844405Y-109900631D01*
X138931831Y-109690087D01*
X138932030Y-109462113D01*
X138844972Y-109251417D01*
X138683911Y-109090075D01*
X138473367Y-109002649D01*
X138245393Y-109002450D01*
X138034697Y-109089508D01*
X137873355Y-109250569D01*
X137785929Y-109461113D01*
X137785730Y-109689087D01*
X134715476Y-109689087D01*
X134715630Y-109512913D01*
X134628572Y-109302217D01*
X134467511Y-109140875D01*
X134256967Y-109053449D01*
X134028993Y-109053250D01*
X133818297Y-109140308D01*
X133656955Y-109301369D01*
X133569529Y-109511913D01*
X133569330Y-109739887D01*
X129529298Y-109739887D01*
X129514511Y-109725075D01*
X129303967Y-109637649D01*
X129075993Y-109637450D01*
X128865297Y-109724508D01*
X128703955Y-109885569D01*
X128616529Y-110096113D01*
X128616330Y-110324087D01*
X128703388Y-110534783D01*
X128842961Y-110674600D01*
X126754035Y-110674600D01*
X126616326Y-110468504D01*
X126324345Y-110273408D01*
X125979930Y-110204900D01*
X125434870Y-110204900D01*
X125090455Y-110273408D01*
X124798474Y-110468504D01*
X124744287Y-110549600D01*
X123879700Y-110549600D01*
X123879700Y-109104900D01*
X124534870Y-109104900D01*
X124603378Y-109449315D01*
X124798474Y-109741296D01*
X125090455Y-109936392D01*
X125434870Y-110004900D01*
X125979930Y-110004900D01*
X126324345Y-109936392D01*
X126616326Y-109741296D01*
X126811422Y-109449315D01*
X126879930Y-109104900D01*
X126811422Y-108760485D01*
X126744539Y-108660387D01*
X134286390Y-108660387D01*
X134373448Y-108871083D01*
X134534509Y-109032425D01*
X134745053Y-109119851D01*
X134973027Y-109120050D01*
X135183723Y-109032992D01*
X135322890Y-108894067D01*
X145471770Y-108894067D01*
X145558828Y-109104763D01*
X145719889Y-109266105D01*
X145930433Y-109353531D01*
X146158407Y-109353730D01*
X146369103Y-109266672D01*
X146530445Y-109105611D01*
X146617871Y-108895067D01*
X146618070Y-108667093D01*
X146531012Y-108456397D01*
X146369951Y-108295055D01*
X146159407Y-108207629D01*
X145931433Y-108207430D01*
X145720737Y-108294488D01*
X145559395Y-108455549D01*
X145471969Y-108666093D01*
X145471770Y-108894067D01*
X135322890Y-108894067D01*
X135345065Y-108871931D01*
X135432491Y-108661387D01*
X135432612Y-108523093D01*
X135498087Y-108523150D01*
X135708783Y-108436092D01*
X135870125Y-108275031D01*
X135933750Y-108121806D01*
X136098167Y-108121950D01*
X136308863Y-108034892D01*
X136470205Y-107873831D01*
X136557631Y-107663287D01*
X136557830Y-107435313D01*
X136470772Y-107224617D01*
X136309711Y-107063275D01*
X136099167Y-106975849D01*
X135871193Y-106975650D01*
X135660497Y-107062708D01*
X135499155Y-107223769D01*
X135435530Y-107376994D01*
X135271113Y-107376850D01*
X135060417Y-107463908D01*
X134899075Y-107624969D01*
X134811649Y-107835513D01*
X134811528Y-107973807D01*
X134746053Y-107973750D01*
X134535357Y-108060808D01*
X134374015Y-108221869D01*
X134286589Y-108432413D01*
X134286390Y-108660387D01*
X126744539Y-108660387D01*
X126616326Y-108468504D01*
X126324345Y-108273408D01*
X125979930Y-108204900D01*
X125434870Y-108204900D01*
X125090455Y-108273408D01*
X124798474Y-108468504D01*
X124603378Y-108760485D01*
X124534870Y-109104900D01*
X123879700Y-109104900D01*
X123879700Y-107364987D01*
X127366650Y-107364987D01*
X127453708Y-107575683D01*
X127614769Y-107737025D01*
X127825313Y-107824451D01*
X128053287Y-107824650D01*
X128263983Y-107737592D01*
X128425325Y-107576531D01*
X128512751Y-107365987D01*
X128512950Y-107138013D01*
X128425892Y-106927317D01*
X128264831Y-106765975D01*
X128054287Y-106678549D01*
X127826313Y-106678350D01*
X127615617Y-106765408D01*
X127454275Y-106926469D01*
X127366849Y-107137013D01*
X127366650Y-107364987D01*
X123879700Y-107364987D01*
X123879700Y-105823207D01*
X130572130Y-105823207D01*
X130659188Y-106033903D01*
X130820249Y-106195245D01*
X131030793Y-106282671D01*
X131258767Y-106282870D01*
X131469463Y-106195812D01*
X131630805Y-106034751D01*
X131714982Y-105832030D01*
X136370819Y-105832030D01*
X136457877Y-106042726D01*
X136618938Y-106204068D01*
X136825103Y-106289676D01*
X136825069Y-106328756D01*
X136912127Y-106539452D01*
X137073188Y-106700794D01*
X137283732Y-106788220D01*
X137331678Y-106788262D01*
X137414145Y-106987846D01*
X137575206Y-107149188D01*
X137785750Y-107236614D01*
X138013724Y-107236813D01*
X138224420Y-107149755D01*
X138385762Y-106988694D01*
X138473188Y-106778150D01*
X138473387Y-106550176D01*
X138386329Y-106339480D01*
X138225268Y-106178138D01*
X138014724Y-106090712D01*
X137966778Y-106090670D01*
X137884311Y-105891086D01*
X137723250Y-105729744D01*
X137517085Y-105644136D01*
X137517119Y-105605056D01*
X137430061Y-105394360D01*
X137269000Y-105233018D01*
X137058456Y-105145592D01*
X136830482Y-105145393D01*
X136619786Y-105232451D01*
X136458444Y-105393512D01*
X136371018Y-105604056D01*
X136370819Y-105832030D01*
X131714982Y-105832030D01*
X131718231Y-105824207D01*
X131718430Y-105596233D01*
X131631372Y-105385537D01*
X131470311Y-105224195D01*
X131259767Y-105136769D01*
X131031793Y-105136570D01*
X130821097Y-105223628D01*
X130659755Y-105384689D01*
X130572329Y-105595233D01*
X130572130Y-105823207D01*
X123879700Y-105823207D01*
X123879700Y-104654900D01*
X124551523Y-104654900D01*
X124551523Y-104704900D01*
X124574807Y-104821954D01*
X124641112Y-104921188D01*
X124740346Y-104987493D01*
X124857400Y-105010777D01*
X126557400Y-105010777D01*
X126674454Y-104987493D01*
X126773688Y-104921188D01*
X126839993Y-104821954D01*
X126863277Y-104704900D01*
X126863277Y-103847087D01*
X128692530Y-103847087D01*
X128779588Y-104057783D01*
X128940649Y-104219125D01*
X129151193Y-104306551D01*
X129379167Y-104306750D01*
X129589863Y-104219692D01*
X129751205Y-104058631D01*
X129838631Y-103848087D01*
X129838830Y-103620113D01*
X129764842Y-103441047D01*
X133119750Y-103441047D01*
X133206808Y-103651743D01*
X133219040Y-103663997D01*
X133207375Y-103675642D01*
X133119949Y-103886186D01*
X133119750Y-104114160D01*
X133206808Y-104324856D01*
X133367869Y-104486198D01*
X133578413Y-104573624D01*
X133806387Y-104573823D01*
X134017083Y-104486765D01*
X134178425Y-104325704D01*
X134265851Y-104115160D01*
X134266050Y-103887186D01*
X134178992Y-103676490D01*
X134166760Y-103664236D01*
X134178425Y-103652591D01*
X134265851Y-103442047D01*
X134266050Y-103214073D01*
X134178992Y-103003377D01*
X134017931Y-102842035D01*
X133807387Y-102754609D01*
X133579413Y-102754410D01*
X133368717Y-102841468D01*
X133207375Y-103002529D01*
X133119949Y-103213073D01*
X133119750Y-103441047D01*
X129764842Y-103441047D01*
X129751772Y-103409417D01*
X129590711Y-103248075D01*
X129380167Y-103160649D01*
X129152193Y-103160450D01*
X128941497Y-103247508D01*
X128780155Y-103408569D01*
X128692729Y-103619113D01*
X128692530Y-103847087D01*
X126863277Y-103847087D01*
X126863277Y-103504900D01*
X126839993Y-103387846D01*
X126773688Y-103288612D01*
X126674454Y-103222307D01*
X126557400Y-103199023D01*
X126478744Y-103199023D01*
X126509909Y-103190246D01*
X126883196Y-102896193D01*
X126990898Y-102704043D01*
X126990730Y-102896465D01*
X127077788Y-103107161D01*
X127238849Y-103268503D01*
X127449393Y-103355929D01*
X127677367Y-103356128D01*
X127888063Y-103269070D01*
X128049405Y-103108009D01*
X128136831Y-102897465D01*
X128137030Y-102669491D01*
X128049972Y-102458795D01*
X127888911Y-102297453D01*
X127678367Y-102210027D01*
X127450393Y-102209828D01*
X127239697Y-102296886D01*
X127107239Y-102429113D01*
X127002110Y-102258900D01*
X125861400Y-102258900D01*
X125861400Y-102278900D01*
X125553400Y-102278900D01*
X125553400Y-102258900D01*
X124412690Y-102258900D01*
X124298098Y-102444435D01*
X124299261Y-102481673D01*
X124531604Y-102896193D01*
X124904891Y-103190246D01*
X124936056Y-103199023D01*
X124857400Y-103199023D01*
X124740346Y-103222307D01*
X124641112Y-103288612D01*
X124574807Y-103387846D01*
X124551523Y-103504900D01*
X124551523Y-103554900D01*
X123879700Y-103554900D01*
X123879700Y-101765365D01*
X124298098Y-101765365D01*
X124412690Y-101950900D01*
X125553400Y-101950900D01*
X125553400Y-101930900D01*
X125861400Y-101930900D01*
X125861400Y-101950900D01*
X127002110Y-101950900D01*
X127116702Y-101765365D01*
X127115539Y-101728127D01*
X126924495Y-101387287D01*
X131036530Y-101387287D01*
X131123588Y-101597983D01*
X131284649Y-101759325D01*
X131495193Y-101846751D01*
X131723167Y-101846950D01*
X131933863Y-101759892D01*
X132095205Y-101598831D01*
X132182631Y-101388287D01*
X132182830Y-101160313D01*
X132095772Y-100949617D01*
X132087217Y-100941047D01*
X132836530Y-100941047D01*
X132923588Y-101151743D01*
X133084649Y-101313085D01*
X133295193Y-101400511D01*
X133523167Y-101400710D01*
X133733863Y-101313652D01*
X133895205Y-101152591D01*
X133982631Y-100942047D01*
X133982830Y-100714073D01*
X133895772Y-100503377D01*
X133734711Y-100342035D01*
X133524167Y-100254609D01*
X133296193Y-100254410D01*
X133085497Y-100341468D01*
X132924155Y-100502529D01*
X132836729Y-100713073D01*
X132836530Y-100941047D01*
X132087217Y-100941047D01*
X131934711Y-100788275D01*
X131724167Y-100700849D01*
X131496193Y-100700650D01*
X131285497Y-100787708D01*
X131124155Y-100948769D01*
X131036729Y-101159313D01*
X131036530Y-101387287D01*
X126924495Y-101387287D01*
X126883196Y-101313607D01*
X126509909Y-101019554D01*
X126260040Y-100949183D01*
X126324345Y-100936392D01*
X126616326Y-100741296D01*
X126811422Y-100449315D01*
X126879930Y-100104900D01*
X126811422Y-99760485D01*
X126733180Y-99643387D01*
X129258950Y-99643387D01*
X129346008Y-99854083D01*
X129507069Y-100015425D01*
X129717613Y-100102851D01*
X129945587Y-100103050D01*
X130156283Y-100015992D01*
X130317625Y-99854931D01*
X130405051Y-99644387D01*
X130405250Y-99416413D01*
X130392339Y-99385165D01*
X132880990Y-99385165D01*
X132968048Y-99595861D01*
X133129109Y-99757203D01*
X133339653Y-99844629D01*
X133567627Y-99844828D01*
X133778323Y-99757770D01*
X133939665Y-99596709D01*
X134027091Y-99386165D01*
X134027290Y-99158191D01*
X133940232Y-98947495D01*
X133779171Y-98786153D01*
X133568627Y-98698727D01*
X133340653Y-98698528D01*
X133129957Y-98785586D01*
X132968615Y-98946647D01*
X132881189Y-99157191D01*
X132880990Y-99385165D01*
X130392339Y-99385165D01*
X130318192Y-99205717D01*
X130157131Y-99044375D01*
X129946587Y-98956949D01*
X129718613Y-98956750D01*
X129507917Y-99043808D01*
X129346575Y-99204869D01*
X129259149Y-99415413D01*
X129258950Y-99643387D01*
X126733180Y-99643387D01*
X126616326Y-99468504D01*
X126324345Y-99273408D01*
X125979930Y-99204900D01*
X125434870Y-99204900D01*
X125090455Y-99273408D01*
X124798474Y-99468504D01*
X124603378Y-99760485D01*
X124534870Y-100104900D01*
X124603378Y-100449315D01*
X124798474Y-100741296D01*
X125090455Y-100936392D01*
X125154760Y-100949183D01*
X124904891Y-101019554D01*
X124531604Y-101313607D01*
X124299261Y-101728127D01*
X124298098Y-101765365D01*
X123879700Y-101765365D01*
X123879700Y-98104900D01*
X124534870Y-98104900D01*
X124603378Y-98449315D01*
X124798474Y-98741296D01*
X125090455Y-98936392D01*
X125434870Y-99004900D01*
X125979930Y-99004900D01*
X126324345Y-98936392D01*
X126616326Y-98741296D01*
X126811422Y-98449315D01*
X126879930Y-98104900D01*
X126811422Y-97760485D01*
X126616326Y-97468504D01*
X126507049Y-97395487D01*
X128728130Y-97395487D01*
X128815188Y-97606183D01*
X128976249Y-97767525D01*
X129186793Y-97854951D01*
X129414767Y-97855150D01*
X129625463Y-97768092D01*
X129786805Y-97607031D01*
X129874231Y-97396487D01*
X129874430Y-97168513D01*
X129787372Y-96957817D01*
X129626311Y-96796475D01*
X129415767Y-96709049D01*
X129187793Y-96708850D01*
X128977097Y-96795908D01*
X128815755Y-96956969D01*
X128728329Y-97167513D01*
X128728130Y-97395487D01*
X126507049Y-97395487D01*
X126324345Y-97273408D01*
X125979930Y-97204900D01*
X125434870Y-97204900D01*
X125090455Y-97273408D01*
X124798474Y-97468504D01*
X124603378Y-97760485D01*
X124534870Y-98104900D01*
X123879700Y-98104900D01*
X123879700Y-96104900D01*
X124534870Y-96104900D01*
X124603378Y-96449315D01*
X124798474Y-96741296D01*
X125090455Y-96936392D01*
X125434870Y-97004900D01*
X125979930Y-97004900D01*
X126324345Y-96936392D01*
X126616326Y-96741296D01*
X126811422Y-96449315D01*
X126819248Y-96409967D01*
X131862450Y-96409967D01*
X131949508Y-96620663D01*
X132110569Y-96782005D01*
X132321113Y-96869431D01*
X132549087Y-96869630D01*
X132759783Y-96782572D01*
X132921125Y-96621511D01*
X133008551Y-96410967D01*
X133008750Y-96182993D01*
X132921692Y-95972297D01*
X132760631Y-95810955D01*
X132550087Y-95723529D01*
X132322113Y-95723330D01*
X132111417Y-95810388D01*
X131950075Y-95971449D01*
X131862649Y-96181993D01*
X131862450Y-96409967D01*
X126819248Y-96409967D01*
X126879930Y-96104900D01*
X126811422Y-95760485D01*
X126616326Y-95468504D01*
X126527583Y-95409207D01*
X127712090Y-95409207D01*
X127799148Y-95619903D01*
X127960209Y-95781245D01*
X128170753Y-95868671D01*
X128398727Y-95868870D01*
X128609423Y-95781812D01*
X128770765Y-95620751D01*
X128858191Y-95410207D01*
X128858390Y-95182233D01*
X128771332Y-94971537D01*
X128610271Y-94810195D01*
X128399727Y-94722769D01*
X128171753Y-94722570D01*
X127961057Y-94809628D01*
X127799715Y-94970689D01*
X127712289Y-95181233D01*
X127712090Y-95409207D01*
X126527583Y-95409207D01*
X126324345Y-95273408D01*
X125979930Y-95204900D01*
X125434870Y-95204900D01*
X125090455Y-95273408D01*
X124798474Y-95468504D01*
X124603378Y-95760485D01*
X124534870Y-96104900D01*
X123879700Y-96104900D01*
X123879700Y-94104900D01*
X124534870Y-94104900D01*
X124603378Y-94449315D01*
X124798474Y-94741296D01*
X125090455Y-94936392D01*
X125434870Y-95004900D01*
X125979930Y-95004900D01*
X126324345Y-94936392D01*
X126616326Y-94741296D01*
X126811422Y-94449315D01*
X126879930Y-94104900D01*
X126811422Y-93760485D01*
X126616326Y-93468504D01*
X126324345Y-93273408D01*
X125979930Y-93204900D01*
X125434870Y-93204900D01*
X125090455Y-93273408D01*
X124798474Y-93468504D01*
X124603378Y-93760485D01*
X124534870Y-94104900D01*
X123879700Y-94104900D01*
X123879700Y-92104900D01*
X124534870Y-92104900D01*
X124603378Y-92449315D01*
X124798474Y-92741296D01*
X125090455Y-92936392D01*
X125434870Y-93004900D01*
X125979930Y-93004900D01*
X126324345Y-92936392D01*
X126616326Y-92741296D01*
X126811422Y-92449315D01*
X126879930Y-92104900D01*
X126811422Y-91760485D01*
X126616326Y-91468504D01*
X126324345Y-91273408D01*
X125979930Y-91204900D01*
X125434870Y-91204900D01*
X125090455Y-91273408D01*
X124798474Y-91468504D01*
X124603378Y-91760485D01*
X124534870Y-92104900D01*
X123879700Y-92104900D01*
X123879700Y-90104900D01*
X124534870Y-90104900D01*
X124603378Y-90449315D01*
X124798474Y-90741296D01*
X125090455Y-90936392D01*
X125434870Y-91004900D01*
X125979930Y-91004900D01*
X126324345Y-90936392D01*
X126616326Y-90741296D01*
X126811422Y-90449315D01*
X126879930Y-90104900D01*
X126811422Y-89760485D01*
X126616326Y-89468504D01*
X126324345Y-89273408D01*
X125979930Y-89204900D01*
X125434870Y-89204900D01*
X125090455Y-89273408D01*
X124798474Y-89468504D01*
X124603378Y-89760485D01*
X124534870Y-90104900D01*
X123879700Y-90104900D01*
X123879700Y-88624500D01*
X125814602Y-88624500D01*
X130126449Y-92936346D01*
X130126451Y-92936349D01*
X130304884Y-93055574D01*
X130515360Y-93097440D01*
X132611281Y-93097440D01*
X132666553Y-93120391D01*
X132894527Y-93120590D01*
X133105223Y-93033532D01*
X133266565Y-92872471D01*
X133304452Y-92781229D01*
X133304452Y-96746144D01*
X133334900Y-96899218D01*
X133421609Y-97028987D01*
X136064418Y-99671795D01*
X136064418Y-102248133D01*
X136094866Y-102401207D01*
X136181575Y-102530976D01*
X137670008Y-104019409D01*
X137669903Y-104140255D01*
X137756961Y-104350951D01*
X137918022Y-104512293D01*
X138128566Y-104599719D01*
X138356540Y-104599918D01*
X138393363Y-104584703D01*
X138439964Y-104654447D01*
X138439850Y-104785364D01*
X138526908Y-104996060D01*
X138687969Y-105157402D01*
X138898513Y-105244828D01*
X139126487Y-105245027D01*
X139337183Y-105157969D01*
X139454517Y-105040840D01*
X139454373Y-105205373D01*
X139541431Y-105416069D01*
X139702492Y-105577411D01*
X139913036Y-105664837D01*
X139935600Y-105664857D01*
X139935590Y-105676021D01*
X140022648Y-105886717D01*
X140183709Y-106048059D01*
X140394253Y-106135485D01*
X140622227Y-106135684D01*
X140832923Y-106048626D01*
X140950618Y-105931136D01*
X140950570Y-105985767D01*
X141037628Y-106196463D01*
X141198689Y-106357805D01*
X141409233Y-106445231D01*
X141637207Y-106445430D01*
X141847903Y-106358372D01*
X142009245Y-106197311D01*
X142093922Y-105993387D01*
X142444090Y-105993387D01*
X142531148Y-106204083D01*
X142692209Y-106365425D01*
X142902753Y-106452851D01*
X143130727Y-106453050D01*
X143341423Y-106365992D01*
X143502765Y-106204931D01*
X143590191Y-105994387D01*
X143590390Y-105766413D01*
X143503332Y-105555717D01*
X143342271Y-105394375D01*
X143131727Y-105306949D01*
X142903753Y-105306750D01*
X142693057Y-105393808D01*
X142531715Y-105554869D01*
X142444289Y-105765413D01*
X142444090Y-105993387D01*
X142093922Y-105993387D01*
X142096671Y-105986767D01*
X142096870Y-105758793D01*
X142009812Y-105548097D01*
X141863398Y-105401428D01*
X141913561Y-105351352D01*
X142000987Y-105140808D01*
X142001186Y-104912834D01*
X141914128Y-104702138D01*
X141828036Y-104615896D01*
X141828036Y-100975996D01*
X141797588Y-100822923D01*
X141710879Y-100693153D01*
X141710876Y-100693151D01*
X141049621Y-100031896D01*
X141088567Y-100031930D01*
X141299263Y-99944872D01*
X141323855Y-99920323D01*
X141328019Y-99924495D01*
X141538563Y-100011921D01*
X141766537Y-100012120D01*
X141977233Y-99925062D01*
X141980414Y-99921886D01*
X142001532Y-99943041D01*
X142212076Y-100030467D01*
X142440050Y-100030666D01*
X142650746Y-99943608D01*
X142802586Y-99792032D01*
X143358920Y-100348366D01*
X143358920Y-104384913D01*
X143273395Y-104470289D01*
X143185969Y-104680833D01*
X143185770Y-104908807D01*
X143272828Y-105119503D01*
X143433889Y-105280845D01*
X143644433Y-105368271D01*
X143872407Y-105368470D01*
X144074870Y-105284814D01*
X144129810Y-105339850D01*
X144331901Y-105423766D01*
X144331862Y-105468237D01*
X144418920Y-105678933D01*
X144527198Y-105787400D01*
X144526937Y-105787508D01*
X144365595Y-105948569D01*
X144278169Y-106159113D01*
X144277970Y-106387087D01*
X144365028Y-106597783D01*
X144526089Y-106759125D01*
X144736633Y-106846551D01*
X144964607Y-106846750D01*
X145175303Y-106759692D01*
X145336645Y-106598631D01*
X145424071Y-106388087D01*
X145424270Y-106160113D01*
X145337212Y-105949417D01*
X145228934Y-105840950D01*
X145229195Y-105840842D01*
X145390537Y-105679781D01*
X145477963Y-105469237D01*
X145478077Y-105338843D01*
X145547613Y-105234774D01*
X145558629Y-105179394D01*
X145578062Y-105081701D01*
X145578061Y-105081696D01*
X145578061Y-100994638D01*
X146402123Y-101818700D01*
X146402018Y-101939547D01*
X146489076Y-102150243D01*
X146650137Y-102311585D01*
X146860681Y-102399011D01*
X147088655Y-102399210D01*
X147299351Y-102312152D01*
X147460693Y-102151091D01*
X147548119Y-101940547D01*
X147548318Y-101712573D01*
X147461260Y-101501877D01*
X147300199Y-101340535D01*
X147089655Y-101253109D01*
X146967796Y-101253003D01*
X144681219Y-98966425D01*
X144753663Y-98936492D01*
X144915005Y-98775431D01*
X145002431Y-98564887D01*
X145002630Y-98336913D01*
X144968105Y-98253357D01*
X146794382Y-100079634D01*
X146794277Y-100200480D01*
X146881335Y-100411176D01*
X147042396Y-100572518D01*
X147252940Y-100659944D01*
X147480914Y-100660143D01*
X147691610Y-100573085D01*
X147852952Y-100412024D01*
X147940378Y-100201480D01*
X147940577Y-99973506D01*
X147853519Y-99762810D01*
X147692458Y-99601468D01*
X147481914Y-99514042D01*
X147360056Y-99513936D01*
X144682160Y-96836040D01*
X144682160Y-94336135D01*
X144682161Y-94336130D01*
X144651712Y-94183056D01*
X144583233Y-94080570D01*
X144619793Y-94095751D01*
X144847767Y-94095950D01*
X145007380Y-94029999D01*
X145007380Y-96322953D01*
X144921855Y-96408329D01*
X144834429Y-96618873D01*
X144834230Y-96846847D01*
X144921288Y-97057543D01*
X145082349Y-97218885D01*
X145292893Y-97306311D01*
X145520867Y-97306510D01*
X145731563Y-97219452D01*
X145737589Y-97213436D01*
X145755348Y-97231226D01*
X145965892Y-97318652D01*
X146082683Y-97318754D01*
X146141696Y-97461576D01*
X146302757Y-97622918D01*
X146513301Y-97710344D01*
X146741275Y-97710543D01*
X146951971Y-97623485D01*
X147113313Y-97462424D01*
X147200739Y-97251880D01*
X147200938Y-97023906D01*
X147113880Y-96813210D01*
X147027788Y-96726968D01*
X147027788Y-94095587D01*
X147092988Y-94253383D01*
X147254049Y-94414725D01*
X147464593Y-94502151D01*
X147692567Y-94502350D01*
X147903263Y-94415292D01*
X148064605Y-94254231D01*
X148152031Y-94043687D01*
X148152230Y-93815713D01*
X148065172Y-93605017D01*
X147904111Y-93443675D01*
X147693567Y-93356249D01*
X147465593Y-93356050D01*
X147254897Y-93443108D01*
X147093555Y-93604169D01*
X147027788Y-93762553D01*
X147027788Y-92924875D01*
X147027789Y-92924870D01*
X146997340Y-92771796D01*
X146934529Y-92677793D01*
X146910631Y-92642027D01*
X146910628Y-92642025D01*
X145177008Y-90908405D01*
X145248249Y-90837287D01*
X145511530Y-90837287D01*
X145598588Y-91047983D01*
X145759649Y-91209325D01*
X145970193Y-91296751D01*
X146198167Y-91296950D01*
X146408863Y-91209892D01*
X146570205Y-91048831D01*
X146575812Y-91035327D01*
X147003390Y-91035327D01*
X147090448Y-91246023D01*
X147251509Y-91407365D01*
X147462053Y-91494791D01*
X147690027Y-91494990D01*
X147900723Y-91407932D01*
X148062065Y-91246871D01*
X148149491Y-91036327D01*
X148149690Y-90808353D01*
X148062632Y-90597657D01*
X147901571Y-90436315D01*
X147691027Y-90348889D01*
X147463053Y-90348690D01*
X147252357Y-90435748D01*
X147091015Y-90596809D01*
X147003589Y-90807353D01*
X147003390Y-91035327D01*
X146575812Y-91035327D01*
X146657631Y-90838287D01*
X146657830Y-90610313D01*
X146570772Y-90399617D01*
X146409711Y-90238275D01*
X146199167Y-90150849D01*
X145971193Y-90150650D01*
X145760497Y-90237708D01*
X145599155Y-90398769D01*
X145511729Y-90609313D01*
X145511530Y-90837287D01*
X145248249Y-90837287D01*
X145328140Y-90757536D01*
X145415566Y-90546992D01*
X145415765Y-90319018D01*
X145328707Y-90108322D01*
X145167646Y-89946980D01*
X144957102Y-89859554D01*
X144729128Y-89859355D01*
X144518432Y-89946413D01*
X144366592Y-90097988D01*
X143498520Y-89229916D01*
X143498520Y-88886487D01*
X144168750Y-88886487D01*
X144255808Y-89097183D01*
X144416869Y-89258525D01*
X144627413Y-89345951D01*
X144855387Y-89346150D01*
X145066083Y-89259092D01*
X145227425Y-89098031D01*
X145314851Y-88887487D01*
X145315050Y-88659513D01*
X145227992Y-88448817D01*
X145066931Y-88287475D01*
X144856387Y-88200049D01*
X144628413Y-88199850D01*
X144417717Y-88286908D01*
X144256375Y-88447969D01*
X144168949Y-88658513D01*
X144168750Y-88886487D01*
X143498520Y-88886487D01*
X143498520Y-88171228D01*
X143620193Y-88221751D01*
X143848167Y-88221950D01*
X144058863Y-88134892D01*
X144220205Y-87973831D01*
X144307631Y-87763287D01*
X144307830Y-87535313D01*
X144220772Y-87324617D01*
X144059711Y-87163275D01*
X143849167Y-87075849D01*
X143621193Y-87075650D01*
X143498520Y-87126338D01*
X143498520Y-86728890D01*
X143662213Y-86796862D01*
X143890187Y-86797061D01*
X144100883Y-86710003D01*
X144262225Y-86548942D01*
X144304103Y-86448087D01*
X145837530Y-86448087D01*
X145924588Y-86658783D01*
X146085649Y-86820125D01*
X146296193Y-86907551D01*
X146524167Y-86907750D01*
X146734863Y-86820692D01*
X146896205Y-86659631D01*
X146983631Y-86449087D01*
X146983830Y-86221113D01*
X146896772Y-86010417D01*
X146735711Y-85849075D01*
X146525167Y-85761649D01*
X146297193Y-85761450D01*
X146086497Y-85848508D01*
X145925155Y-86009569D01*
X145837729Y-86220113D01*
X145837530Y-86448087D01*
X144304103Y-86448087D01*
X144349651Y-86338398D01*
X144349850Y-86110424D01*
X144262792Y-85899728D01*
X144101731Y-85738386D01*
X143967890Y-85682810D01*
X144083861Y-85634892D01*
X144245203Y-85473831D01*
X144332629Y-85263287D01*
X144332828Y-85035313D01*
X144245770Y-84824617D01*
X144084709Y-84663275D01*
X143874165Y-84575849D01*
X143646191Y-84575650D01*
X143498520Y-84636667D01*
X143498520Y-84229049D01*
X143639454Y-84287570D01*
X143867428Y-84287769D01*
X144078124Y-84200711D01*
X144239466Y-84039650D01*
X144326892Y-83829106D01*
X144327091Y-83601132D01*
X144240033Y-83390436D01*
X144078972Y-83229094D01*
X143969812Y-83183766D01*
X144050083Y-83150599D01*
X144211425Y-82989538D01*
X144298851Y-82778994D01*
X144299050Y-82551020D01*
X144211992Y-82340324D01*
X144050931Y-82178982D01*
X143840387Y-82091556D01*
X143612413Y-82091357D01*
X143498520Y-82138417D01*
X143498520Y-81425646D01*
X143900366Y-81023800D01*
X146574273Y-81023800D01*
X146659649Y-81109325D01*
X146870193Y-81196751D01*
X147098167Y-81196950D01*
X147308863Y-81109892D01*
X147470205Y-80948831D01*
X147557631Y-80738287D01*
X147557830Y-80510313D01*
X147470772Y-80299617D01*
X147309711Y-80138275D01*
X147099167Y-80050849D01*
X146871193Y-80050650D01*
X146660497Y-80137708D01*
X146574255Y-80223800D01*
X143734680Y-80223800D01*
X143581606Y-80254248D01*
X143451837Y-80340957D01*
X143005427Y-80787367D01*
X142941943Y-80692357D01*
X142941940Y-80692355D01*
X142586343Y-80336757D01*
X142456574Y-80250048D01*
X142303500Y-80219600D01*
X139785287Y-80219600D01*
X139699911Y-80134075D01*
X139489367Y-80046649D01*
X139261393Y-80046450D01*
X139050697Y-80133508D01*
X138889355Y-80294569D01*
X138801929Y-80505113D01*
X138801742Y-80719651D01*
X138662846Y-80719651D01*
X138742805Y-80639831D01*
X138830231Y-80429287D01*
X138830430Y-80201313D01*
X138743372Y-79990617D01*
X138582311Y-79829275D01*
X138371767Y-79741849D01*
X138143793Y-79741650D01*
X137933097Y-79828708D01*
X137771755Y-79989769D01*
X137736761Y-80074044D01*
X137353674Y-79690957D01*
X137223905Y-79604248D01*
X137101097Y-79579820D01*
X137009711Y-79488275D01*
X136799167Y-79400849D01*
X136571193Y-79400650D01*
X136360497Y-79487708D01*
X136199155Y-79648769D01*
X136111729Y-79859313D01*
X136111530Y-80087287D01*
X136198588Y-80297983D01*
X136359649Y-80459325D01*
X136570193Y-80546751D01*
X136798167Y-80546950D01*
X136996391Y-80465046D01*
X137044154Y-80512809D01*
X136917097Y-80565308D01*
X136755755Y-80726369D01*
X136751522Y-80736564D01*
X136588687Y-80668949D01*
X136360713Y-80668750D01*
X136150017Y-80755808D01*
X135988675Y-80916869D01*
X135901249Y-81127413D01*
X135901050Y-81355387D01*
X135988108Y-81566083D01*
X136149169Y-81727425D01*
X136359713Y-81814851D01*
X136479539Y-81814956D01*
X136479539Y-81904730D01*
X136360087Y-81855129D01*
X136132113Y-81854930D01*
X135921417Y-81941988D01*
X135760075Y-82103049D01*
X135672649Y-82313593D01*
X135672543Y-82435452D01*
X135449677Y-82658317D01*
X135362968Y-82788086D01*
X135342980Y-82888575D01*
X135332520Y-82941160D01*
X135332520Y-83697595D01*
X134268485Y-82633559D01*
X134268590Y-82512713D01*
X134181532Y-82302017D01*
X134024284Y-82144494D01*
X134170201Y-81998831D01*
X134257627Y-81788287D01*
X134257826Y-81560313D01*
X134170768Y-81349617D01*
X134009707Y-81188275D01*
X133799163Y-81100849D01*
X133571189Y-81100650D01*
X133360493Y-81187708D01*
X133199151Y-81348769D01*
X133111725Y-81559313D01*
X133111619Y-81681172D01*
X131959717Y-82833073D01*
X131873008Y-82962842D01*
X131857717Y-83039716D01*
X131842560Y-83115916D01*
X131842560Y-88256729D01*
X131873008Y-88409803D01*
X131959717Y-88539572D01*
X137147935Y-93727789D01*
X137134528Y-93733329D01*
X136983265Y-93884329D01*
X136855387Y-93831229D01*
X136627413Y-93831030D01*
X136416717Y-93918088D01*
X136255375Y-94079149D01*
X136167949Y-94289693D01*
X136167750Y-94517667D01*
X136254808Y-94728363D01*
X136415869Y-94889705D01*
X136626413Y-94977131D01*
X136854387Y-94977330D01*
X137065083Y-94890272D01*
X137216346Y-94739272D01*
X137344224Y-94792372D01*
X137572198Y-94792571D01*
X137782894Y-94705513D01*
X137944236Y-94544452D01*
X137950210Y-94530064D01*
X138375440Y-94955294D01*
X138375440Y-99849531D01*
X137346163Y-98820254D01*
X137456367Y-98820350D01*
X137667063Y-98733292D01*
X137828405Y-98572231D01*
X137915831Y-98361687D01*
X137916030Y-98133713D01*
X137828972Y-97923017D01*
X137667911Y-97761675D01*
X137457367Y-97674249D01*
X137229393Y-97674050D01*
X137018697Y-97761108D01*
X136857355Y-97922169D01*
X136769929Y-98132713D01*
X136769832Y-98243923D01*
X135178245Y-96652336D01*
X135182708Y-96650492D01*
X135344050Y-96489431D01*
X135431476Y-96278887D01*
X135431675Y-96050913D01*
X135344617Y-95840217D01*
X135183556Y-95678875D01*
X134973012Y-95591449D01*
X134764648Y-95591267D01*
X134764648Y-95208943D01*
X135165979Y-95208943D01*
X135253037Y-95419639D01*
X135414098Y-95580981D01*
X135624642Y-95668407D01*
X135852616Y-95668606D01*
X135960336Y-95624097D01*
X135953247Y-95641170D01*
X135953048Y-95869144D01*
X136040106Y-96079840D01*
X136201167Y-96241182D01*
X136411711Y-96328608D01*
X136639685Y-96328807D01*
X136850381Y-96241749D01*
X137011723Y-96080688D01*
X137099149Y-95870144D01*
X137099348Y-95642170D01*
X137012290Y-95431474D01*
X136851229Y-95270132D01*
X136640685Y-95182706D01*
X136412711Y-95182507D01*
X136304991Y-95227016D01*
X136312080Y-95209943D01*
X136312279Y-94981969D01*
X136225221Y-94771273D01*
X136064160Y-94609931D01*
X135853616Y-94522505D01*
X135625642Y-94522306D01*
X135414946Y-94609364D01*
X135253604Y-94770425D01*
X135166178Y-94980969D01*
X135165979Y-95208943D01*
X134764648Y-95208943D01*
X134764648Y-94212218D01*
X134916853Y-94364689D01*
X135127397Y-94452115D01*
X135355371Y-94452314D01*
X135566067Y-94365256D01*
X135727409Y-94204195D01*
X135814835Y-93993651D01*
X135815034Y-93765677D01*
X135727976Y-93554981D01*
X135566915Y-93393639D01*
X135356371Y-93306213D01*
X135173827Y-93306054D01*
X135243242Y-93277372D01*
X135404584Y-93116311D01*
X135492010Y-92905767D01*
X135492209Y-92677793D01*
X135405151Y-92467097D01*
X135244090Y-92305755D01*
X135033546Y-92218329D01*
X134805572Y-92218130D01*
X134764648Y-92235039D01*
X134764648Y-91766313D01*
X134764649Y-91766308D01*
X134734200Y-91613234D01*
X134680059Y-91532207D01*
X134647491Y-91483465D01*
X134647488Y-91483463D01*
X130013665Y-86849639D01*
X130013770Y-86729113D01*
X129926712Y-86518417D01*
X129765651Y-86357075D01*
X129555107Y-86269649D01*
X129501305Y-86269602D01*
X129501330Y-86241433D01*
X129414272Y-86030737D01*
X129253211Y-85869395D01*
X129042667Y-85781969D01*
X128814693Y-85781770D01*
X128603997Y-85868828D01*
X128442655Y-86029889D01*
X128355229Y-86240433D01*
X128355217Y-86254730D01*
X128314633Y-86254695D01*
X128103937Y-86341753D01*
X127942595Y-86502814D01*
X127855169Y-86713358D01*
X127854970Y-86941332D01*
X127942028Y-87152028D01*
X128028120Y-87238270D01*
X128028120Y-87915120D01*
X128058568Y-88068194D01*
X128145277Y-88197963D01*
X129424795Y-89477480D01*
X129424797Y-89477483D01*
X129531344Y-89548675D01*
X129554567Y-89564192D01*
X129707640Y-89594641D01*
X129707645Y-89594640D01*
X130702370Y-89594640D01*
X133304452Y-92196721D01*
X133304452Y-92313578D01*
X133267132Y-92223257D01*
X133106071Y-92061915D01*
X132895527Y-91974489D01*
X132667553Y-91974290D01*
X132611526Y-91997440D01*
X130743177Y-91997440D01*
X126431329Y-87685591D01*
X126252896Y-87566366D01*
X126042420Y-87524500D01*
X123879700Y-87524500D01*
X123879700Y-85004900D01*
X124551523Y-85004900D01*
X124551523Y-86204900D01*
X124574807Y-86321954D01*
X124641112Y-86421188D01*
X124740346Y-86487493D01*
X124857400Y-86510777D01*
X126557400Y-86510777D01*
X126674454Y-86487493D01*
X126773688Y-86421188D01*
X126839993Y-86321954D01*
X126863277Y-86204900D01*
X126863277Y-85381287D01*
X130064130Y-85381287D01*
X130151188Y-85591983D01*
X130312249Y-85753325D01*
X130522793Y-85840751D01*
X130750767Y-85840950D01*
X130961463Y-85753892D01*
X131122805Y-85592831D01*
X131210231Y-85382287D01*
X131210430Y-85154313D01*
X131123372Y-84943617D01*
X130962311Y-84782275D01*
X130751767Y-84694849D01*
X130523793Y-84694650D01*
X130313097Y-84781708D01*
X130151755Y-84942769D01*
X130064329Y-85153313D01*
X130064130Y-85381287D01*
X126863277Y-85381287D01*
X126863277Y-85004900D01*
X126839993Y-84887846D01*
X126773688Y-84788612D01*
X126674454Y-84722307D01*
X126557400Y-84699023D01*
X124857400Y-84699023D01*
X124740346Y-84722307D01*
X124641112Y-84788612D01*
X124574807Y-84887846D01*
X124551523Y-85004900D01*
X123879700Y-85004900D01*
X123879700Y-83604900D01*
X124534870Y-83604900D01*
X124603378Y-83949315D01*
X124798474Y-84241296D01*
X125090455Y-84436392D01*
X125434870Y-84504900D01*
X125979930Y-84504900D01*
X126324345Y-84436392D01*
X126616326Y-84241296D01*
X126811422Y-83949315D01*
X126879930Y-83604900D01*
X126811422Y-83260485D01*
X126616326Y-82968504D01*
X126324345Y-82773408D01*
X125979930Y-82704900D01*
X125434870Y-82704900D01*
X125090455Y-82773408D01*
X124798474Y-82968504D01*
X124603378Y-83260485D01*
X124534870Y-83604900D01*
X123879700Y-83604900D01*
X123879700Y-81006900D01*
X124772819Y-81006900D01*
X124603378Y-81260485D01*
X124534870Y-81604900D01*
X124603378Y-81949315D01*
X124798474Y-82241296D01*
X125090455Y-82436392D01*
X125434870Y-82504900D01*
X125979930Y-82504900D01*
X126324345Y-82436392D01*
X126616326Y-82241296D01*
X126811422Y-81949315D01*
X126825987Y-81876087D01*
X129378330Y-81876087D01*
X129465388Y-82086783D01*
X129626449Y-82248125D01*
X129836993Y-82335551D01*
X130064967Y-82335750D01*
X130275663Y-82248692D01*
X130437005Y-82087631D01*
X130524431Y-81877087D01*
X130524630Y-81649113D01*
X130437572Y-81438417D01*
X130276511Y-81277075D01*
X130065967Y-81189649D01*
X129837993Y-81189450D01*
X129627297Y-81276508D01*
X129465955Y-81437569D01*
X129378529Y-81648113D01*
X129378330Y-81876087D01*
X126825987Y-81876087D01*
X126879930Y-81604900D01*
X126811422Y-81260485D01*
X126641981Y-81006900D01*
X130834702Y-81006900D01*
X130987776Y-80976452D01*
X131117545Y-80889743D01*
X131189058Y-80818230D01*
X131338133Y-80880131D01*
X131566107Y-80880330D01*
X131776803Y-80793272D01*
X131938145Y-80632211D01*
X132025571Y-80421667D01*
X132025770Y-80193693D01*
X131938712Y-79982997D01*
X131777651Y-79821655D01*
X131567107Y-79734229D01*
X131339133Y-79734030D01*
X131128437Y-79821088D01*
X131019245Y-79930090D01*
X130981348Y-79937628D01*
X130851579Y-80024337D01*
X130669016Y-80206900D01*
X126639309Y-80206900D01*
X126811422Y-79949315D01*
X126879930Y-79604900D01*
X126811422Y-79260485D01*
X126616326Y-78968504D01*
X126324345Y-78773408D01*
X126260040Y-78760617D01*
X126509909Y-78690246D01*
X126883196Y-78396193D01*
X127115539Y-77981673D01*
X127116702Y-77944435D01*
X127002110Y-77758900D01*
X125861400Y-77758900D01*
X125861400Y-77778900D01*
X125553400Y-77778900D01*
X125553400Y-77758900D01*
X124412690Y-77758900D01*
X124298098Y-77944435D01*
X124299261Y-77981673D01*
X124531604Y-78396193D01*
X124904891Y-78690246D01*
X125154760Y-78760617D01*
X125090455Y-78773408D01*
X124798474Y-78968504D01*
X124603378Y-79260485D01*
X124534870Y-79604900D01*
X124603378Y-79949315D01*
X124775491Y-80206900D01*
X123879700Y-80206900D01*
X123879700Y-77265365D01*
X124298098Y-77265365D01*
X124412690Y-77450900D01*
X125553400Y-77450900D01*
X125553400Y-76542805D01*
X125861400Y-76542805D01*
X125861400Y-77450900D01*
X127002110Y-77450900D01*
X127116702Y-77265365D01*
X127115539Y-77228127D01*
X126883196Y-76813607D01*
X126509909Y-76519554D01*
X126052508Y-76390735D01*
X125861400Y-76542805D01*
X125553400Y-76542805D01*
X125362292Y-76390735D01*
X124904891Y-76519554D01*
X124531604Y-76813607D01*
X124299261Y-77228127D01*
X124298098Y-77265365D01*
X123879700Y-77265365D01*
X123879700Y-76351587D01*
X127379350Y-76351587D01*
X127466408Y-76562283D01*
X127627469Y-76723625D01*
X127838013Y-76811051D01*
X128065987Y-76811250D01*
X128276683Y-76724192D01*
X128438025Y-76563131D01*
X128525451Y-76352587D01*
X128525650Y-76124613D01*
X128438592Y-75913917D01*
X128277531Y-75752575D01*
X128066987Y-75665149D01*
X127839013Y-75664950D01*
X127628317Y-75752008D01*
X127466975Y-75913069D01*
X127379549Y-76123613D01*
X127379350Y-76351587D01*
X123879700Y-76351587D01*
X123879700Y-75424487D01*
X137988930Y-75424487D01*
X138075988Y-75635183D01*
X138237049Y-75796525D01*
X138447593Y-75883951D01*
X138675567Y-75884150D01*
X138886263Y-75797092D01*
X139047605Y-75636031D01*
X139135031Y-75425487D01*
X139135230Y-75197513D01*
X139048172Y-74986817D01*
X138887111Y-74825475D01*
X138676567Y-74738049D01*
X138448593Y-74737850D01*
X138237897Y-74824908D01*
X138076555Y-74985969D01*
X137989129Y-75196513D01*
X137988930Y-75424487D01*
X123879700Y-75424487D01*
X123879700Y-73544887D01*
X124547250Y-73544887D01*
X124634308Y-73755583D01*
X124795369Y-73916925D01*
X125005913Y-74004351D01*
X125233887Y-74004550D01*
X125444583Y-73917492D01*
X125605925Y-73756431D01*
X125693351Y-73545887D01*
X125693550Y-73317913D01*
X125606492Y-73107217D01*
X125445431Y-72945875D01*
X125234887Y-72858449D01*
X125006913Y-72858250D01*
X124796217Y-72945308D01*
X124634875Y-73106369D01*
X124547449Y-73316913D01*
X124547250Y-73544887D01*
X123879700Y-73544887D01*
X123879700Y-71474818D01*
X124205218Y-71149300D01*
X125941737Y-71149300D01*
X125943704Y-71150614D01*
X126154180Y-71192481D01*
X126154185Y-71192480D01*
X132164241Y-71192480D01*
X132219513Y-71215431D01*
X132447487Y-71215630D01*
X132622227Y-71143429D01*
X132783393Y-71210351D01*
X133011367Y-71210550D01*
X133222063Y-71123492D01*
X133383405Y-70962431D01*
X133470831Y-70751887D01*
X133471030Y-70523913D01*
X133383972Y-70313217D01*
X133222911Y-70151875D01*
X133012367Y-70064449D01*
X132784393Y-70064250D01*
X132609653Y-70136451D01*
X132448487Y-70069529D01*
X132220513Y-70069330D01*
X132164486Y-70092480D01*
X126661000Y-70092480D01*
X126661000Y-70032459D01*
X126683951Y-69977187D01*
X126684150Y-69749213D01*
X126597092Y-69538517D01*
X126436031Y-69377175D01*
X126225487Y-69289749D01*
X125997513Y-69289550D01*
X125786817Y-69376608D01*
X125625475Y-69537669D01*
X125538049Y-69748213D01*
X125537850Y-69976187D01*
X125561000Y-70032214D01*
X125561000Y-70049300D01*
X123977400Y-70049300D01*
X123917920Y-70061131D01*
X123918090Y-69866053D01*
X123831032Y-69655357D01*
X123669971Y-69494015D01*
X123459427Y-69406589D01*
X123231453Y-69406390D01*
X123082400Y-69467978D01*
X123082400Y-68718887D01*
X128870330Y-68718887D01*
X128957388Y-68929583D01*
X129118449Y-69090925D01*
X129328993Y-69178351D01*
X129556967Y-69178550D01*
X129767663Y-69091492D01*
X129929005Y-68930431D01*
X130016431Y-68719887D01*
X130016630Y-68491913D01*
X129929572Y-68281217D01*
X129768511Y-68119875D01*
X129557967Y-68032449D01*
X129329993Y-68032250D01*
X129119297Y-68119308D01*
X128957955Y-68280369D01*
X128870529Y-68490913D01*
X128870330Y-68718887D01*
X123082400Y-68718887D01*
X123082400Y-67550487D01*
X128357250Y-67550487D01*
X128444308Y-67761183D01*
X128605369Y-67922525D01*
X128815913Y-68009951D01*
X129043887Y-68010150D01*
X129254583Y-67923092D01*
X129415925Y-67762031D01*
X129451030Y-67677487D01*
X132154550Y-67677487D01*
X132241608Y-67888183D01*
X132402669Y-68049525D01*
X132613213Y-68136951D01*
X132841187Y-68137150D01*
X133051883Y-68050092D01*
X133213225Y-67889031D01*
X133232820Y-67841841D01*
X133392993Y-67908351D01*
X133620967Y-67908550D01*
X133831663Y-67821492D01*
X133993005Y-67660431D01*
X134080431Y-67449887D01*
X134080630Y-67221913D01*
X133993572Y-67011217D01*
X133832511Y-66849875D01*
X133621967Y-66762449D01*
X133393993Y-66762250D01*
X133183297Y-66849308D01*
X133021955Y-67010369D01*
X133002360Y-67057559D01*
X132842187Y-66991049D01*
X132614213Y-66990850D01*
X132403517Y-67077908D01*
X132242175Y-67238969D01*
X132154749Y-67449513D01*
X132154550Y-67677487D01*
X129451030Y-67677487D01*
X129503351Y-67551487D01*
X129503550Y-67323513D01*
X129416492Y-67112817D01*
X129255431Y-66951475D01*
X129044887Y-66864049D01*
X128816913Y-66863850D01*
X128606217Y-66950908D01*
X128444875Y-67111969D01*
X128357449Y-67322513D01*
X128357250Y-67550487D01*
X123082400Y-67550487D01*
X123082400Y-66754900D01*
X135801523Y-66754900D01*
X135801523Y-68454900D01*
X135824807Y-68571954D01*
X135891112Y-68671188D01*
X135990346Y-68737493D01*
X136107400Y-68760777D01*
X137307400Y-68760777D01*
X137424454Y-68737493D01*
X137523688Y-68671188D01*
X137589993Y-68571954D01*
X137613277Y-68454900D01*
X137613277Y-67332370D01*
X137807400Y-67332370D01*
X137807400Y-67877430D01*
X137875908Y-68221845D01*
X138071004Y-68513826D01*
X138362985Y-68708922D01*
X138707400Y-68777430D01*
X139051815Y-68708922D01*
X139343796Y-68513826D01*
X139538892Y-68221845D01*
X139607400Y-67877430D01*
X139607400Y-67332370D01*
X139807400Y-67332370D01*
X139807400Y-67877430D01*
X139875908Y-68221845D01*
X140071004Y-68513826D01*
X140362985Y-68708922D01*
X140707400Y-68777430D01*
X141051815Y-68708922D01*
X141343796Y-68513826D01*
X141538892Y-68221845D01*
X141607400Y-67877430D01*
X141607400Y-67332370D01*
X141807400Y-67332370D01*
X141807400Y-67877430D01*
X141875908Y-68221845D01*
X142071004Y-68513826D01*
X142362985Y-68708922D01*
X142707400Y-68777430D01*
X143051815Y-68708922D01*
X143343796Y-68513826D01*
X143538892Y-68221845D01*
X143607400Y-67877430D01*
X143607400Y-67332370D01*
X143807400Y-67332370D01*
X143807400Y-67877430D01*
X143875908Y-68221845D01*
X144071004Y-68513826D01*
X144362985Y-68708922D01*
X144707400Y-68777430D01*
X145051815Y-68708922D01*
X145343796Y-68513826D01*
X145538892Y-68221845D01*
X145607400Y-67877430D01*
X145607400Y-67332370D01*
X145807400Y-67332370D01*
X145807400Y-67877430D01*
X145875908Y-68221845D01*
X146071004Y-68513826D01*
X146362985Y-68708922D01*
X146707400Y-68777430D01*
X147051815Y-68708922D01*
X147343796Y-68513826D01*
X147538892Y-68221845D01*
X147607400Y-67877430D01*
X147607400Y-67332370D01*
X147538892Y-66987955D01*
X147343796Y-66695974D01*
X147051815Y-66500878D01*
X146707400Y-66432370D01*
X146362985Y-66500878D01*
X146071004Y-66695974D01*
X145875908Y-66987955D01*
X145807400Y-67332370D01*
X145607400Y-67332370D01*
X145538892Y-66987955D01*
X145343796Y-66695974D01*
X145051815Y-66500878D01*
X144707400Y-66432370D01*
X144362985Y-66500878D01*
X144071004Y-66695974D01*
X143875908Y-66987955D01*
X143807400Y-67332370D01*
X143607400Y-67332370D01*
X143538892Y-66987955D01*
X143343796Y-66695974D01*
X143051815Y-66500878D01*
X142707400Y-66432370D01*
X142362985Y-66500878D01*
X142071004Y-66695974D01*
X141875908Y-66987955D01*
X141807400Y-67332370D01*
X141607400Y-67332370D01*
X141538892Y-66987955D01*
X141343796Y-66695974D01*
X141051815Y-66500878D01*
X140707400Y-66432370D01*
X140362985Y-66500878D01*
X140071004Y-66695974D01*
X139875908Y-66987955D01*
X139807400Y-67332370D01*
X139607400Y-67332370D01*
X139538892Y-66987955D01*
X139343796Y-66695974D01*
X139051815Y-66500878D01*
X138707400Y-66432370D01*
X138362985Y-66500878D01*
X138071004Y-66695974D01*
X137875908Y-66987955D01*
X137807400Y-67332370D01*
X137613277Y-67332370D01*
X137613277Y-66754900D01*
X137589993Y-66637846D01*
X137523688Y-66538612D01*
X137424454Y-66472307D01*
X137307400Y-66449023D01*
X136107400Y-66449023D01*
X135990346Y-66472307D01*
X135891112Y-66538612D01*
X135824807Y-66637846D01*
X135801523Y-66754900D01*
X123082400Y-66754900D01*
X123082400Y-66141832D01*
X123170608Y-65698381D01*
X123170570Y-65742007D01*
X123257628Y-65952703D01*
X123418689Y-66114045D01*
X123629233Y-66201471D01*
X123857207Y-66201670D01*
X124067903Y-66114612D01*
X124229245Y-65953551D01*
X124316671Y-65743007D01*
X124316870Y-65515033D01*
X124229812Y-65304337D01*
X124068751Y-65142995D01*
X123860057Y-65056337D01*
X124244332Y-64979900D01*
X148490183Y-64979900D01*
X148492812Y-69108489D01*
M02*
