G04 #@! TF.GenerationSoftware,KiCad,Pcbnew,(2017-08-25 revision dd37d0595)-makepkg*
G04 #@! TF.CreationDate,2018-04-16T21:33:21-04:00*
G04 #@! TF.ProjectId,VESC_6.4,564553435F362E342E6B696361645F70,rev?*
G04 #@! TF.SameCoordinates,Original*
G04 #@! TF.FileFunction,Paste,Top*
G04 #@! TF.FilePolarity,Positive*
%FSLAX46Y46*%
G04 Gerber Fmt 4.6, Leading zero omitted, Abs format (unit mm)*
G04 Created by KiCad (PCBNEW (2017-08-25 revision dd37d0595)-makepkg) date 04/16/18 21:33:21*
%MOMM*%
%LPD*%
G01*
G04 APERTURE LIST*
%ADD10R,1.550000X0.300000*%
%ADD11R,3.610000X6.350000*%
%ADD12R,2.500000X1.800000*%
%ADD13R,1.200000X0.900000*%
%ADD14R,6.500000X6.500000*%
%ADD15R,0.800000X0.750000*%
%ADD16R,0.750000X0.800000*%
%ADD17R,2.500000X1.000000*%
%ADD18C,0.750000*%
%ADD19C,0.100000*%
%ADD20R,2.850000X6.600000*%
%ADD21C,0.500000*%
%ADD22R,1.100000X1.700000*%
%ADD23R,1.100000X0.850000*%
%ADD24R,0.700000X1.300000*%
%ADD25R,1.700000X1.100000*%
%ADD26R,0.850000X1.100000*%
%ADD27R,1.300000X0.700000*%
%ADD28R,0.900000X0.500000*%
%ADD29R,0.500000X0.900000*%
%ADD30R,1.000000X0.250000*%
%ADD31R,0.250000X1.000000*%
%ADD32O,0.300000X0.550000*%
%ADD33R,0.300000X0.200000*%
%ADD34R,1.000000X0.650000*%
%ADD35C,0.300000*%
%ADD36R,0.525000X0.480000*%
%ADD37R,0.200000X0.550000*%
%ADD38R,0.550000X0.200000*%
G04 APERTURE END LIST*
D10*
X142548300Y-78124100D03*
X135048300Y-78124100D03*
X142548300Y-78624100D03*
X135048300Y-78624100D03*
X142548300Y-79124100D03*
X135048300Y-79124100D03*
X142548300Y-79624100D03*
X135048300Y-79624100D03*
X142548300Y-80124100D03*
X135048300Y-80124100D03*
X142548300Y-80624100D03*
X135048300Y-80624100D03*
X142548300Y-81124100D03*
X135048300Y-81124100D03*
X142548300Y-81624100D03*
X135048300Y-81624100D03*
X142548300Y-82124100D03*
X135048300Y-82124100D03*
X142548300Y-82624100D03*
X135048300Y-82624100D03*
X142548300Y-83124100D03*
X135048300Y-83124100D03*
X142548300Y-83624100D03*
X135048300Y-83624100D03*
X142548300Y-84124100D03*
X135048300Y-84124100D03*
X142548300Y-84624100D03*
X135048300Y-84624100D03*
X142548300Y-85124100D03*
X135048300Y-85124100D03*
X142548300Y-85624100D03*
X135048300Y-85624100D03*
X142548300Y-86124100D03*
X135048300Y-86124100D03*
X142548300Y-86624100D03*
X135048300Y-86624100D03*
X142548300Y-87124100D03*
X135048300Y-87124100D03*
X142548300Y-87624100D03*
X135048300Y-87624100D03*
X142548300Y-88124100D03*
X135048300Y-88124100D03*
X142548300Y-88624100D03*
X135048300Y-88624100D03*
X142548300Y-89124100D03*
X135048300Y-89124100D03*
X142548300Y-89624100D03*
X135048300Y-89624100D03*
X142548300Y-90124100D03*
X135048300Y-90124100D03*
X142548300Y-90624100D03*
X135048300Y-90624100D03*
X142548300Y-91124100D03*
X135048300Y-91124100D03*
X142548300Y-91624100D03*
X135048300Y-91624100D03*
D11*
X138798300Y-84874100D03*
D12*
X129114300Y-72072500D03*
X125114300Y-72072500D03*
D13*
X144637760Y-73364360D03*
X144637760Y-70064360D03*
D14*
X166707400Y-96104900D03*
D15*
X132664900Y-107759500D03*
X131164900Y-107759500D03*
X130568000Y-66459100D03*
X132068000Y-66459100D03*
X146063400Y-109766100D03*
X144563400Y-109766100D03*
X132644580Y-105011220D03*
X131144580Y-105011220D03*
D16*
X144145000Y-95263400D03*
X144145000Y-93763400D03*
D15*
X131157280Y-106382820D03*
X132657280Y-106382820D03*
X132461700Y-99606100D03*
X130961700Y-99606100D03*
D16*
X147523200Y-96747900D03*
X147523200Y-98247900D03*
D15*
X132169600Y-83223100D03*
X130669600Y-83223100D03*
X129476380Y-79886912D03*
X127976380Y-79886912D03*
X130669600Y-84582000D03*
X132169600Y-84582000D03*
X129463680Y-77016712D03*
X127963680Y-77016712D03*
X131088700Y-87922100D03*
X132588700Y-87922100D03*
X130644200Y-86169500D03*
X132144200Y-86169500D03*
D16*
X132727700Y-90793000D03*
X132727700Y-89293000D03*
D17*
X146672300Y-92086300D03*
X146672300Y-95086300D03*
D16*
X144284700Y-78131100D03*
X144284700Y-76631100D03*
D15*
X144665000Y-82486500D03*
X146165000Y-82486500D03*
X146165000Y-84975700D03*
X144665000Y-84975700D03*
X144677700Y-87477600D03*
X146177700Y-87477600D03*
X146165000Y-81026000D03*
X144665000Y-81026000D03*
D17*
X146621500Y-76287500D03*
X146621500Y-79287500D03*
D16*
X133477000Y-70498400D03*
X133477000Y-68998400D03*
D17*
X132600700Y-71906000D03*
X132600700Y-74906000D03*
D15*
X130961700Y-98221800D03*
X132461700Y-98221800D03*
X131106480Y-111099600D03*
X132606480Y-111099600D03*
D16*
X130124200Y-115799300D03*
X130124200Y-114299300D03*
D18*
X143627370Y-115262130D03*
D19*
G36*
X143609692Y-115810138D02*
X143079362Y-115279808D01*
X143645048Y-114714122D01*
X144175378Y-115244452D01*
X143609692Y-115810138D01*
X143609692Y-115810138D01*
G37*
D18*
X144688030Y-114201470D03*
D19*
G36*
X144670352Y-114749478D02*
X144140022Y-114219148D01*
X144705708Y-113653462D01*
X145236038Y-114183792D01*
X144670352Y-114749478D01*
X144670352Y-114749478D01*
G37*
D18*
X136634750Y-117859070D03*
D19*
G36*
X137182758Y-117876748D02*
X136652428Y-118407078D01*
X136086742Y-117841392D01*
X136617072Y-117311062D01*
X137182758Y-117876748D01*
X137182758Y-117876748D01*
G37*
D18*
X137695410Y-118919730D03*
D19*
G36*
X138243418Y-118937408D02*
X137713088Y-119467738D01*
X137147402Y-118902052D01*
X137677732Y-118371722D01*
X138243418Y-118937408D01*
X138243418Y-118937408D01*
G37*
D18*
X142484370Y-114131830D03*
D19*
G36*
X142502048Y-113583822D02*
X143032378Y-114114152D01*
X142466692Y-114679838D01*
X141936362Y-114149508D01*
X142502048Y-113583822D01*
X142502048Y-113583822D01*
G37*
D18*
X143545030Y-113071170D03*
D19*
G36*
X143562708Y-112523162D02*
X144093038Y-113053492D01*
X143527352Y-113619178D01*
X142997022Y-113088848D01*
X143562708Y-112523162D01*
X143562708Y-112523162D01*
G37*
D18*
X144452870Y-118176570D03*
D19*
G36*
X143904862Y-118158892D02*
X144435192Y-117628562D01*
X145000878Y-118194248D01*
X144470548Y-118724578D01*
X143904862Y-118158892D01*
X143904862Y-118158892D01*
G37*
D18*
X145513530Y-119237230D03*
D19*
G36*
X144965522Y-119219552D02*
X145495852Y-118689222D01*
X146061538Y-119254908D01*
X145531208Y-119785238D01*
X144965522Y-119219552D01*
X144965522Y-119219552D01*
G37*
D18*
X140674830Y-122005830D03*
D19*
G36*
X141222838Y-122023508D02*
X140692508Y-122553838D01*
X140126822Y-121988152D01*
X140657152Y-121457822D01*
X141222838Y-122023508D01*
X141222838Y-122023508D01*
G37*
D18*
X139614170Y-120945170D03*
D19*
G36*
X140162178Y-120962848D02*
X139631848Y-121493178D01*
X139066162Y-120927492D01*
X139596492Y-120397162D01*
X140162178Y-120962848D01*
X140162178Y-120962848D01*
G37*
D18*
X138661670Y-121910370D03*
D19*
G36*
X139209678Y-121928048D02*
X138679348Y-122458378D01*
X138113662Y-121892692D01*
X138643992Y-121362362D01*
X139209678Y-121928048D01*
X139209678Y-121928048D01*
G37*
D18*
X139722330Y-122971030D03*
D19*
G36*
X140270338Y-122988708D02*
X139740008Y-123519038D01*
X139174322Y-122953352D01*
X139704652Y-122423022D01*
X140270338Y-122988708D01*
X140270338Y-122988708D01*
G37*
D18*
X146227800Y-122097800D03*
D19*
G36*
X146775808Y-122115478D02*
X146245478Y-122645808D01*
X145679792Y-122080122D01*
X146210122Y-121549792D01*
X146775808Y-122115478D01*
X146775808Y-122115478D01*
G37*
D18*
X147288460Y-123158460D03*
D19*
G36*
X147836468Y-123176138D02*
X147306138Y-123706468D01*
X146740452Y-123140782D01*
X147270782Y-122610452D01*
X147836468Y-123176138D01*
X147836468Y-123176138D01*
G37*
D18*
X147545530Y-121269230D03*
D19*
G36*
X148093538Y-121286908D02*
X147563208Y-121817238D01*
X146997522Y-121251552D01*
X147527852Y-120721222D01*
X148093538Y-121286908D01*
X148093538Y-121286908D01*
G37*
D18*
X146484870Y-120208570D03*
D19*
G36*
X147032878Y-120226248D02*
X146502548Y-120756578D01*
X145936862Y-120190892D01*
X146467192Y-119660562D01*
X147032878Y-120226248D01*
X147032878Y-120226248D01*
G37*
D16*
X129827020Y-89303160D03*
X129827020Y-90803160D03*
X131216400Y-90805700D03*
X131216400Y-89305700D03*
X128485900Y-89305700D03*
X128485900Y-90805700D03*
D20*
X141623300Y-73025000D03*
X135973300Y-73025000D03*
D21*
X143329130Y-119192570D03*
D19*
G36*
X143187709Y-118697595D02*
X143824105Y-119333991D01*
X143470551Y-119687545D01*
X142834155Y-119051149D01*
X143187709Y-118697595D01*
X143187709Y-118697595D01*
G37*
D21*
X142268470Y-120253230D03*
D19*
G36*
X142127049Y-119758255D02*
X142763445Y-120394651D01*
X142409891Y-120748205D01*
X141773495Y-120111809D01*
X142127049Y-119758255D01*
X142127049Y-119758255D01*
G37*
D21*
X144310100Y-120180100D03*
D19*
G36*
X144805075Y-120038679D02*
X144168679Y-120675075D01*
X143815125Y-120321521D01*
X144451521Y-119685125D01*
X144805075Y-120038679D01*
X144805075Y-120038679D01*
G37*
D21*
X145370760Y-121240760D03*
D19*
G36*
X145865735Y-121099339D02*
X145229339Y-121735735D01*
X144875785Y-121382181D01*
X145512181Y-120745785D01*
X145865735Y-121099339D01*
X145865735Y-121099339D01*
G37*
D21*
X142357370Y-122463030D03*
D19*
G36*
X142215949Y-121968055D02*
X142852345Y-122604451D01*
X142498791Y-122958005D01*
X141862395Y-122321609D01*
X142215949Y-121968055D01*
X142215949Y-121968055D01*
G37*
D21*
X143418030Y-121402370D03*
D19*
G36*
X143276609Y-120907395D02*
X143913005Y-121543791D01*
X143559451Y-121897345D01*
X142923055Y-121260949D01*
X143276609Y-120907395D01*
X143276609Y-120907395D01*
G37*
D22*
X159857400Y-84404900D03*
X159857400Y-88804900D03*
X159857400Y-86604900D03*
X150557400Y-88804900D03*
X150557400Y-84404900D03*
X150557400Y-86604900D03*
D23*
X157007400Y-88329900D03*
X154207400Y-88329900D03*
X157007400Y-84879900D03*
X154207400Y-84879900D03*
X157007400Y-86029900D03*
X157007400Y-87179900D03*
X154207400Y-87179900D03*
X154207400Y-86029900D03*
D24*
X152807400Y-86604900D03*
D25*
X153007400Y-69954900D03*
X157407400Y-69954900D03*
X155207400Y-69954900D03*
X157407400Y-79254900D03*
X153007400Y-79254900D03*
X155207400Y-79254900D03*
D26*
X156932400Y-72804900D03*
X156932400Y-75604900D03*
X153482400Y-72804900D03*
X153482400Y-75604900D03*
X154632400Y-72804900D03*
X155782400Y-72804900D03*
X155782400Y-75604900D03*
X154632400Y-75604900D03*
D27*
X155207400Y-77004900D03*
D24*
X164307400Y-86604900D03*
D23*
X165707400Y-86029900D03*
X165707400Y-87179900D03*
X168507400Y-87179900D03*
X168507400Y-86029900D03*
X165707400Y-84879900D03*
X168507400Y-84879900D03*
X165707400Y-88329900D03*
X168507400Y-88329900D03*
D22*
X162057400Y-86604900D03*
X162057400Y-84404900D03*
X162057400Y-88804900D03*
X171357400Y-86604900D03*
X171357400Y-88804900D03*
X171357400Y-84404900D03*
D27*
X166707400Y-77004900D03*
D26*
X166132400Y-75604900D03*
X167282400Y-75604900D03*
X167282400Y-72804900D03*
X166132400Y-72804900D03*
X164982400Y-75604900D03*
X164982400Y-72804900D03*
X168432400Y-75604900D03*
X168432400Y-72804900D03*
D25*
X166707400Y-79254900D03*
X164507400Y-79254900D03*
X168907400Y-79254900D03*
X166707400Y-69954900D03*
X168907400Y-69954900D03*
X164507400Y-69954900D03*
D24*
X175807400Y-86604900D03*
D23*
X177207400Y-86029900D03*
X177207400Y-87179900D03*
X180007400Y-87179900D03*
X180007400Y-86029900D03*
X177207400Y-84879900D03*
X180007400Y-84879900D03*
X177207400Y-88329900D03*
X180007400Y-88329900D03*
D22*
X173557400Y-86604900D03*
X173557400Y-84404900D03*
X173557400Y-88804900D03*
X182857400Y-86604900D03*
X182857400Y-88804900D03*
X182857400Y-84404900D03*
D25*
X176007400Y-69954900D03*
X180407400Y-69954900D03*
X178207400Y-69954900D03*
X180407400Y-79254900D03*
X176007400Y-79254900D03*
X178207400Y-79254900D03*
D26*
X179932400Y-72804900D03*
X179932400Y-75604900D03*
X176482400Y-72804900D03*
X176482400Y-75604900D03*
X177632400Y-72804900D03*
X178782400Y-72804900D03*
X178782400Y-75604900D03*
X177632400Y-75604900D03*
D27*
X178207400Y-77004900D03*
D28*
X129044700Y-66344100D03*
X129044700Y-67844100D03*
X127584200Y-67844100D03*
X127584200Y-66344100D03*
X126111000Y-66356800D03*
X126111000Y-67856800D03*
D29*
X132677600Y-109194600D03*
X131177600Y-109194600D03*
X132029900Y-67906900D03*
X130529900Y-67906900D03*
X132309300Y-78790800D03*
X130809300Y-78790800D03*
X130809300Y-80302100D03*
X132309300Y-80302100D03*
X127824680Y-78451812D03*
X129324680Y-78451812D03*
X132283900Y-77025500D03*
X130783900Y-77025500D03*
X132296600Y-81813400D03*
X130796600Y-81813400D03*
D28*
X148501100Y-87872000D03*
X148501100Y-86372000D03*
X128808480Y-117283800D03*
X128808480Y-118783800D03*
D21*
X146415230Y-118119630D03*
D19*
G36*
X146910205Y-117978209D02*
X146273809Y-118614605D01*
X145920255Y-118261051D01*
X146556651Y-117624655D01*
X146910205Y-117978209D01*
X146910205Y-117978209D01*
G37*
D21*
X145354570Y-117058970D03*
D19*
G36*
X145849545Y-116917549D02*
X145213149Y-117553945D01*
X144859595Y-117200391D01*
X145495991Y-116563995D01*
X145849545Y-116917549D01*
X145849545Y-116917549D01*
G37*
D28*
X148501100Y-83806600D03*
X148501100Y-85306600D03*
D30*
X145958800Y-98802500D03*
X145958800Y-99302500D03*
X145958800Y-99802500D03*
X145958800Y-100302500D03*
X145958800Y-100802500D03*
X145958800Y-101302500D03*
X145958800Y-101802500D03*
X145958800Y-102302500D03*
X145958800Y-102802500D03*
X145958800Y-103302500D03*
X145958800Y-103802500D03*
X145958800Y-104302500D03*
X145958800Y-104802500D03*
X145958800Y-105302500D03*
X145958800Y-105802500D03*
X145958800Y-106302500D03*
D31*
X144008800Y-108252500D03*
X143508800Y-108252500D03*
X143008800Y-108252500D03*
X142508800Y-108252500D03*
X142008800Y-108252500D03*
X141508800Y-108252500D03*
X141008800Y-108252500D03*
X140508800Y-108252500D03*
X140008800Y-108252500D03*
X139508800Y-108252500D03*
X139008800Y-108252500D03*
X138508800Y-108252500D03*
X138008800Y-108252500D03*
X137508800Y-108252500D03*
X137008800Y-108252500D03*
X136508800Y-108252500D03*
D30*
X134558800Y-106302500D03*
X134558800Y-105802500D03*
X134558800Y-105302500D03*
X134558800Y-104802500D03*
X134558800Y-104302500D03*
X134558800Y-103802500D03*
X134558800Y-103302500D03*
X134558800Y-102802500D03*
X134558800Y-102302500D03*
X134558800Y-101802500D03*
X134558800Y-101302500D03*
X134558800Y-100802500D03*
X134558800Y-100302500D03*
X134558800Y-99802500D03*
X134558800Y-99302500D03*
X134558800Y-98802500D03*
D31*
X136508800Y-96852500D03*
X137008800Y-96852500D03*
X137508800Y-96852500D03*
X138008800Y-96852500D03*
X138508800Y-96852500D03*
X139008800Y-96852500D03*
X139508800Y-96852500D03*
X140008800Y-96852500D03*
X140508800Y-96852500D03*
X141008800Y-96852500D03*
X141508800Y-96852500D03*
X142008800Y-96852500D03*
X142508800Y-96852500D03*
X143008800Y-96852500D03*
X143508800Y-96852500D03*
X144008800Y-96852500D03*
D32*
X133636500Y-112793600D03*
X132986500Y-112793600D03*
D33*
X132336500Y-112593600D03*
D32*
X131686500Y-112793600D03*
X131686500Y-115893600D03*
X132336500Y-115893600D03*
D33*
X132986500Y-116093600D03*
X133636500Y-116093600D03*
D34*
X133286500Y-113893600D03*
X133286500Y-114793600D03*
X132036500Y-113893600D03*
X132036500Y-114793600D03*
D33*
X133636500Y-112593600D03*
X132986500Y-112593600D03*
D32*
X132336500Y-112793600D03*
D33*
X131686500Y-112593600D03*
X131686500Y-116093600D03*
X132336500Y-116093600D03*
D32*
X132986500Y-115893600D03*
X133636500Y-115893600D03*
D18*
X140505589Y-116041899D03*
D19*
G36*
X139975259Y-116041899D02*
X140505589Y-115511569D01*
X141035919Y-116041899D01*
X140505589Y-116572229D01*
X139975259Y-116041899D01*
X139975259Y-116041899D01*
G37*
D18*
X139621706Y-116925782D03*
D19*
G36*
X139091376Y-116925782D02*
X139621706Y-116395452D01*
X140152036Y-116925782D01*
X139621706Y-117456112D01*
X139091376Y-116925782D01*
X139091376Y-116925782D01*
G37*
D18*
X141389472Y-116925782D03*
D19*
G36*
X140859142Y-116925782D02*
X141389472Y-116395452D01*
X141919802Y-116925782D01*
X141389472Y-117456112D01*
X140859142Y-116925782D01*
X140859142Y-116925782D01*
G37*
D18*
X140505589Y-117809665D03*
D19*
G36*
X139975259Y-117809665D02*
X140505589Y-117279335D01*
X141035919Y-117809665D01*
X140505589Y-118339995D01*
X139975259Y-117809665D01*
X139975259Y-117809665D01*
G37*
D35*
X141187947Y-114829210D03*
D19*
G36*
X141035919Y-115193370D02*
X140823787Y-114981238D01*
X141339975Y-114465050D01*
X141552107Y-114677182D01*
X141035919Y-115193370D01*
X141035919Y-115193370D01*
G37*
D35*
X141541500Y-115182764D03*
D19*
G36*
X141389472Y-115546924D02*
X141177340Y-115334792D01*
X141693528Y-114818604D01*
X141905660Y-115030736D01*
X141389472Y-115546924D01*
X141389472Y-115546924D01*
G37*
D35*
X141895054Y-115536317D03*
D19*
G36*
X141743026Y-115900477D02*
X141530894Y-115688345D01*
X142047082Y-115172157D01*
X142259214Y-115384289D01*
X141743026Y-115900477D01*
X141743026Y-115900477D01*
G37*
D35*
X142248607Y-115889871D03*
D19*
G36*
X142096579Y-116254031D02*
X141884447Y-116041899D01*
X142400635Y-115525711D01*
X142612767Y-115737843D01*
X142096579Y-116254031D01*
X142096579Y-116254031D01*
G37*
D35*
X142602161Y-116243424D03*
D19*
G36*
X142450133Y-116607584D02*
X142238001Y-116395452D01*
X142754189Y-115879264D01*
X142966321Y-116091396D01*
X142450133Y-116607584D01*
X142450133Y-116607584D01*
G37*
D35*
X142602161Y-117608140D03*
D19*
G36*
X142238001Y-117456112D02*
X142450133Y-117243980D01*
X142966321Y-117760168D01*
X142754189Y-117972300D01*
X142238001Y-117456112D01*
X142238001Y-117456112D01*
G37*
D35*
X142248607Y-117961693D03*
D19*
G36*
X141884447Y-117809665D02*
X142096579Y-117597533D01*
X142612767Y-118113721D01*
X142400635Y-118325853D01*
X141884447Y-117809665D01*
X141884447Y-117809665D01*
G37*
D35*
X141895054Y-118315247D03*
D19*
G36*
X141530894Y-118163219D02*
X141743026Y-117951087D01*
X142259214Y-118467275D01*
X142047082Y-118679407D01*
X141530894Y-118163219D01*
X141530894Y-118163219D01*
G37*
D35*
X141541500Y-118668800D03*
D19*
G36*
X141177340Y-118516772D02*
X141389472Y-118304640D01*
X141905660Y-118820828D01*
X141693528Y-119032960D01*
X141177340Y-118516772D01*
X141177340Y-118516772D01*
G37*
D35*
X141187947Y-119022354D03*
D19*
G36*
X140823787Y-118870326D02*
X141035919Y-118658194D01*
X141552107Y-119174382D01*
X141339975Y-119386514D01*
X140823787Y-118870326D01*
X140823787Y-118870326D01*
G37*
D35*
X139823231Y-119022354D03*
D19*
G36*
X139671203Y-119386514D02*
X139459071Y-119174382D01*
X139975259Y-118658194D01*
X140187391Y-118870326D01*
X139671203Y-119386514D01*
X139671203Y-119386514D01*
G37*
D35*
X139469678Y-118668800D03*
D19*
G36*
X139317650Y-119032960D02*
X139105518Y-118820828D01*
X139621706Y-118304640D01*
X139833838Y-118516772D01*
X139317650Y-119032960D01*
X139317650Y-119032960D01*
G37*
D35*
X139116124Y-118315247D03*
D19*
G36*
X138964096Y-118679407D02*
X138751964Y-118467275D01*
X139268152Y-117951087D01*
X139480284Y-118163219D01*
X138964096Y-118679407D01*
X138964096Y-118679407D01*
G37*
D35*
X138762571Y-117961693D03*
D19*
G36*
X138610543Y-118325853D02*
X138398411Y-118113721D01*
X138914599Y-117597533D01*
X139126731Y-117809665D01*
X138610543Y-118325853D01*
X138610543Y-118325853D01*
G37*
D35*
X138409017Y-117608140D03*
D19*
G36*
X138256989Y-117972300D02*
X138044857Y-117760168D01*
X138561045Y-117243980D01*
X138773177Y-117456112D01*
X138256989Y-117972300D01*
X138256989Y-117972300D01*
G37*
D35*
X138409017Y-116243424D03*
D19*
G36*
X138044857Y-116091396D02*
X138256989Y-115879264D01*
X138773177Y-116395452D01*
X138561045Y-116607584D01*
X138044857Y-116091396D01*
X138044857Y-116091396D01*
G37*
D35*
X138762571Y-115889871D03*
D19*
G36*
X138398411Y-115737843D02*
X138610543Y-115525711D01*
X139126731Y-116041899D01*
X138914599Y-116254031D01*
X138398411Y-115737843D01*
X138398411Y-115737843D01*
G37*
D35*
X139116124Y-115536317D03*
D19*
G36*
X138751964Y-115384289D02*
X138964096Y-115172157D01*
X139480284Y-115688345D01*
X139268152Y-115900477D01*
X138751964Y-115384289D01*
X138751964Y-115384289D01*
G37*
D35*
X139469678Y-115182764D03*
D19*
G36*
X139105518Y-115030736D02*
X139317650Y-114818604D01*
X139833838Y-115334792D01*
X139621706Y-115546924D01*
X139105518Y-115030736D01*
X139105518Y-115030736D01*
G37*
D35*
X139823231Y-114829210D03*
D19*
G36*
X139459071Y-114677182D02*
X139671203Y-114465050D01*
X140187391Y-114981238D01*
X139975259Y-115193370D01*
X139459071Y-114677182D01*
X139459071Y-114677182D01*
G37*
D36*
X130483000Y-93960900D03*
X130483000Y-93160900D03*
X129613000Y-93960900D03*
X129613000Y-93160900D03*
D37*
X131048000Y-95060900D03*
X130648000Y-95060900D03*
X130248000Y-95060900D03*
X129848000Y-95060900D03*
X129448000Y-95060900D03*
X129048000Y-95060900D03*
D38*
X128548000Y-94560900D03*
X128548000Y-94160900D03*
X128548000Y-93760900D03*
X128548000Y-93360900D03*
X128548000Y-92960900D03*
X128548000Y-92560900D03*
D37*
X129048000Y-92060900D03*
X129448000Y-92060900D03*
X129848000Y-92060900D03*
X130248000Y-92060900D03*
X130648000Y-92060900D03*
X131048000Y-92060900D03*
D38*
X131548000Y-92560900D03*
X131548000Y-92960900D03*
X131548000Y-93360900D03*
X131548000Y-93760900D03*
X131548000Y-94160900D03*
X131548000Y-94560900D03*
M02*
